<svg width="846" height="642" viewBox="0 0 846 642" xmlns="http://www.w3.org/2000/svg"><title>Slice 1</title><g fill="none" fill-rule="evenodd"><g fill-rule="nonzero"><path d="M844.9 379.8l-.1 19L425 640.2v-19z" stroke="#D0D4E8" fill="#F1F5FF"/><path d="M844.9 379.8L425 621.2 1.2 376.5l419.9-241.4z" stroke="#D0D4E8" fill="#FFF"/><path d="M425 621.2v19L1.2 395.5v-19z" stroke="#D0D4E8" fill="#FBFCFF"/><path d="M802.8 379.6l-378 217.3L43.3 376.6l378-217.2z" opacity=".4" fill="#BFF4EB"/></g><path d="M132 388.3l-13.3 7.2c-6 3.3-6.2 11.9-.2 15.4L355.6 549c7.5 4.3 16.7 4.2 24.1-.3l13.7-9.5m-154.1-62.4l23-13" stroke="#00D5D6" stroke-width="2" stroke-linecap="round" stroke-linejoin="bevel"/><path d="M239.3 476.1c-2.5-1.5-6.7-1.5-9.2 0-2.5 1.5-2.5 3.8 0 5.3s6.6 1.5 9.2 0c2.6-1.4 2.6-3.8 0-5.3" fill-rule="nonzero" fill="#00D5D6"/><path d="M477.3 41.5L407 .9v188.8l70.3 40.6z" stroke="#D0D4E8" fill-rule="nonzero" fill="#FBFCFC" stroke-linecap="round" stroke-linejoin="bevel"/><g fill-rule="nonzero"><path d="M473.6 204.3l-65.3 38-65.7-38 65.3-37.9z" fill="#FFF"/><path fill="#F1F5FF" d="M473.6 204.3l-.1 27.2-65.3 37.9.1-27.1z"/><path d="M450.5 229.6l-37.4 21.8c-.7.4-1.2 1.3-1.2 2.1v.4c0 .8.5 1.1 1.2.7l37.4-21.8c.7-.4 1.2-1.3 1.2-2.1v-.4c0-.7-.6-1-1.2-.7" stroke="#8E8E8E" fill="#ACAFC3"/><path d="M459.5 222l-2.2 1.3c-1.1.7-2.1 2.3-2.1 3.6v2.5c0 1.3.9 1.9 2.1 1.2l2.2-1.3c1.1-.7 2.1-2.3 2.1-3.6v-2.5c0-1.3-.9-1.9-2.1-1.2" stroke="#7389FC" fill="#C5D9FB"/><path d="M468.6 216.7l-2.2 1.3c-1.1.7-2.1 2.3-2.1 3.6v2.5c0 1.3.9 1.9 2.1 1.2l2.2-1.3c1.1-.7 2.1-2.3 2.1-3.6v-2.5c0-1.3-.9-1.8-2.1-1.2" stroke="#EBC300" fill="#F8E585"/><path d="M408.3 242.3l-.1 27.1-65.7-37.9.1-27.2z" fill="#FBFCFF"/></g><path stroke="#D0D4E8" d="M408.3 242.3v27.1l65.2-37.9.1-27.2zm-65.7-38l65.7 38v27.1l-65.8-37.9zm131 0l-65.7-37.9-65.3 37.9"/><g fill-rule="nonzero"><path d="M473.6 173.4l-65.3 37.9-65.7-37.9 65.3-38z" fill="#FFF"/><path fill="#F1F5FF" d="M473.6 173.4l-.1 27.2-65.3 37.9.1-27.2z"/><path d="M450.5 198.7l-37.4 21.8c-.7.4-1.2 1.3-1.2 2.1v.4c0 .8.5 1.1 1.2.7l37.4-21.8c.7-.4 1.2-1.3 1.2-2.1v-.4c0-.8-.6-1.1-1.2-.7" stroke="#8E8E8E" fill="#ACAFC3"/><path d="M459.5 191.1l-2.2 1.3c-1.1.7-2.1 2.3-2.1 3.6v2.5c0 1.3.9 1.9 2.1 1.2l2.2-1.3c1.1-.7 2.1-2.3 2.1-3.6v-2.5c0-1.4-.9-1.9-2.1-1.2" stroke="#7389FC" fill="#C5D9FB"/><path d="M468.6 185.8l-2.2 1.3c-1.1.7-2.1 2.3-2.1 3.6v2.5c0 1.3.9 1.9 2.1 1.2l2.2-1.3c1.1-.7 2.1-2.3 2.1-3.6V187c0-1.4-.9-1.9-2.1-1.2" stroke="#EBC300" fill="#F8E585"/><path d="M408.3 211.3l-.1 27.2-65.7-37.9.1-27.2z" fill="#FBFCFF"/></g><path stroke="#D0D4E8" d="M408.3 211.3v27.2l65.2-37.9.1-27.2zm-65.7-37.9l65.7 37.9v27.2l-65.8-37.9zm131 0l-65.7-38-65.3 38"/><g fill-rule="nonzero"><path d="M473.6 142.4l-65.3 38-65.7-38 65.3-37.9z" fill="#FFF"/><path fill="#F1F5FF" d="M473.6 142.4l-.1 27.2-65.3 37.9.1-27.1z"/><path d="M450.5 167.7l-37.4 21.8c-.7.4-1.2 1.3-1.2 2.1v.4c0 .8.5 1.1 1.2.7l37.4-21.8c.7-.4 1.2-1.3 1.2-2.1v-.4c0-.7-.6-1-1.2-.7" stroke="#8E8E8E" fill="#ACAFC3"/><path d="M459.5 160.1l-2.2 1.3c-1.1.7-2.1 2.3-2.1 3.6v2.5c0 1.3.9 1.9 2.1 1.2l2.2-1.3c1.1-.7 2.1-2.3 2.1-3.6v-2.5c0-1.3-.9-1.9-2.1-1.2" stroke="#7389FC" fill="#C5D9FB"/><path d="M468.6 154.8l-2.2 1.3c-1.1.7-2.1 2.3-2.1 3.6v2.5c0 1.3.9 1.9 2.1 1.2l2.2-1.3c1.1-.7 2.1-2.3 2.1-3.6V156c0-1.3-.9-1.8-2.1-1.2" stroke="#EBC300" fill="#F8E585"/><path d="M408.3 180.4l-.1 27.1-65.7-37.9.1-27.2z" fill="#FBFCFF"/></g><path stroke="#D0D4E8" d="M408.3 180.4v27.1l65.2-37.9.1-27.2zm-65.7-38l65.7 38v27.1l-65.8-37.9zm131 0l-65.7-37.9-65.3 37.9"/><g fill-rule="nonzero"><path d="M473.6 111.5l-65.3 37.9-65.7-37.9 65.3-38z" fill="#FFF"/><path fill="#F1F5FF" d="M473.6 111.5l-.1 27.2-65.3 37.9.1-27.2z"/><path d="M450.5 136.8l-37.4 21.8c-.7.4-1.2 1.3-1.2 2.1v.4c0 .8.5 1.1 1.2.7l37.4-21.8c.7-.4 1.2-1.3 1.2-2.1v-.4c0-.8-.6-1.1-1.2-.7" stroke="#8E8E8E" fill="#ACAFC3"/><path d="M459.5 129.1l-2.2 1.3c-1.1.7-2.1 2.3-2.1 3.6v2.5c0 1.3.9 1.9 2.1 1.2l2.2-1.3c1.1-.7 2.1-2.3 2.1-3.6v-2.5c0-1.3-.9-1.8-2.1-1.2" stroke="#7389FC" fill="#C5D9FB"/><path d="M468.6 123.9l-2.2 1.3c-1.1.7-2.1 2.3-2.1 3.6v2.5c0 1.3.9 1.9 2.1 1.2l2.2-1.3c1.1-.7 2.1-2.3 2.1-3.6v-2.5c0-1.4-.9-1.9-2.1-1.2" stroke="#EBC300" fill="#F8E585"/><path d="M408.3 149.4l-.1 27.2-65.7-38 .1-27.1z" fill="#FBFCFF"/></g><path stroke="#D0D4E8" d="M408.3 149.4v27.2l65.2-37.9.1-27.2zm-65.7-37.9l65.7 37.9v27.2l-65.8-38z"/><path stroke="#D0D4E8" d="M473.6 111.5l-65.7-38-65.3 38"/><g fill-rule="nonzero"><path d="M473.6 80.5l-65.3 38-65.7-38 65.3-37.9z" fill="#FFF"/><path fill="#F1F5FF" d="M473.6 80.5l-.1 27.2-65.3 37.9.1-27.1z"/><path d="M450.5 105.8l-37.4 21.8c-.7.4-1.2 1.3-1.2 2.1v.4c0 .8.5 1.1 1.2.7l37.4-21.8c.7-.4 1.2-1.3 1.2-2.1v-.4c0-.7-.6-1.1-1.2-.7" stroke="#8E8E8E" fill="#ACAFC3"/><path d="M459.5 98.2l-2.2 1.3c-1.1.7-2.1 2.3-2.1 3.6v2.5c0 1.3.9 1.9 2.1 1.2l2.2-1.3c1.1-.7 2.1-2.3 2.1-3.6v-2.5c0-1.3-.9-1.9-2.1-1.2" stroke="#7389FC" fill="#C5D9FB"/><path d="M468.6 92.9l-2.2 1.3c-1.1.7-2.1 2.3-2.1 3.6v2.5c0 1.3.9 1.9 2.1 1.2l2.2-1.3c1.1-.7 2.1-2.3 2.1-3.6v-2.5c0-1.3-.9-1.9-2.1-1.2" stroke="#EBC300" fill="#F8E585"/><path d="M408.3 118.5l-.1 27.1-65.7-37.9.1-27.2z" fill="#FBFCFF"/></g><path stroke="#D0D4E8" d="M408.3 118.5v27.1l65.2-37.9.1-27.2zm-65.7-38l65.7 38v27.1l-65.8-37.9z"/><path stroke="#D0D4E8" d="M473.6 80.5l-65.7-37.9-65.3 37.9"/><g fill-rule="nonzero"><path d="M473.6 49.6l-65.3 37.9-65.7-37.9 65.3-38z" fill="#FFF"/><path fill="#F1F5FF" d="M473.6 49.6l-.1 27.1-65.3 38 .1-27.2z"/><path d="M450.5 74.9l-37.4 21.8c-.7.4-1.2 1.3-1.2 2.1v.4c0 .8.5 1.1 1.2.7l37.4-21.8c.7-.4 1.2-1.3 1.2-2.1v-.4c0-.8-.6-1.1-1.2-.7" stroke="#8E8E8E" fill="#ACAFC3"/><path d="M459.5 67.2l-2.2 1.3c-1.1.7-2.1 2.3-2.1 3.6v2.5c0 1.3.9 1.9 2.1 1.2l2.2-1.3c1.1-.7 2.1-2.3 2.1-3.6v-2.5c0-1.3-.9-1.8-2.1-1.2" stroke="#7389FC" fill="#C5D9FB"/><path d="M468.6 62l-2.2 1.3c-1.1.7-2.1 2.3-2.1 3.6v2.5c0 1.3.9 1.9 2.1 1.2l2.2-1.3c1.1-.7 2.1-2.3 2.1-3.6v-2.5c0-1.4-.9-1.9-2.1-1.2" stroke="#EBC300" fill="#F8E585"/><path d="M408.3 87.5l-.1 27.2-65.7-38 .1-27.1z" fill="#FBFCFF"/></g><path stroke="#D0D4E8" d="M408.3 87.5v27.2l65.2-38 .1-27.1zm-65.7-37.9l65.7 37.9v27.2l-65.8-38zm131 0l-65.7-38-65.3 38"/><path d="M404.4 83.6L334.1 43v188.8l70.3 40.6z" stroke="#D0D4E8" fill-rule="nonzero" fill="#FBFCFC" stroke-linecap="round" stroke-linejoin="bevel"/><path stroke="#D0D4E8" fill="#FFF" fill-rule="nonzero" stroke-linecap="round" stroke-linejoin="bevel" d="M404.4 83.6l72.9-42.1L407 .9 334.1 43z"/><path d="M399.2 87.4l-70.3-40.6v188.8l70.3 40.6z" stroke="#D0D4E8" fill-rule="nonzero" fill="#FBFCFC" stroke-linecap="round" stroke-linejoin="bevel"/><g fill-rule="nonzero"><path d="M395.5 250.2l-65.3 38-65.7-38 65.3-37.9z" fill="#FFF"/><path fill="#F1F5FF" d="M395.5 250.2l-.1 27.2-65.3 38 .1-27.2z"/><path d="M372.4 275.6L335 297.3c-.7.4-1.2 1.3-1.2 2.1v.4c0 .8.5 1.1 1.2.7l37.4-21.8c.7-.4 1.2-1.3 1.2-2.1v-.4c0-.7-.5-1-1.2-.6" stroke="#8E8E8E" fill="#ACAFC3"/><path d="M381.4 267.9l-2.2 1.3c-1.1.7-2.1 2.3-2.1 3.6v2.5c0 1.3.9 1.9 2.1 1.2l2.2-1.3c1.1-.7 2.1-2.3 2.1-3.6v-2.5c0-1.3-.9-1.8-2.1-1.2" stroke="#7389FC" fill="#C5D9FB"/><path d="M390.5 262.6l-2.2 1.3c-1.1.7-2.1 2.3-2.1 3.6v2.5c0 1.3.9 1.9 2.1 1.2l2.2-1.3c1.1-.7 2.1-2.3 2.1-3.6v-2.5c0-1.3-.9-1.8-2.1-1.2" stroke="#EBC300" fill="#F8E585"/><path d="M330.2 288.2l-.1 27.2-65.7-38 .1-27.2z" fill="#FBFCFF"/></g><path stroke="#D0D4E8" d="M330.2 288.2v27.2l65.2-38 .1-27.2zm-65.7-38l65.7 38v27.2l-65.8-38zm131 0l-65.7-37.9-65.3 37.9"/><g fill-rule="nonzero"><path d="M395.5 219.3l-65.3 37.9-65.7-37.9 65.3-37.9z" fill="#FFF"/><path fill="#F1F5FF" d="M395.5 219.3l-.1 27.2-65.3 37.9.1-27.2z"/><path d="M372.4 244.6L335 266.4c-.7.4-1.2 1.3-1.2 2.1v.4c0 .8.5 1.1 1.2.7l37.4-21.8c.7-.4 1.2-1.3 1.2-2.1v-.4c0-.8-.5-1.1-1.2-.7" stroke="#8E8E8E" fill="#ACAFC3"/><path d="M381.4 237l-2.2 1.3c-1.1.7-2.1 2.3-2.1 3.6v2.5c0 1.3.9 1.9 2.1 1.2l2.2-1.3c1.1-.7 2.1-2.3 2.1-3.6v-2.5c0-1.4-.9-1.9-2.1-1.2" stroke="#7389FC" fill="#C5D9FB"/><path d="M390.5 231.7l-2.2 1.3c-1.1.7-2.1 2.3-2.1 3.6v2.5c0 1.3.9 1.9 2.1 1.2l2.2-1.3c1.1-.7 2.1-2.3 2.1-3.6v-2.5c0-1.3-.9-1.9-2.1-1.2" stroke="#EBC300" fill="#F8E585"/><path d="M330.2 257.2l-.1 27.2-65.7-37.9.1-27.2z" fill="#FBFCFF"/></g><path stroke="#D0D4E8" d="M330.2 257.2v27.2l65.2-37.9.1-27.2zm-65.7-37.9l65.7 37.9v27.2l-65.8-37.9z"/><path stroke="#D0D4E8" d="M395.5 219.3l-65.7-37.9-65.3 37.9"/><g fill-rule="nonzero"><path d="M395.5 188.3l-65.3 38-65.7-38 65.3-37.9z" fill="#FFF"/><path fill="#F1F5FF" d="M395.5 188.3l-.1 27.2-65.3 38 .1-27.2z"/><path d="M372.4 213.7L335 235.4c-.7.4-1.2 1.3-1.2 2.1v.4c0 .8.5 1.1 1.2.7l37.4-21.8c.7-.4 1.2-1.3 1.2-2.1v-.4c0-.7-.5-1-1.2-.6" stroke="#8E8E8E" fill="#ACAFC3"/><path d="M381.4 206l-2.2 1.3c-1.1.7-2.1 2.3-2.1 3.6v2.5c0 1.3.9 1.9 2.1 1.2l2.2-1.3c1.1-.7 2.1-2.3 2.1-3.6v-2.5c0-1.3-.9-1.8-2.1-1.2" stroke="#7389FC" fill="#C5D9FB"/><path d="M390.5 200.7l-2.2 1.3c-1.1.7-2.1 2.3-2.1 3.6v2.5c0 1.3.9 1.9 2.1 1.2l2.2-1.3c1.1-.7 2.1-2.3 2.1-3.6v-2.5c0-1.3-.9-1.8-2.1-1.2" stroke="#EBC300" fill="#F8E585"/><path d="M330.2 226.3l-.1 27.2-65.7-38 .1-27.2z" fill="#FBFCFF"/></g><path stroke="#D0D4E8" d="M330.2 226.3v27.2l65.2-38 .1-27.2zm-65.7-38l65.7 38v27.2l-65.8-38zm131 0l-65.7-37.9-65.3 37.9"/><g fill-rule="nonzero"><path d="M395.5 157.4l-65.3 37.9-65.7-37.9 65.3-38z" fill="#FFF"/><path fill="#F1F5FF" d="M395.5 157.4l-.1 27.2-65.3 37.9.1-27.2z"/><path d="M372.4 182.7L335 204.5c-.7.4-1.2 1.3-1.2 2.1v.4c0 .8.5 1.1 1.2.7l37.4-21.8c.7-.4 1.2-1.3 1.2-2.1v-.4c0-.8-.5-1.1-1.2-.7" stroke="#8E8E8E" fill="#ACAFC3"/><path d="M381.4 175.1l-2.2 1.3c-1.1.7-2.1 2.3-2.1 3.6v2.5c0 1.3.9 1.9 2.1 1.2l2.2-1.3c1.1-.7 2.1-2.3 2.1-3.6v-2.5c0-1.4-.9-1.9-2.1-1.2" stroke="#7389FC" fill="#C5D9FB"/><path d="M390.5 169.8l-2.2 1.3c-1.1.7-2.1 2.3-2.1 3.6v2.5c0 1.3.9 1.9 2.1 1.2l2.2-1.3c1.1-.7 2.1-2.3 2.1-3.6V171c0-1.3-.9-1.9-2.1-1.2" stroke="#EBC300" fill="#F8E585"/><path d="M330.2 195.3l-.1 27.2-65.7-37.9.1-27.2z" fill="#FBFCFF"/></g><path stroke="#D0D4E8" d="M330.2 195.3v27.2l65.2-37.9.1-27.2zm-65.7-37.9l65.7 37.9v27.2l-65.8-37.9zm131 0l-65.7-38-65.3 38"/><g fill-rule="nonzero"><path d="M395.5 126.4l-65.3 38-65.7-38 65.3-37.9z" fill="#FFF"/><path fill="#F1F5FF" d="M395.5 126.4l-.1 27.2-65.3 38 .1-27.2z"/><path d="M372.4 151.7L335 173.5c-.7.4-1.2 1.3-1.2 2.1v.4c0 .8.5 1.1 1.2.7l37.4-21.8c.7-.4 1.2-1.3 1.2-2.1v-.4c0-.7-.5-1-1.2-.7" stroke="#8E8E8E" fill="#ACAFC3"/><path d="M381.4 144.1l-2.2 1.3c-1.1.7-2.1 2.3-2.1 3.6v2.5c0 1.3.9 1.9 2.1 1.2l2.2-1.3c1.1-.7 2.1-2.3 2.1-3.6v-2.5c0-1.3-.9-1.8-2.1-1.2" stroke="#7389FC" fill="#C5D9FB"/><path d="M390.5 138.8l-2.2 1.3c-1.1.7-2.1 2.3-2.1 3.6v2.5c0 1.3.9 1.9 2.1 1.2l2.2-1.3c1.1-.7 2.1-2.3 2.1-3.6V140c0-1.3-.9-1.8-2.1-1.2" stroke="#EBC300" fill="#F8E585"/><path d="M330.2 164.4l-.1 27.2-65.7-38 .1-27.2z" fill="#FBFCFF"/></g><path stroke="#D0D4E8" d="M330.2 164.4v27.2l65.2-38 .1-27.2zm-65.7-38l65.7 38v27.2l-65.8-38z"/><path stroke="#D0D4E8" d="M395.5 126.4l-65.7-37.9-65.3 37.9"/><g fill-rule="nonzero"><path d="M395.5 95.5l-65.3 37.9-65.7-37.9 65.3-38z" fill="#FFF"/><path fill="#F1F5FF" d="M395.5 95.5l-.1 27.2-65.3 37.9.1-27.2z"/><path d="M372.4 120.8L335 142.5c-.7.4-1.2 1.3-1.2 2.1v.4c0 .8.5 1.1 1.2.7l37.4-21.8c.7-.4 1.2-1.3 1.2-2.1v-.4c0-.7-.5-1-1.2-.6" stroke="#8E8E8E" fill="#ACAFC3"/><path d="M381.4 113.2l-2.2 1.3c-1.1.7-2.1 2.3-2.1 3.6v2.5c0 1.3.9 1.9 2.1 1.2l2.2-1.3c1.1-.7 2.1-2.3 2.1-3.6v-2.5c0-1.4-.9-1.9-2.1-1.2" stroke="#7389FC" fill="#C5D9FB"/><path d="M390.5 107.9l-2.2 1.3c-1.1.7-2.1 2.3-2.1 3.6v2.5c0 1.3.9 1.9 2.1 1.2l2.2-1.3c1.1-.7 2.1-2.3 2.1-3.6v-2.5c0-1.4-.9-1.9-2.1-1.2" stroke="#EBC300" fill="#F8E585"/><path d="M330.2 133.4l-.1 27.2-65.7-37.9.1-27.2z" fill="#FBFCFF"/></g><path stroke="#D0D4E8" d="M330.2 133.4v27.2l65.2-37.9.1-27.2zm-65.7-37.9l65.7 37.9v27.2l-65.8-37.9z"/><path stroke="#D0D4E8" d="M395.5 95.5l-65.7-38-65.3 38"/><path d="M326.3 129.5L256 89v188.8l70.3 40.5z" stroke="#D0D4E8" fill-rule="nonzero" fill="#FBFCFC" stroke-linecap="round" stroke-linejoin="bevel"/><path stroke="#D0D4E8" fill="#FFF" fill-rule="nonzero" stroke-linecap="round" stroke-linejoin="bevel" d="M326.3 129.5l72.9-42.1-70.3-40.6L256 89z"/><path d="M321.1 133.1l-70.3-40.6v188.8l70.3 40.6z" stroke="#D0D4E8" fill-rule="nonzero" fill="#FBFCFC" stroke-linecap="round" stroke-linejoin="bevel"/><g fill-rule="nonzero"><path d="M317.4 295.9l-65.3 38-65.7-38 65.3-37.9z" fill="#FFF"/><path fill="#F1F5FF" d="M317.4 295.9l-.1 27.2L252 361l.1-27.1z"/><path d="M294.3 321.2L256.9 343c-.7.4-1.2 1.3-1.2 2.1v.4c0 .8.5 1.1 1.2.7l37.4-21.8c.7-.4 1.2-1.3 1.2-2.1v-.4c0-.8-.5-1.1-1.2-.7" stroke="#8E8E8E" fill="#ACAFC3"/><path d="M303.3 313.6l-2.2 1.3c-1.1.7-2.1 2.3-2.1 3.6v2.5c0 1.3.9 1.9 2.1 1.2l2.2-1.3c1.1-.7 2.1-2.3 2.1-3.6v-2.5c0-1.3-.9-1.9-2.1-1.2" stroke="#7389FC" fill="#C5D9FB"/><path d="M312.4 308.3l-2.2 1.3c-1.1.7-2.1 2.3-2.1 3.6v2.5c0 1.3.9 1.9 2.1 1.2l2.2-1.3c1.1-.7 2.1-2.3 2.1-3.6v-2.5c0-1.3-.9-1.9-2.1-1.2" stroke="#EBC300" fill="#F8E585"/><path d="M252.1 333.9L252 361l-65.7-37.9.1-27.2z" fill="#FBFCFF"/></g><path stroke="#D0D4E8" d="M252.1 333.9V361l65.2-37.9.1-27.2z"/><path stroke="#D0D4E8" d="M186.4 295.9l65.7 38V361l-65.8-37.9zm131 0L251.7 258l-65.3 37.9"/><g fill-rule="nonzero"><path d="M317.4 265l-65.3 37.9-65.7-37.9 65.3-38z" fill="#FFF"/><path fill="#F1F5FF" d="M317.4 265l-.1 27.1-65.3 38 .1-27.2z"/><path d="M294.3 290.3L256.9 312c-.7.4-1.2 1.3-1.2 2.1v.4c0 .8.5 1.1 1.2.7l37.4-21.8c.7-.4 1.2-1.3 1.2-2.1v-.4c0-.7-.5-1-1.2-.6" stroke="#8E8E8E" fill="#ACAFC3"/><path d="M303.3 282.6l-2.2 1.3c-1.1.7-2.1 2.3-2.1 3.6v2.5c0 1.3.9 1.9 2.1 1.2l2.2-1.3c1.1-.7 2.1-2.3 2.1-3.6v-2.5c0-1.3-.9-1.8-2.1-1.2" stroke="#7389FC" fill="#C5D9FB"/><path d="M312.4 277.4l-2.2 1.3c-1.1.7-2.1 2.3-2.1 3.6v2.5c0 1.3.9 1.9 2.1 1.2l2.2-1.3c1.1-.7 2.1-2.3 2.1-3.6v-2.5c0-1.4-.9-1.9-2.1-1.2" stroke="#EBC300" fill="#F8E585"/><path d="M252.1 302.9l-.1 27.2-65.7-38 .1-27.1z" fill="#FBFCFF"/></g><path stroke="#D0D4E8" d="M252.1 302.9v27.2l65.2-38 .1-27.1z"/><path stroke="#D0D4E8" d="M186.4 265l65.7 37.9v27.2l-65.8-38zm131 0l-65.7-38-65.3 38"/><g fill-rule="nonzero"><path d="M317.4 234l-65.3 37.9-65.7-37.9 65.3-37.9z" fill="#FFF"/><path fill="#F1F5FF" d="M317.4 234l-.1 27.2-65.3 37.9.1-27.2z"/><path d="M294.3 259.3l-37.4 21.8c-.7.4-1.2 1.3-1.2 2.1v.4c0 .8.5 1.1 1.2.7l37.4-21.8c.7-.4 1.2-1.3 1.2-2.1v-.4c0-.8-.5-1.1-1.2-.7" stroke="#8E8E8E" fill="#ACAFC3"/><path d="M303.3 251.7l-2.2 1.3c-1.1.7-2.1 2.3-2.1 3.6v2.5c0 1.3.9 1.9 2.1 1.2l2.2-1.3c1.1-.7 2.1-2.3 2.1-3.6v-2.5c0-1.3-.9-1.9-2.1-1.2" stroke="#7389FC" fill="#C5D9FB"/><path d="M312.4 246.4l-2.2 1.3c-1.1.7-2.1 2.3-2.1 3.6v2.5c0 1.3.9 1.9 2.1 1.2l2.2-1.3c1.1-.7 2.1-2.3 2.1-3.6v-2.5c0-1.3-.9-1.9-2.1-1.2" stroke="#EBC300" fill="#F8E585"/><path d="M252.1 271.9l-.1 27.2-65.7-37.9.1-27.2z" fill="#FBFCFF"/></g><path stroke="#D0D4E8" d="M252.1 271.9v27.2l65.2-37.9.1-27.2z"/><path stroke="#D0D4E8" d="M186.4 234l65.7 37.9v27.2l-65.8-37.9zm131 0l-65.7-37.9-65.3 37.9"/><g fill-rule="nonzero"><path d="M317.4 203.1L252.1 241l-65.7-37.9 65.3-38z" fill="#FFF"/><path fill="#F1F5FF" d="M317.4 203.1l-.1 27.1-65.3 38 .1-27.2z"/><path d="M294.3 228.4l-37.4 21.8c-.7.4-1.2 1.3-1.2 2.1v.4c0 .8.5 1.1 1.2.7l37.4-21.8c.7-.4 1.2-1.3 1.2-2.1v-.4c0-.8-.5-1.1-1.2-.7" stroke="#8E8E8E" fill="#ACAFC3"/><path d="M303.3 220.7l-2.2 1.3c-1.1.7-2.1 2.3-2.1 3.6v2.5c0 1.3.9 1.9 2.1 1.2l2.2-1.3c1.1-.7 2.1-2.3 2.1-3.6v-2.5c0-1.3-.9-1.8-2.1-1.2" stroke="#7389FC" fill="#C5D9FB"/><path d="M312.4 215.5l-2.2 1.3c-1.1.7-2.1 2.3-2.1 3.6v2.5c0 1.3.9 1.9 2.1 1.2l2.2-1.3c1.1-.7 2.1-2.3 2.1-3.6v-2.5c0-1.4-.9-1.9-2.1-1.2" stroke="#EBC300" fill="#F8E585"/><path d="M252.1 241l-.1 27.2-65.7-38 .1-27.1z" fill="#FBFCFF"/></g><path stroke="#D0D4E8" d="M252.1 241v27.2l65.2-38 .1-27.1z"/><path stroke="#D0D4E8" d="M186.4 203.1l65.7 37.9v27.2l-65.8-38zm131 0l-65.7-38-65.3 38"/><g fill-rule="nonzero"><path d="M317.4 172.1L252.1 210l-65.7-37.9 65.3-37.9z" fill="#FFF"/><path fill="#F1F5FF" d="M317.4 172.1l-.1 27.2-65.3 37.9.1-27.2z"/><path d="M294.3 197.4l-37.4 21.8c-.7.4-1.2 1.3-1.2 2.1v.4c0 .8.5 1.1 1.2.7l37.4-21.8c.7-.4 1.2-1.3 1.2-2.1v-.4c0-.8-.5-1.1-1.2-.7" stroke="#8E8E8E" fill="#ACAFC3"/><path d="M303.3 189.8l-2.2 1.3c-1.1.7-2.1 2.3-2.1 3.6v2.5c0 1.3.9 1.9 2.1 1.2l2.2-1.3c1.1-.7 2.1-2.3 2.1-3.6V191c0-1.4-.9-1.9-2.1-1.2" stroke="#7389FC" fill="#C5D9FB"/><path d="M312.4 184.5l-2.2 1.3c-1.1.7-2.1 2.3-2.1 3.6v2.5c0 1.3.9 1.9 2.1 1.2l2.2-1.3c1.1-.7 2.1-2.3 2.1-3.6v-2.5c0-1.3-.9-1.9-2.1-1.2" stroke="#EBC300" fill="#F8E585"/><path d="M252.1 210l-.1 27.2-65.7-37.9.1-27.2z" fill="#FBFCFF"/></g><path stroke="#D0D4E8" d="M252.1 210v27.2l65.2-37.9.1-27.2z"/><path stroke="#D0D4E8" d="M186.4 172.1l65.7 37.9v27.2l-65.8-37.9zm131 0l-65.7-37.9-65.3 37.9"/><g fill-rule="nonzero"><path d="M317.4 141.1l-65.3 38-65.7-38 65.3-37.9z" fill="#FFF"/><path fill="#F1F5FF" d="M317.4 141.1l-.1 27.2-65.3 38 .1-27.2z"/><path d="M294.3 166.5l-37.4 21.8c-.7.4-1.2 1.3-1.2 2.1v.4c0 .8.5 1.1 1.2.7l37.4-21.8c.7-.4 1.2-1.3 1.2-2.1v-.4c0-.8-.5-1.1-1.2-.7" stroke="#8E8E8E" fill="#ACAFC3"/><path d="M303.3 158.8l-2.2 1.3c-1.1.7-2.1 2.3-2.1 3.6v2.5c0 1.3.9 1.9 2.1 1.2l2.2-1.3c1.1-.7 2.1-2.3 2.1-3.6V160c0-1.3-.9-1.8-2.1-1.2" stroke="#7389FC" fill="#C5D9FB"/><path d="M312.4 153.5l-2.2 1.3c-1.1.7-2.1 2.3-2.1 3.6v2.5c0 1.3.9 1.9 2.1 1.2l2.2-1.3c1.1-.7 2.1-2.3 2.1-3.6v-2.5c0-1.3-.9-1.8-2.1-1.2" stroke="#EBC300" fill="#F8E585"/><path d="M252.1 179.1l-.1 27.2-65.7-38 .1-27.2z" fill="#FBFCFF"/></g><path stroke="#D0D4E8" d="M252.1 179.1v27.2l65.2-38 .1-27.2z"/><path stroke="#D0D4E8" d="M186.4 141.1l65.7 38v27.2l-65.8-38zm131 0l-65.7-37.9-65.3 37.9"/><path d="M248.2 175.2l-70.3-40.6v188.8l70.3 40.6z" stroke="#D0D4E8" fill-rule="nonzero" fill="#FBFCFC" stroke-linecap="round" stroke-linejoin="bevel"/><path stroke="#D0D4E8" fill="#FFF" fill-rule="nonzero" stroke-linecap="round" stroke-linejoin="bevel" d="M248.2 175.2l72.9-42.1-70.3-40.6-72.9 42.1z"/><path d="M243 178.2l-70.3-40.6v188.8L243 367z" stroke="#D0D4E8" fill-rule="nonzero" fill="#FBFCFC" stroke-linecap="round" stroke-linejoin="bevel"/><g fill-rule="nonzero"><path d="M239.3 341L174 379l-65.7-38 65.3-37.9z" fill="#FFF"/><path fill="#F1F5FF" d="M239.3 341l-.1 27.2-65.2 37.9V379z"/><path d="M216.2 366.3l-37.4 21.8c-.7.4-1.2 1.3-1.2 2.1v.4c0 .8.5 1.1 1.2.7l37.4-21.8c.7-.4 1.2-1.3 1.2-2.1v-.4c0-.7-.5-1-1.2-.7" stroke="#8E8E8E" fill="#ACAFC3"/><path d="M225.3 358.7l-2.2 1.3c-1.1.7-2.1 2.3-2.1 3.6v2.5c0 1.3.9 1.9 2.1 1.2l2.2-1.3c1.1-.7 2.1-2.3 2.1-3.6v-2.5c-.1-1.3-1-1.9-2.1-1.2" stroke="#7389FC" fill="#C5D9FB"/><path d="M234.3 353.4l-2.2 1.3c-1.1.7-2.1 2.3-2.1 3.6v2.5c0 1.3.9 1.9 2.1 1.2l2.2-1.3c1.1-.7 2.1-2.3 2.1-3.6v-2.5c0-1.3-.9-1.8-2.1-1.2" stroke="#EBC300" fill="#F8E585"/><path d="M174 379v27.1l-65.8-37.9.1-27.2z" fill="#FBFCFF"/></g><path stroke="#D0D4E8" d="M174 379v27.1l65.2-37.9.1-27.2zm-65.7-38l65.7 38v27.1l-65.8-37.9zm131 0l-65.7-37.9-65.3 37.9"/><g fill-rule="nonzero"><path d="M239.3 310.1L174 348l-65.7-37.9 65.3-38z" fill="#FFF"/><path fill="#F1F5FF" d="M239.3 310.1l-.1 27.2-65.2 37.9V348z"/><path d="M216.2 335.4l-37.4 21.8c-.7.4-1.2 1.3-1.2 2.1v.4c0 .8.5 1.1 1.2.7l37.4-21.8c.7-.4 1.2-1.3 1.2-2.1v-.4c0-.8-.5-1.1-1.2-.7" stroke="#8E8E8E" fill="#ACAFC3"/><path d="M225.3 327.8l-2.2 1.3c-1.1.7-2.1 2.3-2.1 3.6v2.5c0 1.3.9 1.9 2.1 1.2l2.2-1.3c1.1-.7 2.1-2.3 2.1-3.6V329c-.1-1.4-1-1.9-2.1-1.2" stroke="#7389FC" fill="#C5D9FB"/><path d="M234.3 322.5l-2.2 1.3c-1.1.7-2.1 2.3-2.1 3.6v2.5c0 1.3.9 1.9 2.1 1.2l2.2-1.3c1.1-.7 2.1-2.3 2.1-3.6v-2.5c0-1.4-.9-1.9-2.1-1.2" stroke="#EBC300" fill="#F8E585"/><path d="M174 348v27.2l-65.8-37.9.1-27.2z" fill="#FBFCFF"/></g><path stroke="#D0D4E8" d="M174 348v27.2l65.2-37.9.1-27.2zm-65.7-37.9L174 348v27.2l-65.8-37.9zm131 0l-65.7-38-65.3 38"/><g fill-rule="nonzero"><path d="M239.3 279.1l-65.3 38-65.7-38 65.3-37.9z" fill="#FFF"/><path fill="#F1F5FF" d="M239.3 279.1l-.1 27.2-65.2 37.9v-27.1z"/><path d="M216.2 304.4l-37.4 21.8c-.7.4-1.2 1.3-1.2 2.1v.4c0 .8.5 1.1 1.2.7l37.4-21.8c.7-.4 1.2-1.3 1.2-2.1v-.4c0-.7-.5-1.1-1.2-.7" stroke="#8E8E8E" fill="#ACAFC3"/><path d="M225.3 296.8l-2.2 1.3c-1.1.7-2.1 2.3-2.1 3.6v2.5c0 1.3.9 1.9 2.1 1.2l2.2-1.3c1.1-.7 2.1-2.3 2.1-3.6V298c-.1-1.3-1-1.9-2.1-1.2" stroke="#7389FC" fill="#C5D9FB"/><path d="M234.3 291.5l-2.2 1.3c-1.1.7-2.1 2.3-2.1 3.6v2.5c0 1.3.9 1.9 2.1 1.2l2.2-1.3c1.1-.7 2.1-2.3 2.1-3.6v-2.5c0-1.3-.9-1.8-2.1-1.2" stroke="#EBC300" fill="#F8E585"/><path d="M174 317.1v27.1l-65.8-37.9.1-27.2z" fill="#FBFCFF"/></g><path stroke="#D0D4E8" d="M174 317.1v27.1l65.2-37.9.1-27.2zm-65.7-38l65.7 38v27.1l-65.8-37.9zm131 0l-65.7-37.9-65.3 37.9"/><g fill-rule="nonzero"><path d="M239.3 248.2L174 286.1l-65.7-37.9 65.3-38z" fill="#FFF"/><path fill="#F1F5FF" d="M239.3 248.2l-.1 27.2-65.2 37.9v-27.2z"/><path d="M216.2 273.5l-37.4 21.8c-.7.4-1.2 1.3-1.2 2.1v.4c0 .8.5 1.1 1.2.7l37.4-21.8c.7-.4 1.2-1.3 1.2-2.1v-.4c0-.8-.5-1.1-1.2-.7" stroke="#8E8E8E" fill="#ACAFC3"/><path d="M225.3 265.8l-2.2 1.3c-1.1.7-2.1 2.3-2.1 3.6v2.5c0 1.3.9 1.9 2.1 1.2l2.2-1.3c1.1-.7 2.1-2.3 2.1-3.6V267c-.1-1.3-1-1.8-2.1-1.2" stroke="#7389FC" fill="#C5D9FB"/><path d="M234.3 260.6l-2.2 1.3c-1.1.7-2.1 2.3-2.1 3.6v2.5c0 1.3.9 1.9 2.1 1.2l2.2-1.3c1.1-.7 2.1-2.3 2.1-3.6v-2.5c0-1.4-.9-1.9-2.1-1.2" stroke="#EBC300" fill="#F8E585"/><path d="M174 286.1v27.2l-65.8-38 .1-27.1z" fill="#FBFCFF"/></g><path stroke="#D0D4E8" d="M174 286.1v27.2l65.2-37.9.1-27.2zm-65.7-37.9l65.7 37.9v27.2l-65.8-38zm131 0l-65.7-38-65.3 38"/><g fill-rule="nonzero"><path d="M239.3 217.2l-65.3 38-65.7-38 65.3-37.9z" fill="#FFF"/><path fill="#F1F5FF" d="M239.3 217.2l-.1 27.2-65.2 37.9v-27.1z"/><path d="M216.2 242.5l-37.4 21.8c-.7.4-1.2 1.3-1.2 2.1v.4c0 .8.5 1.1 1.2.7l37.4-21.8c.7-.4 1.2-1.3 1.2-2.1v-.4c0-.7-.5-1.1-1.2-.7" stroke="#8E8E8E" fill="#ACAFC3"/><path d="M225.3 234.9l-2.2 1.3c-1.1.7-2.1 2.3-2.1 3.6v2.5c0 1.3.9 1.9 2.1 1.2l2.2-1.3c1.1-.7 2.1-2.3 2.1-3.6v-2.5c-.1-1.3-1-1.9-2.1-1.2" stroke="#7389FC" fill="#C5D9FB"/><path d="M234.3 229.6l-2.2 1.3c-1.1.7-2.1 2.3-2.1 3.6v2.5c0 1.3.9 1.9 2.1 1.2l2.2-1.3c1.1-.7 2.1-2.3 2.1-3.6v-2.5c0-1.3-.9-1.9-2.1-1.2" stroke="#EBC300" fill="#F8E585"/><path d="M174 255.2v27.1l-65.8-37.9.1-27.2z" fill="#FBFCFF"/></g><path stroke="#D0D4E8" d="M174 255.2v27.1l65.2-37.9.1-27.2zm-65.7-38l65.7 38v27.1l-65.8-37.9zm131 0l-65.7-37.9-65.3 37.9"/><g fill-rule="nonzero"><path d="M239.3 186.3L174 224.2l-65.7-37.9 65.3-38z" fill="#FFF"/><path fill="#F1F5FF" d="M239.3 186.3l-.1 27.1-65.2 38v-27.2z"/><path d="M216.2 211.6l-37.4 21.8c-.7.4-1.2 1.3-1.2 2.1v.4c0 .8.5 1.1 1.2.7l37.4-21.8c.7-.4 1.2-1.3 1.2-2.1v-.4c0-.8-.5-1.1-1.2-.7" stroke="#8E8E8E" fill="#ACAFC3"/><path d="M225.3 203.9l-2.2 1.3c-1.1.7-2.1 2.3-2.1 3.6v2.5c0 1.3.9 1.9 2.1 1.2l2.2-1.3c1.1-.7 2.1-2.3 2.1-3.6v-2.5c-.1-1.3-1-1.8-2.1-1.2" stroke="#7389FC" fill="#C5D9FB"/><path d="M234.3 198.7l-2.2 1.3c-1.1.7-2.1 2.3-2.1 3.6v2.5c0 1.3.9 1.9 2.1 1.2l2.2-1.3c1.1-.7 2.1-2.3 2.1-3.6v-2.5c0-1.4-.9-1.9-2.1-1.2" stroke="#EBC300" fill="#F8E585"/><path d="M174 224.2v27.2l-65.8-38 .1-27.1z" fill="#FBFCFF"/></g><path stroke="#D0D4E8" d="M174 224.2v27.2l65.2-38 .1-27.1zm-65.7-37.9l65.7 37.9v27.2l-65.8-38z"/><path stroke="#D0D4E8" d="M239.3 186.3l-65.7-38-65.3 38"/><path d="M170.1 220.3l-70.3-40.6v188.8l70.3 40.6z" stroke="#D0D4E8" fill-rule="nonzero" fill="#FBFCFC" stroke-linecap="round" stroke-linejoin="bevel"/><path stroke="#D0D4E8" fill="#FFF" fill-rule="nonzero" stroke-linecap="round" stroke-linejoin="bevel" d="M170.1 220.3l72.9-42.1-70.3-40.6-72.9 42.1z"/><path d="M603.4 114.5l-70.3-40.6v188.8l70.3 40.6z" stroke="#D0D4E8" fill-rule="nonzero" fill="#FBFCFC" stroke-linecap="round" stroke-linejoin="bevel"/><g fill-rule="nonzero"><path d="M599.7 277.3l-65.3 38-65.7-38 65.3-37.9z" fill="#FFF"/><path fill="#F1F5FF" d="M599.7 277.3l-.1 27.2-65.3 37.9.1-27.1z"/><path d="M576.6 302.6l-37.4 21.8c-.7.4-1.2 1.3-1.2 2.1v.4c0 .8.5 1.1 1.2.7l37.4-21.8c.7-.4 1.2-1.3 1.2-2.1v-.4c0-.7-.6-1.1-1.2-.7" stroke="#8E8E8E" fill="#ACAFC3"/><path d="M585.6 295l-2.2 1.3c-1.1.7-2.1 2.3-2.1 3.6v2.5c0 1.3.9 1.9 2.1 1.2l2.2-1.3c1.1-.7 2.1-2.3 2.1-3.6v-2.5c0-1.3-.9-1.9-2.1-1.2" stroke="#7389FC" fill="#C5D9FB"/><path d="M594.7 289.7l-2.2 1.3c-1.1.7-2.1 2.3-2.1 3.6v2.5c0 1.3.9 1.9 2.1 1.2l2.2-1.3c1.1-.7 2.1-2.3 2.1-3.6v-2.5c0-1.3-1-1.9-2.1-1.2" stroke="#EBC300" fill="#F8E585"/><path d="M534.4 315.3l-.1 27.1-65.7-37.9.1-27.2z" fill="#FBFCFF"/></g><path stroke="#D0D4E8" d="M534.4 315.3v27.1l65.2-37.9.1-27.2zm-65.7-38l65.7 38v27.1l-65.8-37.9zm131 0L534 239.4l-65.3 37.9"/><g fill-rule="nonzero"><path d="M599.7 246.4l-65.3 37.9-65.7-37.9 65.3-38z" fill="#FFF"/><path fill="#F1F5FF" d="M599.7 246.4l-.1 27.1-65.3 38 .1-27.2z"/><path d="M576.6 271.7l-37.4 21.8c-.7.4-1.2 1.3-1.2 2.1v.4c0 .8.5 1.1 1.2.7l37.4-21.8c.7-.4 1.2-1.3 1.2-2.1v-.4c0-.8-.6-1.1-1.2-.7" stroke="#8E8E8E" fill="#ACAFC3"/><path d="M585.6 264l-2.2 1.3c-1.1.7-2.1 2.3-2.1 3.6v2.5c0 1.3.9 1.9 2.1 1.2l2.2-1.3c1.1-.7 2.1-2.3 2.1-3.6v-2.5c0-1.3-.9-1.8-2.1-1.2" stroke="#7389FC" fill="#C5D9FB"/><path d="M594.7 258.8l-2.2 1.3c-1.1.7-2.1 2.3-2.1 3.6v2.5c0 1.3.9 1.9 2.1 1.2l2.2-1.3c1.1-.7 2.1-2.3 2.1-3.6V260c0-1.4-1-1.9-2.1-1.2" stroke="#EBC300" fill="#F8E585"/><path d="M534.4 284.3l-.1 27.2-65.7-38 .1-27.1z" fill="#FBFCFF"/></g><path stroke="#D0D4E8" d="M534.4 284.3v27.2l65.2-38 .1-27.1zm-65.7-37.9l65.7 37.9v27.2l-65.8-38zm131 0l-65.7-38-65.3 38"/><g fill-rule="nonzero"><path d="M599.7 215.4l-65.3 37.9-65.7-37.9 65.3-37.9z" fill="#FFF"/><path fill="#F1F5FF" d="M599.7 215.4l-.1 27.2-65.3 37.9.1-27.2z"/><path d="M576.6 240.7l-37.4 21.8c-.7.4-1.2 1.3-1.2 2.1v.4c0 .8.5 1.1 1.2.7l37.4-21.8c.7-.4 1.2-1.3 1.2-2.1v-.4c0-.8-.6-1.1-1.2-.7" stroke="#8E8E8E" fill="#ACAFC3"/><path d="M585.6 233.1l-2.2 1.3c-1.1.7-2.1 2.3-2.1 3.6v2.5c0 1.3.9 1.9 2.1 1.2l2.2-1.3c1.1-.7 2.1-2.3 2.1-3.6v-2.5c0-1.3-.9-1.9-2.1-1.2" stroke="#7389FC" fill="#C5D9FB"/><path d="M594.7 227.8l-2.2 1.3c-1.1.7-2.1 2.3-2.1 3.6v2.5c0 1.3.9 1.9 2.1 1.2l2.2-1.3c1.1-.7 2.1-2.3 2.1-3.6V229c0-1.3-1-1.9-2.1-1.2" stroke="#EBC300" fill="#F8E585"/><path d="M534.4 253.3l-.1 27.2-65.7-37.9.1-27.2z" fill="#FBFCFF"/></g><path stroke="#D0D4E8" d="M534.4 253.3v27.2l65.2-37.9.1-27.2zm-65.7-37.9l65.7 37.9v27.2l-65.8-37.9zm131 0L534 177.5l-65.3 37.9"/><g fill-rule="nonzero"><path d="M599.7 184.5l-65.3 37.9-65.7-37.9 65.3-38z" fill="#FFF"/><path fill="#F1F5FF" d="M599.7 184.5l-.1 27.1-65.3 38 .1-27.2z"/><path d="M576.6 209.8l-37.4 21.8c-.7.4-1.2 1.3-1.2 2.1v.4c0 .8.5 1.1 1.2.7l37.4-21.8c.7-.4 1.2-1.3 1.2-2.1v-.4c0-.8-.6-1.1-1.2-.7" stroke="#8E8E8E" fill="#ACAFC3"/><path d="M585.6 202.1l-2.2 1.3c-1.1.7-2.1 2.3-2.1 3.6v2.5c0 1.3.9 1.9 2.1 1.2l2.2-1.3c1.1-.7 2.1-2.3 2.1-3.6v-2.5c0-1.3-.9-1.8-2.1-1.2" stroke="#7389FC" fill="#C5D9FB"/><path d="M594.7 196.9l-2.2 1.3c-1.1.7-2.1 2.3-2.1 3.6v2.5c0 1.3.9 1.9 2.1 1.2l2.2-1.3c1.1-.7 2.1-2.3 2.1-3.6v-2.5c0-1.4-1-1.9-2.1-1.2" stroke="#EBC300" fill="#F8E585"/><path d="M534.4 222.4l-.1 27.2-65.7-38 .1-27.1z" fill="#FBFCFF"/></g><path stroke="#D0D4E8" d="M534.4 222.4v27.2l65.2-38 .1-27.1zm-65.7-37.9l65.7 37.9v27.2l-65.8-38zm131 0l-65.7-38-65.3 38"/><g fill-rule="nonzero"><path d="M599.7 153.5l-65.3 37.9-65.7-37.9 65.3-37.9z" fill="#FFF"/><path fill="#F1F5FF" d="M599.7 153.5l-.1 27.2-65.3 37.9.1-27.2z"/><path d="M576.6 178.8l-37.4 21.8c-.7.4-1.2 1.3-1.2 2.1v.4c0 .8.5 1.1 1.2.7l37.4-21.8c.7-.4 1.2-1.3 1.2-2.1v-.4c0-.8-.6-1.1-1.2-.7" stroke="#8E8E8E" fill="#ACAFC3"/><path d="M585.6 171.2l-2.2 1.3c-1.1.7-2.1 2.3-2.1 3.6v2.5c0 1.3.9 1.9 2.1 1.2l2.2-1.3c1.1-.7 2.1-2.3 2.1-3.6v-2.5c0-1.3-.9-1.9-2.1-1.2" stroke="#7389FC" fill="#C5D9FB"/><path d="M594.7 165.9l-2.2 1.3c-1.1.7-2.1 2.3-2.1 3.6v2.5c0 1.3.9 1.9 2.1 1.2l2.2-1.3c1.1-.7 2.1-2.3 2.1-3.6v-2.5c0-1.3-1-1.9-2.1-1.2" stroke="#EBC300" fill="#F8E585"/><path d="M534.4 191.4l-.1 27.2-65.7-37.9.1-27.2z" fill="#FBFCFF"/></g><path stroke="#D0D4E8" d="M534.4 191.4v27.2l65.2-37.9.1-27.2zm-65.7-37.9l65.7 37.9v27.2l-65.8-37.9zm131 0L534 115.6l-65.3 37.9"/><g fill-rule="nonzero"><path d="M599.7 122.6l-65.3 37.9-65.7-38L534 84.6z" fill="#FFF"/><path fill="#F1F5FF" d="M599.7 122.6l-.1 27.1-65.3 38 .1-27.2z"/><path d="M576.6 147.9l-37.4 21.8c-.7.4-1.2 1.3-1.2 2.1v.4c0 .8.5 1.1 1.2.7l37.4-21.8c.7-.4 1.2-1.3 1.2-2.1v-.4c0-.8-.6-1.1-1.2-.7" stroke="#8E8E8E" fill="#ACAFC3"/><path d="M585.6 140.2l-2.2 1.3c-1.1.7-2.1 2.3-2.1 3.6v2.5c0 1.3.9 1.9 2.1 1.2l2.2-1.3c1.1-.7 2.1-2.3 2.1-3.6v-2.5c0-1.3-.9-1.8-2.1-1.2" stroke="#7389FC" fill="#C5D9FB"/><path d="M594.7 134.9l-2.2 1.3c-1.1.7-2.1 2.3-2.1 3.6v2.5c0 1.3.9 1.9 2.1 1.2l2.2-1.3c1.1-.7 2.1-2.3 2.1-3.6v-2.5c0-1.3-1-1.8-2.1-1.2" stroke="#EBC300" fill="#F8E585"/><path d="M534.4 160.5l-.1 27.2-65.7-38 .1-27.2z" fill="#FBFCFF"/></g><path stroke="#D0D4E8" d="M534.4 160.5v27.2l65.2-38 .1-27.1zm-65.7-38l65.7 38v27.2l-65.8-38zm131 .1l-65.7-38-65.3 37.9"/><path d="M530.5 156.6L460.2 116v188.8l70.3 40.6z" stroke="#D0D4E8" fill-rule="nonzero" fill="#FBFCFC" stroke-linecap="round" stroke-linejoin="bevel"/><path stroke="#D0D4E8" fill="#FFF" fill-rule="nonzero" stroke-linecap="round" stroke-linejoin="bevel" d="M530.5 156.6l72.9-42.1-70.3-40.6-72.9 42.1z"/><path d="M525.3 160.4L455 119.8v188.8l70.3 40.6z" stroke="#D0D4E8" fill-rule="nonzero" fill="#FBFCFC" stroke-linecap="round" stroke-linejoin="bevel"/><g fill-rule="nonzero"><path d="M521.6 323.2l-65.3 38-65.7-38 65.3-37.9z" fill="#FFF"/><path fill="#F1F5FF" d="M521.6 323.2l-.1 27.2-65.3 38 .1-27.2z"/><path d="M498.5 348.5L461 370.3c-.7.4-1.2 1.3-1.2 2.1v.4c0 .8.5 1.1 1.2.7l37.4-21.8c.7-.4 1.2-1.3 1.2-2.1v-.4c.1-.7-.5-1-1.1-.7" stroke="#8E8E8E" fill="#ACAFC3"/><path d="M507.5 340.9l-2.2 1.3c-1.1.7-2.1 2.3-2.1 3.6v2.5c0 1.3.9 1.9 2.1 1.2l2.2-1.3c1.1-.7 2.1-2.3 2.1-3.6v-2.5c0-1.3-.9-1.8-2.1-1.2" stroke="#7389FC" fill="#C5D9FB"/><path d="M516.6 335.6l-2.2 1.3c-1.1.7-2.1 2.3-2.1 3.6v2.5c0 1.3.9 1.9 2.1 1.2l2.2-1.3c1.1-.7 2.1-2.3 2.1-3.6v-2.5c0-1.3-.9-1.8-2.1-1.2" stroke="#EBC300" fill="#F8E585"/><path d="M456.3 361.2l-.1 27.2-65.7-38 .1-27.2z" fill="#FBFCFF"/></g><path stroke="#D0D4E8" d="M456.3 361.2v27.2l65.2-38 .1-27.2zm-65.7-38l65.7 38v27.2l-65.8-38zm131 0l-65.7-37.9-65.3 37.9"/><g fill-rule="nonzero"><path d="M521.6 292.3l-65.3 37.9-65.7-37.9 65.3-38z" fill="#FFF"/><path fill="#F1F5FF" d="M521.6 292.3l-.1 27.2-65.3 37.9.1-27.2z"/><path d="M498.5 317.6L461 339.3c-.7.4-1.2 1.3-1.2 2.1v.4c0 .8.5 1.1 1.2.7l37.4-21.8c.7-.4 1.2-1.3 1.2-2.1v-.4c.1-.7-.5-1-1.1-.6" stroke="#8E8E8E" fill="#ACAFC3"/><path d="M507.5 310l-2.2 1.3c-1.1.7-2.1 2.3-2.1 3.6v2.5c0 1.3.9 1.9 2.1 1.2l2.2-1.3c1.1-.7 2.1-2.3 2.1-3.6v-2.5c0-1.4-.9-1.9-2.1-1.2" stroke="#7389FC" fill="#C5D9FB"/><path d="M516.6 304.7l-2.2 1.3c-1.1.7-2.1 2.3-2.1 3.6v2.5c0 1.3.9 1.9 2.1 1.2l2.2-1.3c1.1-.7 2.1-2.3 2.1-3.6v-2.5c0-1.4-.9-1.9-2.1-1.2" stroke="#EBC300" fill="#F8E585"/><path d="M456.3 330.2l-.1 27.2-65.7-37.9.1-27.2z" fill="#FBFCFF"/></g><path stroke="#D0D4E8" d="M456.3 330.2v27.2l65.2-37.9.1-27.2zm-65.7-37.9l65.7 37.9v27.2l-65.8-37.9zm131 0l-65.7-38-65.3 38"/><g fill-rule="nonzero"><path d="M521.6 261.3l-65.3 38-65.7-38 65.3-37.9z" fill="#FFF"/><path fill="#F1F5FF" d="M521.6 261.3l-.1 27.2-65.3 38 .1-27.2z"/><path d="M498.5 286.6L461 308.4c-.7.4-1.2 1.3-1.2 2.1v.4c0 .8.5 1.1 1.2.7l37.4-21.8c.7-.4 1.2-1.3 1.2-2.1v-.4c.1-.7-.5-1-1.1-.7" stroke="#8E8E8E" fill="#ACAFC3"/><path d="M507.5 279l-2.2 1.3c-1.1.7-2.1 2.3-2.1 3.6v2.5c0 1.3.9 1.9 2.1 1.2l2.2-1.3c1.1-.7 2.1-2.3 2.1-3.6v-2.5c0-1.3-.9-1.9-2.1-1.2" stroke="#7389FC" fill="#C5D9FB"/><path d="M516.6 273.7l-2.2 1.3c-1.1.7-2.1 2.3-2.1 3.6v2.5c0 1.3.9 1.9 2.1 1.2l2.2-1.3c1.1-.7 2.1-2.3 2.1-3.6v-2.5c0-1.3-.9-1.8-2.1-1.2" stroke="#EBC300" fill="#F8E585"/><path d="M456.3 299.3l-.1 27.2-65.7-38 .1-27.2z" fill="#FBFCFF"/></g><path stroke="#D0D4E8" d="M456.3 299.3v27.2l65.2-38 .1-27.2zm-65.7-38l65.7 38v27.2l-65.8-38zm131 0l-65.7-37.9-65.3 37.9"/><g fill-rule="nonzero"><path d="M521.6 230.4l-65.3 37.9-65.7-37.9 65.3-38z" fill="#FFF"/><path fill="#F1F5FF" d="M521.6 230.4l-.1 27.2-65.3 37.9.1-27.2z"/><path d="M498.5 255.7L461 277.4c-.7.4-1.2 1.3-1.2 2.1v.4c0 .8.5 1.1 1.2.7l37.4-21.8c.7-.4 1.2-1.3 1.2-2.1v-.4c.1-.7-.5-1-1.1-.6" stroke="#8E8E8E" fill="#ACAFC3"/><path d="M507.5 248.1l-2.2 1.3c-1.1.7-2.1 2.3-2.1 3.6v2.5c0 1.3.9 1.9 2.1 1.2l2.2-1.3c1.1-.7 2.1-2.3 2.1-3.6v-2.5c0-1.4-.9-1.9-2.1-1.2" stroke="#7389FC" fill="#C5D9FB"/><path d="M516.6 242.8l-2.2 1.3c-1.1.7-2.1 2.3-2.1 3.6v2.5c0 1.3.9 1.9 2.1 1.2l2.2-1.3c1.1-.7 2.1-2.3 2.1-3.6V244c0-1.4-.9-1.9-2.1-1.2" stroke="#EBC300" fill="#F8E585"/><path d="M456.3 268.3l-.1 27.2-65.7-37.9.1-27.2z" fill="#FBFCFF"/></g><path stroke="#D0D4E8" d="M456.3 268.3v27.2l65.2-37.9.1-27.2zm-65.7-37.9l65.7 37.9v27.2l-65.8-37.9zm131 0l-65.7-38-65.3 38"/><g fill-rule="nonzero"><path d="M521.6 199.4l-65.3 38-65.7-38 65.3-37.9z" fill="#FFF"/><path fill="#F1F5FF" d="M521.6 199.4l-.1 27.2-65.3 37.9.1-27.1z"/><path d="M498.5 224.7L461 246.5c-.7.4-1.2 1.3-1.2 2.1v.4c0 .8.5 1.1 1.2.7l37.4-21.8c.7-.4 1.2-1.3 1.2-2.1v-.4c.1-.7-.5-1-1.1-.7" stroke="#8E8E8E" fill="#ACAFC3"/><path d="M507.5 217.1l-2.2 1.3c-1.1.7-2.1 2.3-2.1 3.6v2.5c0 1.3.9 1.9 2.1 1.2l2.2-1.3c1.1-.7 2.1-2.3 2.1-3.6v-2.5c0-1.3-.9-1.9-2.1-1.2" stroke="#7389FC" fill="#C5D9FB"/><path d="M516.6 211.8l-2.2 1.3c-1.1.7-2.1 2.3-2.1 3.6v2.5c0 1.3.9 1.9 2.1 1.2l2.2-1.3c1.1-.7 2.1-2.3 2.1-3.6V213c0-1.3-.9-1.8-2.1-1.2" stroke="#EBC300" fill="#F8E585"/><path d="M456.3 237.4l-.1 27.1-65.7-37.9.1-27.2z" fill="#FBFCFF"/></g><path stroke="#D0D4E8" d="M456.3 237.4v27.1l65.2-37.9.1-27.2zm-65.7-38l65.7 38v27.1l-65.8-37.9zm131 0l-65.7-37.9-65.3 37.9"/><g fill-rule="nonzero"><path d="M521.6 168.5l-65.3 37.9-65.7-37.9 65.3-38z" fill="#FFF"/><path fill="#F1F5FF" d="M521.6 168.5l-.1 27.2-65.3 37.9.1-27.2z"/><path d="M498.5 193.8L461 215.5c-.7.4-1.2 1.3-1.2 2.1v.4c0 .8.5 1.1 1.2.7l37.4-21.8c.7-.4 1.2-1.3 1.2-2.1v-.4c.1-.7-.5-1-1.1-.6" stroke="#8E8E8E" fill="#ACAFC3"/><path d="M507.5 186.2l-2.2 1.3c-1.1.7-2.1 2.3-2.1 3.6v2.5c0 1.3.9 1.9 2.1 1.2l2.2-1.3c1.1-.7 2.1-2.3 2.1-3.6v-2.5c0-1.4-.9-1.9-2.1-1.2" stroke="#7389FC" fill="#C5D9FB"/><path d="M516.6 180.9l-2.2 1.3c-1.1.7-2.1 2.3-2.1 3.6v2.5c0 1.3.9 1.9 2.1 1.2l2.2-1.3c1.1-.7 2.1-2.3 2.1-3.6v-2.5c0-1.4-.9-1.9-2.1-1.2" stroke="#EBC300" fill="#F8E585"/><path d="M456.3 206.4l-.1 27.2-65.7-37.9.1-27.2z" fill="#FBFCFF"/></g><path stroke="#D0D4E8" d="M456.3 206.4v27.2l65.2-37.9.1-27.2zm-65.7-37.9l65.7 37.9v27.2l-65.8-37.9zm131 0l-65.7-38-65.3 38"/><path d="M452.4 202.5L382.1 162v188.7l70.3 40.6z" stroke="#D0D4E8" fill-rule="nonzero" fill="#FBFCFC" stroke-linecap="round" stroke-linejoin="bevel"/><path stroke="#D0D4E8" fill="#FFF" fill-rule="nonzero" stroke-linecap="round" stroke-linejoin="bevel" d="M452.4 202.5l72.9-42.1-70.3-40.6-72.9 42.2z"/><path d="M447.2 206.1l-70.3-40.6v188.8l70.3 40.6z" stroke="#D0D4E8" fill-rule="nonzero" fill="#FBFCFC" stroke-linecap="round" stroke-linejoin="bevel"/><g fill-rule="nonzero"><path d="M443.5 368.9l-65.3 37.9-65.7-37.9 65.3-37.9z" fill="#FFF"/><path fill="#F1F5FF" d="M443.5 368.9l-.1 27.2-65.3 37.9.1-27.2z"/><path d="M420.4 394.2L383 416c-.7.4-1.2 1.3-1.2 2.1v.4c0 .8.5 1.1 1.2.7l37.4-21.8c.7-.4 1.2-1.3 1.2-2.1v-.4c0-.8-.6-1.1-1.2-.7" stroke="#8E8E8E" fill="#ACAFC3"/><path d="M429.4 386.6l-2.2 1.3c-1.1.7-2.1 2.3-2.1 3.6v2.5c0 1.3.9 1.9 2.1 1.2l2.2-1.3c1.1-.7 2.1-2.3 2.1-3.6v-2.5c0-1.4-.9-1.9-2.1-1.2" stroke="#7389FC" fill="#C5D9FB"/><path d="M438.5 381.3l-2.2 1.3c-1.1.7-2.1 2.3-2.1 3.6v2.5c0 1.3.9 1.9 2.1 1.2l2.2-1.3c1.1-.7 2.1-2.3 2.1-3.6v-2.5c0-1.3-.9-1.9-2.1-1.2" stroke="#EBC300" fill="#F8E585"/><path d="M378.2 406.8l-.1 27.2-65.7-37.9.1-27.2z" fill="#FBFCFF"/></g><path stroke="#D0D4E8" d="M378.2 406.8V434l65.2-37.9.1-27.2zm-65.7-37.9l65.7 37.9V434l-65.8-37.9zm131 0L377.8 331l-65.3 37.9"/><g fill-rule="nonzero"><path d="M443.5 337.9l-65.3 38-65.7-38 65.3-37.9z" fill="#FFF"/><path fill="#F1F5FF" d="M443.5 337.9l-.1 27.2-65.3 38 .1-27.2z"/><path d="M420.4 363.3L383 385c-.7.4-1.2 1.3-1.2 2.1v.4c0 .8.5 1.1 1.2.7l37.4-21.8c.7-.4 1.2-1.3 1.2-2.1v-.4c0-.7-.6-1-1.2-.6" stroke="#8E8E8E" fill="#ACAFC3"/><path d="M429.4 355.6l-2.2 1.3c-1.1.7-2.1 2.3-2.1 3.6v2.5c0 1.3.9 1.9 2.1 1.2l2.2-1.3c1.1-.7 2.1-2.3 2.1-3.6v-2.5c0-1.3-.9-1.8-2.1-1.2" stroke="#7389FC" fill="#C5D9FB"/><path d="M438.5 350.3l-2.2 1.3c-1.1.7-2.1 2.3-2.1 3.6v2.5c0 1.3.9 1.9 2.1 1.2l2.2-1.3c1.1-.7 2.1-2.3 2.1-3.6v-2.5c0-1.3-.9-1.8-2.1-1.2" stroke="#EBC300" fill="#F8E585"/><path d="M378.2 375.9l-.1 27.2-65.7-38 .1-27.2z" fill="#FBFCFF"/></g><path stroke="#D0D4E8" d="M378.2 375.9v27.2l65.2-38 .1-27.2zm-65.7-38l65.7 38v27.2l-65.8-38zm131 0L377.8 300l-65.3 37.9"/><g fill-rule="nonzero"><path d="M443.5 307l-65.3 37.9-65.7-37.9 65.3-37.9z" fill="#FFF"/><path fill="#F1F5FF" d="M443.5 307l-.1 27.2-65.3 37.9.1-27.2z"/><path d="M420.4 332.3L383 354.1c-.7.4-1.2 1.3-1.2 2.1v.4c0 .8.5 1.1 1.2.7l37.4-21.8c.7-.4 1.2-1.3 1.2-2.1v-.4c0-.8-.6-1.1-1.2-.7" stroke="#8E8E8E" fill="#ACAFC3"/><path d="M429.4 324.7l-2.2 1.3c-1.1.7-2.1 2.3-2.1 3.6v2.5c0 1.3.9 1.9 2.1 1.2l2.2-1.3c1.1-.7 2.1-2.3 2.1-3.6v-2.5c0-1.4-.9-1.9-2.1-1.2" stroke="#7389FC" fill="#C5D9FB"/><path d="M438.5 319.4l-2.2 1.3c-1.1.7-2.1 2.3-2.1 3.6v2.5c0 1.3.9 1.9 2.1 1.2l2.2-1.3c1.1-.7 2.1-2.3 2.1-3.6v-2.5c0-1.3-.9-1.9-2.1-1.2" stroke="#EBC300" fill="#F8E585"/><path d="M378.2 344.9l-.1 27.2-65.7-37.9.1-27.2z" fill="#FBFCFF"/></g><path stroke="#D0D4E8" d="M378.2 344.9v27.2l65.2-37.9.1-27.2zM312.5 307l65.7 37.9v27.2l-65.8-37.9zm131 0l-65.7-37.9-65.3 37.9"/><g fill-rule="nonzero"><path d="M443.5 276l-65.3 38-65.7-38 65.3-37.9z" fill="#FFF"/><path fill="#F1F5FF" d="M443.5 276l-.1 27.2-65.3 38 .1-27.2z"/><path d="M420.4 301.4L383 323.1c-.7.4-1.2 1.3-1.2 2.1v.4c0 .8.5 1.1 1.2.7l37.4-21.8c.7-.4 1.2-1.3 1.2-2.1v-.4c0-.7-.6-1-1.2-.6" stroke="#8E8E8E" fill="#ACAFC3"/><path d="M429.4 293.7l-2.2 1.3c-1.1.7-2.1 2.3-2.1 3.6v2.5c0 1.3.9 1.9 2.1 1.2l2.2-1.3c1.1-.7 2.1-2.3 2.1-3.6v-2.5c0-1.3-.9-1.8-2.1-1.2" stroke="#7389FC" fill="#C5D9FB"/><path d="M438.5 288.4l-2.2 1.3c-1.1.7-2.1 2.3-2.1 3.6v2.5c0 1.3.9 1.9 2.1 1.2l2.2-1.3c1.1-.7 2.1-2.3 2.1-3.6v-2.5c0-1.3-.9-1.8-2.1-1.2" stroke="#EBC300" fill="#F8E585"/><path d="M378.2 314l-.1 27.2-65.7-38 .1-27.2z" fill="#FBFCFF"/></g><path stroke="#D0D4E8" d="M378.2 314v27.2l65.2-38 .1-27.2zm-65.7-38l65.7 38v27.2l-65.8-38zm131 0l-65.7-37.9-65.3 37.9"/><g fill-rule="nonzero"><path d="M443.5 245.1L378.2 283l-65.7-37.9 65.3-38z" fill="#FFF"/><path fill="#F1F5FF" d="M443.5 245.1l-.1 27.2-65.3 37.9.1-27.2z"/><path d="M420.4 270.4L383 292.2c-.7.4-1.2 1.3-1.2 2.1v.4c0 .8.5 1.1 1.2.7l37.4-21.8c.7-.4 1.2-1.3 1.2-2.1v-.4c0-.8-.6-1.1-1.2-.7" stroke="#8E8E8E" fill="#ACAFC3"/><path d="M429.4 262.8l-2.2 1.3c-1.1.7-2.1 2.3-2.1 3.6v2.5c0 1.3.9 1.9 2.1 1.2l2.2-1.3c1.1-.7 2.1-2.3 2.1-3.6V264c0-1.4-.9-1.9-2.1-1.2" stroke="#7389FC" fill="#C5D9FB"/><path d="M438.5 257.5l-2.2 1.3c-1.1.7-2.1 2.3-2.1 3.6v2.5c0 1.3.9 1.9 2.1 1.2l2.2-1.3c1.1-.7 2.1-2.3 2.1-3.6v-2.5c0-1.3-.9-1.9-2.1-1.2" stroke="#EBC300" fill="#F8E585"/><path d="M378.2 283l-.1 27.2-65.7-37.9.1-27.2z" fill="#FBFCFF"/></g><path stroke="#D0D4E8" d="M378.2 283v27.2l65.2-37.9.1-27.2zm-65.7-37.9l65.7 37.9v27.2l-65.8-37.9zm131 0l-65.7-38-65.3 38"/><g fill-rule="nonzero"><path d="M443.5 214.1l-65.3 38-65.7-38 65.3-37.9z" fill="#FFF"/><path fill="#F1F5FF" d="M443.5 214.1l-.1 27.2-65.3 38 .1-27.2z"/><path d="M420.4 239.5L383 261.2c-.7.4-1.2 1.3-1.2 2.1v.4c0 .8.5 1.1 1.2.7l37.4-21.8c.7-.4 1.2-1.3 1.2-2.1v-.4c0-.7-.6-1-1.2-.6" stroke="#8E8E8E" fill="#ACAFC3"/><path d="M429.4 231.8l-2.2 1.3c-1.1.7-2.1 2.3-2.1 3.6v2.5c0 1.3.9 1.9 2.1 1.2l2.2-1.3c1.1-.7 2.1-2.3 2.1-3.6V233c0-1.3-.9-1.8-2.1-1.2" stroke="#7389FC" fill="#C5D9FB"/><path d="M438.5 226.5l-2.2 1.3c-1.1.7-2.1 2.3-2.1 3.6v2.5c0 1.3.9 1.9 2.1 1.2l2.2-1.3c1.1-.7 2.1-2.3 2.1-3.6v-2.5c0-1.3-.9-1.8-2.1-1.2" stroke="#EBC300" fill="#F8E585"/><path d="M378.2 252.1l-.1 27.2-65.7-38 .1-27.2z" fill="#FBFCFF"/></g><path stroke="#D0D4E8" d="M378.2 252.1v27.2l65.2-38 .1-27.2zm-65.7-38l65.7 38v27.2l-65.8-38zm131 0l-65.7-37.9-65.3 37.9"/><path d="M374.3 248.2L304 207.6v188.8l70.3 40.6z" stroke="#D0D4E8" fill-rule="nonzero" fill="#FBFCFC" stroke-linecap="round" stroke-linejoin="bevel"/><path stroke="#D0D4E8" fill="#FFF" fill-rule="nonzero" stroke-linecap="round" stroke-linejoin="bevel" d="M374.3 248.2l72.9-42.1-70.3-40.6-72.9 42.1z"/><path d="M369.1 251.2l-70.3-40.6v188.8l70.3 40.6z" stroke="#D0D4E8" fill-rule="nonzero" fill="#FBFCFC" stroke-linecap="round" stroke-linejoin="bevel"/><g fill-rule="nonzero"><path d="M365.4 414l-65.3 38-65.7-38 65.3-37.9z" fill="#FFF"/><path fill="#F1F5FF" d="M365.4 414l-.1 27.2-65.3 37.9.1-27.1z"/><path d="M342.3 439.3l-37.4 21.8c-.7.4-1.2 1.3-1.2 2.1v.4c0 .8.5 1.1 1.2.7l37.4-21.8c.7-.4 1.2-1.3 1.2-2.1v-.4c0-.7-.5-1.1-1.2-.7" stroke="#8E8E8E" fill="#ACAFC3"/><path d="M351.3 431.7l-2.2 1.3c-1.1.7-2.1 2.3-2.1 3.6v2.5c0 1.3.9 1.9 2.1 1.2l2.2-1.3c1.1-.7 2.1-2.3 2.1-3.6v-2.5c0-1.3-.9-1.9-2.1-1.2" stroke="#7389FC" fill="#C5D9FB"/><path d="M360.4 426.4l-2.2 1.3c-1.1.7-2.1 2.3-2.1 3.6v2.5c0 1.3.9 1.9 2.1 1.2l2.2-1.3c1.1-.7 2.1-2.3 2.1-3.6v-2.5c0-1.3-.9-1.9-2.1-1.2" stroke="#EBC300" fill="#F8E585"/><path d="M300.1 452l-.1 27.1-65.7-37.9.1-27.2z" fill="#FBFCFF"/></g><path stroke="#D0D4E8" d="M300.1 452v27.1l65.2-37.9.1-27.2zm-65.7-38l65.7 38v27.1l-65.8-37.9zm131 0l-65.7-37.9-65.3 37.9"/><g fill-rule="nonzero"><path d="M365.4 383.1L300.1 421l-65.7-37.9 65.3-38z" fill="#FFF"/><path fill="#F1F5FF" d="M365.4 383.1l-.1 27.1-65.3 38 .1-27.2z"/><path d="M342.3 408.4l-37.4 21.8c-.7.4-1.2 1.3-1.2 2.1v.4c0 .8.5 1.1 1.2.7l37.4-21.8c.7-.4 1.2-1.3 1.2-2.1v-.4c0-.8-.5-1.1-1.2-.7" stroke="#8E8E8E" fill="#ACAFC3"/><path d="M351.3 400.7l-2.2 1.3c-1.1.7-2.1 2.3-2.1 3.6v2.5c0 1.3.9 1.9 2.1 1.2l2.2-1.3c1.1-.7 2.1-2.3 2.1-3.6v-2.5c0-1.3-.9-1.8-2.1-1.2" stroke="#7389FC" fill="#C5D9FB"/><path d="M360.4 395.5l-2.2 1.3c-1.1.7-2.1 2.3-2.1 3.6v2.5c0 1.3.9 1.9 2.1 1.2l2.2-1.3c1.1-.7 2.1-2.3 2.1-3.6v-2.5c0-1.4-.9-1.9-2.1-1.2" stroke="#EBC300" fill="#F8E585"/><path d="M300.1 421l-.1 27.2-65.7-38 .1-27.1z" fill="#FBFCFF"/></g><path stroke="#D0D4E8" d="M300.1 421v27.2l65.2-38 .1-27.1zm-65.7-37.9l65.7 37.9v27.2l-65.8-38z"/><path stroke="#D0D4E8" d="M365.4 383.1l-65.7-38-65.3 38"/><g fill-rule="nonzero"><path d="M365.4 352.1L300.1 390l-65.7-37.9 65.3-37.9z" fill="#FFF"/><path fill="#F1F5FF" d="M365.4 352.1l-.1 27.2-65.3 37.9.1-27.2z"/><path d="M342.3 377.4l-37.4 21.8c-.7.4-1.2 1.3-1.2 2.1v.4c0 .8.5 1.1 1.2.7l37.4-21.8c.7-.4 1.2-1.3 1.2-2.1v-.4c0-.8-.5-1.1-1.2-.7" stroke="#8E8E8E" fill="#ACAFC3"/><path d="M351.3 369.8l-2.2 1.3c-1.1.7-2.1 2.3-2.1 3.6v2.5c0 1.3.9 1.9 2.1 1.2l2.2-1.3c1.1-.7 2.1-2.3 2.1-3.6V371c0-1.3-.9-1.9-2.1-1.2" stroke="#7389FC" fill="#C5D9FB"/><path d="M360.4 364.5l-2.2 1.3c-1.1.7-2.1 2.3-2.1 3.6v2.5c0 1.3.9 1.9 2.1 1.2l2.2-1.3c1.1-.7 2.1-2.3 2.1-3.6v-2.5c0-1.3-.9-1.9-2.1-1.2" stroke="#EBC300" fill="#F8E585"/><path d="M300.1 390l-.1 27.2-65.7-37.9.1-27.2z" fill="#FBFCFF"/></g><path stroke="#D0D4E8" d="M300.1 390v27.2l65.2-37.9.1-27.2zm-65.7-37.9l65.7 37.9v27.2l-65.8-37.9zm131 0l-65.7-37.9-65.3 37.9"/><g fill-rule="nonzero"><path d="M365.4 321.2l-65.3 37.9-65.7-37.9 65.3-38z" fill="#FFF"/><path fill="#F1F5FF" d="M365.4 321.2l-.1 27.1-65.3 38 .1-27.2z"/><path d="M342.3 346.5l-37.4 21.8c-.7.4-1.2 1.3-1.2 2.1v.4c0 .8.5 1.1 1.2.7l37.4-21.8c.7-.4 1.2-1.3 1.2-2.1v-.4c0-.8-.5-1.1-1.2-.7" stroke="#8E8E8E" fill="#ACAFC3"/><path d="M351.3 338.8l-2.2 1.3c-1.1.7-2.1 2.3-2.1 3.6v2.5c0 1.3.9 1.9 2.1 1.2l2.2-1.3c1.1-.7 2.1-2.3 2.1-3.6V340c0-1.3-.9-1.8-2.1-1.2" stroke="#7389FC" fill="#C5D9FB"/><path d="M360.4 333.6l-2.2 1.3c-1.1.7-2.1 2.3-2.1 3.6v2.5c0 1.3.9 1.9 2.1 1.2l2.2-1.3c1.1-.7 2.1-2.3 2.1-3.6v-2.5c0-1.4-.9-1.9-2.1-1.2" stroke="#EBC300" fill="#F8E585"/><path d="M300.1 359.1l-.1 27.2-65.7-38 .1-27.1z" fill="#FBFCFF"/></g><path stroke="#D0D4E8" d="M300.1 359.1v27.2l65.2-38 .1-27.1zm-65.7-37.9l65.7 37.9v27.2l-65.8-38zm131 0l-65.7-38-65.3 38"/><g fill-rule="nonzero"><path d="M365.4 290.2l-65.3 37.9-65.7-37.9 65.3-37.9z" fill="#FFF"/><path fill="#F1F5FF" d="M365.4 290.2l-.1 27.2-65.3 37.9.1-27.2z"/><path d="M342.3 315.5l-37.4 21.8c-.7.4-1.2 1.3-1.2 2.1v.4c0 .8.5 1.1 1.2.7l37.4-21.8c.7-.4 1.2-1.3 1.2-2.1v-.4c0-.8-.5-1.1-1.2-.7" stroke="#8E8E8E" fill="#ACAFC3"/><path d="M351.3 307.9l-2.2 1.3c-1.1.7-2.1 2.3-2.1 3.6v2.5c0 1.3.9 1.9 2.1 1.2l2.2-1.3c1.1-.7 2.1-2.3 2.1-3.6v-2.5c0-1.4-.9-1.9-2.1-1.2" stroke="#7389FC" fill="#C5D9FB"/><path d="M360.4 302.6l-2.2 1.3c-1.1.7-2.1 2.3-2.1 3.6v2.5c0 1.3.9 1.9 2.1 1.2l2.2-1.3c1.1-.7 2.1-2.3 2.1-3.6v-2.5c0-1.3-.9-1.9-2.1-1.2" stroke="#EBC300" fill="#F8E585"/><path d="M300.1 328.1l-.1 27.2-65.7-37.9.1-27.2z" fill="#FBFCFF"/></g><path stroke="#D0D4E8" d="M300.1 328.1v27.2l65.2-37.9.1-27.2zm-65.7-37.9l65.7 37.9v27.2l-65.8-37.9zm131 0l-65.7-37.9-65.3 37.9"/><g fill-rule="nonzero"><path d="M365.4 259.3l-65.3 37.9-65.7-38 65.3-37.9z" fill="#FFF"/><path fill="#F1F5FF" d="M365.4 259.3l-.1 27.1-65.3 38 .1-27.2z"/><path d="M342.3 284.6l-37.4 21.8c-.7.4-1.2 1.3-1.2 2.1v.4c0 .8.5 1.1 1.2.7l37.4-21.8c.7-.4 1.2-1.3 1.2-2.1v-.4c0-.8-.5-1.1-1.2-.7" stroke="#8E8E8E" fill="#ACAFC3"/><path d="M351.3 276.9l-2.2 1.3c-1.1.7-2.1 2.3-2.1 3.6v2.5c0 1.3.9 1.9 2.1 1.2l2.2-1.3c1.1-.7 2.1-2.3 2.1-3.6v-2.5c0-1.3-.9-1.8-2.1-1.2" stroke="#7389FC" fill="#C5D9FB"/><path d="M360.4 271.6l-2.2 1.3c-1.1.7-2.1 2.3-2.1 3.6v2.5c0 1.3.9 1.9 2.1 1.2l2.2-1.3c1.1-.7 2.1-2.3 2.1-3.6v-2.5c0-1.3-.9-1.8-2.1-1.2" stroke="#EBC300" fill="#F8E585"/><path d="M300.1 297.2l-.1 27.2-65.7-38 .1-27.2z" fill="#FBFCFF"/></g><path stroke="#D0D4E8" d="M300.1 297.2v27.2l65.2-38 .1-27.1zm-65.7-38l65.7 38v27.2l-65.8-38z"/><path stroke="#D0D4E8" d="M365.4 259.3l-65.7-38-65.3 37.9"/><path d="M296.2 293.3l-70.3-40.6v188.8l70.3 40.6z" stroke="#D0D4E8" fill-rule="nonzero" fill="#FBFCFC" stroke-linecap="round" stroke-linejoin="bevel"/><path stroke="#D0D4E8" fill="#FFF" fill-rule="nonzero" stroke-linecap="round" stroke-linejoin="bevel" d="M296.2 293.3l72.9-42.1-70.3-40.6-72.9 42.1z"/><path d="M738.2 193.4l-70.3-40.5v188.7l70.3 40.6z" stroke="#D0D4E8" fill-rule="nonzero" fill="#FBFCFC" stroke-linecap="round" stroke-linejoin="bevel"/><g fill-rule="nonzero"><path d="M734.5 356.3l-65.3 37.9-65.7-37.9 65.3-38z" fill="#FFF"/><path fill="#F1F5FF" d="M734.5 356.3l-.1 27.2-65.3 37.9.1-27.2z"/><path d="M711.4 381.6L674 403.3c-.7.4-1.2 1.3-1.2 2.1v.4c0 .8.5 1.1 1.2.7l37.4-21.8c.7-.4 1.2-1.3 1.2-2.1v-.4c0-.7-.5-1-1.2-.6" stroke="#8E8E8E" fill="#ACAFC3"/><path d="M720.4 374l-2.2 1.3c-1.1.7-2.1 2.3-2.1 3.6v2.5c0 1.3.9 1.9 2.1 1.2l2.2-1.3c1.1-.7 2.1-2.3 2.1-3.6v-2.5c0-1.4-.9-1.9-2.1-1.2" stroke="#7389FC" fill="#C5D9FB"/><path d="M729.5 368.7l-2.2 1.3c-1.1.7-2.1 2.3-2.1 3.6v2.5c0 1.3.9 1.9 2.1 1.2l2.2-1.3c1.1-.7 2.1-2.3 2.1-3.6v-2.5c0-1.4-.9-1.9-2.1-1.2" stroke="#EBC300" fill="#F8E585"/><path d="M669.2 394.2l-.1 27.2-65.7-37.9.1-27.2z" fill="#FBFCFF"/></g><path stroke="#D0D4E8" d="M669.2 394.2v27.2l65.2-37.9.1-27.2zm-65.7-37.9l65.7 37.9v27.2l-65.8-37.9zm131 0l-65.7-38-65.3 38"/><g fill-rule="nonzero"><path d="M734.5 325.3l-65.3 38-65.7-38 65.3-37.9z" fill="#FFF"/><path fill="#F1F5FF" d="M734.5 325.3l-.1 27.2-65.3 37.9.1-27.1z"/><path d="M711.4 350.6L674 372.4c-.7.4-1.2 1.3-1.2 2.1v.4c0 .8.5 1.1 1.2.7l37.4-21.8c.7-.4 1.2-1.3 1.2-2.1v-.4c0-.7-.5-1.1-1.2-.7" stroke="#8E8E8E" fill="#ACAFC3"/><path d="M720.4 343l-2.2 1.3c-1.1.7-2.1 2.3-2.1 3.6v2.5c0 1.3.9 1.9 2.1 1.2l2.2-1.3c1.1-.7 2.1-2.3 2.1-3.6v-2.5c0-1.3-.9-1.9-2.1-1.2" stroke="#7389FC" fill="#C5D9FB"/><path d="M729.5 337.7l-2.2 1.3c-1.1.7-2.1 2.3-2.1 3.6v2.5c0 1.3.9 1.9 2.1 1.2l2.2-1.3c1.1-.7 2.1-2.3 2.1-3.6v-2.5c0-1.3-.9-1.8-2.1-1.2" stroke="#EBC300" fill="#F8E585"/><path d="M669.2 363.3l-.1 27.1-65.7-37.9.1-27.2z" fill="#FBFCFF"/></g><path stroke="#D0D4E8" d="M669.2 363.3v27.1l65.2-37.9.1-27.2zm-65.7-38l65.7 38v27.1l-65.8-37.9zm131 0l-65.7-37.9-65.3 37.9"/><g fill-rule="nonzero"><path d="M734.5 294.4l-65.3 37.9-65.7-37.9 65.3-38z" fill="#FFF"/><path fill="#F1F5FF" d="M734.5 294.4l-.1 27.2-65.3 37.9.1-27.2z"/><path d="M711.4 319.7L674 341.4c-.7.4-1.2 1.3-1.2 2.1v.4c0 .8.5 1.1 1.2.7l37.4-21.8c.7-.4 1.2-1.3 1.2-2.1v-.4c0-.7-.5-1-1.2-.6" stroke="#8E8E8E" fill="#ACAFC3"/><path d="M720.4 312l-2.2 1.3c-1.1.7-2.1 2.3-2.1 3.6v2.5c0 1.3.9 1.9 2.1 1.2l2.2-1.3c1.1-.7 2.1-2.3 2.1-3.6v-2.5c0-1.3-.9-1.8-2.1-1.2" stroke="#7389FC" fill="#C5D9FB"/><path d="M729.5 306.8l-2.2 1.3c-1.1.7-2.1 2.3-2.1 3.6v2.5c0 1.3.9 1.9 2.1 1.2l2.2-1.3c1.1-.7 2.1-2.3 2.1-3.6V308c0-1.4-.9-1.9-2.1-1.2" stroke="#EBC300" fill="#F8E585"/><path d="M669.2 332.3l-.1 27.2-65.7-38 .1-27.1z" fill="#FBFCFF"/></g><path stroke="#D0D4E8" d="M669.2 332.3v27.2l65.2-37.9.1-27.2zm-65.7-37.9l65.7 37.9v27.2l-65.8-38zm131 0l-65.7-38-65.3 38"/><g fill-rule="nonzero"><path d="M734.5 263.4l-65.3 38-65.7-38 65.3-37.9z" fill="#FFF"/><path fill="#F1F5FF" d="M734.5 263.4l-.1 27.2-65.3 37.9.1-27.1z"/><path d="M711.4 288.7L674 310.5c-.7.4-1.2 1.3-1.2 2.1v.4c0 .8.5 1.1 1.2.7l37.4-21.8c.7-.4 1.2-1.3 1.2-2.1v-.4c0-.7-.5-1.1-1.2-.7" stroke="#8E8E8E" fill="#ACAFC3"/><path d="M720.4 281.1l-2.2 1.3c-1.1.7-2.1 2.3-2.1 3.6v2.5c0 1.3.9 1.9 2.1 1.2l2.2-1.3c1.1-.7 2.1-2.3 2.1-3.6v-2.5c0-1.3-.9-1.9-2.1-1.2" stroke="#7389FC" fill="#C5D9FB"/><path d="M729.5 275.8l-2.2 1.3c-1.1.7-2.1 2.3-2.1 3.6v2.5c0 1.3.9 1.9 2.1 1.2l2.2-1.3c1.1-.7 2.1-2.3 2.1-3.6V277c0-1.3-.9-1.9-2.1-1.2" stroke="#EBC300" fill="#F8E585"/><path d="M669.2 301.4l-.1 27.1-65.7-37.9.1-27.2z" fill="#FBFCFF"/></g><path stroke="#D0D4E8" d="M669.2 301.4v27.1l65.2-37.9.1-27.2zm-65.7-38l65.7 38v27.1l-65.8-37.9zm131 0l-65.7-37.9-65.3 37.9"/><g fill-rule="nonzero"><path d="M734.5 232.5l-65.3 37.9-65.7-37.9 65.3-38z" fill="#FFF"/><path fill="#F1F5FF" d="M734.5 232.5l-.1 27.1-65.3 38 .1-27.2z"/><path d="M711.4 257.8L674 279.5c-.7.4-1.2 1.3-1.2 2.1v.4c0 .8.5 1.1 1.2.7l37.4-21.8c.7-.4 1.2-1.3 1.2-2.1v-.4c0-.7-.5-1-1.2-.6" stroke="#8E8E8E" fill="#ACAFC3"/><path d="M720.4 250.1l-2.2 1.3c-1.1.7-2.1 2.3-2.1 3.6v2.5c0 1.3.9 1.9 2.1 1.2l2.2-1.3c1.1-.7 2.1-2.3 2.1-3.6v-2.5c0-1.3-.9-1.8-2.1-1.2" stroke="#7389FC" fill="#C5D9FB"/><path d="M729.5 244.9l-2.2 1.3c-1.1.7-2.1 2.3-2.1 3.6v2.5c0 1.3.9 1.9 2.1 1.2l2.2-1.3c1.1-.7 2.1-2.3 2.1-3.6v-2.5c0-1.4-.9-1.9-2.1-1.2" stroke="#EBC300" fill="#F8E585"/><path d="M669.2 270.4l-.1 27.2-65.7-38 .1-27.1z" fill="#FBFCFF"/></g><path stroke="#D0D4E8" d="M669.2 270.4v27.2l65.2-38 .1-27.1zm-65.7-37.9l65.7 37.9v27.2l-65.8-38zm131 0l-65.7-38-65.3 38"/><g fill-rule="nonzero"><path d="M734.5 201.5l-65.3 37.9-65.7-37.9 65.3-37.9z" fill="#FFF"/><path fill="#F1F5FF" d="M734.5 201.5l-.1 27.2-65.3 37.9.1-27.2z"/><path d="M711.4 226.8L674 248.6c-.7.4-1.2 1.3-1.2 2.1v.4c0 .8.5 1.1 1.2.7l37.4-21.8c.7-.4 1.2-1.3 1.2-2.1v-.4c0-.8-.5-1.1-1.2-.7" stroke="#8E8E8E" fill="#ACAFC3"/><path d="M720.4 219.2l-2.2 1.3c-1.1.7-2.1 2.3-2.1 3.6v2.5c0 1.3.9 1.9 2.1 1.2l2.2-1.3c1.1-.7 2.1-2.3 2.1-3.6v-2.5c0-1.3-.9-1.9-2.1-1.2" stroke="#7389FC" fill="#C5D9FB"/><path d="M729.5 213.9l-2.2 1.3c-1.1.7-2.1 2.3-2.1 3.6v2.5c0 1.3.9 1.9 2.1 1.2l2.2-1.3c1.1-.7 2.1-2.3 2.1-3.6v-2.5c0-1.3-.9-1.9-2.1-1.2" stroke="#EBC300" fill="#F8E585"/><path d="M669.2 239.4l-.1 27.2-65.7-37.9.1-27.2z" fill="#FBFCFF"/></g><path stroke="#D0D4E8" d="M669.2 239.4v27.2l65.2-37.9.1-27.2zm-65.7-37.9l65.7 37.9v27.2l-65.8-37.9zm131 0l-65.7-37.9-65.3 37.9"/><path d="M665.3 235.6L595 195v188.8l70.3 40.6z" stroke="#D0D4E8" fill-rule="nonzero" fill="#FBFCFC" stroke-linecap="round" stroke-linejoin="bevel"/><path stroke="#D0D4E8" fill="#FFF" fill-rule="nonzero" stroke-linecap="round" stroke-linejoin="bevel" d="M665.3 235.6l72.9-42.2-70.3-40.5L595 195z"/><path d="M660.1 239.4l-70.3-40.6v188.8l70.3 40.6z" stroke="#D0D4E8" fill-rule="nonzero" fill="#FBFCFC" stroke-linecap="round" stroke-linejoin="bevel"/><g fill-rule="nonzero"><path d="M656.4 402.2l-65.3 37.9-65.7-37.9 65.3-37.9z" fill="#FFF"/><path fill="#F1F5FF" d="M656.4 402.2l-.1 27.2-65.3 37.9.1-27.2z"/><path d="M633.3 427.5l-37.4 21.8c-.7.4-1.2 1.3-1.2 2.1v.4c0 .8.5 1.1 1.2.7l37.4-21.8c.7-.4 1.2-1.3 1.2-2.1v-.4c0-.8-.5-1.1-1.2-.7" stroke="#8E8E8E" fill="#ACAFC3"/><path d="M642.3 419.9l-2.2 1.3c-1.1.7-2.1 2.3-2.1 3.6v2.5c0 1.3.9 1.9 2.1 1.2l2.2-1.3c1.1-.7 2.1-2.3 2.1-3.6v-2.5c0-1.4-.9-1.9-2.1-1.2" stroke="#7389FC" fill="#C5D9FB"/><path d="M651.4 414.6l-2.2 1.3c-1.1.7-2.1 2.3-2.1 3.6v2.5c0 1.3.9 1.9 2.1 1.2l2.2-1.3c1.1-.7 2.1-2.3 2.1-3.6v-2.5c0-1.3-.9-1.9-2.1-1.2" stroke="#EBC300" fill="#F8E585"/><path d="M591.1 440.1l-.1 27.2-65.7-37.9.1-27.2z" fill="#FBFCFF"/></g><path stroke="#D0D4E8" d="M591.1 440.1v27.2l65.2-37.9.1-27.2zm-65.7-37.9l65.7 37.9v27.2l-65.8-37.9zm131 0l-65.7-37.9-65.3 37.9"/><g fill-rule="nonzero"><path d="M656.4 371.2l-65.3 38-65.7-38 65.3-37.9z" fill="#FFF"/><path fill="#F1F5FF" d="M656.4 371.2l-.1 27.2-65.3 38 .1-27.2z"/><path d="M633.3 396.6l-37.4 21.8c-.7.4-1.2 1.3-1.2 2.1v.4c0 .8.5 1.1 1.2.7l37.4-21.8c.7-.4 1.2-1.3 1.2-2.1v-.4c0-.8-.5-1.1-1.2-.7" stroke="#8E8E8E" fill="#ACAFC3"/><path d="M642.3 388.9l-2.2 1.3c-1.1.7-2.1 2.3-2.1 3.6v2.5c0 1.3.9 1.9 2.1 1.2l2.2-1.3c1.1-.7 2.1-2.3 2.1-3.6v-2.5c0-1.3-.9-1.8-2.1-1.2" stroke="#7389FC" fill="#C5D9FB"/><path d="M651.4 383.6l-2.2 1.3c-1.1.7-2.1 2.3-2.1 3.6v2.5c0 1.3.9 1.9 2.1 1.2l2.2-1.3c1.1-.7 2.1-2.3 2.1-3.6v-2.5c0-1.3-.9-1.8-2.1-1.2" stroke="#EBC300" fill="#F8E585"/><path d="M591.1 409.2l-.1 27.2-65.7-38 .1-27.2z" fill="#FBFCFF"/></g><path stroke="#D0D4E8" d="M591.1 409.2v27.2l65.2-38 .1-27.2zm-65.7-38l65.7 38v27.2l-65.8-38zm131 0l-65.7-37.9-65.3 37.9"/><g fill-rule="nonzero"><path d="M656.4 340.3l-65.3 37.9-65.7-37.9 65.3-38z" fill="#FFF"/><path fill="#F1F5FF" d="M656.4 340.3l-.1 27.2-65.3 37.9.1-27.2z"/><path d="M633.3 365.6l-37.4 21.8c-.7.4-1.2 1.3-1.2 2.1v.4c0 .8.5 1.1 1.2.7l37.4-21.8c.7-.4 1.2-1.3 1.2-2.1v-.4c0-.8-.5-1.1-1.2-.7" stroke="#8E8E8E" fill="#ACAFC3"/><path d="M642.3 358l-2.2 1.3c-1.1.7-2.1 2.3-2.1 3.6v2.5c0 1.3.9 1.9 2.1 1.2l2.2-1.3c1.1-.7 2.1-2.3 2.1-3.6v-2.5c0-1.4-.9-1.9-2.1-1.2" stroke="#7389FC" fill="#C5D9FB"/><path d="M651.4 352.7l-2.2 1.3c-1.1.7-2.1 2.3-2.1 3.6v2.5c0 1.3.9 1.9 2.1 1.2l2.2-1.3c1.1-.7 2.1-2.3 2.1-3.6v-2.5c0-1.3-.9-1.9-2.1-1.2" stroke="#EBC300" fill="#F8E585"/><path d="M591.1 378.2l-.1 27.2-65.7-37.9.1-27.2z" fill="#FBFCFF"/></g><path stroke="#D0D4E8" d="M591.1 378.2v27.2l65.2-37.9.1-27.2zm-65.7-37.9l65.7 37.9v27.2l-65.8-37.9zm131 0l-65.7-38-65.3 38"/><g fill-rule="nonzero"><path d="M656.4 309.3l-65.3 38-65.7-38 65.3-37.9z" fill="#FFF"/><path fill="#F1F5FF" d="M656.4 309.3l-.1 27.2-65.3 38 .1-27.2z"/><path d="M633.3 334.6l-37.4 21.8c-.7.4-1.2 1.3-1.2 2.1v.4c0 .8.5 1.1 1.2.7l37.4-21.8c.7-.4 1.2-1.3 1.2-2.1v-.4c0-.7-.5-1-1.2-.7" stroke="#8E8E8E" fill="#ACAFC3"/><path d="M642.3 327l-2.2 1.3c-1.1.7-2.1 2.3-2.1 3.6v2.5c0 1.3.9 1.9 2.1 1.2l2.2-1.3c1.1-.7 2.1-2.3 2.1-3.6v-2.5c0-1.3-.9-1.8-2.1-1.2" stroke="#7389FC" fill="#C5D9FB"/><path d="M651.4 321.7l-2.2 1.3c-1.1.7-2.1 2.3-2.1 3.6v2.5c0 1.3.9 1.9 2.1 1.2l2.2-1.3c1.1-.7 2.1-2.3 2.1-3.6v-2.5c0-1.3-.9-1.8-2.1-1.2" stroke="#EBC300" fill="#F8E585"/><path d="M591.1 347.3l-.1 27.2-65.7-38 .1-27.2z" fill="#FBFCFF"/></g><path stroke="#D0D4E8" d="M591.1 347.3v27.2l65.2-38 .1-27.2zm-65.7-38l65.7 38v27.2l-65.8-38zm131 0l-65.7-37.9-65.3 37.9"/><g fill-rule="nonzero"><path d="M656.4 278.4l-65.3 37.9-65.7-37.9 65.3-38z" fill="#FFF"/><path fill="#F1F5FF" d="M656.4 278.4l-.1 27.2-65.3 37.9.1-27.2z"/><path d="M633.3 303.7l-37.4 21.8c-.7.4-1.2 1.3-1.2 2.1v.4c0 .8.5 1.1 1.2.7l37.4-21.8c.7-.4 1.2-1.3 1.2-2.1v-.4c0-.8-.5-1.1-1.2-.7" stroke="#8E8E8E" fill="#ACAFC3"/><path d="M642.3 296.1l-2.2 1.3c-1.1.7-2.1 2.3-2.1 3.6v2.5c0 1.3.9 1.9 2.1 1.2l2.2-1.3c1.1-.7 2.1-2.3 2.1-3.6v-2.5c0-1.4-.9-1.9-2.1-1.2" stroke="#7389FC" fill="#C5D9FB"/><path d="M651.4 290.8l-2.2 1.3c-1.1.7-2.1 2.3-2.1 3.6v2.5c0 1.3.9 1.9 2.1 1.2l2.2-1.3c1.1-.7 2.1-2.3 2.1-3.6V292c0-1.4-.9-1.9-2.1-1.2" stroke="#EBC300" fill="#F8E585"/><path d="M591.1 316.3l-.1 27.2-65.7-37.9.1-27.2z" fill="#FBFCFF"/></g><path stroke="#D0D4E8" d="M591.1 316.3v27.2l65.2-37.9.1-27.2zm-65.7-37.9l65.7 37.9v27.2l-65.8-37.9zm131 0l-65.7-38-65.3 38"/><g fill-rule="nonzero"><path d="M656.4 247.4l-65.3 38-65.7-38 65.3-37.9z" fill="#FFF"/><path fill="#F1F5FF" d="M656.4 247.4l-.1 27.2-65.3 38 .1-27.2z"/><path d="M633.3 272.7l-37.4 21.8c-.7.4-1.2 1.3-1.2 2.1v.4c0 .8.5 1.1 1.2.7l37.4-21.8c.7-.4 1.2-1.3 1.2-2.1v-.4c0-.7-.5-1-1.2-.7" stroke="#8E8E8E" fill="#ACAFC3"/><path d="M642.3 265.1l-2.2 1.3c-1.1.7-2.1 2.3-2.1 3.6v2.5c0 1.3.9 1.9 2.1 1.2l2.2-1.3c1.1-.7 2.1-2.3 2.1-3.6v-2.5c0-1.3-.9-1.9-2.1-1.2" stroke="#7389FC" fill="#C5D9FB"/><path d="M651.4 259.8l-2.2 1.3c-1.1.7-2.1 2.3-2.1 3.6v2.5c0 1.3.9 1.9 2.1 1.2l2.2-1.3c1.1-.7 2.1-2.3 2.1-3.6V261c0-1.3-.9-1.8-2.1-1.2" stroke="#EBC300" fill="#F8E585"/><path d="M591.1 285.4l-.1 27.2-65.7-38 .1-27.2z" fill="#FBFCFF"/></g><path stroke="#D0D4E8" d="M591.1 285.4v27.2l65.2-38 .1-27.2zm-65.7-38l65.7 38v27.2l-65.8-38zm131 0l-65.7-37.9-65.3 37.9"/><path d="M587.2 281.5l-70.3-40.6v188.8l70.3 40.6z" stroke="#D0D4E8" fill-rule="nonzero" fill="#FBFCFC" stroke-linecap="round" stroke-linejoin="bevel"/><path stroke="#D0D4E8" fill="#FFF" fill-rule="nonzero" stroke-linecap="round" stroke-linejoin="bevel" d="M587.2 281.5l72.9-42.1-70.3-40.6-72.9 42.1z"/><path d="M582 285l-70.3-40.6v188.8l70.3 40.6z" stroke="#D0D4E8" fill-rule="nonzero" fill="#FBFCFC" stroke-linecap="round" stroke-linejoin="bevel"/><g fill-rule="nonzero"><path d="M578.3 447.9L513 485.8l-65.7-37.9 65.3-38z" fill="#FFF"/><path fill="#F1F5FF" d="M578.3 447.9l-.1 27.1-65.2 38v-27.2z"/><path d="M555.2 473.2L517.8 495c-.7.4-1.2 1.3-1.2 2.1v.4c0 .8.5 1.1 1.2.7l37.4-21.8c.7-.4 1.2-1.3 1.2-2.1v-.4c0-.8-.5-1.1-1.2-.7" stroke="#8E8E8E" fill="#ACAFC3"/><path d="M564.3 465.5l-2.2 1.3c-1.1.7-2.1 2.3-2.1 3.6v2.5c0 1.3.9 1.9 2.1 1.2l2.2-1.3c1.1-.7 2.1-2.3 2.1-3.6v-2.5c-.1-1.3-1-1.8-2.1-1.2" stroke="#7389FC" fill="#C5D9FB"/><path d="M573.3 460.3l-2.2 1.3c-1.1.7-2.1 2.3-2.1 3.6v2.5c0 1.3.9 1.9 2.1 1.2l2.2-1.3c1.1-.7 2.1-2.3 2.1-3.6v-2.5c0-1.4-.9-1.9-2.1-1.2" stroke="#EBC300" fill="#F8E585"/><path d="M513 485.8V513l-65.8-38 .1-27.1z" fill="#FBFCFF"/></g><path stroke="#D0D4E8" d="M513 485.8V513l65.2-38 .1-27.1zm-65.7-37.9l65.7 37.9V513l-65.8-38zm131 0l-65.7-38-65.3 38"/><g fill-rule="nonzero"><path d="M578.3 416.9L513 454.8l-65.7-37.9 65.3-37.9z" fill="#FFF"/><path fill="#F1F5FF" d="M578.3 416.9l-.1 27.2L513 482v-27.2z"/><path d="M555.2 442.2L517.8 464c-.7.4-1.2 1.3-1.2 2.1v.4c0 .8.5 1.1 1.2.7l37.4-21.8c.7-.4 1.2-1.3 1.2-2.1v-.4c0-.8-.5-1.1-1.2-.7" stroke="#8E8E8E" fill="#ACAFC3"/><path d="M564.3 434.6l-2.2 1.3c-1.1.7-2.1 2.3-2.1 3.6v2.5c0 1.3.9 1.9 2.1 1.2l2.2-1.3c1.1-.7 2.1-2.3 2.1-3.6v-2.5c-.1-1.3-1-1.9-2.1-1.2" stroke="#7389FC" fill="#C5D9FB"/><path d="M573.3 429.3l-2.2 1.3c-1.1.7-2.1 2.3-2.1 3.6v2.5c0 1.3.9 1.9 2.1 1.2l2.2-1.3c1.1-.7 2.1-2.3 2.1-3.6v-2.5c0-1.3-.9-1.9-2.1-1.2" stroke="#EBC300" fill="#F8E585"/><path d="M513 454.8V482l-65.8-37.9.1-27.2z" fill="#FBFCFF"/></g><path stroke="#D0D4E8" d="M513 454.8V482l65.2-37.9.1-27.2zm-65.7-37.9l65.7 37.9V482l-65.8-37.9zm131 0L512.6 379l-65.3 37.9"/><g fill-rule="nonzero"><path d="M578.3 386L513 423.9 447.3 386l65.3-38z" fill="#FFF"/><path fill="#F1F5FF" d="M578.3 386l-.1 27.1-65.2 38v-27.2z"/><path d="M555.2 411.3L517.8 433c-.7.4-1.2 1.3-1.2 2.1v.4c0 .8.5 1.1 1.2.7l37.4-21.8c.7-.4 1.2-1.3 1.2-2.1v-.4c0-.7-.5-1-1.2-.6" stroke="#8E8E8E" fill="#ACAFC3"/><path d="M564.3 403.6l-2.2 1.3c-1.1.7-2.1 2.3-2.1 3.6v2.5c0 1.3.9 1.9 2.1 1.2l2.2-1.3c1.1-.7 2.1-2.3 2.1-3.6v-2.5c-.1-1.3-1-1.8-2.1-1.2" stroke="#7389FC" fill="#C5D9FB"/><path d="M573.3 398.3l-2.2 1.3c-1.1.7-2.1 2.3-2.1 3.6v2.5c0 1.3.9 1.9 2.1 1.2l2.2-1.3c1.1-.7 2.1-2.3 2.1-3.6v-2.5c0-1.3-.9-1.8-2.1-1.2" stroke="#EBC300" fill="#F8E585"/><path d="M513 423.9v27.2l-65.8-38 .1-27.1z" fill="#FBFCFF"/></g><path stroke="#D0D4E8" d="M513 423.9v27.2l65.2-38 .1-27.1zM447.3 386l65.7 37.9v27.2l-65.8-38z"/><path stroke="#D0D4E8" d="M578.3 386l-65.7-38-65.3 38"/><g fill-rule="nonzero"><path d="M578.3 355L513 392.9 447.3 355l65.3-37.9z" fill="#FFF"/><path fill="#F1F5FF" d="M578.3 355l-.1 27.2-65.2 37.9v-27.2z"/><path d="M555.2 380.3l-37.4 21.8c-.7.4-1.2 1.3-1.2 2.1v.4c0 .8.5 1.1 1.2.7l37.4-21.8c.7-.4 1.2-1.3 1.2-2.1v-.4c0-.8-.5-1.1-1.2-.7" stroke="#8E8E8E" fill="#ACAFC3"/><path d="M564.3 372.7l-2.2 1.3c-1.1.7-2.1 2.3-2.1 3.6v2.5c0 1.3.9 1.9 2.1 1.2l2.2-1.3c1.1-.7 2.1-2.3 2.1-3.6v-2.5c-.1-1.4-1-1.9-2.1-1.2" stroke="#7389FC" fill="#C5D9FB"/><path d="M573.3 367.4l-2.2 1.3c-1.1.7-2.1 2.3-2.1 3.6v2.5c0 1.3.9 1.9 2.1 1.2l2.2-1.3c1.1-.7 2.1-2.3 2.1-3.6v-2.5c0-1.3-.9-1.9-2.1-1.2" stroke="#EBC300" fill="#F8E585"/><path d="M513 392.9v27.2l-65.8-37.9.1-27.2z" fill="#FBFCFF"/></g><path stroke="#D0D4E8" d="M513 392.9v27.2l65.2-37.9.1-27.2zM447.3 355l65.7 37.9v27.2l-65.8-37.9zm131 0l-65.7-37.9-65.3 37.9"/><g fill-rule="nonzero"><path d="M578.3 324L513 362l-65.7-38 65.3-37.9z" fill="#FFF"/><path fill="#F1F5FF" d="M578.3 324l-.1 27.2-65.2 38V362z"/><path d="M555.2 349.4l-37.4 21.8c-.7.4-1.2 1.3-1.2 2.1v.4c0 .8.5 1.1 1.2.7l37.4-21.8c.7-.4 1.2-1.3 1.2-2.1v-.4c0-.8-.5-1.1-1.2-.7" stroke="#8E8E8E" fill="#ACAFC3"/><path d="M564.3 341.7l-2.2 1.3c-1.1.7-2.1 2.3-2.1 3.6v2.5c0 1.3.9 1.9 2.1 1.2l2.2-1.3c1.1-.7 2.1-2.3 2.1-3.6v-2.5c-.1-1.3-1-1.8-2.1-1.2" stroke="#7389FC" fill="#C5D9FB"/><path d="M573.3 336.4l-2.2 1.3c-1.1.7-2.1 2.3-2.1 3.6v2.5c0 1.3.9 1.9 2.1 1.2l2.2-1.3c1.1-.7 2.1-2.3 2.1-3.6v-2.5c0-1.3-.9-1.8-2.1-1.2" stroke="#EBC300" fill="#F8E585"/><path d="M513 362v27.2l-65.8-38 .1-27.2z" fill="#FBFCFF"/></g><path stroke="#D0D4E8" d="M513 362v27.2l65.2-38 .1-27.2zm-65.7-38l65.7 38v27.2l-65.8-38zm131 0l-65.7-37.9-65.3 37.9"/><g fill-rule="nonzero"><path d="M578.3 293.1L513 331l-65.7-37.9 65.3-37.9z" fill="#FFF"/><path fill="#F1F5FF" d="M578.3 293.1l-.1 27.2-65.2 37.9V331z"/><path d="M555.2 318.4l-37.4 21.8c-.7.4-1.2 1.3-1.2 2.1v.4c0 .8.5 1.1 1.2.7l37.4-21.8c.7-.4 1.2-1.3 1.2-2.1v-.4c0-.8-.5-1.1-1.2-.7" stroke="#8E8E8E" fill="#ACAFC3"/><path d="M564.3 310.8l-2.2 1.3c-1.1.7-2.1 2.3-2.1 3.6v2.5c0 1.3.9 1.9 2.1 1.2l2.2-1.3c1.1-.7 2.1-2.3 2.1-3.6V312c-.1-1.4-1-1.9-2.1-1.2" stroke="#7389FC" fill="#C5D9FB"/><path d="M573.3 305.5l-2.2 1.3c-1.1.7-2.1 2.3-2.1 3.6v2.5c0 1.3.9 1.9 2.1 1.2l2.2-1.3c1.1-.7 2.1-2.3 2.1-3.6v-2.5c0-1.3-.9-1.9-2.1-1.2" stroke="#EBC300" fill="#F8E585"/><path d="M513 331v27.2l-65.8-37.9.1-27.2z" fill="#FBFCFF"/></g><path stroke="#D0D4E8" d="M513 331v27.2l65.2-37.9.1-27.2zm-65.7-37.9L513 331v27.2l-65.8-37.9zm131 0l-65.7-37.9-65.3 37.9"/><path d="M509.1 327.2l-70.3-40.6v188.8l70.3 40.5z" stroke="#D0D4E8" fill-rule="nonzero" fill="#FBFCFC" stroke-linecap="round" stroke-linejoin="bevel"/><path stroke="#D0D4E8" fill="#FFF" fill-rule="nonzero" stroke-linecap="round" stroke-linejoin="bevel" d="M509.1 327.2L582 285l-70.3-40.6-72.9 42.2z"/><path d="M503.9 330.1l-70.2-40.5v188.7l70.2 40.6z" stroke="#D0D4E8" fill-rule="nonzero" fill="#FBFCFC" stroke-linecap="round" stroke-linejoin="bevel"/><g fill-rule="nonzero"><path d="M500.2 493l-65.3 37.9-65.7-37.9 65.3-38z" fill="#FFF"/><path fill="#F1F5FF" d="M500.2 493l-.1 27.2-65.2 37.9v-27.2z"/><path d="M477.1 518.3L439.7 540c-.7.4-1.2 1.3-1.2 2.1v.4c0 .8.5 1.1 1.2.7l37.4-21.8c.7-.4 1.2-1.3 1.2-2.1v-.4c0-.7-.5-1-1.2-.6" stroke="#8E8E8E" fill="#ACAFC3"/><path d="M486.2 510.7L484 512c-1.1.7-2.1 2.3-2.1 3.6v2.5c0 1.3.9 1.9 2.1 1.2l2.2-1.3c1.1-.7 2.1-2.3 2.1-3.6v-2.5c-.1-1.4-1-1.9-2.1-1.2" stroke="#7389FC" fill="#C5D9FB"/><path d="M495.3 505.4l-2.2 1.3c-1.1.7-2.1 2.3-2.1 3.6v2.5c0 1.3.9 1.9 2.1 1.2l2.2-1.3c1.1-.7 2.1-2.3 2.1-3.6v-2.5c-.1-1.4-1-1.9-2.1-1.2" stroke="#EBC300" fill="#F8E585"/><path d="M434.9 530.9v27.2l-65.8-37.9.1-27.2z" fill="#FBFCFF"/></g><path stroke="#D0D4E8" d="M434.9 530.9v27.2l65.2-37.9.1-27.2zM369.2 493l65.7 37.9v27.2l-65.8-37.9zm131 0l-65.7-38-65.3 38"/><g fill-rule="nonzero"><path d="M500.2 462l-65.3 38-65.7-38 65.3-37.9z" fill="#FFF"/><path fill="#F1F5FF" d="M500.2 462l-.1 27.2-65.2 37.9V500z"/><path d="M477.1 487.3l-37.4 21.8c-.7.4-1.2 1.3-1.2 2.1v.4c0 .8.5 1.1 1.2.7l37.4-21.8c.7-.4 1.2-1.3 1.2-2.1v-.4c0-.7-.5-1.1-1.2-.7" stroke="#8E8E8E" fill="#ACAFC3"/><path d="M486.2 479.7L484 481c-1.1.7-2.1 2.3-2.1 3.6v2.5c0 1.3.9 1.9 2.1 1.2l2.2-1.3c1.1-.7 2.1-2.3 2.1-3.6v-2.5c-.1-1.3-1-1.9-2.1-1.2" stroke="#7389FC" fill="#C5D9FB"/><path d="M495.3 474.4l-2.2 1.3c-1.1.7-2.1 2.3-2.1 3.6v2.5c0 1.3.9 1.9 2.1 1.2l2.2-1.3c1.1-.7 2.1-2.3 2.1-3.6v-2.5c-.1-1.3-1-1.8-2.1-1.2" stroke="#EBC300" fill="#F8E585"/><path d="M434.9 500v27.1l-65.8-37.9.1-27.2z" fill="#FBFCFF"/></g><path stroke="#D0D4E8" d="M434.9 500v27.1l65.2-37.9.1-27.2zm-65.7-38l65.7 38v27.1l-65.8-37.9zm131 0l-65.7-37.9-65.3 37.9"/><g fill-rule="nonzero"><path d="M500.2 431.1L434.9 469l-65.7-37.9 65.3-38z" fill="#FFF"/><path fill="#F1F5FF" d="M500.2 431.1l-.1 27.2-65.2 37.9V469z"/><path d="M477.1 456.4l-37.4 21.8c-.7.4-1.2 1.3-1.2 2.1v.4c0 .8.5 1.1 1.2.7l37.4-21.8c.7-.4 1.2-1.3 1.2-2.1v-.4c0-.8-.5-1.1-1.2-.7" stroke="#8E8E8E" fill="#ACAFC3"/><path d="M486.2 448.7L484 450c-1.1.7-2.1 2.3-2.1 3.6v2.5c0 1.3.9 1.9 2.1 1.2l2.2-1.3c1.1-.7 2.1-2.3 2.1-3.6v-2.5c-.1-1.3-1-1.8-2.1-1.2" stroke="#7389FC" fill="#C5D9FB"/><path d="M495.3 443.5l-2.2 1.3c-1.1.7-2.1 2.3-2.1 3.6v2.5c0 1.3.9 1.9 2.1 1.2l2.2-1.3c1.1-.7 2.1-2.3 2.1-3.6v-2.5c-.1-1.4-1-1.9-2.1-1.2" stroke="#EBC300" fill="#F8E585"/><path d="M434.9 469v27.2l-65.8-38 .1-27.1z" fill="#FBFCFF"/></g><path stroke="#D0D4E8" d="M434.9 469v27.2l65.2-37.9.1-27.2zm-65.7-37.9l65.7 37.9v27.2l-65.8-38zm131 0l-65.7-38-65.3 38"/><g fill-rule="nonzero"><path d="M500.2 400.1l-65.3 38-65.7-38 65.3-37.9z" fill="#FFF"/><path fill="#F1F5FF" d="M500.2 400.1l-.1 27.2-65.2 37.9v-27.1z"/><path d="M477.1 425.4l-37.4 21.8c-.7.4-1.2 1.3-1.2 2.1v.4c0 .8.5 1.1 1.2.7l37.4-21.8c.7-.4 1.2-1.3 1.2-2.1v-.4c0-.7-.5-1.1-1.2-.7" stroke="#8E8E8E" fill="#ACAFC3"/><path d="M486.2 417.8L484 419c-1.1.7-2.1 2.3-2.1 3.6v2.5c0 1.3.9 1.9 2.1 1.2l2.2-1.3c1.1-.7 2.1-2.3 2.1-3.6v-2.5c-.1-1.2-1-1.8-2.1-1.1" stroke="#7389FC" fill="#C5D9FB"/><path d="M495.3 412.5l-2.2 1.3c-1.1.7-2.1 2.3-2.1 3.6v2.5c0 1.3.9 1.9 2.1 1.2l2.2-1.3c1.1-.7 2.1-2.3 2.1-3.6v-2.5c-.1-1.3-1-1.9-2.1-1.2" stroke="#EBC300" fill="#F8E585"/><path d="M434.9 438.1v27.1l-65.8-37.9.1-27.2z" fill="#FBFCFF"/></g><path stroke="#D0D4E8" d="M434.9 438.1v27.1l65.2-37.9.1-27.2zm-65.7-38l65.7 38v27.1l-65.8-37.9zm131 0l-65.7-37.9-65.3 37.9"/><g fill-rule="nonzero"><path d="M500.2 369.2l-65.3 37.9-65.7-37.9 65.3-38z" fill="#FFF"/><path fill="#F1F5FF" d="M500.2 369.2l-.1 27.1-65.2 38v-27.2z"/><path d="M477.1 394.5l-37.4 21.8c-.7.4-1.2 1.3-1.2 2.1v.4c0 .8.5 1.1 1.2.7l37.4-21.8c.7-.4 1.2-1.3 1.2-2.1v-.4c0-.8-.5-1.1-1.2-.7" stroke="#8E8E8E" fill="#ACAFC3"/><path d="M486.2 386.8l-2.2 1.3c-1.1.7-2.1 2.3-2.1 3.6v2.5c0 1.3.9 1.9 2.1 1.2l2.2-1.3c1.1-.7 2.1-2.3 2.1-3.6V388c-.1-1.3-1-1.8-2.1-1.2" stroke="#7389FC" fill="#C5D9FB"/><path d="M495.3 381.6l-2.2 1.3c-1.1.7-2.1 2.3-2.1 3.6v2.5c0 1.3.9 1.9 2.1 1.2l2.2-1.3c1.1-.7 2.1-2.3 2.1-3.6v-2.5c-.1-1.4-1-1.9-2.1-1.2" stroke="#EBC300" fill="#F8E585"/><path d="M434.9 407.1v27.2l-65.8-38 .1-27.1z" fill="#FBFCFF"/></g><path stroke="#D0D4E8" d="M434.9 407.1v27.2l65.2-38 .1-27.1zm-65.7-37.9l65.7 37.9v27.2l-65.8-38zm131 0l-65.7-38-65.3 38"/><g fill-rule="nonzero"><path d="M500.2 338.2l-65.3 37.9-65.7-37.9 65.3-37.9z" fill="#FFF"/><path fill="#F1F5FF" d="M500.2 338.2l-.1 27.2-65.2 37.9v-27.2z"/><path d="M477.1 363.5l-37.4 21.8c-.7.4-1.2 1.3-1.2 2.1v.4c0 .8.5 1.1 1.2.7l37.4-21.8c.7-.4 1.2-1.3 1.2-2.1v-.4c0-.8-.5-1.1-1.2-.7" stroke="#8E8E8E" fill="#ACAFC3"/><path d="M486.2 355.9l-2.2 1.3c-1.1.7-2.1 2.3-2.1 3.6v2.5c0 1.3.9 1.9 2.1 1.2l2.2-1.3c1.1-.7 2.1-2.3 2.1-3.6v-2.5c-.1-1.3-1-1.9-2.1-1.2" stroke="#7389FC" fill="#C5D9FB"/><path d="M495.3 350.6l-2.2 1.3c-1.1.7-2.1 2.3-2.1 3.6v2.5c0 1.3.9 1.9 2.1 1.2l2.2-1.3c1.1-.7 2.1-2.3 2.1-3.6v-2.5c-.1-1.3-1-1.9-2.1-1.2" stroke="#EBC300" fill="#F8E585"/><path d="M434.9 376.1v27.2l-65.8-37.9.1-27.2z" fill="#FBFCFF"/></g><path stroke="#D0D4E8" d="M434.9 376.1v27.2l65.2-37.9.1-27.2zm-65.7-37.9l65.7 37.9v27.2l-65.8-37.9zm131 0l-65.7-37.9-65.3 37.9"/><path d="M431 372.3l-70.3-40.6v188.8l70.3 40.6z" stroke="#D0D4E8" fill-rule="nonzero" fill="#FBFCFC" stroke-linecap="round" stroke-linejoin="bevel"/><path stroke="#D0D4E8" fill="#FFF" fill-rule="nonzero" stroke-linecap="round" stroke-linejoin="bevel" d="M431 372.3l72.9-42.2-70.2-40.5-73 42.1z"/></g></svg>