<svg width="375" height="398" viewBox="0 0 375 398" xmlns="http://www.w3.org/2000/svg"><title>Group 12</title><defs><linearGradient x1="-52.59%" y1="50%" x2="78.448%" y2="-28.571%" id="a"><stop stop-color="#D0D4E7" stop-opacity="0" offset="0%"/><stop stop-color="#D0D4E7" offset="100%"/></linearGradient></defs><g fill="none" fill-rule="evenodd"><g opacity=".8"><path d="M218.329 257.217l9.244-5.57c1.895-1.141 4.975-1.157 6.88-.036l61.402 36.156c2.86 1.684 2.865 4.413.005 6.1l-4.964 2.927" stroke="#7AD7C8"/><path d="M218.329 255.225l7.537-4.541c2.837-1.71 7.45-1.725 10.292-.039l59.14 35.074c4.746 2.815 4.777 7.436.536 10.035" stroke="#A7ABBF"/></g><g opacity=".8"><path d="M134.12 202.637l9.244-5.57c1.894-1.141 4.962-1.15 6.86-.016l65.6 39.22c2.848 1.703 2.845 4.448-.014 6.134l-4.965 2.928-8.58 5.245" stroke="#7AD7C8"/><path d="M134.12 201.165l7.537-4.542c2.837-1.71 7.443-1.723 10.297-.026l63.291 37.645c4.747 2.824 4.78 7.452.539 10.05l-7.417 4.57" stroke="#A7ABBF"/></g><g opacity=".8"><path d="M110.428 303.85l9.245-5.571c1.894-1.141 4.954-1.132 6.835.02l74.688 45.77" stroke="#7AD7C8"/><path d="M109.908 301.857l7.538-4.542c2.837-1.71 7.426-1.701 10.264.027l73.486 44.735" stroke="#A7ABBF"/></g><g opacity=".8"><path d="M278.977 306.927l-12.285-7.637-9.245-5.57c-1.894-1.142-4.989-1.181-6.902-.094l-54.582 31.015c-3.842 2.183-3.841 5.719.009 7.9l9.293 5.265 5.312 2.989" stroke="#7AD7C8"/><path d="M278.977 304.935l-12.285-7.637-7.538-4.542c-2.837-1.71-7.47-1.766-10.357-.12l-52.678 30.013c-5.762 3.284-5.796 8.655-.076 11.997l24.163 14.118" stroke="#A7ABBF"/></g><g opacity=".8"><path d="M187.45 259.402l-12.286-7.637-9.245-5.57c-1.894-1.142-4.988-1.194-6.92-.111L91.457 283.92c-3.852 2.158-3.859 5.672-.008 7.854l9.293 5.265" stroke="#7AD7C8"/><path d="M187.45 257.41l-12.286-7.637-7.538-4.542c-2.837-1.71-7.483-1.777-10.363-.159l-65.635 36.875c-5.78 3.248-5.828 8.59-.108 11.931l24.163 14.118" stroke="#A7ABBF"/></g><g opacity=".8"><path d="M104.1 224.797l-9.244-5.57c-1.894-1.142-4.982-1.17-6.896-.064l-59.26 34.25c-3.829 2.214-3.818 5.774.032 7.955l9.293 5.266 53.401 31.98" stroke="#7AD7C8"/><path d="M104.1 222.805l-7.537-4.542c-2.837-1.71-7.462-1.75-10.327-.09l-57.411 33.24c-5.732 3.318-5.767 8.754-.07 12.145l60.195 35.835" stroke="#A7ABBF"/></g><g opacity=".8"><path d="M108.555 205.481l-9.312-5.61c-1.857-1.12-4.885-1.135-6.744-.044l-11.358 6.657" stroke="#7AD7C8"/><path d="M108.555 203.49l-8.099-4.88c-2.527-1.523-6.638-1.549-9.183-.057l-15.64 9.168" stroke="#A7ABBF"/><path d="M77.157 206.828l-1.524.893" stroke="#A7ABBF" stroke-width="2" stroke-linecap="round"/><path d="M78.879 207.93l-6.309 3.652m-1.868 1.121l-6.308 3.653" stroke="#7AD7C8"/><path d="M65.984 215.435l-1.59.92" stroke="#7AD7C8" stroke-width="2" stroke-linecap="round"/></g><g opacity=".8"><path d="M192.242 345.313l-9.311-5.61c-1.858-1.12-4.885-1.135-6.745-.045l-11.357 6.658" stroke="#7AD7C8"/><path d="M192.242 343.32l-8.099-4.88c-2.527-1.522-6.638-1.547-9.183-.056l-15.64 9.168" stroke="#A7ABBF"/><path d="M160.844 346.66l-1.524.892" stroke="#A7ABBF" stroke-width="2" stroke-linecap="round"/><path d="M162.566 347.762l-6.309 3.652m-1.867 1.121l-6.309 3.652" stroke="#7AD7C8"/><path d="M149.671 355.266l-1.59.921" stroke="#7AD7C8" stroke-width="2" stroke-linecap="round"/></g><path fill="#FCFCFD" d="M174.978 277.46l-.083 9.37 24.494 14.055.082-9.205z"/><path fill="#F8F9FF" d="M199.47 291.68v9.205l24.576-14.137-.082-9.288z"/><path fill="#FFF" d="M174.895 277.46l24.494 14.22 24.575-14.22-24.658-14.219z"/><path stroke="#D0D4E7" d="M199.398 263.195l-24.535 14.275v9.365l24.535 14.123 24.536-14.123v-9.365z"/><path stroke="#D0D4E7" d="M174.813 277.46l24.576 14.22 24.493-14.22"/><path d="M202.093 294.194c-.482.27-.873.936-.873 1.487v-.928c0 .551.396.776.873.51l13.665-7.653c.482-.27.873-.936.873-1.487v.928c0-.551-.397-.776-.873-.51l-13.665 7.653z" stroke="#A7ABC0" fill="#D2D8E7"/><path d="M199.51 300.886v-9.206" stroke="#D0D4E7"/><path d="M218.896 286.329c.475-.268.86-.925.86-1.474v-.419c0-.546-.38-.77-.849-.5l-.276.159c-.47.27-.85.923-.85 1.481v.388c0 .549.381.779.861.508l.254-.143z" stroke="#748CF9" fill="#C5D9FB"/><path d="M221.932 284.574c.475-.268.86-.924.86-1.473v-.42c0-.545-.38-.769-.849-.5l-.277.16c-.469.269-.849.923-.849 1.48v.388c0 .549.38.779.86.508l.255-.143z" stroke="#EBC224" fill="#F8E585"/><path fill="#F8F9FF" d="M224.08 265.76l-.26 9.356 9.356 5.458 8.058-4.678z"/><path fill="#F8F9FF" d="M207.446 284.473l16.374-9.357 9.356 5.198-16.374 9.617z"/><path fill="#FCFCFD" d="M174.978 265.584l-.083 9.37 24.494 14.054.082-9.205z"/><path fill="#F8F9FF" d="M199.47 279.803v9.205l24.576-14.137-.082-9.287z"/><path fill="#FFF" d="M174.895 265.584l24.494 14.219 24.575-14.22-24.658-14.219z"/><path stroke="#D0D4E7" d="M199.398 251.318l-24.535 14.276v9.365l24.535 14.122 24.536-14.122v-9.365z"/><path stroke="#D0D4E7" d="M174.813 265.584l24.576 14.219 24.493-14.22m-.275 9.315l17.627 10.095"/><path fill="#F8F9FF" d="M199.47 267.826v9.206l24.576-14.138-.082-9.287z"/><path stroke="#D0D4E7" d="M199.398 239.341l-24.535 14.276v9.365l24.535 14.122 24.536-14.122v-9.365z"/><path d="M223.929 277.416v-11.15c0-1.102.787-1.553 1.742-1.016l5.611 3.155 1.909 3.34v10.816l-9.262-5.145z" stroke="#D0D4E7" fill="#FFF"/><path d="M231.274 268.408v1.61c-.04.52.32 1.1.805 1.294l1.085.434" stroke="#D0D4E7"/><path fill="#D0D4E7" d="M223.938 265.464l7.263 4.122.197-1.178-7.068-3.926-.196.196-.196.197z"/><path d="M223.929 277.416v-11.15c0-1.102.787-1.553 1.742-1.016l5.611 3.155 1.909 3.34v10.816l-9.262-5.145z" stroke="#D0D4E7" stroke-width=".5"/><path d="M231.274 268.408v1.61c-.04.52.32 1.1.805 1.294l1.085.434" stroke="#D0D4E7"/><path d="M228.045 269.945l3.964 2.324m-3.964-.782l3.964 2.324m-3.964-.783l3.964 2.325m-3.964-.783l3.964 2.324m-3.964-.782l3.964 2.324m-3.964-.783l1.982 1.162 1.982 1.162" opacity=".6" stroke="#E5E6EC"/><g opacity=".6"><path d="M225.747 268.682l.991.58" stroke="#E5E6EC"/><path d="M225.747 270.223l.991.581m-.991.961l.991.58m-.991.961l.991.581m-.991.961l.991.58m-.991.962l.991.58" stroke="#12C4AA"/></g><path fill="#B3B8CD" d="M233.36 282.935v-.589l-9.618-5.3v.589z"/><path fill="url(#a)" opacity=".855" d="M19.918 9.896l6.078 12.912-6.675-3.534z" transform="translate(207.561 260.127)"/><path d="M220.29 273.257v-11.149c0-1.103.787-1.554 1.743-1.016l5.61 3.154 1.909 3.341v10.816l-9.262-5.146z" stroke="#D0D4E7" fill="#FFF"/><path d="M220.29 273.257v-11.149c0-1.103.787-1.554 1.743-1.016l5.61 3.154 1.909 3.341v10.816l-9.262-5.146z" stroke="#D0D4E7" stroke-width=".5"/><path d="M227.635 264.25v1.609c-.04.52.32 1.1.806 1.294l1.085.434" stroke="#71DCCC"/><path d="M224.406 265.787l3.965 2.324m-3.965-.783l3.965 2.325m-3.965-.783l3.965 2.324m-3.965-.783l3.965 2.325m-3.965-.783l3.965 2.324m-3.965-.782l1.982 1.162 1.983 1.162" opacity=".6" stroke="#12C4AA"/><path d="M222.108 264.523l.991.581m-.991.961l.991.58m-.991.961l.991.581m-.991.961l.991.58m-.991.962l.991.58m-.991.96l.991.582" stroke="#71DCCC"/><path fill="#B3B8CD" d="M229.722 278.777v-.59l-9.62-5.3v.59z"/><path fill="url(#a)" opacity=".855" d="M16.28 11.456l5.977 7.277-5.298-2.775z" transform="translate(207.561 260.127)"/><path d="M217.171 281.054v-11.149c0-1.102.787-1.554 1.743-1.016l5.61 3.155 1.909 3.34V286.2l-9.262-5.146z" stroke="#D0D4E7" fill="#FFF"/><path d="M224.516 272.047v1.609c-.04.52.32 1.1.806 1.294l1.085.434" stroke="#D0D4E7"/><path fill="#D0D4E7" d="M217.18 269.102l7.264 4.123.196-1.178-7.067-3.926-.196.196-.197.196z"/><path d="M217.171 281.054v-11.149c0-1.102.787-1.554 1.743-1.016l5.61 3.155 1.909 3.34V286.2l-9.262-5.146z" stroke="#D0D4E7" stroke-width=".5"/><path d="M224.516 272.047v1.609c-.04.52.32 1.1.806 1.294l1.085.434" stroke="#D0D4E7"/><path d="M221.287 273.584l3.965 2.324m-3.965-.782l3.965 2.324m-3.965-.783l3.965 2.324m-3.965-.782l3.965 2.324m-3.965-.783l3.965 2.324m-3.965-.782l1.983 1.162 1.982 1.162" opacity=".6" stroke="#E5E6EC"/><path d="M218.99 272.32l.99.581m-.99.961l.99.58m-.99.961l.99.581m-.99.961l.99.58m-.99.961l.99.581m-.99.961l.99.58" opacity=".3" stroke="#12C4AA"/><path fill="#B3B8CD" d="M226.603 286.574v-.589l-9.619-5.3v.589z"/><path fill="url(#a)" opacity=".855" d="M12.956 18.398l6.282 8.049-6.674-3.534z" transform="translate(207.561 260.127)"/><path d="M214.052 282.614v-11.15c0-1.102.787-1.553 1.743-1.016l5.61 3.155 1.91 3.34v10.816l-9.263-5.145z" stroke="#D0D4E7" fill="#FFF"/><path d="M221.397 273.606v1.61c-.04.52.32 1.1.806 1.294l1.085.434" stroke="#D0D4E7"/><path fill="#D0D4E7" d="M214.061 270.662l7.264 4.122.196-1.178-7.067-3.926-.196.197-.197.196z"/><path d="M214.052 282.614v-11.15c0-1.102.787-1.553 1.743-1.016l5.61 3.155 1.91 3.34v10.816l-9.263-5.145z" stroke="#D0D4E7" stroke-width=".5"/><path d="M221.397 273.606v1.61c-.04.52.32 1.1.806 1.294l1.085.434" stroke="#D0D4E7"/><path d="M218.168 275.144l3.965 2.324m-3.965-.783l3.965 2.324m-3.965-.782l3.965 2.324m-3.965-.783l3.965 2.324m-3.965-.782l3.965 2.324m-3.965-.783l1.983 1.162 1.982 1.162" opacity=".6" stroke="#E5E6EC"/><g opacity=".6"><path d="M215.87 273.88l.992.58" stroke="#E5E6EC"/><path d="M215.87 275.421l.992.581m-.992.961l.992.58m-.992.961l.992.581m-.992.961l.992.58m-.992.961l.992.581" stroke="#12C4AA"/></g><path fill="#B3B8CD" d="M223.484 288.133v-.589l-9.619-5.3v.589z"/><path fill="url(#a)" opacity=".855" d="M9.838 19.957l6.281 8.049-6.674-3.534z" transform="translate(207.561 260.127)"/><path d="M210.9 284.97v-11.15c0-1.102.787-1.554 1.743-1.016l5.61 3.155 1.91 3.34v10.816l-9.263-5.146z" stroke="#D0D4E7" fill="#FFF"/><path d="M218.245 275.962v1.61c-.04.52.32 1.1.806 1.293l1.085.434" stroke="#D0D4E7"/><path fill="#D0D4E7" d="M210.91 273.018l7.263 4.122.196-1.178-7.067-3.926-.196.196-.197.197z"/><path d="M210.9 284.97v-11.15c0-1.102.787-1.554 1.743-1.016l5.61 3.155 1.91 3.34v10.816l-9.263-5.146z" stroke="#D0D4E7" stroke-width=".5"/><path d="M218.245 275.962v1.61c-.04.52.32 1.1.806 1.293l1.085.434" stroke="#D0D4E7"/><path d="M215.016 277.5l3.965 2.323m-3.965-.783l3.965 2.325m-3.965-.783l3.965 2.324m-3.965-.782l3.965 2.324m-3.965-.783l3.965 2.324m-3.965-.782l1.983 1.162 1.982 1.162" opacity=".6" stroke="#E5E6EC"/><path d="M212.719 276.235l.99.581m-.99.961l.99.581m-.99.96l.99.581m-.99.961l.99.581m-.99.961l.99.58m-.99.961l.99.581" opacity=".3" stroke="#12C4AA"/><path fill="#B3B8CD" d="M220.332 290.489v-.589l-9.619-5.3v.589z"/><path fill="url(#a)" opacity=".855" d="M6.293 22.117l6.282 8.048L5.9 26.632z" transform="translate(207.561 260.127)"/><path d="M207.748 286.678V275.53c0-1.103.787-1.554 1.743-1.016l5.61 3.154 1.91 3.341v10.816l-9.263-5.146z" stroke="#D0D4E7" fill="#FFF"/><path d="M215.093 277.67v1.61c-.04.52.32 1.1.806 1.294l1.085.434" stroke="#D0D4E7"/><path fill="#D0D4E7" d="M207.757 274.726l7.264 4.123.196-1.178-7.067-3.926-.196.196-.197.196z"/><path d="M207.748 286.678V275.53c0-1.103.787-1.554 1.743-1.016l5.61 3.154 1.91 3.341v10.816l-9.263-5.146z" stroke="#D0D4E7" stroke-width=".5"/><path d="M215.093 277.67v1.61c-.04.52.32 1.1.806 1.294l1.085.434" stroke="#D0D4E7"/><g opacity=".6"><path d="M211.864 279.208l3.965 2.324m-3.965-.782l3.965 2.324m-3.965-.783l3.965 2.324m-3.965-.783l3.965 2.325m-3.965-.783l3.965 2.324" stroke="#E5E6EC"/><path stroke="#A7ABBF" d="M211.864 286.916l1.983 1.162 1.982 1.162"/></g><path d="M209.567 277.944l.99.581m-.99.961l.99.58m-.99.961l.99.581m-.99.961l.99.58m-.99.961l.99.581m-.99.961l.99.58" opacity=".6" stroke="#E5E6EC"/><path fill="#B3B8CD" d="M217.18 292.198v-.59l-9.619-5.3v.59z"/><path fill="#FCFCFD" d="M199.389 279.795l-.082 9.37 17.495 10.123.342-9.089z"/><path d="M199.51 289.009v-9.206m-.334 9.129l17.36 10.536m-17.36-19.892l17.937 10.515m15.506-19.389l8.634 4.89" stroke="#D0D4E7"/><path stroke="#D0D4E7" fill="#F8F9FF" d="M216.635 290.032v9.205l24.576-14.137-.082-9.288z"/><path d="M219.01 292.74c-.482.269-.873.935-.873 1.486v-.928c0 .551.396.776.873.51l13.665-7.653c.482-.27.873-.936.873-1.487v.928c0-.551-.396-.776-.873-.51l-13.665 7.653z" stroke="#A7ABC0" fill="#D2D8E7"/><path d="M235.813 284.874c.475-.268.86-.925.86-1.474v-.419c0-.545-.38-.77-.848-.5l-.277.16c-.47.269-.85.922-.85 1.48v.388c0 .549.381.779.861.508l.254-.143z" stroke="#748CF9" fill="#C5D9FB"/><path d="M238.849 283.12c.475-.269.86-.925.86-1.474v-.42c0-.545-.38-.769-.849-.5l-.277.16c-.469.269-.849.923-.849 1.48v.389c0 .548.38.778.86.508l.255-.144z" stroke="#EBC224" fill="#F8E585"/><path fill="#FCFCFD" d="M175.111 254.084v8.745l24.015 13.822v-8.667z"/><path fill="#FFF" d="M175.314 253.61l24.142 13.986 23.998-13.99-24.148-13.982z"/><path stroke="#D0D4E7" d="M174.813 253.607l24.576 14.219 24.575-14.22"/><path d="M202.093 270.34c-.482.27-.873.936-.873 1.487v-.928c0 .552.396.777.873.51l13.665-7.653c.482-.27.873-.936.873-1.487v.928c0-.551-.397-.776-.873-.51l-13.665 7.653z" stroke="#A7ABC0" fill="#D2D8E7"/><path d="M199.51 277.032v-9.206" stroke="#D0D4E7"/><path d="M218.896 262.475c.475-.268.86-.924.86-1.473v-.42c0-.545-.38-.769-.849-.5l-.276.16c-.47.269-.85.923-.85 1.48v.388c0 .549.381.779.861.508l.254-.143z" stroke="#748CF9" fill="#C5D9FB"/><path d="M221.932 260.72c.475-.267.86-.924.86-1.473v-.42c0-.545-.38-.768-.849-.5l-.277.16c-.469.27-.849.923-.849 1.48v.389c0 .548.38.778.86.508l.255-.143z" stroke="#EBC224" fill="#F8E585"/><path d="M220.033 261.123l7.53 4.305.25-1.386-6.674-3.764h-.564c-.554.168-.542.845-.542.845z" fill="#71DCCC"/><path d="M227.635 264.26v1.599c-.04.52.32 1.1.806 1.294l1.085.434" stroke="#D0D4E7" stroke-linecap="round"/><path fill="#F8F9FF" d="M311.022 314.77l-.26 9.356 9.357 5.458 8.057-4.678z"/><path fill="#F8F9FF" d="M294.388 333.483l16.374-9.357 9.357 5.198-16.374 9.617z"/><path fill="#FCFCFD" d="M261.92 314.593l-.082 9.37 24.493 14.055.082-9.205z"/><path fill="#F8F9FF" d="M286.413 328.813v9.205l24.575-14.137-.082-9.288z"/><path fill="#FFF" d="M261.838 314.593l24.493 14.22 24.575-14.22-24.657-14.219z"/><path stroke="#D0D4E7" d="M286.34 300.328l-24.535 14.275v9.365l24.536 14.122 24.536-14.122v-9.365z"/><path stroke="#D0D4E7" d="M261.755 314.593l24.576 14.22 24.493-14.22m-.275 9.314l17.627 10.095"/><path fill="#F8F9FF" d="M286.413 316.836v9.205l24.575-14.137-.082-9.288z"/><path stroke="#D0D4E7" d="M286.34 288.351l-24.535 14.275v9.365l24.536 14.123 24.536-14.123v-9.365z"/><g opacity=".6"><path d="M312.69 317.691l.99.581" stroke="#E5E6EC"/><path d="M312.69 319.233l.99.58m-.99.961l.99.581m-.99.961l.99.58m-.99.961l.99.581m-.99.961l.99.58" stroke="#12C4AA"/></g><path fill="#B3B8CD" d="M320.303 331.945v-.59l-9.62-5.3v.59z"/><path fill="url(#a)" opacity=".855" d="M19.918 12.22l6.078 12.912-6.675-3.534z" transform="translate(294.503 306.813)"/><path d="M310.718 319.943v-11.15c0-1.102.787-1.553 1.743-1.016l5.61 3.155 1.91 3.34v10.816l-9.263-5.145z" stroke="#D0D4E7" fill="#FFF"/><path d="M310.718 319.943v-11.15c0-1.102.787-1.553 1.743-1.016l5.61 3.155 1.91 3.34v10.816l-9.263-5.145z" stroke="#D0D4E7" stroke-width=".5"/><path d="M310.46 307.808l7.53 4.305.251-1.385-6.674-3.764h-.563c-.555.168-.543.844-.543.844z" fill="#71DCCC"/><path d="M318.063 310.935v1.61c-.04.52.32 1.1.806 1.294l1.085.434" stroke="#D0D4E7" stroke-linecap="round"/><path d="M314.834 312.473l3.965 2.324m-3.965-.783l3.965 2.324m-3.965-.782l3.965 2.324m-3.965-.783l3.965 2.324m-3.965-.782l3.965 2.324m-3.965-.783l1.983 1.162 1.982 1.162" opacity=".6" stroke="#12C4AA"/><path d="M312.537 311.209l.99.58m-.99.961l.99.581m-.99.961l.99.58m-.99.961l.99.581m-.99.961l.99.58m-.99.961l.99.581" stroke="#71DCCC"/><path fill="#B3B8CD" d="M320.15 325.462v-.589l-9.619-5.3v.589z"/><path fill="url(#a)" opacity=".855" d="M19.766 11.456l5.977 7.277-5.298-2.775z" transform="translate(294.503 306.813)"/><path d="M307.232 322.267v-11.15c0-1.102.787-1.553 1.743-1.016l5.61 3.155 1.909 3.34v10.816l-9.262-5.145z" stroke="#D0D4E7" fill="#FFF"/><path d="M307.232 322.267v-11.15c0-1.102.787-1.553 1.743-1.016l5.61 3.155 1.909 3.34v10.816l-9.262-5.145z" stroke="#D0D4E7" stroke-width=".5"/><path d="M314.577 313.26v1.608c-.04.521.32 1.1.806 1.295l1.085.434" stroke="#71DCCC"/><path d="M311.348 314.797l3.965 2.324m-3.965-.783l3.965 2.324m-3.965-.782l3.965 2.324m-3.965-.783l3.965 2.324m-3.965-.782l3.965 2.324m-3.965-.783l1.983 1.162 1.982 1.162" opacity=".6" stroke="#12C4AA"/><path d="M309.05 313.533l.992.58m-.992.961l.992.581m-.992.961l.992.58m-.992.961l.992.581m-.992.961l.992.58m-.992.961l.992.581" stroke="#71DCCC"/><path fill="#B3B8CD" d="M316.664 327.786v-.589l-9.619-5.3v.589z"/><path fill="url(#a)" opacity=".855" d="M16.28 13.78l5.977 7.277-5.298-2.775z" transform="translate(294.503 306.813)"/><path d="M304.113 330.064v-11.15c0-1.102.787-1.553 1.743-1.016l5.61 3.155 1.91 3.34v10.816l-9.263-5.145z" stroke="#D0D4E7" fill="#FFF"/><path d="M311.459 321.057v1.609c-.04.52.32 1.1.805 1.294l1.085.434" stroke="#D0D4E7"/><path fill="#D0D4E7" d="M304.123 318.112l7.263 4.123.196-1.178-7.067-3.927-.196.197-.196.196z"/><path d="M304.113 330.064v-11.15c0-1.102.787-1.553 1.743-1.016l5.61 3.155 1.91 3.34v10.816l-9.263-5.145z" stroke="#D0D4E7" stroke-width=".5"/><path d="M311.459 321.057v1.609c-.04.52.32 1.1.805 1.294l1.085.434" stroke="#D0D4E7"/><path d="M308.23 322.594l3.964 2.324m-3.964-.783l3.964 2.324m-3.964-.782l3.964 2.324m-3.964-.783l3.964 2.324m-3.964-.782l3.964 2.324m-3.964-.783l1.982 1.162 1.982 1.162" opacity=".6" stroke="#E5E6EC"/><path d="M305.932 321.33l.99.58m-.99.961l.99.581m-.99.961l.99.581m-.99.96l.99.581m-.99.961l.99.581m-.99.961l.99.58" opacity=".3" stroke="#12C4AA"/><path fill="#B3B8CD" d="M313.545 335.584v-.59l-9.619-5.3v.59z"/><path fill="url(#a)" opacity=".855" d="M12.956 20.722l6.282 8.049-6.674-3.534z" transform="translate(294.503 306.813)"/><path d="M300.995 331.623v-11.149c0-1.102.786-1.554 1.742-1.016l5.611 3.155 1.908 3.34v10.816l-9.261-5.146z" stroke="#D0D4E7" fill="#FFF"/><path d="M308.34 322.616v1.61c-.04.52.32 1.1.805 1.293l1.085.434" stroke="#D0D4E7"/><path fill="#D0D4E7" d="M301.004 319.671l7.263 4.123.196-1.178-7.067-3.926-.196.196-.196.197z"/><path d="M300.995 331.623v-11.149c0-1.102.786-1.554 1.742-1.016l5.611 3.155 1.908 3.34v10.816l-9.261-5.146z" stroke="#D0D4E7" stroke-width=".5"/><path d="M308.34 322.616v1.61c-.04.52.32 1.1.805 1.293l1.085.434" stroke="#D0D4E7"/><path d="M305.11 324.153l3.965 2.324m-3.965-.782l3.965 2.324m-3.965-.783l3.965 2.324m-3.965-.782l3.965 2.324m-3.965-.782l3.965 2.323m-3.965-.783l1.983 1.163 1.982 1.162" opacity=".6" stroke="#E5E6EC"/><g opacity=".6"><path d="M302.813 322.89l.99.58" stroke="#E5E6EC"/><path d="M302.813 324.43l.99.582m-.99.96l.99.581m-.99.961l.99.58m-.99.961l.99.581m-.99.961l.99.581" stroke="#12C4AA"/></g><path fill="#B3B8CD" d="M310.427 337.143v-.589l-9.62-5.3v.589z"/><path fill="url(#a)" opacity=".855" d="M9.838 22.281l6.281 8.049-6.674-3.534z" transform="translate(294.503 306.813)"/><path d="M297.843 333.979V322.83c0-1.103.787-1.554 1.742-1.017l5.611 3.155 1.908 3.341v10.815l-9.261-5.145z" stroke="#D0D4E7" fill="#FFF"/><path d="M305.188 324.972v1.609c-.04.52.32 1.1.805 1.294l1.085.434" stroke="#D0D4E7"/><path fill="#D0D4E7" d="M297.852 322.027l7.263 4.123.196-1.178-7.067-3.926-.196.196-.196.196z"/><path d="M297.843 333.979V322.83c0-1.103.787-1.554 1.742-1.017l5.611 3.155 1.908 3.341v10.815l-9.261-5.145z" stroke="#D0D4E7" stroke-width=".5"/><path d="M305.188 324.972v1.609c-.04.52.32 1.1.805 1.294l1.085.434" stroke="#D0D4E7"/><path d="M301.959 326.509l3.964 2.324m-3.964-.783l3.964 2.324m-3.964-.782l3.964 2.324m-3.964-.783l3.964 2.324m-3.964-.782l3.964 2.324m-3.964-.783l1.982 1.162 1.982 1.162" opacity=".6" stroke="#E5E6EC"/><path d="M299.66 325.245l.992.581m-.992.961l.992.58m-.992.961l.992.581m-.992.961l.992.58m-.992.961l.992.581m-.992.961l.992.58" opacity=".3" stroke="#12C4AA"/><path fill="#B3B8CD" d="M307.275 339.499v-.59l-9.62-5.3v.59z"/><path fill="url(#a)" opacity=".855" d="M6.293 24.44l6.282 8.05L5.9 28.955z" transform="translate(294.503 306.813)"/><path d="M294.69 335.688v-11.15c0-1.102.788-1.553 1.743-1.016l5.611 3.155 1.908 3.34v10.816l-9.261-5.145z" stroke="#D0D4E7" fill="#FFF"/><path d="M302.036 326.68v1.61c-.04.52.32 1.1.805 1.294l1.085.434" stroke="#D0D4E7"/><path fill="#D0D4E7" d="M294.7 323.736l7.263 4.122.196-1.178-7.067-3.926-.196.197-.196.196z"/><path d="M294.69 335.688v-11.15c0-1.102.788-1.553 1.743-1.016l5.611 3.155 1.908 3.34v10.816l-9.261-5.145z" stroke="#D0D4E7" stroke-width=".5"/><path d="M302.036 326.68v1.61c-.04.52.32 1.1.805 1.294l1.085.434" stroke="#D0D4E7"/><g opacity=".6"><path d="M298.807 328.218l3.964 2.324m-3.964-.782l3.964 2.323m-3.964-.783l3.964 2.325m-3.964-.783l3.964 2.324m-3.964-.782l3.964 2.324" stroke="#E5E6EC"/><path stroke="#A7ABBF" d="M298.807 335.925l1.982 1.162 1.982 1.162"/></g><path d="M296.509 326.954l.991.58m-.991.961l.991.581m-.991.961l.991.58m-.991.961l.991.581m-.991.961l.991.58m-.991.961l.991.581" opacity=".6" stroke="#E5E6EC"/><path fill="#B3B8CD" d="M304.123 341.207v-.589l-9.62-5.3v.589z"/><path fill="#FCFCFD" d="M286.331 328.804l-.082 9.37 17.496 10.123.341-9.088z"/><path d="M286.452 338.018v-9.205m-.334 9.129l17.361 10.536m-17.361-19.893l17.938 10.515m15.963-19.129l8.177 4.63" stroke="#D0D4E7"/><path stroke="#D0D4E7" fill="#F8F9FF" d="M303.578 339.041v9.206l24.575-14.137-.082-9.288z"/><path d="M305.952 341.749c-.482.27-.873.935-.873 1.487v-.928c0 .55.397.776.873.51l13.665-7.654c.482-.27.873-.935.873-1.487v.929c0-.552-.396-.777-.873-.51l-13.665 7.653z" stroke="#A7ABC0" fill="#D2D8E7"/><path d="M322.755 333.884c.476-.268.86-.925.86-1.474v-.42c0-.545-.38-.768-.848-.5l-.277.16c-.47.27-.85.923-.85 1.48v.389c0 .548.382.778.861.508l.254-.143z" stroke="#748CF9" fill="#C5D9FB"/><path d="M325.79 332.129c.476-.268.861-.925.861-1.474v-.419c0-.545-.38-.77-.849-.5l-.277.16c-.469.268-.849.922-.849 1.48v.388c0 .549.381.779.86.508l.255-.143z" stroke="#EBC224" fill="#F8E585"/><path fill="#FCFCFD" d="M262.053 303.094v8.745l24.015 13.821v-8.667z"/><path fill="#FFF" d="M262.256 302.62l24.142 13.985 23.998-13.989-24.148-13.982z"/><path stroke="#D0D4E7" d="M261.755 302.616l24.576 14.22 24.575-14.22"/><path d="M289.035 319.35c-.482.27-.873.936-.873 1.487v-.928c0 .551.396.776.873.51l13.665-7.653c.482-.27.873-.936.873-1.487v.928c0-.551-.396-.776-.873-.51l-13.665 7.653z" stroke="#A7ABC0" fill="#D2D8E7"/><path d="M286.452 326.041v-9.205" stroke="#D0D4E7"/><path d="M305.838 311.485c.475-.268.86-.925.86-1.474v-.419c0-.546-.38-.77-.848-.5l-.277.159c-.47.27-.85.923-.85 1.481v.388c0 .549.381.779.861.508l.254-.143z" stroke="#748CF9" fill="#C5D9FB"/><path d="M308.874 309.73c.475-.268.86-.924.86-1.473v-.42c0-.545-.38-.769-.849-.5l-.277.16c-.469.269-.849.923-.849 1.48v.388c0 .549.381.779.86.508l.255-.143z" stroke="#EBC224" fill="#F8E585"/><path d="M306.975 310.132l7.53 4.305.25-1.385-6.674-3.764h-.564c-.554.168-.542.844-.542.844z" fill="#71DCCC"/><path d="M314.577 313.27v1.598c-.04.521.32 1.1.806 1.295l1.085.434" stroke="#D0D4E7" stroke-linecap="round"/><path fill="#FCFCFD" d="M97.006 227.039l-.082 9.37 24.493 14.055.082-9.206z"/><path fill="#F8F9FF" d="M121.5 241.258v9.206l24.575-14.137-.083-9.288z"/><path fill="#FFF" d="M96.924 227.039l24.493 14.22 24.575-14.22-24.657-14.22z"/><path stroke="#D0D4E7" d="M121.427 212.773L96.89 227.05v9.365l24.536 14.122 24.536-14.122v-9.365z"/><path stroke="#D0D4E7" d="M96.842 227.039l24.575 14.22 24.493-14.22"/><path d="M124.121 243.772c-.482.27-.873.936-.873 1.488v-.929c0 .552.397.777.873.51l13.666-7.653c.482-.27.872-.935.872-1.487v.928c0-.551-.396-.776-.872-.51l-13.666 7.653z" stroke="#A7ABC0" fill="#D2D8E7"/><path d="M121.538 250.464v-9.206" stroke="#D0D4E7"/><path d="M140.924 235.907c.476-.268.861-.924.861-1.473v-.42c0-.545-.38-.769-.85-.5l-.276.16c-.469.269-.85.923-.85 1.48v.388c0 .549.382.779.861.508l.254-.143z" stroke="#748CF9" fill="#C5D9FB"/><path d="M143.96 234.153c.475-.268.86-.925.86-1.474v-.419c0-.546-.38-.77-.849-.5l-.276.159c-.47.27-.85.923-.85 1.48v.389c0 .548.381.778.861.508l.254-.143z" stroke="#EBC224" fill="#F8E585"/><path fill="#F8F9FF" d="M146.108 215.338l-.26 9.357 9.357 5.458 8.057-4.679z"/><path fill="#F8F9FF" d="M129.474 234.051l16.374-9.356 9.357 5.198-16.374 9.616z"/><path fill="#FCFCFD" d="M97.006 215.162l-.082 9.37 24.493 14.055.082-9.206z"/><path fill="#F8F9FF" d="M121.5 229.381v9.206l24.575-14.137-.083-9.288z"/><path fill="#FFF" d="M96.924 215.162l24.493 14.22 24.575-14.22-24.657-14.22z"/><path stroke="#D0D4E7" d="M121.427 200.897L96.89 215.172v9.365l24.536 14.122 24.536-14.122v-9.365z"/><path stroke="#D0D4E7" d="M96.842 215.162l24.575 14.22 24.493-14.22m-.275 9.314l17.627 10.095"/><path fill="#F8F9FF" d="M121.5 217.404v9.206l24.575-14.137-.083-9.288z"/><path stroke="#D0D4E7" d="M121.427 188.92L96.89 203.195v9.365l24.536 14.122 24.536-14.122v-9.365z"/><path d="M145.957 226.994v-11.149c0-1.103.787-1.554 1.743-1.017l5.61 3.155 1.909 3.341v10.815l-9.262-5.145z" stroke="#D0D4E7" fill="#FFF"/><path d="M153.302 217.987v1.609c-.04.52.32 1.1.806 1.294l1.085.434" stroke="#D0D4E7"/><path fill="#D0D4E7" d="M145.966 215.042l7.264 4.123.196-1.178-7.067-3.926-.196.196-.197.196z"/><path d="M145.957 226.994v-11.149c0-1.103.787-1.554 1.743-1.017l5.61 3.155 1.909 3.341v10.815l-9.262-5.145z" stroke="#D0D4E7" stroke-width=".5"/><path d="M153.302 217.987v1.609c-.04.52.32 1.1.806 1.294l1.085.434" stroke="#D0D4E7"/><path d="M150.073 219.524l3.965 2.324m-3.965-.783l3.965 2.324m-3.965-.782l3.965 2.324m-3.965-.783l3.965 2.324m-3.965-.782l3.965 2.324m-3.965-.783l1.983 1.162 1.982 1.162" opacity=".6" stroke="#E5E6EC"/><g opacity=".6"><path d="M147.775 218.26l.992.581" stroke="#E5E6EC"/><path d="M147.775 219.802l.992.58m-.992.961l.992.581m-.992.961l.992.58m-.992.961l.992.581m-.992.961l.992.58" stroke="#12C4AA"/></g><path fill="#B3B8CD" d="M155.39 232.514v-.59l-9.62-5.3v.59z"/><path fill="url(#a)" opacity=".855" d="M19.918 9.896l6.078 12.912-6.675-3.534z" transform="translate(129.59 209.706)"/><path d="M142.319 222.836v-11.15c0-1.102.786-1.553 1.742-1.016l5.611 3.155 1.908 3.34v10.816l-9.261-5.145z" stroke="#D0D4E7" fill="#FFF"/><path d="M142.319 222.836v-11.15c0-1.102.786-1.553 1.742-1.016l5.611 3.155 1.908 3.34v10.816l-9.261-5.145z" stroke="#D0D4E7" stroke-width=".5"/><path d="M149.664 213.828v1.61c-.04.52.32 1.1.805 1.294l1.085.434" stroke="#71DCCC"/><path d="M146.435 215.365l3.964 2.324m-3.964-.782l3.964 2.324m-3.964-.783l3.964 2.324m-3.964-.782l3.964 2.324m-3.964-.783l3.964 2.324m-3.964-.782l1.982 1.162 1.982 1.162" opacity=".6" stroke="#12C4AA"/><path d="M144.137 214.102l.99.58m-.99.961l.99.581m-.99.961l.99.58m-.99.961l.99.581m-.99.961l.99.58m-.99.962l.99.58" stroke="#71DCCC"/><path fill="#B3B8CD" d="M151.75 228.355v-.589l-9.619-5.3v.589z"/><path fill="url(#a)" opacity=".855" d="M16.28 11.456l5.977 7.277-5.298-2.775z" transform="translate(129.59 209.706)"/><path d="M139.2 230.633v-11.15c0-1.102.787-1.553 1.742-1.016l5.611 3.155 1.908 3.34v10.816l-9.261-5.145z" stroke="#D0D4E7" fill="#FFF"/><path d="M146.545 221.625v1.61c-.04.52.32 1.1.805 1.294l1.085.434" stroke="#D0D4E7"/><path fill="#D0D4E7" d="M139.209 218.68l7.263 4.123.197-1.178-7.068-3.926-.196.197-.196.196z"/><path d="M139.2 230.633v-11.15c0-1.102.787-1.553 1.742-1.016l5.611 3.155 1.908 3.34v10.816l-9.261-5.145z" stroke="#D0D4E7" stroke-width=".5"/><path d="M146.545 221.625v1.61c-.04.52.32 1.1.805 1.294l1.085.434" stroke="#D0D4E7"/><path d="M143.316 223.162l3.964 2.325m-3.964-.783l3.964 2.324m-3.964-.782l3.964 2.324m-3.964-.783l3.964 2.324m-3.964-.782l3.964 2.324m-3.964-.783l1.982 1.162 1.982 1.162" opacity=".6" stroke="#E5E6EC"/><path d="M141.018 221.899l.991.58m-.991.961l.991.581m-.991.961l.991.58m-.991.961l.991.581m-.991.961l.991.58m-.991.961l.991.581" opacity=".3" stroke="#12C4AA"/><path fill="#B3B8CD" d="M148.632 236.152v-.589l-9.62-5.3v.589z"/><path fill="url(#a)" opacity=".855" d="M12.956 18.398l6.282 8.049-6.674-3.534z" transform="translate(129.59 209.706)"/><path d="M136.08 232.192v-11.149c0-1.103.788-1.554 1.743-1.017l5.611 3.155 1.909 3.341v10.816l-9.262-5.146z" stroke="#D0D4E7" fill="#FFF"/><path d="M143.426 223.185v1.609c-.04.52.32 1.1.806 1.294l1.084.434" stroke="#D0D4E7"/><path fill="#D0D4E7" d="M136.09 220.24l7.263 4.123.197-1.178-7.067-3.926-.197.196-.196.196z"/><path d="M136.08 232.192v-11.149c0-1.103.788-1.554 1.743-1.017l5.611 3.155 1.909 3.341v10.816l-9.262-5.146z" stroke="#D0D4E7" stroke-width=".5"/><path d="M143.426 223.185v1.609c-.04.52.32 1.1.806 1.294l1.084.434" stroke="#D0D4E7"/><path d="M140.197 224.722l3.964 2.324m-3.964-.783l3.964 2.324m-3.964-.782l3.964 2.324m-3.964-.783l3.964 2.325m-3.964-.783l3.964 2.324m-3.964-.782l1.982 1.162 1.982 1.162" opacity=".6" stroke="#E5E6EC"/><g opacity=".6"><path d="M137.899 223.458l.991.581" stroke="#E5E6EC"/><path d="M137.899 225l.991.58m-.991.961l.991.581m-.991.961l.991.58m-.991.961l.991.581m-.991.961l.991.58" stroke="#12C4AA"/></g><path fill="#B3B8CD" d="M145.513 237.712v-.59l-9.62-5.3v.59z"/><path fill="url(#a)" opacity=".855" d="M9.838 19.957l6.281 8.049-6.674-3.534z" transform="translate(129.59 209.706)"/><path d="M132.929 234.548v-11.15c0-1.102.787-1.553 1.742-1.016l5.611 3.155 1.909 3.34v10.816l-9.262-5.145z" stroke="#D0D4E7" fill="#FFF"/><path d="M140.274 225.54v1.61c-.04.52.32 1.1.806 1.294l1.084.434" stroke="#D0D4E7"/><path fill="#D0D4E7" d="M132.938 222.596l7.263 4.122.197-1.177-7.067-3.927-.197.197-.196.196z"/><path d="M132.929 234.548v-11.15c0-1.102.787-1.553 1.742-1.016l5.611 3.155 1.909 3.34v10.816l-9.262-5.145z" stroke="#D0D4E7" stroke-width=".5"/><path d="M140.274 225.54v1.61c-.04.52.32 1.1.806 1.294l1.084.434" stroke="#D0D4E7"/><path d="M137.045 227.078l3.964 2.324m-3.964-.782l3.964 2.323m-3.964-.783l3.964 2.325m-3.964-.783l3.964 2.324m-3.964-.782l3.964 2.324m-3.964-.783l1.982 1.162 1.982 1.162" opacity=".6" stroke="#E5E6EC"/><path d="M134.747 225.814l.991.58m-.991.961l.991.581m-.991.961l.991.58m-.991.961l.991.581m-.991.961l.991.58m-.991.961l.991.581" opacity=".3" stroke="#12C4AA"/><path fill="#B3B8CD" d="M142.36 240.067v-.588l-9.618-5.3v.588z"/><path fill="url(#a)" opacity=".855" d="M6.293 22.117l6.282 8.048L5.9 26.632z" transform="translate(129.59 209.706)"/><path d="M129.777 236.257v-11.15c0-1.102.787-1.553 1.742-1.016l5.611 3.155 1.909 3.34v10.816l-9.262-5.145z" stroke="#D0D4E7" fill="#FFF"/><path d="M137.122 227.25v1.608c-.04.521.32 1.1.806 1.295l1.084.434" stroke="#D0D4E7"/><path fill="#D0D4E7" d="M129.786 224.305l7.263 4.122.197-1.178-7.067-3.926-.197.196-.196.197z"/><path d="M129.777 236.257v-11.15c0-1.102.787-1.553 1.742-1.016l5.611 3.155 1.909 3.34v10.816l-9.262-5.145z" stroke="#D0D4E7" stroke-width=".5"/><path d="M137.122 227.25v1.608c-.04.521.32 1.1.806 1.295l1.084.434" stroke="#D0D4E7"/><g opacity=".6"><path d="M133.893 228.786l3.964 2.324m-3.964-.782l3.964 2.324m-3.964-.782l3.964 2.323m-3.964-.783l3.964 2.325m-3.964-.783l3.964 2.324" stroke="#E5E6EC"/><path stroke="#A7ABBF" d="M133.893 236.494l1.982 1.162 1.982 1.162"/></g><path d="M131.595 227.523l.991.58m-.991.961l.991.581m-.991.961l.991.58m-.991.961l.991.581m-.991.961l.991.58m-.991.961l.991.581" opacity=".6" stroke="#E5E6EC"/><path fill="#B3B8CD" d="M139.209 241.776v-.589l-9.62-5.3v.589z"/><path fill="#FCFCFD" d="M121.417 229.373l-.082 9.37 17.496 10.123.342-9.088z"/><path d="M121.538 238.587v-9.206m-.334 9.129l17.361 10.537m-17.361-19.893l17.938 10.515m15.505-19.389l8.635 4.89" stroke="#D0D4E7"/><path stroke="#D0D4E7" fill="#F8F9FF" d="M138.664 239.61v9.205l24.575-14.137-.082-9.287z"/><path d="M141.038 242.317c-.482.27-.873.936-.873 1.488v-.929c0 .552.397.777.873.51l13.666-7.653c.482-.27.872-.935.872-1.487v.928c0-.551-.396-.776-.872-.51l-13.666 7.653z" stroke="#A7ABC0" fill="#D2D8E7"/><path d="M157.842 234.452c.475-.268.86-.924.86-1.473v-.42c0-.545-.38-.769-.849-.5l-.277.16c-.469.269-.849.923-.849 1.48v.389c0 .548.38.778.86.508l.255-.144z" stroke="#748CF9" fill="#C5D9FB"/><path d="M160.877 232.698c.475-.268.86-.925.86-1.474v-.419c0-.546-.38-.77-.848-.5l-.277.159c-.47.27-.85.923-.85 1.48v.389c0 .548.381.778.861.508l.254-.143z" stroke="#EBC224" fill="#F8E585"/><path fill="#FCFCFD" d="M97.14 203.663v8.745l24.015 13.821v-8.667z"/><path fill="#FFF" d="M97.343 203.188l24.141 13.986 23.999-13.989-24.149-13.983z"/><path stroke="#D0D4E7" d="M96.842 203.185l24.575 14.22 24.576-14.22"/><path d="M124.121 219.919c-.482.27-.873.935-.873 1.487v-.928c0 .551.397.776.873.51l13.666-7.653c.482-.27.872-.936.872-1.488v.929c0-.552-.396-.777-.872-.51l-13.666 7.653z" stroke="#A7ABC0" fill="#D2D8E7"/><path d="M121.538 226.61v-9.206" stroke="#D0D4E7"/><path d="M140.924 212.054c.476-.268.861-.925.861-1.474v-.419c0-.546-.38-.77-.85-.5l-.276.159c-.469.27-.85.923-.85 1.48v.389c0 .548.382.778.861.508l.254-.143z" stroke="#748CF9" fill="#C5D9FB"/><path d="M143.96 210.299c.475-.268.86-.925.86-1.473v-.42c0-.545-.38-.769-.849-.5l-.276.16c-.47.269-.85.922-.85 1.48v.388c0 .549.381.779.861.508l.254-.143z" stroke="#EBC224" fill="#F8E585"/><path fill="#FCFCFD" d="M97.006 190.435l-.082 9.37 24.493 14.055.082-9.206z"/><path fill="#F8F9FF" d="M121.5 204.654v9.206l24.575-14.137-.083-9.288z"/><path fill="#FFF" d="M96.924 190.435l24.493 14.22 24.575-14.22-24.657-14.22z"/><path stroke="#D0D4E7" d="M121.427 176.17L96.89 190.445v9.365l24.536 14.122 24.536-14.122v-9.365z"/><path stroke="#D0D4E7" d="M96.842 190.435l24.575 14.22 24.493-14.22"/><path d="M124.121 207.169c-.482.27-.873.935-.873 1.487v-.929c0 .552.397.777.873.51l13.666-7.653c.482-.27.872-.935.872-1.487v.929c0-.552-.396-.777-.872-.51l-13.666 7.653z" stroke="#A7ABC0" fill="#D2D8E7"/><path d="M121.538 213.86v-9.206" stroke="#D0D4E7"/><path d="M140.924 199.303c.476-.268.861-.924.861-1.473v-.42c0-.545-.38-.769-.85-.5l-.276.16c-.469.27-.85.923-.85 1.48v.389c0 .548.382.778.861.508l.254-.144z" stroke="#748CF9" fill="#C5D9FB"/><path d="M143.96 197.549c.475-.268.86-.925.86-1.474v-.419c0-.546-.38-.77-.849-.5l-.276.159c-.47.27-.85.923-.85 1.481v.388c0 .549.381.779.861.508l.254-.143z" stroke="#EBC224" fill="#F8E585"/><path d="M142.061 210.701l7.53 4.305.25-1.385-6.674-3.764h-.563c-.555.168-.543.844-.543.844z" fill="#71DCCC"/><path d="M149.664 213.838v1.6c-.04.52.32 1.1.805 1.294l1.085.434" stroke="#D0D4E7" stroke-linecap="round"/><path fill="#FCFCFD" d="M185.02 373.812l-.083 9.37 24.493 14.055.082-9.206z"/><path fill="#F8F9FF" d="M209.512 388.031v9.206l24.576-14.137-.082-9.288z"/><path fill="#FFF" d="M184.937 373.812l24.493 14.22 24.576-14.22-24.658-14.22z"/><path stroke="#D0D4E7" d="M209.44 359.546l-24.536 14.276v9.365l24.536 14.122 24.536-14.122v-9.365z"/><path stroke="#D0D4E7" d="M184.855 373.812l24.575 14.22 24.494-14.22"/><path d="M212.134 390.545c-.482.27-.872.936-.872 1.488v-.929c0 .552.396.777.872.51l13.666-7.653c.482-.27.873-.935.873-1.487v.928c0-.551-.397-.776-.873-.51l-13.666 7.653z" stroke="#A7ABC0" fill="#D2D8E7"/><path d="M209.551 397.237v-9.206" stroke="#D0D4E7"/><path d="M228.938 382.68c.475-.268.86-.924.86-1.473v-.42c0-.545-.38-.769-.849-.5l-.277.16c-.469.269-.849.923-.849 1.48v.389c0 .548.381.778.86.508l.255-.144z" stroke="#748CF9" fill="#C5D9FB"/><path d="M231.973 380.926c.476-.268.86-.925.86-1.474v-.419c0-.546-.38-.77-.848-.5l-.277.159c-.47.27-.85.923-.85 1.48v.389c0 .548.382.778.861.508l.254-.143z" stroke="#EBC224" fill="#F8E585"/><path fill="#FCFCFD" d="M185.02 361.935l-.083 9.37 24.493 14.055.082-9.206z"/><path fill="#F8F9FF" d="M209.512 376.154v9.206l24.576-14.137-.082-9.288z"/><path fill="#FFF" d="M184.937 361.935l24.493 14.22 24.576-14.22-24.658-14.219z"/><path stroke="#D0D4E7" d="M209.44 347.67l-24.536 14.275v9.365l24.536 14.122 24.536-14.122v-9.365z"/><path stroke="#D0D4E7" d="M184.855 361.935l24.575 14.22 24.494-14.22"/><path d="M212.134 378.669c-.482.27-.872.935-.872 1.487v-.928c0 .551.396.776.872.51l13.666-7.653c.482-.27.873-.936.873-1.488v.929c0-.552-.397-.777-.873-.51l-13.666 7.653z" stroke="#A7ABC0" fill="#D2D8E7"/><path d="M209.551 385.36v-9.206" stroke="#D0D4E7"/><path d="M228.938 370.804c.475-.268.86-.925.86-1.474v-.419c0-.546-.38-.77-.849-.5l-.277.159c-.469.27-.849.923-.849 1.48v.389c0 .548.381.778.86.508l.255-.143z" stroke="#748CF9" fill="#C5D9FB"/><path d="M231.973 369.049c.476-.268.86-.925.86-1.474v-.419c0-.545-.38-.77-.848-.5l-.277.16c-.47.269-.85.922-.85 1.48v.388c0 .549.382.779.861.508l.254-.143z" stroke="#EBC224" fill="#F8E585"/><path fill="#FCFCFD" d="M185.02 349.958l-.083 9.37 24.493 14.055.082-9.206z"/><path fill="#F8F9FF" d="M209.512 364.177v9.206l24.576-14.137-.082-9.288z"/><path fill="#FFF" d="M184.937 349.958l24.493 14.22 24.576-14.22-24.658-14.219z"/><path stroke="#D0D4E7" d="M209.44 335.693l-24.536 14.275v9.365l24.536 14.122 24.536-14.122v-9.365z"/><path stroke="#D0D4E7" d="M184.855 349.958l24.575 14.22 24.494-14.22"/><path d="M212.134 366.692c-.482.27-.872.935-.872 1.487v-.928c0 .551.396.776.872.51l13.666-7.653c.482-.27.873-.936.873-1.488v.929c0-.552-.397-.777-.873-.51l-13.666 7.653z" stroke="#A7ABC0" fill="#D2D8E7"/><path d="M209.551 373.383v-9.206" stroke="#D0D4E7"/><path d="M228.938 358.827c.475-.268.86-.925.86-1.474v-.419c0-.546-.38-.77-.849-.5l-.277.159c-.469.27-.849.923-.849 1.48v.389c0 .548.381.778.86.508l.255-.143z" stroke="#748CF9" fill="#C5D9FB"/><path d="M231.973 357.072c.476-.268.86-.925.86-1.473v-.42c0-.545-.38-.769-.848-.5l-.277.16c-.47.269-.85.923-.85 1.48v.388c0 .549.382.779.861.508l.254-.143z" stroke="#EBC224" fill="#F8E585"/><path fill="#FCFCFD" d="M185.02 337.757l-.083 9.37 24.493 14.055.082-9.206z"/><path fill="#F8F9FF" d="M209.512 351.976v9.206l24.576-14.137-.082-9.288z"/><path fill="#FFF" d="M184.937 337.757l24.493 14.22 24.576-14.22-24.658-14.22z"/><path stroke="#D0D4E7" d="M209.44 323.492l-24.536 14.275v9.365l24.536 14.122 24.536-14.122v-9.365z"/><path stroke="#D0D4E7" d="M184.855 337.757l24.575 14.22 24.494-14.22"/><path d="M212.134 354.49c-.482.27-.872.936-.872 1.488v-.929c0 .552.396.777.872.51l13.666-7.653c.482-.27.873-.935.873-1.487v.929c0-.552-.397-.777-.873-.51l-13.666 7.653z" stroke="#A7ABC0" fill="#D2D8E7"/><path d="M209.551 361.182v-9.206" stroke="#D0D4E7"/><path d="M228.938 346.625c.475-.268.86-.924.86-1.473v-.42c0-.545-.38-.769-.849-.5l-.277.16c-.469.269-.849.923-.849 1.48v.389c0 .548.381.778.86.508l.255-.144z" stroke="#748CF9" fill="#C5D9FB"/><path d="M231.973 344.87c.476-.267.86-.924.86-1.473v-.419c0-.546-.38-.77-.848-.5l-.277.159c-.47.27-.85.923-.85 1.481v.388c0 .549.382.779.861.508l.254-.143z" stroke="#EBC224" fill="#F8E585"/><path fill="#FCFCFD" d="M77.419 324.727l-.083 9.37 24.494 14.055.082-9.206z"/><path fill="#F8F9FF" d="M101.912 338.946v9.206l24.575-14.137-.082-9.288z"/><path fill="#FFF" d="M77.336 324.727l24.494 14.22 24.575-14.22-24.658-14.22z"/><path stroke="#D0D4E7" d="M101.84 310.462l-24.536 14.275v9.365l24.536 14.122 24.535-14.122v-9.365z"/><path stroke="#D0D4E7" d="M77.254 324.727l24.576 14.22 24.493-14.22"/><path d="M104.534 341.46c-.482.27-.873.936-.873 1.488v-.929c0 .552.396.777.873.51l13.665-7.653c.482-.27.873-.935.873-1.487v.929c0-.552-.397-.777-.873-.51l-13.665 7.653z" stroke="#A7ABC0" fill="#D2D8E7"/><path d="M101.95 348.152v-9.206" stroke="#D0D4E7"/><path d="M121.337 333.595c.475-.268.86-.924.86-1.473v-.42c0-.545-.38-.769-.849-.5l-.276.16c-.47.269-.85.923-.85 1.48v.389c0 .548.381.778.861.508l.254-.144z" stroke="#748CF9" fill="#C5D9FB"/><path d="M124.373 331.84c.475-.267.86-.924.86-1.473v-.419c0-.546-.38-.77-.849-.5l-.277.159c-.469.27-.849.923-.849 1.481v.388c0 .549.38.779.86.508l.255-.143z" stroke="#EBC224" fill="#F8E585"/><path fill="#FCFCFD" d="M77.419 312.85l-.083 9.37 24.494 14.055.082-9.206z"/><path fill="#F8F9FF" d="M101.912 327.07v9.205l24.575-14.137-.082-9.288z"/><path fill="#FFF" d="M77.336 312.85l24.494 14.22 24.575-14.22-24.658-14.219z"/><path stroke="#D0D4E7" d="M101.84 298.585L77.304 312.86v9.365l24.536 14.122 24.535-14.122v-9.365z"/><path stroke="#D0D4E7" d="M77.254 312.85l24.576 14.22 24.493-14.22"/><path d="M104.534 329.584c-.482.27-.873.935-.873 1.487v-.928c0 .551.396.776.873.51L118.199 323c.482-.27.873-.936.873-1.488v.929c0-.552-.397-.777-.873-.51l-13.665 7.653z" stroke="#A7ABC0" fill="#D2D8E7"/><path d="M101.95 336.275v-9.206" stroke="#D0D4E7"/><path d="M121.337 321.719c.475-.268.86-.925.86-1.474v-.419c0-.546-.38-.77-.849-.5l-.276.159c-.47.27-.85.923-.85 1.48v.389c0 .548.381.778.861.508l.254-.143z" stroke="#748CF9" fill="#C5D9FB"/><path d="M124.373 319.964c.475-.268.86-.925.86-1.473v-.42c0-.545-.38-.769-.849-.5l-.277.16c-.469.269-.849.923-.849 1.48v.388c0 .549.38.779.86.508l.255-.143z" stroke="#EBC224" fill="#F8E585"/><path fill="#FCFCFD" d="M77.419 300.873l-.083 9.37 24.494 14.055.082-9.205z"/><path fill="#F8F9FF" d="M101.912 315.093v9.205l24.575-14.137-.082-9.288z"/><path fill="#FFF" d="M77.336 300.873l24.494 14.22 24.575-14.22-24.658-14.219z"/><path stroke="#D0D4E7" d="M101.84 286.608l-24.536 14.275v9.365l24.536 14.123 24.535-14.123v-9.365z"/><path stroke="#D0D4E7" d="M77.254 300.873l24.576 14.22 24.493-14.22"/><path d="M104.534 317.607c-.482.27-.873.936-.873 1.487v-.928c0 .551.396.776.873.51l13.665-7.653c.482-.27.873-.936.873-1.487v.928c0-.552-.397-.777-.873-.51l-13.665 7.653z" stroke="#A7ABC0" fill="#D2D8E7"/><path d="M101.95 324.298v-9.205" stroke="#D0D4E7"/><path d="M121.337 309.742c.475-.268.86-.925.86-1.474v-.419c0-.546-.38-.77-.849-.5l-.276.159c-.47.27-.85.923-.85 1.481v.388c0 .549.381.778.861.508l.254-.143z" stroke="#748CF9" fill="#C5D9FB"/><path d="M124.373 307.987c.475-.268.86-.925.86-1.473v-.42c0-.545-.38-.769-.849-.5l-.277.16c-.469.269-.849.923-.849 1.48v.388c0 .549.38.779.86.508l.255-.143z" stroke="#EBC224" fill="#F8E585"/><path d="M-309.803 66.72l994.588-.135" stroke="#D3D7EA" stroke-width=".9"/><path fill="#FBFCFF" d="M35.731 43.974V84.46l35.336 20.361V64.864z"/><path d="M50.598 62.214l14.928 8.75M50.598 66.54l14.928 8.75m-14.928-4.425l14.928 8.75m-14.928-4.424l14.928 8.75m-14.928-4.424l14.928 8.75m-14.928-4.424l14.928 8.75M41.947 57.455l3.732 2.188m-3.732 2.138l3.732 2.188m-3.732 2.138l3.732 2.188m-3.732 2.138l3.732 2.187m-3.732 2.139l3.732 2.187m-3.732 2.138l3.732 2.188" stroke="#748CF9" stroke-width="1.8"/><path fill="#F1F5FF" d="M71.067 64.864l35.336-20.88V84.46l-35.336 20.36z"/><path d="M100.736 56.95l-14.931 8.743m14.931-4.85l-14.931 8.744m14.931-4.418l-14.931 8.743m14.931-4.418l-14.931 8.744m14.931-4.418l-14.931 8.744m14.931-4.418L85.805 86.89M81.27 68.63l-3.733 2.185m3.733 1.707l-3.733 2.186m3.733 2.14l-3.733 2.186m3.733 2.14l-3.733 2.186m3.733 2.14l-3.733 2.186m3.733 2.14l-3.733 2.185" stroke="#12C4AA" stroke-width="1.8"/><path fill="#FFF" d="M35.733 43.974l35.307 20.97 35.308-20.97-35.28-20.521z"/><path d="M71.772 44.885l.081-.046c.132-.075.099-.174-.099-.298l-3.826-2.402c-.178-.111-.17-.215.023-.309.12-.058.318-.035.596.07 2.232 1.156 4.98 2.537 5.315 2.39 1.496-.506 3.314-.864 5.465-1.097 2.17-.282 4.217-.383 6.137-.292 1.935.056 3.557.334 4.859.857 1.632.657 2.022 1.303 1.17 1.939-.359.267-.83.428-1.414.48-.583.049-1.104-.034-1.564-.246-.355-.164-.648-.47-.88-.916-.245-.444-.552-.744-.92-.907a5.963 5.963 0 0 0-2.059-.518c-.675-.044-1.435.038-2.277.244-.84.2-2.363.722-4.56 1.545-.759.28-1.346.495-1.762.643l4.785 2.878c.11.066.158.127.143.183-.015.056-.106.142-.272.258a1.392 1.392 0 0 1-.617.225c-.245.033-.422.015-.53-.054L74.81 46.46l-3.25 1a6447.574 6447.574 0 0 1 4.63 3.236c.107.074.152.14.137.198-.016.057-.106.142-.27.254-.165.113-.368.18-.609.203-.24.022-.413-.006-.519-.083l-4.632-3.437-3.587.98c-1.808.481-3.555.712-5.24.686-1.673-.06-3.212-.364-4.62-.907-1.398-.567-2.474-1.256-3.235-2.05-.621-.647-1.025-1.255-1.213-1.82-.19-.56-.119-.905.217-1.041.614-.248 1.306-.004 2.078.735.322.309.548.755.676 1.345.123.598.344 1.059.663 1.376.558.556 1.173.895 1.847 1.011.676.11 1.779-.009 3.313-.368l6.3-1.63.078-.045c.13-.072.1-.178-.092-.317l-3.711-2.692c-.173-.126-.163-.233.028-.324.118-.055.313-.021.584.101 2.17 1.314 4.767 2.84 5.099 2.703.041-.013.082-.023.121-.032l2.168-.657z" fill="#45B9E6"/><path stroke="#D3D7EA" stroke-width=".9" d="M71.067 23.425L35.731 43.984V84.46l35.336 20.338 35.336-20.338V43.984zm.096 81.373V64.854m-35.43-20.88l35.334 20.89m35.336-20.88l-35.336 20.88"/><path fill="#FBFCFF" d="M132.613 32.822v62.605l54.642 31.487V65.126z"/><path d="M155.603 71.202l23.083 13.531m-23.083-6.842l23.083 13.532m-23.083-6.843l23.083 13.532m-23.083-6.842l23.083 13.531m-23.083-6.841l23.083 13.53m-36.462-47.646l5.771 3.383m-5.771 3.306l5.771 3.383m-5.771 3.307l5.771 3.382m-5.771 3.307l5.771 3.383m-5.771 3.306l5.771 3.383" stroke="#748CF9" stroke-width="1.8"/><path fill="#F1F5FF" d="M187.255 65.126l54.643-32.29v62.591l-54.643 31.487z"/><path d="M203.792 64.679c0 .956-.2 1.803-.602 2.54a4.384 4.384 0 0 1-1.713 1.745l-.61.348v3.455l-.958.557v-9.257l1.688-.938c.733-.407 1.282-.477 1.647-.212s.548.852.548 1.762zm-2.925 3.364l.51-.29c.492-.279.853-.618 1.083-1.017.23-.398.345-.882.345-1.451 0-.528-.103-.864-.309-1.008-.206-.145-.527-.095-.963.148l-.666.372v3.246zm5.055-3.082l.666-.378c.447-.254.77-.565.971-.935.2-.37.301-.806.301-1.31 0-.511-.108-.818-.325-.92-.217-.101-.543-.03-.979.213l-.634.354v2.976zm0 1.232v3.636l-.958.557V61.26l1.656-.92c.757-.42 1.318-.513 1.681-.278.364.234.546.79.546 1.672 0 1.123-.38 2.14-1.14 3.05l1.658 3.044-1.092.634-1.404-2.81-.947.541zm9.5-6.325c0 1.441-.238 2.699-.715 3.775-.478 1.078-1.154 1.872-2.028 2.381-.886.515-1.566.509-2.04-.02-.475-.531-.713-1.54-.713-3.026 0-1.485.239-2.759.716-3.82.478-1.06 1.16-1.835 2.044-2.326.872-.484 1.546-.459 2.023.073.476.53.714 1.517.714 2.963zm-4.477 2.544c0 1.104.146 1.858.438 2.26.291.402.723.437 1.295.107.57-.33 1-.858 1.29-1.585.29-.726.436-1.642.436-2.747 0-1.09-.144-1.835-.432-2.237-.287-.402-.716-.445-1.286-.127-.575.321-1.009.847-1.301 1.579-.293.733-.44 1.65-.44 2.75zm10.945-6.219c0 1.414-.239 2.65-.716 3.712-.478 1.063-1.154 1.85-2.028 2.358-.886.515-1.566.516-2.04.002-.475-.516-.712-1.503-.712-2.96 0-1.458.238-2.711.716-3.758.477-1.045 1.159-1.812 2.044-2.304.872-.483 1.546-.466 2.022.052.476.515.714 1.48.714 2.898zm-4.477 2.544c0 1.084.145 1.822.437 2.214.291.391.723.42 1.296.09.57-.33 1-.852 1.29-1.569.29-.715.435-1.615.435-2.7 0-1.068-.144-1.798-.431-2.19-.288-.391-.716-.429-1.286-.11-.575.32-1.01.841-1.302 1.562-.293.722-.44 1.623-.44 2.703zm6.687.526l-.95.553v-8.653l3.31-1.838v1.184l-2.36 1.318v2.697l2.211-1.253v1.19l-2.21 1.261v3.541zm6.805-6.25a4.09 4.09 0 0 1-.566 2.098 4.236 4.236 0 0 1-1.56 1.55c-.664.386-1.207.552-1.63.497v-1.322c.268.03.552.01.853-.06.3-.068.581-.178.84-.328.38-.219.66-.485.841-.799.18-.313.27-.645.27-.997 0-.317-.082-.538-.248-.663-.166-.126-.508-.192-1.027-.199-.535-.01-.912-.155-1.131-.436-.22-.28-.33-.706-.33-1.275a3.886 3.886 0 0 1 .523-1.974 3.631 3.631 0 0 1 1.4-1.39c.561-.312 1.12-.444 1.677-.399l-.305 1.299c-.522-.025-.987.076-1.396.305a1.78 1.78 0 0 0-.706.688c-.16.286-.241.59-.241.913 0 .222.032.393.096.514.064.122.17.21.317.267.147.057.412.091.794.103.43.015.747.078.947.188.2.11.348.278.441.506.094.228.14.533.14.915z" fill="#12C4AA"/><path d="M233.715 61.812l-23.09 13.521m23.09-6.832l-23.09 13.521m23.09-6.832l-23.09 13.522m23.09-6.832l-23.09 13.52m23.09-6.831l-23.09 13.521m-7.011-22.217l-5.773 3.38m5.773 3.309l-5.773 3.38m5.773 3.309l-5.773 3.38m5.773 3.309l-5.773 3.38m5.773 3.31l-5.773 3.38" stroke="#12C4AA" stroke-width="1.8"/><path fill="#FFF" d="M132.615 32.822l54.599 32.426 54.598-32.426-54.557-31.734z"/><path d="M188.345 32.697l.126-.082c.203-.132.152-.307-.154-.527l-5.916-4.24c-.276-.197-.264-.38.035-.546.184-.103.492-.061.922.124 3.451 2.04 7.7 4.48 8.219 4.22 2.313-.893 5.125-1.525 8.45-1.937 3.356-.499 6.522-.677 9.491-.516 2.991.1 5.5.59 7.513 1.514 2.524 1.159 3.128 2.3 1.809 3.423-.554.472-1.283.756-2.186.848-.901.086-1.707-.06-2.418-.435-.55-.29-1.002-.83-1.36-1.617-.38-.783-.855-1.314-1.424-1.601-1.075-.54-2.136-.844-3.184-.915-1.044-.079-2.219.066-3.521.431-1.299.354-3.653 1.275-7.05 2.727-1.175.497-2.083.874-2.726 1.136l7.4 5.082c.17.116.243.224.22.322-.023.099-.163.25-.42.456a1.994 1.994 0 0 1-.954.397c-.38.058-.653.026-.82-.094l-7.352-5.39-5.027 1.767 2.683 2.139 4.478 3.574c.165.131.235.247.211.349-.024.101-.164.251-.418.45a1.809 1.809 0 0 1-.94.358c-.373.038-.64-.01-.803-.146l-7.163-6.07-5.547 1.73c-2.795.85-5.498 1.257-8.104 1.21-2.586-.104-4.965-.642-7.142-1.6-2.163-1-3.827-2.218-5.004-3.619-.96-1.142-1.585-2.217-1.875-3.216-.295-.987-.184-1.597.335-1.836.949-.439 2.02-.006 3.213 1.297.499.546.848 1.334 1.045 2.376.192 1.055.532 1.869 1.026 2.43.863.982 1.814 1.58 2.856 1.785 1.045.195 2.75-.016 5.123-.651l9.742-2.876.12-.081c.203-.127.155-.314-.142-.56l-5.738-4.754c-.267-.22-.253-.411.044-.57.182-.098.483-.039.903.177 3.354 2.321 7.371 5.014 7.884 4.773a2.42 2.42 0 0 1 .188-.057l3.352-1.16z" fill="#45B9E6"/><path stroke="#D3D7EA" stroke-width=".9" d="M187.255 1.045l-54.642 31.792v62.59l54.642 31.45 54.643-31.45v-62.59zm.061 125.833V65.11m-54.701-32.288l54.64 32.304m54.643-32.289l-54.643 32.289"/><path d="M148.806 53.19c0 1.477-.257 2.473-.769 2.988-.512.516-1.238.495-2.176-.061-.95-.564-1.68-1.404-2.19-2.522-.509-1.118-.764-2.43-.764-3.933 0-1.504.257-2.505.769-3.004.512-.499 1.243-.464 2.193.105.936.56 1.66 1.402 2.17 2.523.511 1.121.767 2.422.767 3.904zM144 50.326c0 1.12.156 2.063.47 2.828.312.765.776 1.33 1.39 1.694.611.363 1.073.351 1.384-.035.311-.387.467-1.145.467-2.275 0-1.114-.154-2.05-.463-2.81-.308-.761-.768-1.324-1.38-1.69-.617-.369-1.082-.36-1.397.03-.314.389-.471 1.142-.471 2.258zm7.185 3.979l.715.426c.48.286.827.365 1.042.237.215-.127.323-.443.323-.946 0-.512-.116-.948-.349-1.31-.232-.362-.582-.683-1.05-.963l-.68-.407v2.963zm0 1.227v3.619l-1.029-.61v-9.067l1.779 1.065c.812.487 1.413 1.065 1.803 1.736.39.671.586 1.448.586 2.33 0 1.126-.408 1.685-1.223 1.678l1.778 5.059-1.17-.695-1.508-4.51-1.016-.605zm9.726 4.799c0 1.486-.288 2.451-.865 2.895-.577.444-1.408.345-2.493-.298l-1.76-1.045V52.85l1.945 1.166c1.002.6 1.781 1.453 2.338 2.558.557 1.105.835 2.358.835 3.758zm-1.085-.598c0-2.157-.705-3.657-2.114-4.5l-.891-.532v6.551l.732.435c1.515.9 2.273.249 2.273-1.954zm5.997 8.1l-3.56-2.112v-8.997l3.56 2.133v1.24l-2.531-1.514v2.447l2.372 1.415v1.228l-2.372-1.413v2.823l2.531 1.503v1.247zm2.39-3.377l.714.426c.48.286.827.366 1.042.242.216-.125.323-.436.323-.934 0-.506-.116-.94-.349-1.298-.232-.36-.582-.68-1.05-.96l-.68-.406v2.93zm0 1.214v3.58l-1.03-.61v-8.97l1.779 1.065c.812.487 1.413 1.063 1.804 1.73.39.665.585 1.434.585 2.307 0 1.114-.407 1.664-1.222 1.652l1.778 5.016-1.171-.695-1.507-4.471-1.016-.605zm8.236 6.044c0 .792-.203 1.294-.607 1.505-.405.212-.963.106-1.675-.316-.712-.422-1.295-.924-1.748-1.507v-1.382c.287.362.592.694.915.996.323.302.623.535.902.7.407.243.708.311.902.207.193-.105.29-.342.29-.713 0-.333-.089-.669-.267-1.006-.178-.338-.545-.832-1.102-1.48-.574-.673-.978-1.29-1.214-1.855a4.476 4.476 0 0 1-.353-1.739c0-.745.187-1.22.56-1.425.373-.205.874-.118 1.502.258.603.361 1.203.907 1.8 1.639l-.327.993c-.56-.668-1.06-1.133-1.498-1.396-.333-.199-.586-.247-.758-.145-.172.103-.258.323-.258.662 0 .232.034.45.103.657.069.206.182.43.34.67.158.24.442.604.852 1.089.463.548.801 1.004 1.016 1.368.216.364.374.725.474 1.081.1.357.15.736.15 1.139z" fill="#748CF9"/><path fill="#FBFCFF" d="M268.223 43.974V84.46l35.336 20.361V64.864z"/><path d="M283.09 62.214l14.927 8.75M283.09 66.54l14.927 8.75m-14.927-4.425l14.927 8.75m-14.927-4.424l14.927 8.75m-14.927-4.424l14.927 8.75m-14.927-4.424l14.927 8.75m-23.579-35.138l3.732 2.188m-3.732 2.138l3.732 2.188m-3.732 2.138l3.732 2.188m-3.732 2.138l3.732 2.187m-3.732 2.139l3.732 2.187m-3.732 2.138l3.732 2.188" stroke="#748CF9" stroke-width="1.8"/><path fill="#F1F5FF" d="M303.559 64.864l35.336-20.88V84.46l-35.336 20.361z"/><path d="M333.228 56.95l-14.932 8.743m14.932-4.85l-14.932 8.744m14.932-4.418l-14.932 8.743m14.932-4.418l-14.932 8.744m14.932-4.418l-14.932 8.744m14.932-4.418l-14.932 8.744m-4.534-18.26l-3.733 2.185m3.733 1.707l-3.733 2.186m3.733 2.14l-3.733 2.186m3.733 2.14l-3.733 2.186m3.733 2.14l-3.733 2.186m3.733 2.14l-3.733 2.185" stroke="#12C4AA" stroke-width="1.8"/><path fill="#FFF" d="M268.224 43.974l35.308 20.97 35.307-20.97-35.28-20.521z"/><path d="M304.264 44.885l.08-.046c.132-.075.1-.174-.099-.298l-3.825-2.402c-.179-.111-.171-.215.022-.309.12-.058.318-.035.597.07 2.231 1.156 4.979 2.537 5.314 2.39 1.496-.506 3.314-.864 5.465-1.097 2.17-.282 4.218-.383 6.138-.292 1.934.056 3.557.334 4.858.857 1.632.657 2.023 1.303 1.17 1.939-.358.267-.83.428-1.414.48-.582.049-1.103-.034-1.563-.246-.356-.164-.649-.47-.88-.916-.245-.444-.553-.744-.921-.907a5.963 5.963 0 0 0-2.058-.518c-.676-.044-1.435.038-2.278.244-.84.2-2.362.722-4.56 1.545-.759.28-1.346.495-1.762.643l4.786 2.878c.11.066.157.127.142.183-.015.056-.105.142-.272.258a1.392 1.392 0 0 1-.617.225c-.245.033-.421.015-.53-.054l-4.754-3.052-3.251 1a6447.574 6447.574 0 0 1 4.631 3.236c.106.074.152.14.136.198-.015.057-.105.142-.27.254-.165.113-.368.18-.608.203-.241.022-.414-.006-.52-.083l-4.631-3.437-3.587.98c-1.808.481-3.556.712-5.241.686-1.673-.06-3.211-.364-4.619-.907-1.398-.567-2.474-1.256-3.235-2.05-.622-.647-1.026-1.255-1.213-1.82-.19-.56-.12-.905.216-1.041.614-.248 1.307-.004 2.078.735.323.309.549.755.676 1.345.124.598.344 1.059.663 1.376.558.556 1.173.895 1.847 1.011.676.11 1.78-.009 3.313-.368l6.3-1.63.078-.045c.13-.072.1-.178-.092-.317l-3.71-2.692c-.173-.126-.164-.233.028-.324.118-.055.312-.021.584.101 2.169 1.314 4.767 2.84 5.098 2.703.041-.013.082-.023.122-.032l2.168-.657z" fill="#45B9E6"/><path stroke="#D3D7EA" stroke-width=".9" d="M303.559 23.425l-35.336 20.559V84.46l35.336 20.338 35.336-20.338V43.984zm.096 81.373V64.854m-35.431-20.88l35.335 20.89m35.336-20.88l-35.336 20.88"/><g transform="translate(7.437 60.612)"><rect stroke="#D3D7EA" stroke-width=".9" fill="#FFF" x=".601" y=".495" width="10.999" height="10.999" rx="4.5"/><path fill="#8099E6" d="M2.757 5.994l3.461-1.73v3.46z"/><path d="M6.002 5.994h3.46" stroke="#8099E6" stroke-width=".9"/></g><g transform="translate(113.241 60.612)"><rect stroke="#D3D7EA" stroke-width=".9" fill="#FFF" x=".601" y=".495" width="10.999" height="10.999" rx="4.5"/><path fill="#8099E6" d="M2.757 5.994l3.461-1.73v3.46z"/><path d="M6.002 5.994h3.46" stroke="#8099E6" stroke-width=".9"/></g><g transform="translate(248.627 60.612)"><rect stroke="#D3D7EA" stroke-width=".9" fill="#FFF" x=".601" y=".495" width="10.999" height="10.999" rx="4.5"/><path fill="#8099E6" d="M2.757 5.994l3.461-1.73v3.46z"/><path d="M6.002 5.994h3.46" stroke="#8099E6" stroke-width=".9"/></g><g transform="translate(356.174 60.612)"><rect stroke="#D3D7EA" stroke-width=".9" fill="#FFF" x=".601" y=".495" width="10.999" height="10.999" rx="4.5"/><path fill="#8099E6" d="M2.757 5.994l3.461-1.73v3.46z"/><path d="M6.002 5.994h3.46" stroke="#8099E6" stroke-width=".9"/></g><g transform="translate(88.238 75.864)"><ellipse fill="#45B9E6" cx="231.989" cy="236.859" rx="2.021" ry="2.021"/><circle fill="#45B9E6" cx="221.136" cy="234.838" r="2.021"/><ellipse fill="#45B9E6" cx="60.746" cy="137.998" rx="2.021" ry="2.021"/><ellipse fill="#45B9E6" cx="136.992" cy="186.516" rx="2.021" ry="2.021"/><ellipse fill="#45B9E6" cx="2.406" cy="2.157" rx="2.021" ry="2.021"/><ellipse fill="#45B9E6" cx="124.499" cy="3.9" rx="2.021" ry="2.021"/><ellipse fill="#45B9E6" cx="237.848" cy="4.14" rx="2.021" ry="2.021"/><ellipse fill="#45B9E6" cx="115.257" cy="9.735" rx="2.021" ry="2.021"/><path stroke="#45B9E6" stroke-width="2" d="M115.257 9.644v115.044l62.68 36.507-41.807 25.32M2.182 1.662v71.256l86.56 51.838-28.032 13.242"/><path stroke="#45B9E6" stroke-width="2" d="M124.5 3.704v115.703l148.56 89.833-41.352 27.87"/><path stroke="#45B9E6" stroke-width="2" d="M238.328 4.17l19.514 11.228V209.51l-36.706 25.329"/></g></g></svg>