<svg width="1440" height="650" viewBox="0 0 1440 650" xmlns="http://www.w3.org/2000/svg"><title>Group 32</title><defs><linearGradient x1="-52.59%" y1="50%" x2="78.448%" y2="-28.571%" id="a"><stop stop-color="#D0D4E7" stop-opacity="0" offset="0%"/><stop stop-color="#D0D4E7" offset="100%"/></linearGradient></defs><g fill="none" fill-rule="evenodd"><g opacity=".8"><path d="M589.94 407.981l18.382-11.076c1.896-1.142 4.978-1.157 6.877-.04l111.916 65.9c2.855 1.681 2.852 4.41.006 6.09l-12.283 7.243" stroke="#7AD7C8"/><path d="M589.94 404.552l16.672-10.045c2.84-1.711 7.454-1.728 10.304-.037l111.69 66.24c4.75 2.816 4.782 7.438.073 10.324l-5.342 3.274" stroke="#A7ABBF"/></g><g opacity=".8"><path d="M445.004 314.042l18.382-11.076c1.896-1.142 4.979-1.144 6.865-.017l119.111 71.213c2.841 1.698 2.827 4.442-.02 6.12l-12.282 7.244-14.769 9.029" stroke="#7AD7C8"/><path d="M445.004 311.507l16.673-10.045c2.84-1.711 7.444-1.73 10.3-.03l118.851 70.69c4.749 2.825 4.782 7.455.073 10.34l-5.342 3.275-12.764 7.865" stroke="#A7ABBF"/></g><g opacity=".8"><path d="M404.228 488.241l18.382-11.076c1.896-1.142 4.965-1.129 6.84.02l131.002 80.28" stroke="#7AD7C8"/><path d="M403.333 484.812l16.673-10.046c2.84-1.71 7.434-1.703 10.26.018l130.186 79.253" stroke="#A7ABBF"/></g><g opacity=".8"><path d="M694.324 493.538l-21.145-13.144-18.382-11.076c-1.896-1.142-4.993-1.181-6.904-.096L546.43 526.877c-3.843 2.184-3.842 5.719-.004 7.893l21.03 11.916 9.144 5.143" stroke="#7AD7C8"/><path d="M694.324 490.11l-21.145-13.145-16.672-10.046c-2.84-1.71-7.478-1.767-10.348-.132L544.181 524.89c-5.757 3.28-5.787 8.65-.058 11.996l49.049 28.658" stroke="#A7ABBF"/></g><g opacity=".8"><path d="M536.792 411.741l-21.145-13.144-18.382-11.076c-1.896-1.142-4.987-1.197-6.92-.114l-123.79 69.346c-3.856 2.16-3.867 5.677-.029 7.851l21.03 11.916" stroke="#7AD7C8"/><path d="M536.792 408.312l-21.145-13.144-16.672-10.045c-2.84-1.712-7.484-1.783-10.374-.16l-124.28 69.823c-5.778 3.247-5.825 8.588-.097 11.935l49.05 28.658" stroke="#A7ABBF"/></g><g opacity=".8"><path d="M393.338 352.181l-18.382-11.076c-1.895-1.142-4.98-1.173-6.891-.069L258.55 404.333c-3.822 2.209-3.805 5.765.033 7.94l21.03 11.915 91.91 55.04" stroke="#7AD7C8"/><path d="M393.338 348.752l-16.672-10.046c-2.84-1.71-7.47-1.75-10.34-.089L256.301 402.32c-5.736 3.321-5.777 8.757-.066 12.157l111.026 66.095" stroke="#A7ABBF"/></g><g opacity=".8"><path d="M401.004 318.937l-18.382-11.076c-1.896-1.143-4.981-1.16-6.88-.048l-21.92 12.85" stroke="#7AD7C8"/><path d="M401.004 315.508l-16.672-10.046c-2.84-1.711-7.456-1.742-10.322-.062l-29.669 17.391" stroke="#A7ABBF"/><path d="M346.964 321.254l-2.623 1.537" stroke="#A7ABBF" stroke-width="2" stroke-linecap="round"/><path d="M349.928 323.151l-10.858 6.287m-3.215 1.928l-10.858 6.287" stroke="#7AD7C8"/><path d="M327.734 336.068l-2.737 1.585" stroke="#7AD7C8" stroke-width="2" stroke-linecap="round"/></g><g opacity=".8"><path d="M545.041 559.605L526.66 548.53c-1.896-1.142-4.981-1.16-6.88-.047l-21.92 12.85" stroke="#7AD7C8"/><path d="M545.041 556.176l-16.672-10.045c-2.84-1.712-7.456-1.743-10.322-.063L488.38 563.46" stroke="#A7ABBF"/><path d="M491 561.923l-2.621 1.537" stroke="#A7ABBF" stroke-width="2" stroke-linecap="round"/><path d="M493.965 563.82l-10.858 6.286m-3.215 1.929l-10.858 6.286" stroke="#7AD7C8"/><path d="M471.771 576.737l-2.737 1.584" stroke="#7AD7C8" stroke-width="2" stroke-linecap="round"/></g><path fill="#FCFCFD" d="M515.327 442.822l-.142 16.127 42.156 24.19.142-15.843z"/><path fill="#F8F9FF" d="M557.483 467.296v15.843l42.297-24.331-.141-15.986z"/><path fill="#FFF" d="M515.185 442.822l42.156 24.474 42.298-24.474-42.44-24.473z"/><path stroke="#D0D4E7" d="M557.358 418.27l-42.23 24.57v16.118l42.23 24.306 42.23-24.306V442.84z"/><path stroke="#D0D4E7" d="M515.044 442.822l42.297 24.474 42.156-24.474"/><path d="M561.36 471.978c-.478.269-.867.931-.867 1.492v-.172c0 .555.396.784.868.52l24.79-13.883c.478-.268.867-.93.867-1.491v.172c0-.555-.396-.784-.868-.52l-24.79 13.882z" stroke="#A7ABC0" fill="#D2D8E7"/><path d="M557.361 483.14v-15.844" stroke="#D0D4E7"/><path d="M591.522 457.744c.483-.272.875-.934.875-1.491v-2.127c0-.551-.39-.774-.875-.495l-1.649.947c-.483.278-.875.956-.875 1.503v2.087c0 .552.39.78.875.506l1.649-.93z" stroke="#748CF9" fill="#C5D9FB"/><path d="M596.747 454.725c.483-.273.875-.935.875-1.492v-2.127c0-.551-.39-.774-.875-.495l-1.65.947c-.483.278-.875.956-.875 1.503v2.087c0 .552.39.78.876.506l1.649-.93z" stroke="#EBC224" fill="#F8E585"/><path fill="#F8F9FF" d="M599.838 422.684l-.447 16.104 16.104 9.394 13.867-8.052z"/><path fill="#F8F9FF" d="M571.209 454.892l28.182-16.104 16.104 8.946-28.182 16.552z"/><path fill="#FCFCFD" d="M515.327 422.38l-.142 16.128 42.156 24.19.142-15.844z"/><path fill="#F8F9FF" d="M557.483 446.854v15.844l42.297-24.332-.141-15.985z"/><path fill="#FFF" d="M515.185 422.38l42.156 24.474 42.298-24.473-42.44-24.473z"/><path stroke="#D0D4E7" d="M557.358 397.828l-42.23 24.57v16.118l42.23 24.307 42.23-24.307v-16.118z"/><path stroke="#D0D4E7" d="M515.044 422.38l42.297 24.474 42.156-24.473m-.473 16.03l30.338 17.375"/><path fill="#F8F9FF" d="M557.483 426.24v15.844l42.297-24.332-.141-15.985z"/><path stroke="#D0D4E7" d="M557.358 377.214l-42.23 24.57v16.119l42.23 24.306 42.23-24.306v-16.119z"/><path d="M599.578 442.745v-20.617c0-1.11.773-1.574 1.747-1.026l10.91 6.135 3.284 5.75V451.6l-15.94-8.856z" stroke="#D0D4E7" fill="#FFF"/><path d="M612.22 427.242v2.77c-.069.896.55 1.893 1.387 2.227l1.867.747" stroke="#D0D4E7"/><path fill="#D0D4E7" d="M599.594 422.174l12.501 7.096.338-2.028-12.163-6.757-.338.338-.338.338z"/><path d="M599.578 442.745v-20.617c0-1.11.773-1.574 1.747-1.026l10.91 6.135 3.284 5.75V451.6l-15.94-8.856z" stroke="#D0D4E7" stroke-width=".5"/><path d="M612.22 427.242v2.77c-.069.896.55 1.893 1.387 2.227l1.867.747" stroke="#D0D4E7"/><path d="M606.662 429.888l6.824 4m-6.824-1.347l6.824 4m-6.824-1.347l6.824 4m-6.824-1.347l6.824 4m-6.824-1.347l6.824 4m-6.824-1.346l3.412 2 3.412 2" opacity=".6" stroke="#E5E6EC"/><g opacity=".6"><path d="M602.708 427.713l1.706 1" stroke="#E5E6EC"/><path d="M602.708 430.366l1.706 1m-1.706 1.654l1.706 1m-1.706 1.652l1.706 1m-1.706 1.653l1.706 1m-1.706 1.654l1.706 1" stroke="#12C4AA"/></g><path fill="#B3B8CD" d="M615.812 452.245v-1.013l-16.556-9.123v1.014z"/><path fill="url(#a)" opacity=".855" d="M34.282 17.033l10.46 22.222-11.487-6.081z" transform="translate(571.407 412.99)"/><path d="M593.316 435.588V414.97c0-1.108.772-1.573 1.746-1.025l10.91 6.134 3.284 5.75v18.615l-15.94-8.856z" stroke="#D0D4E7" fill="#FFF"/><path d="M593.316 435.588V414.97c0-1.108.772-1.573 1.746-1.025l10.91 6.134 3.284 5.75v18.615l-15.94-8.856z" stroke="#D0D4E7" stroke-width=".5"/><path d="M605.957 420.085v2.77c-.068.896.551 1.893 1.387 2.227l1.867.747" stroke="#71DCCC"/><path d="M600.4 422.73l6.823 4m-6.823-1.346l6.823 4m-6.823-1.347l6.823 4m-6.823-1.347l6.823 4m-6.823-1.347l6.823 4m-6.823-1.347l3.412 2 3.411 2" opacity=".6" stroke="#12C4AA"/><path d="M596.445 420.555l1.706 1m-1.706 1.654l1.706 1m-1.706 1.653l1.706 1m-1.706 1.653l1.706 1m-1.706 1.653l1.706 1m-1.706 1.653l1.706 1" stroke="#71DCCC"/><path fill="#B3B8CD" d="M609.55 445.088v-1.014l-16.557-9.122v1.013z"/><path fill="url(#a)" opacity=".855" d="M28.02 19.717l10.288 12.525-9.119-4.777z" transform="translate(571.407 412.99)"/><path d="M587.948 449.008V428.39c0-1.108.772-1.573 1.746-1.025l10.91 6.134 3.284 5.75v18.615l-15.94-8.856z" stroke="#D0D4E7" fill="#FFF"/><path d="M600.59 433.505v2.77c-.07.896.55 1.893 1.386 2.227l1.867.747" stroke="#D0D4E7"/><path fill="#D0D4E7" d="M587.963 428.437l12.502 7.095.338-2.027-12.164-6.757-.338.338-.338.337z"/><path d="M587.948 449.008V428.39c0-1.108.772-1.573 1.746-1.025l10.91 6.134 3.284 5.75v18.615l-15.94-8.856z" stroke="#D0D4E7" stroke-width=".5"/><path d="M600.59 433.505v2.77c-.07.896.55 1.893 1.386 2.227l1.867.747" stroke="#D0D4E7"/><path d="M595.032 436.15l6.824 4m-6.824-1.346l6.824 4m-6.824-1.347l6.824 4m-6.824-1.347l6.824 4m-6.824-1.347l6.824 4m-6.824-1.347l3.412 2 3.412 2" opacity=".6" stroke="#E5E6EC"/><path d="M591.077 433.975l1.706 1m-1.706 1.654l1.706 1m-1.706 1.653l1.706 1m-1.706 1.653l1.706 1m-1.706 1.653l1.706 1m-1.706 1.653l1.706 1" opacity=".3" stroke="#12C4AA"/><path fill="#B3B8CD" d="M604.181 458.508v-1.014l-16.556-9.122v1.013z"/><path fill="url(#a)" opacity=".855" d="M22.3 31.665l10.812 13.853-11.488-6.082z" transform="translate(571.407 412.99)"/><path d="M582.58 451.692v-20.618c0-1.108.772-1.573 1.746-1.025l10.91 6.134 3.284 5.75v18.615l-15.94-8.856z" stroke="#D0D4E7" fill="#FFF"/><path d="M595.222 436.19v2.768c-.07.897.55 1.894 1.386 2.228l1.867.747" stroke="#D0D4E7"/><path fill="#D0D4E7" d="M582.595 431.121l12.502 7.095.338-2.027-12.164-6.757-.338.337-.338.338z"/><path d="M582.58 451.692v-20.618c0-1.108.772-1.573 1.746-1.025l10.91 6.134 3.284 5.75v18.615l-15.94-8.856z" stroke="#D0D4E7" stroke-width=".5"/><path d="M595.222 436.19v2.768c-.07.897.55 1.894 1.386 2.228l1.867.747" stroke="#D0D4E7"/><path d="M589.664 438.835l6.824 4m-6.824-1.347l6.824 4m-6.824-1.348l6.824 4m-6.824-1.346l6.824 4m-6.824-1.347l6.824 4m-6.824-1.347l3.412 2 3.412 2" opacity=".6" stroke="#E5E6EC"/><g opacity=".6"><path d="M585.709 436.66l1.706 1" stroke="#E5E6EC"/><path d="M585.709 439.313l1.706 1m-1.706 1.653l1.706 1m-1.706 1.653l1.706 1m-1.706 1.653l1.706 1m-1.706 1.653l1.706 1" stroke="#12C4AA"/></g><path fill="#B3B8CD" d="M598.813 461.192v-1.014l-16.556-9.122v1.013z"/><path fill="url(#a)" opacity=".855" d="M16.932 34.35l10.812 13.852-11.488-6.082z" transform="translate(571.407 412.99)"/><path d="M577.155 455.746V435.13c0-1.109.772-1.573 1.746-1.026l10.91 6.135 3.284 5.75v18.614l-15.94-8.856z" stroke="#D0D4E7" fill="#FFF"/><path d="M589.797 440.244v2.769c-.07.896.55 1.893 1.386 2.228l1.867.746" stroke="#D0D4E7"/><path fill="#D0D4E7" d="M577.17 435.175l12.502 7.096.338-2.027-12.164-6.758-.338.338-.338.338z"/><path d="M577.155 455.746V435.13c0-1.109.772-1.573 1.746-1.026l10.91 6.135 3.284 5.75v18.614l-15.94-8.856z" stroke="#D0D4E7" stroke-width=".5"/><path d="M589.797 440.244v2.769c-.07.896.55 1.893 1.386 2.228l1.867.746" stroke="#D0D4E7"/><path d="M584.239 442.89l6.824 4m-6.824-1.348l6.824 4m-6.824-1.347l6.824 4m-6.824-1.346l6.824 4m-6.824-1.347l6.824 4m-6.824-1.347l3.412 2 3.412 2" opacity=".6" stroke="#E5E6EC"/><path d="M580.284 440.714l1.706 1m-1.706 1.653l1.706 1m-1.706 1.653l1.706 1m-1.706 1.653l1.706 1m-1.706 1.654l1.706 1m-1.706 1.653l1.706 1" opacity=".3" stroke="#12C4AA"/><path fill="#B3B8CD" d="M593.388 465.246v-1.013l-16.556-9.123v1.014z"/><path fill="url(#a)" opacity=".855" d="M10.831 38.066l10.812 13.853-11.488-6.082z" transform="translate(571.407 412.99)"/><path d="M571.73 458.687V438.07c0-1.11.772-1.574 1.746-1.026l10.91 6.135 3.284 5.75v18.614l-15.94-8.856z" stroke="#D0D4E7" fill="#FFF"/><path d="M584.372 443.185v2.769c-.07.896.55 1.893 1.386 2.227l1.867.747" stroke="#D0D4E7"/><path fill="#D0D4E7" d="M571.745 438.116l12.502 7.096.338-2.027-12.164-6.758-.338.338-.338.338z"/><path d="M571.73 458.687V438.07c0-1.11.772-1.574 1.746-1.026l10.91 6.135 3.284 5.75v18.614l-15.94-8.856z" stroke="#D0D4E7" stroke-width=".5"/><path d="M584.372 443.185v2.769c-.07.896.55 1.893 1.386 2.227l1.867.747" stroke="#D0D4E7"/><g opacity=".6"><path d="M578.814 445.83l6.824 4m-6.824-1.347l6.824 4m-6.824-1.347l6.824 4m-6.824-1.346l6.824 4m-6.824-1.347l6.824 4" stroke="#E5E6EC"/><path stroke="#A7ABBF" d="M578.814 459.096l3.412 2 3.412 2"/></g><path d="M574.859 443.655l1.706 1m-1.706 1.653l1.706 1m-1.706 1.653l1.706 1m-1.706 1.653l1.706 1m-1.706 1.653l1.706 1m-1.706 1.653l1.706 1" opacity=".6" stroke="#E5E6EC"/><path fill="#B3B8CD" d="M587.963 468.187v-1.013l-16.556-9.123v1.014z"/><path fill="#FCFCFD" d="M557.342 446.84l-.142 16.127 30.113 17.423.588-15.643z"/><path d="M557.361 462.699v-15.845m-.386 15.713l29.88 18.134m-29.88-34.238l30.873 18.098m26.686-33.371l14.862 8.415" stroke="#D0D4E7"/><path stroke="#D0D4E7" fill="#F8F9FF" d="M587.025 464.459v15.844l42.298-24.332-.141-15.985z"/><path d="M590.477 469.474c-.479.269-.867.931-.867 1.492v-.173c0 .556.395.785.867.52l24.79-13.882c.479-.268.867-.93.867-1.491v.172c0-.555-.395-.784-.867-.52l-24.79 13.882z" stroke="#A7ABC0" fill="#D2D8E7"/><path d="M620.639 455.24c.483-.272.875-.935.875-1.491v-2.127c0-.551-.39-.774-.875-.495l-1.65.947c-.483.278-.875.956-.875 1.503v2.087c0 .552.39.78.876.506l1.649-.93z" stroke="#748CF9" fill="#C5D9FB"/><path d="M625.863 452.22c.484-.272.876-.934.876-1.491v-2.127c0-.551-.39-.774-.876-.495l-1.648.947c-.484.278-.876.956-.876 1.503v2.087c0 .552.39.78.876.506l1.648-.93z" stroke="#EBC224" fill="#F8E585"/><path fill="#FCFCFD" d="M515.557 402.589v15.051l41.333 23.788v-14.917z"/><path fill="#FFF" d="M515.906 401.772l41.55 24.072 41.306-24.077-41.563-24.066z"/><path stroke="#D0D4E7" d="M515.044 401.767l42.297 24.473 42.298-24.473"/><path d="M561.36 430.923c-.478.268-.867.931-.867 1.491v-.172c0 .556.396.784.868.52l24.79-13.882c.478-.268.867-.931.867-1.491v.172c0-.556-.396-.784-.868-.52l-24.79 13.882z" stroke="#A7ABC0" fill="#D2D8E7"/><path d="M557.361 442.085V426.24" stroke="#D0D4E7"/><path d="M591.522 416.69c.483-.274.875-.936.875-1.493v-2.126c0-.552-.39-.775-.875-.496l-1.649.948c-.483.277-.875.956-.875 1.502v2.088c0 .552.39.78.875.506l1.649-.93z" stroke="#748CF9" fill="#C5D9FB"/><path d="M596.747 413.67c.483-.273.875-.936.875-1.493v-2.126c0-.552-.39-.774-.875-.496l-1.65.948c-.483.277-.875.956-.875 1.502v2.088c0 .552.39.78.876.506l1.649-.93z" stroke="#EBC224" fill="#F8E585"/><path d="M592.872 414.703l12.96 7.41.431-2.385-11.487-6.479h-.97c-.954.29-.934 1.454-.934 1.454z" fill="#71DCCC"/><path d="M605.957 420.102v2.752c-.068.897.551 1.894 1.387 2.228l1.867.747" stroke="#D0D4E7" stroke-linecap="round"/><path fill="#F8F9FF" d="M749.477 507.036l-.447 16.104 16.104 9.394 13.867-8.052z"/><path fill="#F8F9FF" d="M720.848 539.244l28.182-16.104 16.104 8.947-28.182 16.55z"/><path fill="#FCFCFD" d="M664.966 506.733l-.142 16.127 42.156 24.19.142-15.844z"/><path fill="#F8F9FF" d="M707.122 531.206v15.844l42.297-24.332-.141-15.985z"/><path fill="#FFF" d="M664.824 506.733l42.156 24.473 42.298-24.473-42.439-24.473z"/><path stroke="#D0D4E7" d="M706.998 482.18l-42.23 24.57v16.119l42.23 24.306 42.23-24.306V506.75z"/><path stroke="#D0D4E7" d="M664.683 506.733l42.297 24.473 42.157-24.473m-.474 16.03l30.338 17.376"/><path fill="#F8F9FF" d="M707.122 510.592v15.844l42.297-24.332-.141-15.985z"/><path stroke="#D0D4E7" d="M706.998 461.566l-42.23 24.57v16.119l42.23 24.306 42.23-24.306v-16.119z"/><g opacity=".6"><path d="M752.347 512.065l1.706 1" stroke="#E5E6EC"/><path d="M752.347 514.718l1.706 1m-1.706 1.653l1.706 1m-1.706 1.653l1.706 1m-1.706 1.654l1.706 1m-1.706 1.652l1.706 1" stroke="#12C4AA"/></g><path fill="#B3B8CD" d="M765.451 536.597v-1.013l-16.556-9.123v1.014z"/><path fill="url(#a)" opacity=".855" d="M34.282 21.033l10.46 22.222-11.487-6.081z" transform="translate(721.047 493.342)"/><path d="M748.955 515.94v-20.617c0-1.11.772-1.574 1.746-1.026l10.91 6.134 3.285 5.75v18.615l-15.941-8.856z" stroke="#D0D4E7" fill="#FFF"/><path d="M748.955 515.94v-20.617c0-1.11.772-1.574 1.746-1.026l10.91 6.134 3.285 5.75v18.615l-15.941-8.856z" stroke="#D0D4E7" stroke-width=".5"/><path d="M748.512 495.055l12.96 7.41.43-2.385-11.486-6.479h-.97c-.954.29-.934 1.454-.934 1.454z" fill="#71DCCC"/><path d="M761.597 500.437v2.77c-.07.896.55 1.893 1.386 2.227l1.868.747" stroke="#D0D4E7" stroke-linecap="round"/><path d="M756.039 503.083l6.824 4m-6.824-1.347l6.824 4m-6.824-1.346l6.824 4m-6.824-1.348l6.824 4m-6.824-1.347l6.824 4m-6.824-1.346l3.412 2 3.412 2" opacity=".6" stroke="#12C4AA"/><path d="M752.084 500.908l1.706 1m-1.706 1.652l1.706 1m-1.706 1.654l1.706 1m-1.706 1.653l1.706 1m-1.706 1.653l1.706 1m-1.706 1.653l1.706 1" stroke="#71DCCC"/><path fill="#B3B8CD" d="M765.188 525.44v-1.014l-16.555-9.122v1.013z"/><path fill="url(#a)" opacity=".855" d="M34.02 19.717l10.288 12.525-9.119-4.777z" transform="translate(721.047 493.342)"/><path d="M742.955 519.94v-20.617c0-1.11.772-1.574 1.746-1.026l10.91 6.134 3.285 5.75v18.615l-15.941-8.856z" stroke="#D0D4E7" fill="#FFF"/><path d="M742.955 519.94v-20.617c0-1.11.772-1.574 1.746-1.026l10.91 6.134 3.285 5.75v18.615l-15.941-8.856z" stroke="#D0D4E7" stroke-width=".5"/><path d="M755.597 504.437v2.77c-.07.896.55 1.893 1.386 2.227l1.868.747" stroke="#71DCCC"/><path d="M750.039 507.083l6.824 4m-6.824-1.347l6.824 4m-6.824-1.346l6.824 4m-6.824-1.348l6.824 4m-6.824-1.347l6.824 4m-6.824-1.346l3.412 2 3.412 2" opacity=".6" stroke="#12C4AA"/><path d="M746.084 504.908l1.706 1m-1.706 1.652l1.706 1m-1.706 1.654l1.706 1m-1.706 1.653l1.706 1m-1.706 1.653l1.706 1m-1.706 1.653l1.706 1" stroke="#71DCCC"/><path fill="#B3B8CD" d="M759.188 529.44v-1.014l-16.555-9.122v1.013z"/><path fill="url(#a)" opacity=".855" d="M28.02 23.717l10.288 12.525-9.119-4.777z" transform="translate(721.047 493.342)"/><path d="M737.587 533.36v-20.617c0-1.11.772-1.574 1.746-1.026l10.91 6.134 3.285 5.75v18.615l-15.941-8.856z" stroke="#D0D4E7" fill="#FFF"/><path d="M750.229 517.857v2.77c-.07.896.55 1.893 1.386 2.227l1.868.747" stroke="#D0D4E7"/><path fill="#D0D4E7" d="M737.602 512.79l12.502 7.094.338-2.027-12.164-6.757-.338.338-.338.338z"/><path d="M737.587 533.36v-20.617c0-1.11.772-1.574 1.746-1.026l10.91 6.134 3.285 5.75v18.615l-15.941-8.856z" stroke="#D0D4E7" stroke-width=".5"/><path d="M750.229 517.857v2.77c-.07.896.55 1.893 1.386 2.227l1.868.747" stroke="#D0D4E7"/><path d="M744.671 520.503l6.824 4m-6.824-1.347l6.824 4m-6.824-1.347l6.824 4m-6.824-1.347l6.824 4m-6.824-1.347l6.824 4m-6.824-1.346l3.412 2 3.412 2" opacity=".6" stroke="#E5E6EC"/><path d="M740.716 518.328l1.706 1m-1.706 1.652l1.706 1m-1.706 1.654l1.706 1m-1.706 1.653l1.706 1m-1.706 1.653l1.706 1m-1.706 1.653l1.706 1" opacity=".3" stroke="#12C4AA"/><path fill="#B3B8CD" d="M753.82 542.86v-1.014l-16.555-9.122v1.013z"/><path fill="url(#a)" opacity=".855" d="M22.3 35.665l10.812 13.853-11.488-6.082z" transform="translate(721.047 493.342)"/><path d="M732.219 536.044v-20.617c0-1.11.772-1.574 1.746-1.026l10.91 6.134 3.285 5.75V544.9l-15.941-8.856z" stroke="#D0D4E7" fill="#FFF"/><path d="M744.86 520.541v2.77c-.068.896.551 1.893 1.387 2.227l1.868.747" stroke="#D0D4E7"/><path fill="#D0D4E7" d="M732.235 515.473l12.5 7.095.339-2.027-12.164-6.757-.338.338-.337.337z"/><path d="M732.219 536.044v-20.617c0-1.11.772-1.574 1.746-1.026l10.91 6.134 3.285 5.75V544.9l-15.941-8.856z" stroke="#D0D4E7" stroke-width=".5"/><path d="M744.86 520.541v2.77c-.068.896.551 1.893 1.387 2.227l1.868.747" stroke="#D0D4E7"/><path d="M739.303 523.187l6.824 4m-6.824-1.347l6.824 4m-6.824-1.347l6.824 4m-6.824-1.347l6.824 4m-6.824-1.346l6.824 4m-6.824-1.347l3.412 2 3.412 2" opacity=".6" stroke="#E5E6EC"/><g opacity=".6"><path d="M735.348 521.012l1.706 1" stroke="#E5E6EC"/><path d="M735.348 523.665l1.706 1m-1.706 1.653l1.706 1m-1.706 1.653l1.706 1m-1.706 1.653l1.706 1m-1.706 1.653l1.706 1" stroke="#12C4AA"/></g><path fill="#B3B8CD" d="M748.452 545.544v-1.014l-16.555-9.122v1.013z"/><path fill="url(#a)" opacity=".855" d="M16.932 38.35l10.812 13.852-11.488-6.082z" transform="translate(721.047 493.342)"/><path d="M726.794 540.098v-20.617c0-1.109.772-1.573 1.746-1.026l10.91 6.135 3.285 5.75v18.614l-15.941-8.856z" stroke="#D0D4E7" fill="#FFF"/><path d="M739.436 524.596v2.769c-.07.896.55 1.893 1.386 2.228l1.868.747" stroke="#D0D4E7"/><path fill="#D0D4E7" d="M726.81 519.528l12.5 7.095.339-2.027-12.164-6.758-.338.338-.337.338z"/><path d="M726.794 540.098v-20.617c0-1.109.772-1.573 1.746-1.026l10.91 6.135 3.285 5.75v18.614l-15.941-8.856z" stroke="#D0D4E7" stroke-width=".5"/><path d="M739.436 524.596v2.769c-.07.896.55 1.893 1.386 2.228l1.868.747" stroke="#D0D4E7"/><path d="M733.878 527.241l6.824 4m-6.824-1.347l6.824 4m-6.824-1.346l6.824 4m-6.824-1.348l6.824 4m-6.824-1.346l6.824 4m-6.824-1.347l3.412 2 3.412 2" opacity=".6" stroke="#E5E6EC"/><path d="M729.923 525.066l1.706 1m-1.706 1.654l1.706 1m-1.706 1.652l1.706 1m-1.706 1.654l1.706 1m-1.706 1.653l1.706 1m-1.706 1.653l1.706 1" opacity=".3" stroke="#12C4AA"/><path fill="#B3B8CD" d="M743.027 549.598v-1.013l-16.555-9.123v1.014z"/><path fill="url(#a)" opacity=".855" d="M10.831 42.066l10.812 13.853-11.488-6.082z" transform="translate(721.047 493.342)"/><path d="M721.369 543.04v-20.618c0-1.109.772-1.573 1.746-1.026l10.91 6.135 3.285 5.75v18.614l-15.941-8.856z" stroke="#D0D4E7" fill="#FFF"/><path d="M734.01 527.537v2.769c-.068.896.551 1.893 1.387 2.228l1.868.746" stroke="#D0D4E7"/><path fill="#D0D4E7" d="M721.385 522.469l12.5 7.095.339-2.027-12.164-6.758-.338.338-.337.338z"/><path d="M721.369 543.04v-20.618c0-1.109.772-1.573 1.746-1.026l10.91 6.135 3.285 5.75v18.614l-15.941-8.856z" stroke="#D0D4E7" stroke-width=".5"/><path d="M734.01 527.537v2.769c-.068.896.551 1.893 1.387 2.228l1.868.746" stroke="#D0D4E7"/><g opacity=".6"><path d="M728.453 530.182l6.824 4m-6.824-1.347l6.824 4m-6.824-1.347l6.824 4m-6.824-1.346l6.824 4m-6.824-1.347l6.824 4" stroke="#E5E6EC"/><path stroke="#A7ABBF" d="M728.453 543.448l3.412 2 3.412 2"/></g><path d="M724.498 528.007l1.706 1m-1.706 1.653l1.706 1m-1.706 1.653l1.706 1m-1.706 1.653l1.706 1m-1.706 1.654l1.706 1m-1.706 1.653l1.706 1" opacity=".6" stroke="#E5E6EC"/><path fill="#B3B8CD" d="M737.602 552.54v-1.014l-16.555-9.123v1.014z"/><path fill="#FCFCFD" d="M706.98 531.192l-.14 16.127 30.112 17.423.588-15.643z"/><path d="M707 547.05v-15.844m-.386 15.714l29.881 18.133m-29.881-34.238l30.873 18.098m27.475-32.924l14.074 7.969" stroke="#D0D4E7"/><path stroke="#D0D4E7" fill="#F8F9FF" d="M736.665 548.811v15.844l42.297-24.332-.141-15.985z"/><path d="M740.116 553.826c-.479.269-.867.931-.867 1.492v-.172c0 .555.396.784.867.52l24.79-13.883c.479-.268.867-.93.867-1.491v.172c0-.555-.395-.784-.867-.52l-24.79 13.882z" stroke="#A7ABC0" fill="#D2D8E7"/><path d="M770.278 539.592c.483-.272.875-.934.875-1.491v-2.127c0-.551-.39-.774-.875-.495l-1.649.947c-.483.278-.875.956-.875 1.503v2.087c0 .552.39.78.875.506l1.649-.93z" stroke="#748CF9" fill="#C5D9FB"/><path d="M775.502 536.573c.484-.273.876-.935.876-1.492v-2.127c0-.551-.39-.774-.876-.495l-1.648.947c-.484.278-.876.956-.876 1.503v2.087c0 .552.39.78.876.506l1.648-.93z" stroke="#EBC224" fill="#F8E585"/><path fill="#FCFCFD" d="M665.196 486.94v15.053l41.333 23.788v-14.917z"/><path fill="#FFF" d="M665.545 486.124l41.55 24.072 41.306-24.077-41.563-24.066z"/><path stroke="#D0D4E7" d="M664.683 486.12l42.297 24.472 42.299-24.473"/><path d="M711 515.275c-.48.268-.868.931-.868 1.492v-.173c0 .556.396.784.868.52l24.79-13.882c.478-.268.867-.93.867-1.491v.172c0-.555-.396-.784-.868-.52L711 515.275z" stroke="#A7ABC0" fill="#D2D8E7"/><path d="M707 526.437v-15.845" stroke="#D0D4E7"/><path d="M741.161 501.041c.484-.272.876-.935.876-1.491v-2.127c0-.552-.39-.774-.876-.495l-1.648.947c-.484.277-.876.956-.876 1.502v2.088c0 .552.39.78.876.506l1.648-.93z" stroke="#748CF9" fill="#C5D9FB"/><path d="M746.386 498.021c.483-.272.875-.935.875-1.491v-2.127c0-.552-.39-.774-.875-.495l-1.649.947c-.483.278-.875.956-.875 1.502v2.088c0 .552.39.78.875.506l1.649-.93z" stroke="#EBC224" fill="#F8E585"/><path d="M742.512 499.055l12.96 7.41.43-2.385-11.486-6.479h-.97c-.954.29-.934 1.454-.934 1.454z" fill="#71DCCC"/><path d="M755.597 504.454v2.753c-.07.896.55 1.893 1.386 2.227l1.868.747" stroke="#D0D4E7" stroke-linecap="round"/><path fill="#FCFCFD" d="M381.127 356.04l-.141 16.127 42.156 24.19.141-15.844z"/><path fill="#F8F9FF" d="M423.283 380.513v15.844l42.298-24.332-.142-15.985z"/><path fill="#FFF" d="M380.986 356.04l42.156 24.473 42.297-24.473L423 331.567z"/><path stroke="#D0D4E7" d="M423.159 331.487l-42.23 24.57v16.119l42.23 24.306 42.23-24.306v-16.119z"/><path stroke="#D0D4E7" d="M380.844 356.04l42.298 24.473 42.156-24.473"/><path d="M427.161 385.196c-.479.268-.867.931-.867 1.491v-.172c0 .556.395.784.867.52l24.79-13.882c.479-.268.867-.931.867-1.491v.172c0-.556-.396-.784-.867-.52l-24.79 13.882z" stroke="#A7ABC0" fill="#D2D8E7"/><path d="M423.162 396.358v-15.845" stroke="#D0D4E7"/><path d="M457.322 370.962c.484-.273.876-.935.876-1.492v-2.126c0-.552-.39-.774-.876-.496l-1.648.948c-.484.277-.876.956-.876 1.502v2.088c0 .552.39.78.876.506l1.648-.93z" stroke="#748CF9" fill="#C5D9FB"/><path d="M462.547 367.942c.484-.272.875-.935.875-1.492v-2.126c0-.552-.39-.774-.875-.496l-1.649.948c-.483.277-.875.956-.875 1.502v2.088c0 .552.39.78.875.506l1.649-.93z" stroke="#EBC224" fill="#F8E585"/><path fill="#F8F9FF" d="M465.639 335.902l-.448 16.104 16.104 9.393 13.868-8.052z"/><path fill="#F8F9FF" d="M437.01 368.11l28.181-16.104 16.104 8.946-28.182 16.551z"/><path fill="#FCFCFD" d="M381.127 335.599l-.141 16.126 42.156 24.19.141-15.843z"/><path fill="#F8F9FF" d="M423.283 360.072v15.844l42.298-24.332-.142-15.985z"/><path fill="#FFF" d="M380.986 335.599l42.156 24.473 42.297-24.473L423 311.125z"/><path stroke="#D0D4E7" d="M423.159 311.046l-42.23 24.57v16.118l42.23 24.306 42.23-24.306v-16.118z"/><path stroke="#D0D4E7" d="M380.844 335.599l42.298 24.473 42.156-24.473m-.473 16.03l30.338 17.375"/><path fill="#F8F9FF" d="M423.283 339.458v15.844l42.298-24.332-.142-15.985z"/><path stroke="#D0D4E7" d="M423.159 290.432l-42.23 24.57v16.118l42.23 24.306 42.23-24.306v-16.118z"/><path d="M465.379 355.963v-20.618c0-1.108.772-1.573 1.746-1.025l10.91 6.134 3.284 5.75v18.615l-15.94-8.856z" stroke="#D0D4E7" fill="#FFF"/><path d="M478.02 340.46v2.77c-.068.896.551 1.893 1.387 2.227l1.867.747" stroke="#D0D4E7"/><path fill="#D0D4E7" d="M465.394 335.392l12.502 7.095.338-2.027-12.164-6.757-.338.338-.338.337z"/><path d="M465.379 355.963v-20.618c0-1.108.772-1.573 1.746-1.025l10.91 6.134 3.284 5.75v18.615l-15.94-8.856z" stroke="#D0D4E7" stroke-width=".5"/><path d="M478.02 340.46v2.77c-.068.896.551 1.893 1.387 2.227l1.867.747" stroke="#D0D4E7"/><path d="M472.463 343.106l6.824 4m-6.824-1.347l6.824 4m-6.824-1.347l6.824 4m-6.824-1.347l6.824 4m-6.824-1.347l6.824 4m-6.824-1.347l3.412 2 3.412 2" opacity=".6" stroke="#E5E6EC"/><g opacity=".6"><path d="M468.508 340.93l1.706 1" stroke="#E5E6EC"/><path d="M468.508 343.584l1.706 1m-1.706 1.653l1.706 1m-1.706 1.653l1.706 1m-1.706 1.653l1.706 1m-1.706 1.653l1.706 1" stroke="#12C4AA"/></g><path fill="#B3B8CD" d="M481.612 365.463v-1.014l-16.555-9.122v1.013z"/><path fill="url(#a)" opacity=".855" d="M34.282 17.033l10.46 22.222-11.487-6.081z" transform="translate(437.208 326.207)"/><path d="M459.116 348.805v-20.617c0-1.109.773-1.573 1.747-1.026l10.91 6.135 3.284 5.75v18.614l-15.941-8.856z" stroke="#D0D4E7" fill="#FFF"/><path d="M459.116 348.805v-20.617c0-1.109.773-1.573 1.747-1.026l10.91 6.135 3.284 5.75v18.614l-15.941-8.856z" stroke="#D0D4E7" stroke-width=".5"/><path d="M471.758 333.303v2.77c-.069.895.55 1.892 1.387 2.227l1.867.747" stroke="#71DCCC"/><path d="M466.2 335.948l6.824 4m-6.824-1.347l6.824 4m-6.824-1.346l6.824 4m-6.824-1.347l6.824 4m-6.824-1.348l6.824 4m-6.824-1.346l3.412 2 3.412 2" opacity=".6" stroke="#12C4AA"/><path d="M462.245 333.773l1.706 1m-1.706 1.653l1.706 1m-1.706 1.654l1.706 1m-1.706 1.653l1.706 1m-1.706 1.653l1.706 1m-1.706 1.653l1.706 1" stroke="#71DCCC"/><path fill="#B3B8CD" d="M475.35 358.306v-1.014l-16.556-9.123v1.014z"/><path fill="url(#a)" opacity=".855" d="M28.02 19.717l10.288 12.525-9.119-4.777z" transform="translate(437.208 326.207)"/><path d="M453.748 362.225v-20.617c0-1.109.773-1.573 1.747-1.026l10.91 6.135 3.284 5.75v18.614l-15.941-8.856z" stroke="#D0D4E7" fill="#FFF"/><path d="M466.39 346.723v2.77c-.069.895.55 1.892 1.387 2.227l1.867.747" stroke="#D0D4E7"/><path fill="#D0D4E7" d="M453.764 341.655l12.501 7.095.338-2.027-12.163-6.758-.338.338-.338.338z"/><path d="M453.748 362.225v-20.617c0-1.109.773-1.573 1.747-1.026l10.91 6.135 3.284 5.75v18.614l-15.941-8.856z" stroke="#D0D4E7" stroke-width=".5"/><path d="M466.39 346.723v2.77c-.069.895.55 1.892 1.387 2.227l1.867.747" stroke="#D0D4E7"/><path d="M460.832 349.368l6.824 4m-6.824-1.347l6.824 4m-6.824-1.346l6.824 4m-6.824-1.347l6.824 4m-6.824-1.348l6.824 4m-6.824-1.346l3.412 2 3.412 2" opacity=".6" stroke="#E5E6EC"/><path d="M456.877 347.193l1.706 1m-1.706 1.653l1.706 1m-1.706 1.654l1.706 1m-1.706 1.653l1.706 1m-1.706 1.653l1.706 1m-1.706 1.653l1.706 1" opacity=".3" stroke="#12C4AA"/><path fill="#B3B8CD" d="M469.982 371.725v-1.013l-16.556-9.123v1.014z"/><path fill="url(#a)" opacity=".855" d="M22.3 31.665l10.812 13.853-11.488-6.082z" transform="translate(437.208 326.207)"/><path d="M448.38 364.91v-20.618c0-1.109.773-1.573 1.747-1.026l10.91 6.135 3.284 5.75v18.614l-15.94-8.856z" stroke="#D0D4E7" fill="#FFF"/><path d="M461.022 349.407v2.769c-.069.896.55 1.893 1.387 2.228l1.867.747" stroke="#D0D4E7"/><path fill="#D0D4E7" d="M448.396 344.339l12.501 7.095.338-2.027-12.163-6.758-.338.338-.338.338z"/><path d="M448.38 364.91v-20.618c0-1.109.773-1.573 1.747-1.026l10.91 6.135 3.284 5.75v18.614l-15.94-8.856z" stroke="#D0D4E7" stroke-width=".5"/><path d="M461.022 349.407v2.769c-.069.896.55 1.893 1.387 2.228l1.867.747" stroke="#D0D4E7"/><path d="M455.464 352.052l6.824 4m-6.824-1.347l6.824 4m-6.824-1.346l6.824 4m-6.824-1.347l6.824 4m-6.824-1.347l6.824 4m-6.824-1.347l3.412 2 3.412 2" opacity=".6" stroke="#E5E6EC"/><g opacity=".6"><path d="M451.51 349.877l1.705 1" stroke="#E5E6EC"/><path d="M451.51 352.53l1.705 1m-1.705 1.653l1.705 1m-1.705 1.654l1.705 1m-1.705 1.653l1.705 1m-1.705 1.653l1.705 1" stroke="#12C4AA"/></g><path fill="#B3B8CD" d="M464.614 374.41v-1.014l-16.556-9.123v1.014z"/><path fill="url(#a)" opacity=".855" d="M16.932 34.35l10.812 13.852-11.488-6.082z" transform="translate(437.208 326.207)"/><path d="M442.955 368.964v-20.617c0-1.11.773-1.574 1.747-1.026l10.91 6.134 3.284 5.75v18.615l-15.94-8.856z" stroke="#D0D4E7" fill="#FFF"/><path d="M455.597 353.461v2.77c-.069.896.55 1.893 1.387 2.227l1.867.747" stroke="#D0D4E7"/><path fill="#D0D4E7" d="M442.97 348.393l12.502 7.095.338-2.027-12.163-6.757-.338.338-.338.338z"/><path d="M442.955 368.964v-20.617c0-1.11.773-1.574 1.747-1.026l10.91 6.134 3.284 5.75v18.615l-15.94-8.856z" stroke="#D0D4E7" stroke-width=".5"/><path d="M455.597 353.461v2.77c-.069.896.55 1.893 1.387 2.227l1.867.747" stroke="#D0D4E7"/><path d="M450.04 356.107l6.823 4m-6.823-1.347l6.823 4m-6.823-1.347l6.823 4m-6.823-1.347l6.823 4m-6.823-1.346l6.823 4m-6.823-1.347l3.411 2 3.412 2" opacity=".6" stroke="#E5E6EC"/><path d="M446.085 353.932l1.705 1m-1.705 1.653l1.705 1m-1.705 1.653l1.705 1m-1.705 1.653l1.705 1m-1.705 1.653l1.705 1m-1.705 1.653l1.705 1" opacity=".3" stroke="#12C4AA"/><path fill="#B3B8CD" d="M459.189 378.464v-1.014l-16.556-9.122v1.013z"/><path fill="url(#a)" opacity=".855" d="M10.831 38.066l10.812 13.853-11.488-6.082z" transform="translate(437.208 326.207)"/><path d="M437.53 371.905v-20.618c0-1.108.773-1.573 1.747-1.025l10.91 6.134 3.284 5.75v18.615l-15.94-8.856z" stroke="#D0D4E7" fill="#FFF"/><path d="M450.172 356.402v2.77c-.069.896.55 1.893 1.387 2.227l1.867.747" stroke="#D0D4E7"/><path fill="#D0D4E7" d="M437.546 351.334l12.501 7.095.338-2.027-12.163-6.757-.338.338-.338.337z"/><path d="M437.53 371.905v-20.618c0-1.108.773-1.573 1.747-1.025l10.91 6.134 3.284 5.75v18.615l-15.94-8.856z" stroke="#D0D4E7" stroke-width=".5"/><path d="M450.172 356.402v2.77c-.069.896.55 1.893 1.387 2.227l1.867.747" stroke="#D0D4E7"/><g opacity=".6"><path d="M444.614 359.048l6.824 4m-6.824-1.348l6.824 4m-6.824-1.346l6.824 4m-6.824-1.347l6.824 4m-6.824-1.347l6.824 4" stroke="#E5E6EC"/><path stroke="#A7ABBF" d="M444.614 372.313l3.412 2 3.412 2"/></g><path d="M440.66 356.872l1.705 1m-1.705 1.654l1.705 1m-1.705 1.653l1.705 1m-1.705 1.653l1.705 1m-1.705 1.653l1.705 1m-1.705 1.653l1.705 1" opacity=".6" stroke="#E5E6EC"/><path fill="#B3B8CD" d="M453.764 381.405v-1.014l-16.556-9.122v1.013z"/><path fill="#FCFCFD" d="M423.142 360.057l-.141 16.127 30.112 17.423.589-15.642z"/><path d="M423.162 375.916v-15.844m-.387 15.713l29.881 18.134m-29.881-34.239l30.874 18.098m26.686-33.37l14.862 8.415" stroke="#D0D4E7"/><path stroke="#D0D4E7" fill="#F8F9FF" d="M452.826 377.677v15.843l42.297-24.331-.141-15.986z"/><path d="M456.278 382.692c-.48.268-.868.93-.868 1.491v-.172c0 .556.396.784.868.52l24.79-13.882c.478-.268.867-.931.867-1.492v.173c0-.556-.396-.784-.868-.52l-24.79 13.882z" stroke="#A7ABC0" fill="#D2D8E7"/><path d="M486.439 368.458c.484-.273.875-.935.875-1.492v-2.127c0-.55-.39-.774-.875-.495l-1.649.947c-.483.278-.875.956-.875 1.503v2.088c0 .552.39.78.875.506l1.649-.93z" stroke="#748CF9" fill="#C5D9FB"/><path d="M491.664 365.438c.483-.273.875-.935.875-1.492v-2.127c0-.55-.39-.774-.875-.495l-1.649.948c-.483.277-.875.955-.875 1.502v2.088c0 .552.39.78.875.506l1.649-.93z" stroke="#EBC224" fill="#F8E585"/><path fill="#FCFCFD" d="M381.357 315.806v15.052l41.333 23.788V339.73z"/><path fill="#FFF" d="M381.707 314.99l41.55 24.071 41.305-24.076-41.563-24.067z"/><path stroke="#D0D4E7" d="M380.844 314.985l42.298 24.473 42.298-24.473"/><path d="M427.161 344.14c-.479.269-.867.932-.867 1.492v-.172c0 .555.395.784.867.52l24.79-13.882c.479-.269.867-.931.867-1.492v.172c0-.555-.396-.784-.867-.52l-24.79 13.883z" stroke="#A7ABC0" fill="#D2D8E7"/><path d="M423.162 355.302v-15.844" stroke="#D0D4E7"/><path d="M457.322 329.907c.484-.273.876-.935.876-1.492v-2.127c0-.551-.39-.774-.876-.495l-1.648.947c-.484.278-.876.956-.876 1.503v2.087c0 .552.39.78.876.506l1.648-.93z" stroke="#748CF9" fill="#C5D9FB"/><path d="M462.547 326.887c.484-.273.875-.935.875-1.492v-2.127c0-.551-.39-.774-.875-.495l-1.649.947c-.483.278-.875.956-.875 1.503v2.087c0 .552.39.78.875.506l1.649-.93z" stroke="#EBC224" fill="#F8E585"/><path fill="#FCFCFD" d="M381.127 293.04l-.141 16.127 42.156 24.19.141-15.844z"/><path fill="#F8F9FF" d="M423.283 317.513v15.844l42.298-24.332-.142-15.985z"/><path fill="#FFF" d="M380.986 293.04l42.156 24.473 42.297-24.473L423 268.567z"/><path stroke="#D0D4E7" d="M423.159 268.487l-42.23 24.57v16.119l42.23 24.306 42.23-24.306v-16.119z"/><path stroke="#D0D4E7" d="M380.844 293.04l42.298 24.473 42.156-24.473"/><path d="M427.161 322.196c-.479.268-.867.931-.867 1.491v-.172c0 .556.395.784.867.52l24.79-13.882c.479-.268.867-.931.867-1.491v.172c0-.556-.396-.784-.867-.52l-24.79 13.882z" stroke="#A7ABC0" fill="#D2D8E7"/><path d="M423.162 333.358v-15.845" stroke="#D0D4E7"/><path d="M457.322 307.962c.484-.273.876-.935.876-1.492v-2.126c0-.552-.39-.774-.876-.496l-1.648.948c-.484.277-.876.956-.876 1.502v2.088c0 .552.39.78.876.506l1.648-.93z" stroke="#748CF9" fill="#C5D9FB"/><path d="M462.547 304.942c.484-.272.875-.935.875-1.492v-2.126c0-.552-.39-.774-.875-.496l-1.649.948c-.483.277-.875.956-.875 1.502v2.088c0 .552.39.78.875.506l1.649-.93z" stroke="#EBC224" fill="#F8E585"/><path d="M458.673 327.92l12.96 7.41.43-2.384-11.486-6.48h-.97c-.954.29-.934 1.454-.934 1.454z" fill="#71DCCC"/><path d="M471.758 333.32v2.752c-.069.896.55 1.893 1.387 2.228l1.867.747" stroke="#D0D4E7" stroke-linecap="round"/><path fill="#FCFCFD" d="M532.61 608.656l-.142 16.127 42.156 24.19.142-15.844z"/><path fill="#F8F9FF" d="M574.766 633.13v15.843l42.297-24.331-.141-15.986z"/><path fill="#FFF" d="M532.468 608.656l42.156 24.473 42.298-24.473-42.439-24.473z"/><path stroke="#D0D4E7" d="M574.642 584.103l-42.23 24.57v16.119l42.23 24.306 42.23-24.306v-16.119z"/><path stroke="#D0D4E7" d="M532.327 608.656l42.297 24.473 42.157-24.473"/><path d="M578.644 637.812c-.48.269-.868.931-.868 1.492v-.173c0 .556.396.785.868.52l24.79-13.882c.478-.268.867-.93.867-1.491v.172c0-.555-.396-.784-.868-.52l-24.79 13.882z" stroke="#A7ABC0" fill="#D2D8E7"/><path d="M574.644 648.974v-15.845" stroke="#D0D4E7"/><path d="M608.805 623.578c.484-.272.876-.935.876-1.491v-2.127c0-.552-.39-.774-.876-.495l-1.649.947c-.483.278-.875.956-.875 1.502v2.088c0 .552.39.78.875.506l1.65-.93z" stroke="#748CF9" fill="#C5D9FB"/><path d="M614.03 620.558c.483-.272.875-.935.875-1.491v-2.127c0-.551-.39-.774-.875-.495l-1.649.947c-.483.278-.875.956-.875 1.503v2.087c0 .552.39.78.875.506l1.649-.93z" stroke="#EBC224" fill="#F8E585"/><path fill="#FCFCFD" d="M532.61 588.215l-.142 16.127 42.156 24.19.142-15.844z"/><path fill="#F8F9FF" d="M574.766 612.688v15.844l42.297-24.332-.141-15.985z"/><path fill="#FFF" d="M532.468 588.215l42.156 24.473 42.298-24.473-42.439-24.474z"/><path stroke="#D0D4E7" d="M574.642 563.662l-42.23 24.57v16.118l42.23 24.306 42.23-24.306v-16.118z"/><path stroke="#D0D4E7" d="M532.327 588.215l42.297 24.473 42.157-24.473"/><path d="M578.644 617.37c-.48.269-.868.932-.868 1.492v-.172c0 .555.396.784.868.52l24.79-13.882c.478-.269.867-.931.867-1.492v.172c0-.555-.396-.784-.868-.52l-24.79 13.883z" stroke="#A7ABC0" fill="#D2D8E7"/><path d="M574.644 628.532v-15.844" stroke="#D0D4E7"/><path d="M608.805 603.137c.484-.273.876-.935.876-1.492v-2.127c0-.551-.39-.774-.876-.495l-1.649.947c-.483.278-.875.956-.875 1.503v2.087c0 .552.39.78.875.506l1.65-.93z" stroke="#748CF9" fill="#C5D9FB"/><path d="M614.03 600.117c.483-.273.875-.935.875-1.492v-2.127c0-.551-.39-.774-.875-.495l-1.649.947c-.483.278-.875.956-.875 1.503v2.087c0 .553.39.78.875.506l1.649-.93z" stroke="#EBC224" fill="#F8E585"/><path fill="#FCFCFD" d="M532.61 567.6l-.142 16.128 42.156 24.19.142-15.844z"/><path fill="#F8F9FF" d="M574.766 592.074v15.844l42.297-24.332-.141-15.985z"/><path fill="#FFF" d="M532.468 567.6l42.156 24.474 42.298-24.473-42.439-24.473z"/><path stroke="#D0D4E7" d="M574.642 543.048l-42.23 24.57v16.118l42.23 24.307 42.23-24.307v-16.118z"/><path stroke="#D0D4E7" d="M532.327 567.6l42.297 24.474 42.157-24.473"/><path d="M578.644 596.757c-.48.268-.868.93-.868 1.491v-.172c0 .555.396.784.868.52l24.79-13.882c.478-.269.867-.931.867-1.492v.173c0-.556-.396-.785-.868-.52l-24.79 13.882z" stroke="#A7ABC0" fill="#D2D8E7"/><path d="M574.644 607.919v-15.845" stroke="#D0D4E7"/><path d="M608.805 582.523c.484-.273.876-.935.876-1.492v-2.127c0-.55-.39-.774-.876-.495l-1.649.947c-.483.278-.875.956-.875 1.503v2.087c0 .553.39.78.875.507l1.65-.93z" stroke="#748CF9" fill="#C5D9FB"/><path d="M614.03 579.503c.483-.273.875-.935.875-1.492v-2.127c0-.55-.39-.774-.875-.495l-1.649.947c-.483.278-.875.956-.875 1.503v2.087c0 .553.39.78.875.507l1.649-.93z" stroke="#EBC224" fill="#F8E585"/><path fill="#FCFCFD" d="M532.61 546.6l-.142 16.128 42.156 24.19.142-15.844z"/><path fill="#F8F9FF" d="M574.766 571.074v15.844l42.297-24.332-.141-15.985z"/><path fill="#FFF" d="M532.468 546.6l42.156 24.474 42.298-24.473-42.439-24.473z"/><path stroke="#D0D4E7" d="M574.642 522.048l-42.23 24.57v16.118l42.23 24.307 42.23-24.307v-16.118z"/><path stroke="#D0D4E7" d="M532.327 546.6l42.297 24.474 42.157-24.473"/><path d="M578.644 575.757c-.48.268-.868.93-.868 1.491v-.172c0 .555.396.784.868.52l24.79-13.882c.478-.269.867-.931.867-1.492v.173c0-.556-.396-.785-.868-.52l-24.79 13.882z" stroke="#A7ABC0" fill="#D2D8E7"/><path d="M574.644 586.919v-15.845" stroke="#D0D4E7"/><path d="M608.805 561.523c.484-.273.876-.935.876-1.492v-2.127c0-.55-.39-.774-.876-.495l-1.649.947c-.483.278-.875.956-.875 1.503v2.087c0 .553.39.78.875.507l1.65-.93z" stroke="#748CF9" fill="#C5D9FB"/><path d="M614.03 558.503c.483-.273.875-.935.875-1.492v-2.127c0-.55-.39-.774-.875-.495l-1.649.947c-.483.278-.875.956-.875 1.503v2.087c0 .553.39.78.875.507l1.649-.93z" stroke="#EBC224" fill="#F8E585"/><path fill="#FCFCFD" d="M347.414 524.174l-.141 16.127 42.156 24.19.142-15.843z"/><path fill="#F8F9FF" d="M389.57 548.648v15.843l42.298-24.331-.141-15.986z"/><path fill="#FFF" d="M347.273 524.174l42.156 24.474 42.298-24.474-42.44-24.473z"/><path stroke="#D0D4E7" d="M389.446 499.622l-42.23 24.57v16.118l42.23 24.306 42.23-24.306v-16.118z"/><path stroke="#D0D4E7" d="M347.132 524.174l42.297 24.474 42.156-24.474"/><path d="M393.448 553.33c-.479.269-.867.931-.867 1.492v-.172c0 .555.396.784.867.52l24.79-13.883c.479-.268.867-.93.867-1.491v.172c0-.555-.395-.784-.867-.52l-24.79 13.882z" stroke="#A7ABC0" fill="#D2D8E7"/><path d="M389.449 564.492v-15.844" stroke="#D0D4E7"/><path d="M423.61 539.097c.483-.273.875-.935.875-1.492v-2.127c0-.551-.39-.774-.875-.495l-1.649.947c-.483.278-.875.956-.875 1.503v2.087c0 .552.39.78.875.506l1.649-.93z" stroke="#748CF9" fill="#C5D9FB"/><path d="M428.834 536.077c.484-.273.876-.935.876-1.492v-2.127c0-.551-.39-.774-.876-.495l-1.648.947c-.484.278-.876.956-.876 1.503v2.087c0 .552.39.78.876.506l1.648-.93z" stroke="#EBC224" fill="#F8E585"/><path fill="#FCFCFD" d="M347.414 503.733l-.141 16.127 42.156 24.19.142-15.844z"/><path fill="#F8F9FF" d="M389.57 528.206v15.844l42.298-24.332-.141-15.985z"/><path fill="#FFF" d="M347.273 503.733l42.156 24.473 42.298-24.473-42.44-24.473z"/><path stroke="#D0D4E7" d="M389.446 479.18l-42.23 24.57v16.119l42.23 24.306 42.23-24.306V503.75z"/><path stroke="#D0D4E7" d="M347.132 503.733l42.297 24.473 42.156-24.473"/><path d="M393.448 532.889c-.479.268-.867.931-.867 1.491v-.172c0 .556.396.784.867.52l24.79-13.882c.479-.268.867-.931.867-1.491v.172c0-.556-.395-.784-.867-.52l-24.79 13.882z" stroke="#A7ABC0" fill="#D2D8E7"/><path d="M389.449 544.05v-15.844" stroke="#D0D4E7"/><path d="M423.61 518.655c.483-.273.875-.935.875-1.492v-2.127c0-.55-.39-.774-.875-.495l-1.649.948c-.483.277-.875.955-.875 1.502v2.088c0 .552.39.78.875.506l1.649-.93z" stroke="#748CF9" fill="#C5D9FB"/><path d="M428.834 515.635c.484-.273.876-.935.876-1.492v-2.126c0-.552-.39-.775-.876-.496l-1.648.948c-.484.277-.876.956-.876 1.502v2.088c0 .552.39.78.876.506l1.648-.93z" stroke="#EBC224" fill="#F8E585"/><path fill="#FCFCFD" d="M347.414 483.119l-.141 16.127 42.156 24.19.142-15.844z"/><path fill="#F8F9FF" d="M389.57 507.592v15.844l42.298-24.332-.141-15.985z"/><path fill="#FFF" d="M347.273 483.119l42.156 24.473 42.298-24.473-42.44-24.473z"/><path stroke="#D0D4E7" d="M389.446 458.566l-42.23 24.57v16.119l42.23 24.306 42.23-24.306v-16.119z"/><path stroke="#D0D4E7" d="M347.132 483.119l42.297 24.473 42.156-24.473"/><path d="M393.448 512.275c-.479.268-.867.931-.867 1.492v-.173c0 .556.396.784.867.52l24.79-13.882c.479-.268.867-.93.867-1.491v.172c0-.556-.395-.784-.867-.52l-24.79 13.882z" stroke="#A7ABC0" fill="#D2D8E7"/><path d="M389.449 523.437v-15.845" stroke="#D0D4E7"/><path d="M423.61 498.041c.483-.272.875-.935.875-1.492v-2.126c0-.552-.39-.774-.875-.496l-1.649.948c-.483.277-.875.956-.875 1.502v2.088c0 .552.39.78.875.506l1.649-.93z" stroke="#748CF9" fill="#C5D9FB"/><path d="M428.834 495.021c.484-.272.876-.935.876-1.491v-2.127c0-.552-.39-.774-.876-.495l-1.648.947c-.484.277-.876.956-.876 1.502v2.088c0 .552.39.78.876.506l1.648-.93z" stroke="#EBC224" fill="#F8E585"/><path d="M-135.803 113.872l1711.82-.235" stroke="#D3D7EA" stroke-width=".9"/><path fill="#FBFCFF" d="M58.759 74.722v69.681l60.818 35.045v-68.771z"/><path d="M84.347 106.115l25.692 15.06m-25.692-7.615l25.692 15.06m-25.692-7.615l25.692 15.06m-25.692-7.615l25.692 15.061m-25.692-7.615l25.692 15.06m-25.692-7.615l25.692 15.06M69.456 97.925l6.423 3.765m-6.423 3.68l6.423 3.765m-6.423 3.681l6.423 3.765m-6.423 3.679l6.423 3.766m-6.423 3.68l6.423 3.765m-6.423 3.68l6.423 3.765" stroke="#748CF9" stroke-width="1.8"/><path fill="#F1F5FF" d="M119.577 110.677l60.818-35.938v69.664l-60.818 35.045z"/><path d="M170.64 97.055l-25.698 15.049m25.698-8.349l-25.698 15.05m25.698-7.605l-25.698 15.05m25.698-7.604l-25.698 15.049m25.698-7.604l-25.698 15.05m25.698-7.605l-25.698 15.05m-7.805-31.429l-6.424 3.762m6.424 2.938l-6.424 3.763m6.424 3.683l-6.424 3.762m6.424 3.683l-6.424 3.762m6.424 3.683l-6.424 3.762m6.424 3.683l-6.424 3.763" stroke="#12C4AA" stroke-width="1.8"/><path fill="#FFF" d="M58.761 74.722l60.77 36.091 60.768-36.091-60.722-35.32z"/><path d="M120.79 76.29l.14-.08c.226-.128.17-.3-.171-.513l-6.585-4.133c-.307-.193-.294-.37.04-.533.204-.1.546-.06 1.025.12 3.841 1.99 8.57 4.367 9.148 4.115 2.574-.871 5.704-1.487 9.405-1.889 3.736-.485 7.26-.66 10.564-.502 3.329.097 6.122.574 8.362 1.475 2.81 1.13 3.48 2.242 2.013 3.337-.616.46-1.428.737-2.433.827-1.003.083-1.9-.06-2.691-.424-.612-.282-1.116-.81-1.515-1.576-.42-.764-.95-1.282-1.584-1.561-1.196-.527-2.377-.823-3.543-.892-1.163-.077-2.47.064-3.92.42-1.445.345-4.066 1.243-7.847 2.659-1.307.483-2.318.851-3.034 1.107l8.237 4.953c.189.114.27.218.245.314-.026.097-.182.245-.468.445-.286.2-.64.329-1.062.386-.422.057-.726.026-.913-.091L126.021 79l-5.595 1.721a11099.989 11099.989 0 0 1 7.97 5.57c.184.127.262.24.235.34-.027.098-.182.244-.466.438-.283.193-.632.31-1.047.349-.413.037-.71-.01-.892-.143l-7.972-5.916-6.175 1.686c-3.111.83-6.12 1.226-9.02 1.18-2.878-.102-5.526-.626-7.95-1.56-2.406-.975-4.258-2.162-5.568-3.527-1.07-1.114-1.765-2.161-2.088-3.135-.327-.963-.204-1.557.373-1.79 1.057-.428 2.249-.006 3.576 1.264.556.532.945 1.3 1.164 2.316.213 1.03.592 1.822 1.141 2.369.96.957 2.02 1.54 3.18 1.74 1.163.19 3.061-.016 5.701-.635l10.844-2.803.134-.08c.225-.123.172-.305-.159-.545l-6.387-4.634c-.297-.215-.28-.4.05-.556.202-.095.537-.038 1.004.173 3.733 2.263 8.205 4.888 8.776 4.652.07-.021.14-.04.209-.055l3.731-1.13z" fill="#45B9E6"/><path stroke="#D3D7EA" stroke-width=".9" d="M119.577 39.354L58.759 74.739v69.664l60.818 35.005 60.818-35.005V74.739zm.068 140.054v-68.75M58.761 74.722l60.816 35.955m60.818-35.938l-60.818 35.938"/><path fill="#FBFCFF" d="M257.862 74.722v69.681l60.818 35.045v-68.771z"/><path d="M283.45 106.115l25.692 15.06m-25.692-7.615l25.692 15.06m-25.692-7.615l25.692 15.06m-25.692-7.615l25.692 15.061m-25.692-7.615l25.692 15.06m-25.692-7.615l25.692 15.06M268.56 97.925l6.423 3.765m-6.423 3.68l6.423 3.765m-6.423 3.681l6.423 3.765m-6.423 3.679l6.423 3.766m-6.423 3.68l6.423 3.765m-6.423 3.68l6.423 3.765" stroke="#748CF9" stroke-width="1.8"/><path fill="#F1F5FF" d="M318.68 110.677l60.818-35.938v69.664l-60.818 35.045z"/><path d="M369.744 97.055l-25.699 15.049m25.699-8.349l-25.699 15.05m25.699-7.605l-25.699 15.05m25.699-7.604l-25.699 15.049m25.699-7.604l-25.699 15.05m25.699-7.605l-25.699 15.05m-7.805-31.429l-6.424 3.762m6.424 2.938l-6.424 3.763m6.424 3.683l-6.424 3.762m6.424 3.683l-6.424 3.762m6.424 3.683l-6.424 3.762m6.424 3.683l-6.424 3.763" stroke="#12C4AA" stroke-width="1.8"/><path fill="#FFF" d="M257.865 74.722l60.769 36.091 60.769-36.091-60.723-35.32z"/><path d="M319.893 76.29l.14-.08c.227-.128.17-.3-.171-.513l-6.585-4.133c-.307-.193-.293-.37.04-.533.204-.1.546-.06 1.025.12 3.841 1.99 8.57 4.367 9.148 4.115 2.574-.871 5.704-1.487 9.406-1.889 3.735-.485 7.258-.66 10.563-.502 3.33.097 6.122.574 8.362 1.475 2.81 1.13 3.481 2.242 2.014 3.337-.617.46-1.429.737-2.434.827-1.003.083-1.9-.06-2.69-.424-.613-.282-1.117-.81-1.515-1.576-.422-.764-.95-1.282-1.585-1.561-1.195-.527-2.377-.823-3.543-.892-1.163-.077-2.47.064-3.92.42-1.445.345-4.066 1.243-7.847 2.659-1.307.483-2.317.851-3.034 1.107l8.237 4.953c.189.114.27.218.245.314-.026.097-.182.245-.468.445-.286.2-.64.329-1.062.386-.421.057-.726.026-.913-.091L325.124 79l-5.595 1.721a11099.989 11099.989 0 0 1 7.97 5.57c.184.127.262.24.235.34-.027.098-.182.244-.465.438-.284.193-.633.31-1.047.349-.414.037-.712-.01-.893-.143l-7.972-5.916-6.174 1.686c-3.112.83-6.12 1.226-9.021 1.18-2.878-.102-5.526-.626-7.95-1.56-2.406-.975-4.258-2.162-5.568-3.527-1.07-1.114-1.764-2.161-2.088-3.135-.327-.963-.204-1.557.373-1.79 1.057-.428 2.25-.006 3.577 1.264.555.532.944 1.3 1.163 2.316.213 1.03.592 1.822 1.141 2.369.961.957 2.02 1.54 3.18 1.74 1.163.19 3.061-.016 5.701-.635l10.844-2.803.134-.08c.225-.123.172-.305-.158-.545l-6.387-4.634c-.298-.215-.282-.4.048-.556.203-.095.538-.038 1.006.173 3.733 2.263 8.204 4.888 8.775 4.652.07-.021.14-.04.21-.055l3.73-1.13z" fill="#45B9E6"/><path stroke="#D3D7EA" stroke-width=".9" d="M318.68 39.354l-60.818 35.385v69.664l60.818 35.005 60.818-35.005V74.739zm.068 140.054v-68.75m-60.883-35.936l60.815 35.955m60.818-35.938l-60.818 35.938"/><path fill="#FBFCFF" d="M458.908 74.722v69.681l60.818 35.045v-68.771z"/><path d="M484.496 106.115l25.692 15.06m-25.692-7.615l25.692 15.06m-25.692-7.615l25.692 15.06m-25.692-7.615l25.692 15.061m-25.692-7.615l25.692 15.06m-25.692-7.615l25.692 15.06m-40.583-60.476l6.423 3.765m-6.423 3.68l6.423 3.765m-6.423 3.681l6.423 3.765m-6.423 3.679l6.423 3.766m-6.423 3.68l6.423 3.765m-6.423 3.68l6.423 3.765" stroke="#748CF9" stroke-width="1.8"/><path fill="#F1F5FF" d="M519.726 110.677l60.818-35.938v69.664l-60.818 35.045z"/><path d="M570.79 97.055l-25.699 15.049m25.699-8.349l-25.699 15.05m25.699-7.605l-25.699 15.05m25.699-7.604l-25.699 15.049m25.699-7.604l-25.699 15.05m25.699-7.605l-25.699 15.05m-7.805-31.429l-6.424 3.762m6.424 2.938l-6.424 3.763m6.424 3.683l-6.424 3.762m6.424 3.683l-6.424 3.762m6.424 3.683l-6.424 3.762m6.424 3.683l-6.424 3.763" stroke="#12C4AA" stroke-width="1.8"/><path fill="#FFF" d="M458.91 74.722l60.77 36.091 60.768-36.091-60.722-35.32z"/><path d="M520.939 76.29l.14-.08c.226-.128.17-.3-.171-.513l-6.585-4.133c-.307-.193-.294-.37.04-.533.204-.1.546-.06 1.025.12 3.841 1.99 8.57 4.367 9.148 4.115 2.574-.871 5.704-1.487 9.405-1.889 3.735-.485 7.259-.66 10.564-.502 3.329.097 6.122.574 8.362 1.475 2.81 1.13 3.48 2.242 2.013 3.337-.616.46-1.428.737-2.433.827-1.003.083-1.9-.06-2.691-.424-.612-.282-1.116-.81-1.515-1.576-.42-.764-.95-1.282-1.584-1.561-1.196-.527-2.377-.823-3.543-.892-1.163-.077-2.47.064-3.92.42-1.445.345-4.066 1.243-7.847 2.659-1.307.483-2.318.851-3.034 1.107l8.237 4.953c.189.114.27.218.245.314-.026.097-.182.245-.468.445-.286.2-.64.329-1.062.386-.422.057-.726.026-.913-.091L526.17 79l-5.595 1.721a11099.989 11099.989 0 0 1 7.97 5.57c.183.127.262.24.235.34-.027.098-.182.244-.466.438-.283.193-.632.31-1.047.349-.414.037-.71-.01-.892-.143l-7.973-5.916-6.174 1.686c-3.111.83-6.12 1.226-9.02 1.18-2.878-.102-5.526-.626-7.95-1.56-2.406-.975-4.258-2.162-5.568-3.527-1.07-1.114-1.765-2.161-2.088-3.135-.327-.963-.204-1.557.373-1.79 1.057-.428 2.249-.006 3.576 1.264.556.532.945 1.3 1.164 2.316.213 1.03.592 1.822 1.141 2.369.96.957 2.02 1.54 3.18 1.74 1.163.19 3.061-.016 5.701-.635l10.844-2.803.134-.08c.224-.123.172-.305-.159-.545l-6.387-4.634c-.297-.215-.28-.4.05-.556.202-.095.537-.038 1.004.173 3.733 2.263 8.205 4.888 8.775 4.652.071-.021.141-.04.21-.055l3.73-1.13z" fill="#45B9E6"/><path stroke="#D3D7EA" stroke-width=".9" d="M519.726 39.354l-60.818 35.385v69.664l60.818 35.005 60.818-35.005V74.739zm.068 140.054v-68.75M458.91 74.722l60.816 35.955m60.818-35.938l-60.818 35.938"/><path fill="#FBFCFF" d="M625.654 55.527V163.28l94.047 54.193V111.126z"/><path d="M665.222 121.585l39.73 23.29m-39.73-11.777l39.73 23.29m-39.73-11.777l39.73 23.29m-39.73-11.777l39.73 23.29m-39.73-11.777l39.73 23.29m-62.756-82.007l9.933 5.823m-9.933 5.691l9.933 5.822m-9.933 5.691l9.933 5.822m-9.933 5.691l9.933 5.822m-9.933 5.691l9.933 5.822" stroke="#748CF9" stroke-width="1.8"/><path fill="#F1F5FF" d="M719.7 111.126l94.048-55.573V163.28L719.7 217.472z"/><path d="M799.664 105.423l-39.74 23.272m39.74-11.759l-39.74 23.272m39.74-11.758l-39.74 23.271m39.74-11.759l-39.74 23.272m39.74-11.759l-39.74 23.272m-12.068-38.238l-9.935 5.817m9.935 5.696l-9.935 5.817m9.935 5.696l-9.935 5.818m9.935 5.695l-9.935 5.818m9.935 5.694l-9.935 5.819" stroke="#12C4AA" stroke-width="1.8"/><path fill="#FFF" d="M625.658 55.527l93.971 55.81 93.97-55.81L719.702.91z"/><path d="M721.577 57.952l.216-.122c.35-.2.262-.464-.264-.795l-10.183-6.391c-.474-.298-.454-.572.06-.823.318-.155.846-.093 1.587.186 5.94 3.076 13.253 6.752 14.146 6.362 3.98-1.347 8.82-2.3 14.544-2.92 5.776-.752 11.225-1.02 16.336-.778 5.147.15 9.466.888 12.93 2.282 4.344 1.746 5.383 3.466 3.113 5.16-.953.711-2.208 1.14-3.762 1.278-1.551.13-2.937-.091-4.162-.656-.946-.436-1.725-1.252-2.342-2.437-.651-1.18-1.47-1.981-2.45-2.414-1.849-.815-3.676-1.272-5.479-1.379-1.798-.118-3.819.1-6.061.65-2.235.533-6.288 1.922-12.135 4.11-2.02.749-3.584 1.318-4.691 1.713l12.737 7.66c.292.175.418.337.379.486-.04.149-.281.377-.723.686-.443.31-.99.51-1.643.599-.652.088-1.122.04-1.412-.142l-12.653-8.123-8.652 2.662a17161.492 17161.492 0 0 1 12.326 8.611c.283.198.404.374.363.526-.042.153-.282.38-.72.678-.439.3-.978.48-1.62.54-.64.058-1.1-.015-1.38-.22l-12.327-9.149-9.548 2.607c-4.812 1.282-9.463 1.896-13.949 1.826-4.45-.158-8.545-.968-12.292-2.412-3.722-1.51-6.586-3.344-8.611-5.456-1.654-1.722-2.729-3.342-3.229-4.847-.507-1.489-.316-2.407.577-2.768 1.634-.661 3.477-.01 5.53 1.955.859.822 1.46 2.01 1.799 3.58.33 1.592.916 2.819 1.765 3.664 1.485 1.48 3.122 2.38 4.916 2.69 1.8.294 4.735-.024 8.817-.98l16.768-4.336.208-.122c.347-.192.265-.473-.245-.844l-9.877-7.165c-.46-.334-.435-.62.075-.86.314-.148.832-.059 1.555.267 5.772 3.499 12.687 7.558 13.57 7.194.11-.033.217-.062.323-.086l5.77-1.747z" fill="#45B9E6"/><path stroke="#D3D7EA" stroke-width=".9" d="M719.7.835l-94.046 54.718V163.28l94.047 54.131 94.047-54.13V55.552zm.106 216.575V111.1m-94.148-55.573l94.043 55.6m94.047-55.574L719.7 111.126"/><path d="M656.24 95.406c0 2.312-.401 3.87-1.203 4.677-.802.807-1.937.776-3.406-.095-1.487-.882-2.63-2.198-3.427-3.948-.797-1.75-1.196-3.803-1.196-6.156 0-2.353.4-3.921 1.203-4.702.802-.78 1.946-.725 3.433.165 1.465.877 2.597 2.194 3.396 3.95.8 1.754 1.2 3.79 1.2 6.109zm-7.52-4.482c0 1.754.244 3.23.734 4.427.49 1.196 1.215 2.08 2.177 2.651.957.568 1.679.55 2.166-.055.488-.605.731-1.792.731-3.561 0-1.744-.241-3.21-.724-4.4-.483-1.19-1.203-2.071-2.16-2.643-.966-.578-1.695-.563-2.187.046-.492.609-.738 1.787-.738 3.535zm11.246 6.227l1.12.667c.75.447 1.293.571 1.63.372.337-.2.505-.693.505-1.481 0-.801-.182-1.485-.546-2.051-.363-.567-.911-1.069-1.644-1.507l-1.065-.636v4.636zm0 1.92v5.666l-1.61-.955V89.59l2.783 1.666c1.271.762 2.213 1.668 2.824 2.718.61 1.05.916 2.265.916 3.646 0 1.762-.638 2.637-1.914 2.626l2.783 7.919-1.833-1.087-2.358-7.06-1.59-.947zm15.223 7.512c0 2.327-.451 3.837-1.354 4.532-.903.696-2.204.54-3.902-.467l-2.756-1.635v-14.14l3.046 1.824c1.568.94 2.788 2.274 3.66 4.005.87 1.73 1.306 3.69 1.306 5.881zm-1.698-.935c0-3.376-1.103-5.724-3.309-7.043l-1.394-.834v10.255l1.145.68c2.372 1.409 3.558.39 3.558-3.058zm9.387 12.678l-5.573-3.306v-14.08l5.573 3.337v1.941l-3.962-2.37v3.831l3.713 2.215v1.922l-3.713-2.212v4.419l3.962 2.353v1.95zm3.74-5.286l1.119.667c.75.448 1.294.574 1.63.378.338-.195.506-.682.506-1.461 0-.793-.182-1.47-.546-2.032-.364-.563-.912-1.063-1.644-1.501l-1.065-.637v4.586zm0 1.9v5.604l-1.61-.955V105.55l2.783 1.667c1.271.761 2.212 1.664 2.823 2.706.611 1.043.917 2.247.917 3.613 0 1.743-.638 2.604-1.914 2.585l2.783 7.85-1.833-1.086-2.358-6.999-1.59-.947zm12.892 9.46c0 1.241-.317 2.027-.95 2.357-.634.33-1.508.166-2.622-.495-1.114-.66-2.026-1.447-2.736-2.359v-2.163c.45.567.927 1.087 1.432 1.56.506.471.976.837 1.412 1.096.638.378 1.108.486 1.412.322.303-.164.455-.535.455-1.115 0-.522-.14-1.047-.418-1.576-.279-.528-.854-1.3-1.725-2.317-.899-1.051-1.532-2.019-1.9-2.902a7.006 7.006 0 0 1-.553-2.721c0-1.168.292-1.912.876-2.232.584-.32 1.368-.185 2.352.404.943.566 1.882 1.42 2.816 2.566l-.512 1.555c-.876-1.046-1.657-1.775-2.345-2.186-.521-.311-.916-.387-1.186-.226-.27.16-.404.505-.404 1.034 0 .364.054.707.162 1.03.107.322.285.672.532 1.049.247.376.692.944 1.334 1.703.724.858 1.254 1.572 1.59 2.142.337.57.585 1.134.742 1.692.157.558.236 1.152.236 1.782z" fill="#748CF9"/><path fill="#FBFCFF" d="M859.057 74.722v69.681l60.818 35.045v-68.771z"/><path d="M884.645 106.115l25.692 15.06m-25.692-7.615l25.692 15.06m-25.692-7.615l25.692 15.06m-25.692-7.615l25.692 15.061m-25.692-7.615l25.692 15.06m-25.692-7.615l25.692 15.06m-40.583-60.476l6.423 3.765m-6.423 3.68l6.423 3.765m-6.423 3.681l6.423 3.765m-6.423 3.679l6.423 3.766m-6.423 3.68l6.423 3.765m-6.423 3.68l6.423 3.765" stroke="#748CF9" stroke-width="1.8"/><path fill="#F1F5FF" d="M919.875 110.677l60.818-35.938v69.664l-60.818 35.045z"/><path d="M970.939 97.055l-25.699 15.049m25.699-8.349l-25.699 15.05m25.699-7.605l-25.699 15.05m25.699-7.604l-25.699 15.049m25.699-7.604l-25.699 15.05m25.699-7.605l-25.699 15.05m-7.805-31.429l-6.425 3.762m6.425 2.938l-6.425 3.763m6.425 3.683l-6.425 3.762m6.425 3.683l-6.425 3.762m6.425 3.683l-6.425 3.762m6.425 3.683l-6.425 3.763" stroke="#12C4AA" stroke-width="1.8"/><path fill="#FFF" d="M859.06 74.722l60.768 36.091 60.77-36.091-60.723-35.32z"/><path d="M921.088 76.29l.14-.08c.226-.128.17-.3-.171-.513l-6.585-4.133c-.307-.193-.294-.37.04-.533.204-.1.546-.06 1.025.12 3.84 1.99 8.57 4.367 9.148 4.115 2.574-.871 5.704-1.487 9.405-1.889 3.735-.485 7.259-.66 10.564-.502 3.329.097 6.122.574 8.362 1.475 2.81 1.13 3.48 2.242 2.013 3.337-.616.46-1.428.737-2.433.827-1.003.083-1.9-.06-2.691-.424-.612-.282-1.116-.81-1.515-1.576-.421-.764-.95-1.282-1.584-1.561-1.196-.527-2.377-.823-3.543-.892-1.163-.077-2.47.064-3.92.42-1.445.345-4.066 1.243-7.847 2.659-1.307.483-2.318.851-3.034 1.107l8.237 4.953c.189.114.27.218.245.314-.026.097-.182.245-.468.445-.286.2-.64.329-1.062.386-.422.057-.726.026-.913-.091L926.319 79l-5.596 1.721a11099.989 11099.989 0 0 1 7.971 5.57c.183.127.262.24.235.34-.027.098-.182.244-.466.438-.283.193-.632.31-1.047.349-.414.037-.711-.01-.892-.143l-7.973-5.916-6.174 1.686c-3.111.83-6.12 1.226-9.02 1.18-2.878-.102-5.526-.626-7.95-1.56-2.406-.975-4.258-2.162-5.568-3.527-1.07-1.114-1.765-2.161-2.088-3.135-.328-.963-.204-1.557.373-1.79 1.057-.428 2.249-.006 3.576 1.264.556.532.945 1.3 1.164 2.316.213 1.03.592 1.822 1.141 2.369.96.957 2.02 1.54 3.18 1.74 1.163.19 3.061-.016 5.701-.635l10.844-2.803.134-.08c.224-.123.172-.305-.159-.545l-6.387-4.634c-.297-.215-.28-.4.05-.556.202-.095.537-.038 1.004.173 3.733 2.263 8.205 4.888 8.775 4.652.071-.021.141-.04.21-.055l3.73-1.13z" fill="#45B9E6"/><path stroke="#D3D7EA" stroke-width=".9" d="M919.875 39.354l-60.818 35.385v69.664l60.818 35.005 60.818-35.005V74.739zm.068 140.054v-68.75M859.06 74.722l60.815 35.955m60.818-35.938l-60.818 35.938"/><path fill="#FBFCFF" d="M1059.131 74.722v69.681l60.818 35.045v-68.771z"/><path d="M1084.72 106.115l25.691 15.06m-25.691-7.615l25.691 15.06m-25.691-7.615l25.691 15.06m-25.691-7.615l25.691 15.061m-25.691-7.615l25.691 15.06m-25.691-7.615l25.691 15.06m-40.582-60.476l6.423 3.765m-6.423 3.68l6.423 3.765m-6.423 3.681l6.423 3.765m-6.423 3.679l6.423 3.766m-6.423 3.68l6.423 3.765m-6.423 3.68l6.423 3.765" stroke="#748CF9" stroke-width="1.8"/><path fill="#F1F5FF" d="M1119.95 110.677l60.817-35.938v69.664l-60.818 35.045z"/><path d="M1171.013 97.055l-25.699 15.049m25.699-8.349l-25.699 15.05m25.699-7.605l-25.699 15.05m25.699-7.604l-25.699 15.049m25.699-7.604l-25.699 15.05m25.699-7.605l-25.699 15.05m-7.804-31.429l-6.425 3.762m6.425 2.938l-6.425 3.763m6.425 3.683l-6.425 3.762m6.425 3.683l-6.425 3.762m6.425 3.683l-6.425 3.762m6.425 3.683l-6.425 3.763" stroke="#12C4AA" stroke-width="1.8"/><path fill="#FFF" d="M1059.134 74.722l60.769 36.091 60.769-36.091-60.723-35.32z"/><path d="M1121.162 76.29l.14-.08c.227-.128.17-.3-.17-.513l-6.586-4.133c-.306-.193-.293-.37.04-.533.205-.1.546-.06 1.026.12 3.84 1.99 8.57 4.367 9.147 4.115 2.575-.871 5.704-1.487 9.406-1.889 3.735-.485 7.258-.66 10.563-.502 3.33.097 6.122.574 8.362 1.475 2.81 1.13 3.481 2.242 2.014 3.337-.617.46-1.428.737-2.434.827-1.002.083-1.899-.06-2.69-.424-.613-.282-1.116-.81-1.515-1.576-.422-.764-.95-1.282-1.585-1.561-1.195-.527-2.377-.823-3.543-.892-1.163-.077-2.47.064-3.92.42-1.445.345-4.066 1.243-7.847 2.659-1.307.483-2.317.851-3.034 1.107l8.237 4.953c.19.114.27.218.245.314-.026.097-.181.245-.467.445-.286.2-.64.329-1.063.386-.421.057-.725.026-.913-.091L1126.393 79l-5.595 1.721a11099.989 11099.989 0 0 1 7.97 5.57c.184.127.262.24.235.34-.027.098-.182.244-.465.438-.284.193-.633.31-1.047.349-.414.037-.712-.01-.893-.143l-7.972-5.916-6.174 1.686c-3.112.83-6.12 1.226-9.02 1.18-2.879-.102-5.527-.626-7.95-1.56-2.407-.975-4.259-2.162-5.569-3.527-1.07-1.114-1.764-2.161-2.087-3.135-.328-.963-.205-1.557.372-1.79 1.057-.428 2.25-.006 3.577 1.264.555.532.944 1.3 1.163 2.316.213 1.03.592 1.822 1.141 2.369.961.957 2.02 1.54 3.18 1.74 1.163.19 3.062-.016 5.701-.635l10.844-2.803.134-.08c.225-.123.172-.305-.158-.545l-6.387-4.634c-.298-.215-.281-.4.049-.556.203-.095.537-.038 1.005.173 3.733 2.263 8.204 4.888 8.775 4.652.07-.021.14-.04.21-.055l3.73-1.13z" fill="#45B9E6"/><path stroke="#D3D7EA" stroke-width=".9" d="M1119.95 39.354l-60.819 35.385v69.664l60.818 35.005 60.818-35.005V74.739zm.067 140.054v-68.75m-60.883-35.936l60.815 35.955m60.818-35.938l-60.818 35.938"/><path fill="#FBFCFF" d="M1259.206 74.722v69.681l60.818 35.045v-68.771z"/><path d="M1284.794 106.115l25.692 15.06m-25.692-7.615l25.692 15.06m-25.692-7.615l25.692 15.06m-25.692-7.615l25.692 15.061m-25.692-7.615l25.692 15.06m-25.692-7.615l25.692 15.06m-40.583-60.476l6.423 3.765m-6.423 3.68l6.423 3.765m-6.423 3.681l6.423 3.765m-6.423 3.679l6.423 3.766m-6.423 3.68l6.423 3.765m-6.423 3.68l6.423 3.765" stroke="#748CF9" stroke-width="1.8"/><path fill="#F1F5FF" d="M1320.024 110.677l60.818-35.938v69.664l-60.818 35.045z"/><path d="M1371.088 97.055l-25.7 15.049m25.7-8.349l-25.7 15.05m25.7-7.605l-25.7 15.05m25.7-7.604l-25.7 15.049m25.7-7.604l-25.7 15.05m25.7-7.605l-25.7 15.05m-7.804-31.429l-6.425 3.762m6.425 2.938l-6.425 3.763m6.425 3.683l-6.425 3.762m6.425 3.683l-6.425 3.762m6.425 3.683l-6.425 3.762m6.425 3.683l-6.425 3.763" stroke="#12C4AA" stroke-width="1.8"/><path fill="#FFF" d="M1259.208 74.722l60.77 36.091 60.768-36.091-60.722-35.32z"/><path d="M1321.237 76.29l.14-.08c.226-.128.17-.3-.171-.513l-6.585-4.133c-.307-.193-.294-.37.04-.533.204-.1.546-.06 1.025.12 3.84 1.99 8.57 4.367 9.148 4.115 2.574-.871 5.704-1.487 9.405-1.889 3.735-.485 7.259-.66 10.564-.502 3.329.097 6.122.574 8.362 1.475 2.81 1.13 3.48 2.242 2.013 3.337-.616.46-1.428.737-2.433.827-1.003.083-1.9-.06-2.691-.424-.612-.282-1.116-.81-1.515-1.576-.421-.764-.95-1.282-1.584-1.561-1.196-.527-2.378-.823-3.543-.892-1.163-.077-2.47.064-3.92.42-1.445.345-4.066 1.243-7.848 2.659a310.44 310.44 0 0 1-3.033 1.107l8.237 4.953c.189.114.27.218.245.314-.026.097-.182.245-.468.445-.286.2-.64.329-1.062.386-.422.057-.726.026-.913-.091L1326.467 79l-5.595 1.721a11099.989 11099.989 0 0 1 7.971 5.57c.183.127.262.24.235.34-.027.098-.182.244-.466.438-.283.193-.632.31-1.047.349-.414.037-.711-.01-.892-.143l-7.973-5.916-6.174 1.686c-3.111.83-6.12 1.226-9.02 1.18-2.878-.102-5.527-.626-7.95-1.56-2.406-.975-4.258-2.162-5.568-3.527-1.07-1.114-1.765-2.161-2.088-3.135-.328-.963-.204-1.557.373-1.79 1.056-.428 2.249-.006 3.576 1.264.556.532.945 1.3 1.164 2.316.213 1.03.592 1.822 1.14 2.369.962.957 2.02 1.54 3.18 1.74 1.164.19 3.062-.016 5.702-.635l10.843-2.803.135-.08c.224-.123.172-.305-.159-.545l-6.387-4.634c-.297-.215-.281-.4.049-.556.203-.095.538-.038 1.005.173 3.733 2.263 8.205 4.888 8.775 4.652.071-.021.141-.04.21-.055l3.73-1.13z" fill="#45B9E6"/><path stroke="#D3D7EA" stroke-width=".9" d="M1320.024 39.354l-60.818 35.385v69.664l60.818 35.005 60.818-35.005V74.739zm.067 140.054v-68.75m-60.883-35.936l60.816 35.955m60.818-35.938l-60.818 35.938"/><g transform="translate(209.282 101.67)"><rect stroke="#D3D7EA" stroke-width=".9" fill="#FFF" x="2.722" y="2.54" width="18.931" height="18.931" rx="4.5"/><path fill="#8099E6" d="M6.434 12.005l5.956-2.978v5.956z"/><path d="M12.018 12.005h5.956" stroke="#8099E6" stroke-width=".9"/></g><g transform="translate(408.522 101.67)"><rect stroke="#D3D7EA" stroke-width=".9" fill="#FFF" x="2.722" y="2.54" width="18.931" height="18.931" rx="4.5"/><path fill="#8099E6" d="M6.434 12.005l5.956-2.978v5.956z"/><path d="M12.018 12.005h5.956" stroke="#8099E6" stroke-width=".9"/></g><g transform="translate(590.625 101.67)"><rect stroke="#D3D7EA" stroke-width=".9" fill="#FFF" x="2.722" y="2.54" width="18.931" height="18.931" rx="4.5"/><path fill="#8099E6" d="M6.434 12.005l5.956-2.978v5.956z"/><path d="M12.018 12.005h5.956" stroke="#8099E6" stroke-width=".9"/></g><g transform="translate(823.642 101.67)"><rect stroke="#D3D7EA" stroke-width=".9" fill="#FFF" x="2.722" y="2.54" width="18.931" height="18.931" rx="4.5"/><path fill="#8099E6" d="M6.434 12.005l5.956-2.978v5.956z"/><path d="M12.018 12.005h5.956" stroke="#8099E6" stroke-width=".9"/></g><g transform="translate(1008.745 101.67)"><rect stroke="#D3D7EA" stroke-width=".9" fill="#FFF" x="2.722" y="2.54" width="18.931" height="18.931" rx="4.5"/><path fill="#8099E6" d="M6.434 12.005l5.956-2.978v5.956z"/><path d="M12.018 12.005h5.956" stroke="#8099E6" stroke-width=".9"/></g><g transform="translate(1208.82 101.67)"><rect stroke="#D3D7EA" stroke-width=".9" fill="#FFF" x="2.722" y="2.54" width="18.931" height="18.931" rx="4.5"/><path fill="#8099E6" d="M6.434 12.005l5.956-2.978v5.956z"/><path d="M12.018 12.005h5.956" stroke="#8099E6" stroke-width=".9"/></g><g transform="translate(462.254 129.608)"><ellipse fill="#45B9E6" cx="286.478" cy="377.478" rx="3.478" ry="3.478"/><ellipse fill="#45B9E6" cx="298.817" cy="373.532" rx="3.478" ry="3.478"/><ellipse fill="#45B9E6" cx="137.478" cy="292.478" rx="3.478" ry="3.478"/><ellipse fill="#45B9E6" cx="4.296" cy="199.712" rx="3.478" ry="3.478"/><ellipse fill="#45B9E6" cx="95.296" cy="3.712" rx="3.478" ry="3.478"/><ellipse fill="#45B9E6" cx="303.746" cy="6.712" rx="3.478" ry="3.478"/><ellipse fill="#45B9E6" cx="471.296" cy="27.712" rx="3.478" ry="3.478"/><ellipse fill="#45B9E6" cx="287.839" cy="16.755" rx="3.478" ry="3.478"/><path stroke="#45B9E6" stroke-width="2" d="M287.839 16.599v187.877l-130.673 70.449-19.933 17.989M95.16 2.86v143.576l-83.112 49.12-7.933 4.494M303.746 6.375v354.207l-17.649 17.187"/><path stroke="#45B9E6" stroke-width="2" d="M473.844 26.11l-152.098 86.372v245.1l-21.858 15.366"/></g><path d="M749.136 111.58c0 1.461-.306 2.756-.92 3.884a6.702 6.702 0 0 1-2.618 2.667l-.932.532v5.28l-1.466.853v-14.151l2.581-1.434c1.12-.622 1.96-.73 2.518-.324.558.404.837 1.301.837 2.693zm-4.47 5.143l.778-.442c.753-.427 1.305-.946 1.656-1.556.352-.609.528-1.348.528-2.219 0-.806-.158-1.32-.473-1.54-.314-.221-.805-.146-1.472.226l-1.018.57v4.961zm7.727-4.712l1.018-.578c.683-.387 1.178-.864 1.485-1.429.306-.565.46-1.232.46-2.002 0-.782-.166-1.25-.497-1.406-.332-.156-.83-.048-1.497.325l-.969.541v4.549zm0 1.884v5.557l-1.465.852v-13.95l2.532-1.407c1.157-.642 2.014-.783 2.57-.424.556.357.834 1.208.834 2.555 0 1.717-.58 3.27-1.742 4.663l2.534 4.653-1.669.97-2.146-4.295-1.448.826zm14.523-9.67c0 2.204-.364 4.127-1.094 5.771-.73 1.649-1.764 2.863-3.1 3.64-1.354.787-2.393.778-3.12-.03-.725-.813-1.088-2.355-1.088-4.625s.365-4.219 1.095-5.842c.73-1.62 1.771-2.804 3.125-3.555 1.333-.74 2.363-.701 3.09.113.729.81 1.092 2.319 1.092 4.528zm-6.844 3.89c0 1.688.223 2.84.668 3.456.446.614 1.106.667 1.981.162.871-.504 1.529-1.312 1.972-2.423.444-1.11.666-2.51.666-4.2 0-1.665-.22-2.804-.66-3.418-.44-.616-1.094-.681-1.965-.195-.88.491-1.543 1.295-1.99 2.414-.448 1.12-.672 2.521-.672 4.203zm16.731-9.507c0 2.162-.365 4.052-1.095 5.674-.73 1.625-1.763 2.827-3.1 3.605-1.353.787-2.393.789-3.119.003-.725-.789-1.088-2.298-1.088-4.526 0-2.228.365-4.144 1.094-5.744.73-1.598 1.772-2.77 3.125-3.521 1.333-.74 2.364-.713 3.091.078.728.787 1.092 2.263 1.092 4.431zm-6.845 3.889c0 1.657.223 2.785.669 3.384.446.598 1.106.643 1.98.138.872-.504 1.53-1.303 1.973-2.399.443-1.093.665-2.469.665-4.127 0-1.634-.22-2.749-.659-3.347-.44-.6-1.095-.657-1.966-.17-.879.49-1.542 1.287-1.99 2.389-.448 1.104-.672 2.481-.672 4.132zm10.224.804l-1.453.845V90.918l5.06-2.81v1.81l-3.606 2.015v4.123l3.379-1.915v1.819l-3.38 1.928v5.413zm10.402-9.554a6.253 6.253 0 0 1-.865 3.206 6.475 6.475 0 0 1-2.386 2.37c-1.014.59-1.844.843-2.49.76v-2.02c.41.044.844.013 1.304-.092.46-.105.888-.272 1.284-.501.581-.336 1.01-.743 1.285-1.222.276-.479.414-.987.414-1.524 0-.485-.126-.823-.38-1.015-.253-.192-.777-.293-1.57-.303-.817-.016-1.394-.238-1.73-.667-.334-.43-.502-1.08-.502-1.95 0-1.09.266-2.096.797-3.017a5.551 5.551 0 0 1 2.14-2.125c.86-.477 1.714-.68 2.565-.61l-.467 1.986c-.797-.038-1.508.117-2.134.466a2.73 2.73 0 0 0-1.08 1.053 2.808 2.808 0 0 0-.367 1.395c0 .339.049.6.147.786a.88.88 0 0 0 .484.408c.225.087.63.14 1.214.158.659.023 1.141.118 1.448.286a1.5 1.5 0 0 1 .674.775c.143.348.215.814.215 1.397z" fill="#12C4AA"/></g></svg>