<svg id="Layer_1" data-name="Layer 1" xmlns="http://www.w3.org/2000/svg" xmlns:xlink="http://www.w3.org/1999/xlink" viewBox="0 0 557.464 417.538"><defs><style>.cls-1,.cls-10,.cls-12,.cls-24,.cls-26,.cls-3,.cls-4,.cls-7,.cls-8{fill:none}.cls-1,.cls-10,.cls-11,.cls-26,.cls-7{stroke:#0dcece}.cls-1,.cls-14,.cls-15,.cls-16,.cls-2,.cls-3,.cls-4,.cls-7,.cls-8{stroke-linecap:round}.cls-1,.cls-14,.cls-15,.cls-16,.cls-2,.cls-3,.cls-4,.cls-8{stroke-linejoin:round}.cls-1,.cls-24,.cls-26{stroke-width:.5px}.cls-14,.cls-2{fill:#fbfcff}.cls-14,.cls-15,.cls-16,.cls-2,.cls-3{stroke:#bfc3d8}.cls-2,.cls-3,.cls-4,.cls-8{stroke-width:.75px}.cls-4{stroke:#cadaf8}.cls-5{fill:#859bf1}.cls-22,.cls-6{opacity:.56}.cls-6{fill:url(#Gradient_bez_nazwy_3)}.cls-10,.cls-11,.cls-12,.cls-13,.cls-17,.cls-24,.cls-26,.cls-7,.cls-9{stroke-miterlimit:10}.cls-10,.cls-11,.cls-7{stroke-width:1.2px}.cls-8,.cls-9{stroke:#8f97b5}.cls-9{fill:#8f97b5;stroke-width:.25px}.cls-11,.cls-23{fill:#0dcece}.cls-12,.cls-13{stroke:#b9eae1}.cls-13{fill:#b9eae1}.cls-15,.cls-21{fill:#fff}.cls-16{fill:#f2f5ff}.cls-17{fill:#60c4b1;stroke:#60c4b1}.cls-18{fill:#2ee89c}.cls-19{fill:#20ce8b}.cls-20{fill:#84f7c3}.cls-22{fill:url(#Gradient_bez_nazwy_3-2)}.cls-24{stroke:#f9beb7}.cls-25{clip-path:url(#clip-path)}.cls-27{fill:#fe6b57}.cls-28{fill:#dd4536}.cls-29{fill:#fc9f95}.cls-30{clip-path:url(#clip-path-2)}</style><linearGradient id="Gradient_bez_nazwy_3" x1="-2296.294" y1="254.313" x2="-2306.766" y2="236.174" gradientTransform="matrix(-1 0 0 1 -2161.678 0)" gradientUnits="userSpaceOnUse"><stop offset="0" stop-color="#fff"/><stop offset="1" stop-color="#e4e6f3"/></linearGradient><linearGradient id="Gradient_bez_nazwy_3-2" x1="-3726.54" y1="333.321" x2="-3732.451" y2="323.083" gradientTransform="translate(4179.073)" xlink:href="#Gradient_bez_nazwy_3"/><clipPath id="clip-path"><path class="cls-1" d="M192.109 316.521l.264-9.777-2.483-1.342-.263 9.777"/></clipPath><clipPath id="clip-path-2"><path class="cls-1" d="M254.941 356.912l.264-9.778-2.483-1.342-.263 9.778"/></clipPath></defs><title>Artboard 3</title><path class="cls-2" d="M233.863 281.031l17.12-9.511a.958.958 0 0 1 1.477.769l-.039 32.236-23.728 13.158.057-28.413z"/><path class="cls-3" d="M233.841 281.2l-.011 4.615a1.412 1.412 0 0 1-.747 1.212l-4.355 2.411"/><path class="cls-4" d="M241.656 285.272l-11.164 6.191m20.554-11.575l-7.688 4.263m.205 12.685l7.467-4.135.012-9.575-7.468 4.134-.011 9.576zm-1.911-8.42l-11.164 6.191m11.161-3.137l-11.165 6.191m11.161-3.137l-11.164 6.191m11.16-3.137l-11.164 6.191m11.161-3.226l-11.165 6.191m20.554-11.575l-7.688 4.263m-1.705 4.418l-11.165 6.191m20.554-11.576l-7.687 4.263m7.706-19.592l-7.479 13.71"/><path class="cls-5" d="M250.949 271.667l-17 9.45.01 2.792 18.378-9.917v-1.6a.9.9 0 0 0-1.388-.725z"/><path class="cls-6" d="M102.489 216.739l91.886 47.891-17.079 8.775-91.968-47.548 17.161-9.118z"/><path class="cls-2" d="M109.674 233.01L92.4 223.883a1.037 1.037 0 0 0-1.536.842l-.891 33.041 23.944 12.624.763-29.122z"/><path class="cls-3" d="M109.692 233.184l-.122 4.73a1.34 1.34 0 0 0 .73 1.215l4.4 2.312"/><path class="cls-4" d="M101.563 237.641l11.266 5.939m-20.736-11.117l7.758 4.09m-.577 13.01l-7.535-3.967.265-9.814 7.535 3.966-.265 9.815zm2.202-8.701l11.266 5.94m-11.35-2.809l11.265 5.94m-11.35-2.81l11.266 5.94m-11.35-2.809l11.266 5.94m-11.348-2.901l11.266 5.94m-20.736-11.118l7.758 4.09m1.621 4.467l11.265 5.94M91.58 251.494l7.758 4.09m-7.334-19.802l7.27 13.781"/><path class="cls-5" d="M92.429 224.033l17.156 9.069-.091 2.862-18.553-9.5.044-1.644a.973.973 0 0 1 1.444-.787z"/><path class="cls-7" d="M115.693 277.157l4.944-2.704"/><path class="cls-8" d="M102.334 199.715l-32.355 18.661c-15.931 10.549-13.174 31.859-.026 40.017l212.7 116.322 6.687 3.7a5.577 5.577 0 0 0 5.311.02l20.135-10.935a3.061 3.061 0 0 1 1.6-.423l5.264.464a3.061 3.061 0 0 0 1.6-.423l35.349-19.8a3.908 3.908 0 0 1 2.173-.585l7.114.783a3.908 3.908 0 0 0 2.173-.585l8.533-4.836"/><rect class="cls-9" x="378.091" y="339.832" width="5.945" height="1.789" rx=".749" ry=".749" transform="rotate(150.458 381.063 340.728)"/><path class="cls-10" d="M103.613 210.683L82.431 222.34c-13.127 7.224-13.006 24.729.218 31.8l167.938 89.8c-.139-.068 5.155 2.883 10.521 5.75l20.937 11.854c2.254 1.157 4.158 2.083 5.179 2.472 2.675 1.017 3.81.638 10.843-2.949l32.506-18.246a3.807 3.807 0 0 0 1.608-1.529l2.982-6.429c.25-.539 15.792-9.17 15.792-9.17"/><rect class="cls-11" x="350.245" y="323.569" width="5.857" height="1.789" rx=".749" ry=".749" transform="rotate(151.11 353.173 324.464)"/><path class="cls-12" d="M364.3 333.107l-68.9 38.152-1.07.635-1.424.811a3.26 3.26 0 0 1-3.131.036l-10.34-5.566-22.118-12.556-2.417-1.319-177.8-96.9c-15.453-8.422-15.591-28.6-.254-37.2l25.489-13.608"/><rect class="cls-13" x="363.865" y="330.661" width="5.857" height="1.789" rx=".749" ry=".749" transform="rotate(150.918 366.793 331.556)"/><path class="cls-12" d="M304.072 264.666l-22.2 12.273a3.574 3.574 0 0 0-1.816 2.255l-2.3 10.6a3.574 3.574 0 0 1-1.816 2.255l-66.312 36.161"/><path class="cls-10" d="M206.938 259.067l-25.751 13.955a2.724 2.724 0 0 0-1.274 1.345l-2.093 5.938a2.724 2.724 0 0 1-1.274 1.345l-20.524 11.325"/><path class="cls-8" d="M343 309.35l-19.68 10.887a3 3 0 0 0-1.551 2.109l-1.594 10.213a3 3 0 0 1-1.551 2.109l-51.974 31.05"/><path class="cls-14" d="M195.656 135.186l76.524-41.393v130.12l-76.524 41.489V135.186z"/><path class="cls-15" d="M195.656 135.186l-93.322-49.644 75.402-36.386 94.444 44.637-76.524 41.393z"/><path class="cls-16" d="M102.334 85.542v130.775l93.484 49.085-.162-130.216-93.322-49.644z"/><path class="cls-15" d="M109.309 97.971v27.294l79.513 43.702.009-27.297-79.522-43.699z"/><path class="cls-15" d="M168.738 133.865l6.153 3.37-.01 21.528-6.143-3.365v-21.533zm-9.831-5.596l6.153 3.37-.01 21.528-6.143-3.365v-21.533zm-9.03-4.78l6.152 3.37-.01 21.528-6.142-3.365v-21.533zm-9.031-5.373l6.153 3.369-.01 21.529-6.143-3.365v-21.533zm-8.859-4.851l6.153 3.369-.01 21.529-6.143-3.365v-21.533zm-8.962-5.109l6.152 3.369-.01 21.529-6.142-3.365v-21.533z"/><ellipse class="cls-17" cx="118.444" cy="108.156" rx="1.292" ry="1.231"/><ellipse class="cls-15" cx="118.444" cy="114.945" rx="1.292" ry="1.231"/><ellipse class="cls-17" cx="113.491" cy="104.761" rx="1.292" ry="1.231"/><ellipse class="cls-17" cx="113.491" cy="111.55" rx="1.292" ry="1.231"/><path class="cls-15" d="M178.398 139.129l6.153 3.37-.01 21.528-6.143-3.365v-21.533zm-69.089-6.499v27.293l79.513 43.703.009-27.298-79.522-43.698z"/><path class="cls-15" d="M168.738 168.524l6.153 3.369-.01 21.529-6.143-3.365v-21.533zm-9.831-5.596l6.153 3.369-.01 21.529-6.143-3.365v-21.533zm-9.03-4.78l6.152 3.37-.01 21.528-6.142-3.365v-21.533zm-9.031-5.373l6.153 3.369-.01 21.529-6.143-3.365v-21.533zm-8.859-4.851l6.153 3.369-.01 21.529-6.143-3.365v-21.533zm-8.962-5.109l6.152 3.369-.01 21.529-6.142-3.365v-21.533z"/><ellipse class="cls-17" cx="118.444" cy="142.815" rx="1.292" ry="1.231"/><ellipse class="cls-15" cx="118.444" cy="149.604" rx="1.292" ry="1.231"/><ellipse class="cls-17" cx="113.491" cy="139.42" rx="1.292" ry="1.231"/><ellipse class="cls-17" cx="113.491" cy="146.209" rx="1.292" ry="1.231"/><path class="cls-15" d="M178.398 173.788l6.153 3.37-.01 21.528-6.143-3.365v-21.533zm-69.083-6.173v27.294l79.512 43.702.01-27.297-79.522-43.699z"/><path class="cls-15" d="M168.744 203.509l6.153 3.37-.01 21.528-6.143-3.365v-21.533zm-9.831-5.596l6.152 3.37-.01 21.528-6.142-3.365v-21.533zm-9.031-4.78l6.153 3.37-.01 21.528-6.143-3.365v-21.533zm-9.03-5.373l6.153 3.369-.01 21.529-6.143-3.365V187.76zm-8.859-4.851l6.153 3.369-.01 21.529-6.143-3.365v-21.533zm-8.963-5.109l6.153 3.369-.01 21.529-6.143-3.365V177.8z"/><ellipse class="cls-17" cx="118.45" cy="177.8" rx="1.292" ry="1.231"/><ellipse class="cls-15" cx="118.45" cy="184.589" rx="1.292" ry="1.231"/><ellipse class="cls-17" cx="113.496" cy="174.405" rx="1.292" ry="1.231"/><ellipse class="cls-17" cx="113.496" cy="181.194" rx="1.292" ry="1.231"/><path class="cls-15" d="M178.404 208.773l6.153 3.37-.01 21.528-6.143-3.365v-21.533z"/><path class="cls-18" d="M113.589 47.577v33.745l83.787 45.124.016-33.752-83.803-45.117z"/><path class="cls-19" d="M201.1 91.306l-3.712 1.388-.012 33.752 3.724-1.996V91.306z"/><path class="cls-20" d="M201.1 91.306l-3.708 1.388-83.803-45.117 2.803-1.195L201.1 91.306z"/><path class="cls-21" d="M167.004 103.313l-2.285-1.239.177-2.591 2.284 1.239-.176 2.591zm2.525-1.317l-2.284-1.239.176-2.59 2.285 1.239-.177 2.59z"/><path class="cls-21" d="M171.97 100.645l-2.285-1.239.177-2.591 2.284 1.239-.176 2.591zm2.488-1.376l-2.283-1.239.176-2.59 2.283 1.238-.176 2.591zm2.478-1.29l-2.284-1.239.176-2.592 2.284 1.238-.176 2.593zm-9.278-5.183l-2.284-1.239.176-2.591 2.285 1.239-.177 2.591zm-.184 2.708l-2.284-1.239.176-2.59 2.284 1.239-.176 2.59zm2.572-1.397l-2.285-1.24.177-2.59 2.284 1.239-.176 2.591zm-.184 2.708l-2.285-1.239.176-2.591 2.285 1.24-.176 2.59z"/><path class="cls-21" d="M174.072 104.471l-2.285-1.239.176-2.591 2.285 1.239-.176 2.591zm-.185 2.708l-2.284-1.239.176-2.59 2.285 1.239-.177 2.59zm2.573-1.413l-2.285-1.239.177-2.59 2.284 1.239-.176 2.59zm-.184 2.709l-2.285-1.239.176-2.591 2.285 1.239-.176 2.591zm-56.601-37.954l-2.28-1.24.228-2.635 2.28 1.24zm3.021 1.613l-2.281-1.234.229-2.635 2.281 1.238zm6.247 10.613l-2.281-1.238.228-2.635 2.281 1.238zm1.188-13.74l-2.281-1.238.229-2.635 2.281 1.238zm1.833 15.354l-2.281-1.238.228-2.635 2.281 1.24zm.594-6.869l-2.281-1.238.229-2.635 2.281 1.238zm.595-6.871l-2.281-1.238.228-2.635 2.281 1.24zM134.937 86l-2.281-1.238.228-2.635 2.281 1.238zm.594-6.871l-2.281-1.238.228-2.635 2.281 1.238zm.594-6.869l-2.281-1.238.229-2.635 2.281 1.238zm1.831 15.381l-2.281-1.24.228-2.635 2.281 1.24zm.3-3.436l-2.281-1.24.228-2.633 2.281 1.238zm.3-3.436l-2.281-1.238.225-2.631 2.281 1.238zm.3-3.434l-2.281-1.24.229-2.635 2.281 1.24zm.3-3.436l-2.281-1.24.229-2.635 2.281 1.24zm5.574 17.424l-2.28-1.238.228-2.635 2.28 1.238zm7.095.258l-2.28-1.238.228-2.635 2.28 1.238zm.3-3.436l-2.28-1.238.228-2.635 2.28 1.238zm.3-3.434l-2.28-1.238.229-2.635 2.28 1.238zm.3-3.436l-2.28-1.238.229-2.635 2.28 1.238zm2.131 11.92l-2.281-1.24.228-2.635 2.281 1.24zm2.675 5.076l-2.28-1.24.228-2.633 2.28 1.238zm.3-3.436l-2.28-1.238.228-2.635 2.28 1.238zm.3-3.436l-2.28-1.238.228-2.635 2.28 1.238zm.3-3.434l-2.28-1.24.229-2.635 2.28 1.24zm2.425 8.51l-2.28-1.24.228-2.633 2.28 1.238zm24.444 15.378l4.643-7a1.117 1.117 0 0 0-.566-1.65l-8.077-3.732c-.5-.231-1.088.156-.939.619l3.755 11.64a.693.693 0 0 0 1.184.123z"/><path class="cls-14" d="M339.446 155.552l80.519-44.172v138.858l-80.519 44.275V155.552z"/><path class="cls-15" d="M339.446 155.552l-98.193-52.977 79.338-38.83 99.374 47.635-80.519 44.172z"/><path class="cls-16" d="M241.253 102.575v139.556l98.364 52.382-.171-138.961-98.193-52.977z"/><path class="cls-15" d="M248.593 115.838v29.127l83.663 46.637.009-29.131-83.672-46.633z"/><path class="cls-15" d="M311.124 154.143l6.474 3.596-.011 22.974-6.463-3.591v-22.979zm-10.344-5.972l6.473 3.596-.01 22.974-6.463-3.591v-22.979zm-9.502-5.101l6.474 3.596-.011 22.974-6.463-3.591V143.07zm-9.502-5.734l6.474 3.596-.011 22.974-6.463-3.591v-22.979zm-9.321-5.177l6.474 3.596-.011 22.974-6.463-3.591v-22.979zm-9.431-5.452l6.474 3.595-.011 22.975-6.463-3.591v-22.979z"/><ellipse class="cls-17" cx="258.205" cy="126.707" rx="1.36" ry="1.313"/><ellipse class="cls-15" cx="258.205" cy="133.952" rx="1.36" ry="1.313"/><ellipse class="cls-17" cx="252.993" cy="123.084" rx="1.36" ry="1.313"/><ellipse class="cls-17" cx="252.993" cy="130.329" rx="1.36" ry="1.313"/><path class="cls-15" d="M321.288 159.761l6.474 3.595-.01 22.975-6.464-3.591v-22.979zm-72.695-6.936v29.126l83.663 46.637.009-29.13-83.672-46.633z"/><path class="cls-15" d="M311.124 191.129l6.474 3.596-.011 22.974-6.463-3.591v-22.979zm-10.344-5.972l6.473 3.596-.01 22.975-6.463-3.591v-22.98zm-9.502-5.1l6.474 3.595-.011 22.975-6.463-3.591v-22.979zm-9.502-5.735l6.474 3.596-.011 22.975-6.463-3.591v-22.98zm-9.321-5.176l6.474 3.595-.011 22.975-6.463-3.591v-22.979zm-9.431-5.453l6.474 3.596-.011 22.974-6.463-3.591v-22.979z"/><ellipse class="cls-17" cx="258.205" cy="163.693" rx="1.36" ry="1.313"/><ellipse class="cls-15" cx="258.205" cy="170.938" rx="1.36" ry="1.313"/><ellipse class="cls-17" cx="252.993" cy="160.071" rx="1.36" ry="1.313"/><ellipse class="cls-17" cx="252.993" cy="167.316" rx="1.36" ry="1.313"/><path class="cls-15" d="M321.288 196.747l6.474 3.596-.01 22.974-6.464-3.591v-22.979zm-72.689-6.587v29.126l83.662 46.637.01-29.131-83.672-46.632z"/><path class="cls-15" d="M311.13 228.464l6.474 3.596-.011 22.974-6.463-3.591v-22.979zm-10.345-5.972l6.474 3.596-.01 22.974-6.464-3.591v-22.979zm-9.501-5.101l6.474 3.596-.011 22.974-6.463-3.591v-22.979zm-9.502-5.734l6.474 3.596-.011 22.974-6.463-3.591v-22.979zm-9.321-5.177l6.473 3.596-.01 22.974-6.463-3.591V206.48zm-9.431-5.452l6.474 3.595-.011 22.975-6.463-3.591v-22.979z"/><ellipse class="cls-17" cx="258.211" cy="201.028" rx="1.36" ry="1.313"/><ellipse class="cls-15" cx="258.211" cy="208.273" rx="1.36" ry="1.313"/><ellipse class="cls-17" cx="252.999" cy="197.405" rx="1.36" ry="1.313"/><ellipse class="cls-17" cx="252.999" cy="204.65" rx="1.36" ry="1.313"/><path class="cls-15" d="M321.294 234.082l6.474 3.595-.011 22.975-6.463-3.591v-22.979z"/><path class="cls-18" d="M253.096 62.06v36.01l88.161 48.155.016-36.018-88.177-48.147z"/><path class="cls-19" d="M345.175 108.726l-3.906 1.481-.012 36.018 3.918-2.13v-35.369z"/><path class="cls-20" d="M345.175 108.726l-3.902 1.481-88.177-48.147 2.95-1.276 89.129 47.942z"/><path class="cls-21" d="M309.145 119.775l-2.285-1.24.176-2.59 2.285 1.239-.176 2.591zm2.525-1.317l-2.284-1.239.176-2.59 2.284 1.239-.176 2.59z"/><path class="cls-21" d="M314.111 117.107l-2.285-1.24.176-2.59 2.285 1.239-.176 2.591zm2.488-1.376l-2.284-1.239.177-2.59 2.283 1.238-.176 2.591zm2.477-1.29l-2.283-1.239.176-2.593 2.284 1.239-.177 2.593zm-9.277-5.183l-2.284-1.239.176-2.591 2.285 1.239-.177 2.591zm-.184 2.708l-2.284-1.239.176-2.59 2.284 1.239-.176 2.59zm2.572-1.398l-2.285-1.239.176-2.59 2.285 1.239-.176 2.59zm-.185 2.709l-2.284-1.239.176-2.591 2.285 1.239-.177 2.591z"/><path class="cls-21" d="M316.212 120.933l-2.284-1.239.176-2.591 2.285 1.239-.177 2.591zm-.184 2.708l-2.284-1.239.176-2.59 2.284 1.239-.176 2.59zm2.573-1.413l-2.285-1.239.177-2.59 2.284 1.239-.176 2.59zm-.185 2.709l-2.284-1.239.176-2.591 2.285 1.239-.177 2.591zm-56.601-37.955l-2.28-1.238.229-2.635 2.279 1.238zm3.021 1.615l-2.281-1.24.229-2.633 2.281 1.238zm6.248 10.613l-2.284-1.24.228-2.633 2.281 1.238zm.594-6.871L269.4 91.1l.228-2.635 2.281 1.238zm.3-3.434l-2.281-1.24.229-2.635 2.281 1.24zm2.13 11.918l-2.281-1.238.228-2.635 2.281 1.238zm.594-6.869l-2.281-1.24.229-2.633 2.281 1.238zm.595-6.871l-2.281-1.238.228-2.635 2.281 1.238zm1.784 15.383l-2.281-1.24.228-2.633 2.281 1.238zm.594-6.871l-2.281-1.238.228-2.635 2.278 1.238zm.594-6.869l-2.281-1.24.229-2.633 2.281 1.238zm2.128 11.945l-2.281-1.24.228-2.635 2.281 1.24zm.3-3.436L278.408 96l.228-2.635 2.281 1.24zm.594-6.871L279 89.126l.229-2.635 2.281 1.24zm5.58 17.422l-2.28-1.238.228-2.635 2.28 1.238zm7.985-10.047l-2.28-1.24.229-2.633 2.28 1.238zm1.834 15.354l-2.281-1.238.228-2.635 2.281 1.238zm.3-3.436l-2.281-1.238.228-2.635 2.281 1.24zm.892-10.3l-2.282-1.243.228-2.635 2.281 1.238zm2.377 8.512l-2.28-1.238.228-2.635 2.28 1.238zm.591-6.869l-2.28-1.24.229-2.635 2.28 1.24zm2.722 5.074l-2.28-1.238.229-2.635 2.28 1.238zm.3-3.436l-2.28-1.238.229-2.635L304.1 100zm23.568 25.676l4.643-7a1.117 1.117 0 0 0-.566-1.65l-8.078-3.727c-.5-.231-1.088.156-.939.619l3.755 11.64a.693.693 0 0 0 1.185.118z"/><path class="cls-22" d="M486.895 299.847l-86.166 49.733 11.578 6.616 86.119-49.372-11.531-6.977z"/><path class="cls-14" d="M337.696 224.622l-.011 32.815.03 54.714 63.011 36.669v-.001l.003.002v-87.516l-63.033-36.683z"/><path class="cls-16" d="M486.249 212.114l-84.978 48.891-.53.305-.003-.001-.001.001-.008-.005-.002-.002v87.517l.012.008.001-.001.002.001 85.521-49.184v.001-.009l-.014-87.522z"/><path class="cls-15" d="M400.737 261.376h.001l.003.001.53-.305 85.26-49.081-63.025-36.678-22.774 13.129-.002-.001h-.001l-63.033 36.248 63.033 36.682.008.005zm80.742-33.46v23.473l-73.094 43.124-.01-23.477 73.104-43.12z"/><path class="cls-15" d="M416.177 269.999l-4.334 2.568.007 16.411 4.327-2.565v-16.414zm6.859-4.099l-4.333 2.568.007 16.411 4.326-2.565V265.9zm6.627-4.323l-4.333 2.568.007 16.411 4.326-2.565v-16.414zm6.441-3.61l-4.333 2.569.007 16.41 4.326-2.565v-16.414zm6.53-4.002l-4.333 2.568.007 16.411 4.326-2.565v-16.414zm6.859-4.099l-4.333 2.568.007 16.411 4.326-2.565v-16.414z"/><ellipse class="cls-17" cx="473.791" cy="236.663" rx=".89" ry=".918"/><ellipse class="cls-15" cx="473.791" cy="241.725" rx=".89" ry=".918"/><ellipse class="cls-17" cx="477.845" cy="234.132" rx=".89" ry=".918"/><ellipse class="cls-17" cx="477.845" cy="239.194" rx=".89" ry=".918"/><path class="cls-15" d="M456.365 246.032l-4.333 2.569.007 16.411 4.326-2.565v-16.415zm6.628-3.828l-4.333 2.568.007 16.411 4.326-2.565v-16.414zm6.716-3.583l-4.333 2.568.007 16.411 4.326-2.565v-16.414z"/><path class="cls-2" d="M192.322 285.379l-18.78-10.173a.834.834 0 0 0-1.237.7l-.866 32.126 25.492 13.78.715-27.406z"/><path class="cls-3" d="M192.341 285.569l-.133 5.17a1.468 1.468 0 0 0 .777 1.328l4.679 2.524"/><path class="cls-1" d="M189.432 293.598l5.899 3.243m-13.8-7.586l6.447 3.544m-14.14-7.774l6.172 3.394"/><path class="cls-23" d="M173.485 275.322l18.742 10.157-.1 3.128-19.752-10.366.063-2.332a.706.706 0 0 1 1.047-.587z"/><path class="cls-1" d="M189.349 296.676l5.899 3.243m-13.8-7.586l6.447 3.544m-14.14-7.774l6.172 3.393m9.339 8.258l5.899 3.243m-13.8-7.586l6.447 3.544m-14.14-7.774l6.172 3.393m-7.055 11.291l21.493 11.816"/><path class="cls-24" d="M192.109 316.521l.264-9.777-2.483-1.342-.263 9.777"/><path class="cls-1" d="M188.208 314.34l.213-7.881-2.483-1.342-.213 7.881m-1.193-.746l.112-4.148-2.48-1.453-.112 4.148m-1.27-.569l.234-8.652-2.48-1.466-.233 8.651m-1.049-.718l.264-9.778-2.483-1.342-.263 9.778"/><g class="cls-25"><path class="cls-26" d="M186.271 309.593l4.982-8.011m-4.686 8.797l4.982-8.011m-4.685 8.797l4.982-8.011m-4.686 8.797l4.982-8.011m-4.685 8.797l4.982-8.011m-4.686 8.797l4.982-8.011m-4.685 8.797l4.982-8.012m-4.686 8.798l4.982-8.012m-4.685 8.798l4.982-8.012m-4.686 8.797l4.983-8.011m-4.686 8.797l4.982-8.011m-4.685 8.797l4.982-8.011m-4.686 8.797l4.982-8.011m-4.685 8.797l4.982-8.011m-4.686 8.797l4.982-8.012m-4.685 8.798l4.982-8.012"/></g><path class="cls-1" d="M192.109 316.521l.264-9.777-2.483-1.342-.263 9.777"/><path class="cls-27" d="M481.479 175.935v34.513l-79.928 46.153-.015-34.521 79.943-46.145z"/><path class="cls-28" d="M397.999 220.661l3.541 1.419.011 34.521-3.552-2.042v-33.898z"/><path class="cls-29" d="M397.999 220.661l3.537 1.419 79.943-46.145-2.674-1.223-80.806 45.949z"/><path class="cls-21" d="M463.856 214.057l1.882-1.055-.033-2.816-1.882 1.056.033 2.815zm-1.967-1.73l1.881-1.055-.033-2.816-1.882 1.056.034 2.815z"/><path class="cls-21" d="M459.99 210.57l1.882-1.056-.034-2.815-1.881 1.055.033 2.816zm-1.936-1.79l1.881-1.055-.033-2.815-1.881 1.055.033 2.815zm-1.93-1.696l1.88-1.055-.033-2.817-1.881 1.055.034 2.817zm7.647-4.449l1.881-1.055-.033-2.815-1.881 1.055.033 2.815zm.034 2.944l1.882-1.056-.033-2.815-1.882 1.056.033 2.815zm-2.001-1.824l1.881-1.055-.033-2.815-1.881 1.055.033 2.815z"/><path class="cls-21" d="M461.838 206.699l1.882-1.056-.033-2.815-1.882 1.056.033 2.815zm-3.691 7.738l1.881-1.055-.033-2.815-1.881 1.055.033 2.815zm.035 2.944l1.881-1.056-.033-2.815-1.882 1.056.034 2.815zm-2.002-1.84l1.881-1.056-.033-2.815-1.881 1.055.033 2.816zm.035 2.943l1.881-1.055-.033-2.816-1.882 1.056.034 2.815zm-45.935 18.36l-2.262 1.288.077-2.89 2.262-1.288zm2.894 2.035l-2.262 1.288.077-2.889 2.262-1.289zm.1-3.769l-2.262 1.289.077-2.891 2.262-1.288zm.1-3.768l-2.262 1.289.077-2.891 2.262-1.288zm2.846 2.117l-2.262 1.287.077-2.889 2.262-1.289zm6.539 3.698l-2.262 1.289.076-2.89 2.262-1.288zm.3-11.3l-2.262 1.289.077-2.89 2.262-1.288zm2.691 9.572l-2.261 1.288.077-2.89 2.261-1.288zm.1-3.769l-2.261 1.288.077-2.89 2.261-1.288zm.1-3.769l-2.261 1.288.077-2.89 2.263-1.289zm.1-3.768l-2.261 1.288.077-2.89 2.261-1.288zm.1-3.769l-2.261 1.288.077-2.89 2.261-1.288zm2.545 13.422l-2.262 1.288.077-2.889 2.262-1.289zm3.794-2.162l-2.262 1.288.077-2.89 2.261-1.288zm3.048-5.447l-2.262 1.287.077-2.889 2.262-1.289zm6.739-3.84l-2.262 1.289.077-2.891 2.262-1.288zm.1-3.769l-2.262 1.288.077-2.889 2.262-1.289zm.1-3.768l-2.262 1.288.077-2.889 2.262-1.289zm.1-3.769l-2.262 1.289.077-2.891 2.262-1.288zm2.691 9.572l-2.261 1.287.077-2.889 2.261-1.289zm2.847 2.117l-2.26 1.29.077-2.89 2.262-1.289zm.1-3.77l-2.262 1.289.077-2.89 2.262-1.288zm.1-3.768l-2.262 1.288.077-2.89 2.262-1.289zm.1-3.768l-2.262 1.288.077-2.89 2.262-1.289zm2.791 5.831l-2.261 1.288.077-2.89 2.261-1.288zM474.153 199l3.993 6.829a1.1 1.1 0 0 1-.563 1.566l-7.435 3.362c-.462.209-.981-.177-.832-.617l3.76-11.054a.613.613 0 0 1 1.077-.086z"/><path class="cls-15" d="M481.479 257.364v23.473l-73.094 43.124-.01-23.477 73.104-43.12z"/><path class="cls-15" d="M416.177 299.447l-4.334 2.568.007 16.411 4.327-2.565v-16.414zm6.859-4.099l-4.333 2.568.007 16.411 4.326-2.565v-16.414zm6.627-4.323l-4.333 2.568.007 16.411 4.326-2.565v-16.414zm6.441-3.61l-4.333 2.568.007 16.411 4.326-2.565v-16.414zm6.53-4.002l-4.333 2.568.007 16.411 4.326-2.565v-16.414zm6.859-4.1l-4.333 2.569.007 16.411 4.326-2.565v-16.415z"/><ellipse class="cls-17" cx="473.791" cy="266.111" rx=".89" ry=".918"/><ellipse class="cls-15" cx="473.791" cy="271.173" rx=".89" ry=".918"/><ellipse class="cls-17" cx="477.845" cy="263.58" rx=".89" ry=".918"/><ellipse class="cls-17" cx="477.845" cy="268.642" rx=".89" ry=".918"/><path class="cls-15" d="M456.365 275.48l-4.333 2.569.007 16.41 4.326-2.565V275.48zm6.628-3.828l-4.333 2.568.007 16.411 4.326-2.565v-16.414zm6.716-3.583l-4.333 2.568.007 16.411 4.326-2.565v-16.414z"/><path class="cls-2" d="M255.154 325.769L236.373 315.6a.834.834 0 0 0-1.237.7l-.866 32.126 25.492 13.78.715-27.406z"/><path class="cls-3" d="M255.173 325.96l-.133 5.17a1.468 1.468 0 0 0 .777 1.328l4.679 2.524"/><path class="cls-1" d="M252.264 333.989l5.899 3.243m-13.8-7.587l6.447 3.545m-14.14-7.774l6.172 3.393"/><path class="cls-23" d="M236.317 315.712l18.743 10.158-.1 3.128-19.752-10.366.063-2.332a.706.706 0 0 1 1.046-.588z"/><path class="cls-1" d="M252.181 337.067l5.899 3.242m-13.8-7.586l6.447 3.545m-14.14-7.774l6.172 3.393m9.339 8.258l5.899 3.242m-13.8-7.586l6.447 3.544m-14.14-7.773l6.172 3.393m-7.055 11.291l21.493 11.815"/><path class="cls-24" d="M254.941 356.912l.264-9.778-2.483-1.342-.263 9.778"/><path class="cls-1" d="M251.04 354.73l.213-7.88-2.483-1.342-.213 7.88m-1.193-.746l.112-4.147-2.48-1.454-.112 4.148m-1.27-.569l.234-8.651-2.48-1.467-.233 8.652m-1.049-.718l.264-9.778-2.483-1.342-.263 9.777"/><g class="cls-30"><path class="cls-26" d="M249.103 349.984l4.982-8.011m-4.686 8.797l4.982-8.011m-4.685 8.797l4.982-8.011m-4.686 8.797l4.982-8.012m-4.685 8.798l4.982-8.012m-4.686 8.798l4.982-8.012m-4.685 8.797l4.982-8.011m-4.686 8.797l4.983-8.011m-4.686 8.797l4.982-8.011m-4.686 8.797l4.983-8.011m-4.686 8.797l4.982-8.011m-4.685 8.797l4.982-8.011m-4.686 8.797l4.982-8.012m-4.685 8.798l4.982-8.012m-4.686 8.798l4.982-8.012m-4.685 8.797l4.982-8.011"/></g><path class="cls-1" d="M254.941 356.912l.264-9.778-2.483-1.342-.263 9.778"/></svg>