<svg width="334" height="205" viewBox="0 0 334 205" xmlns="http://www.w3.org/2000/svg"><title>exchange</title><g fill="none"><path d="M24.961 117.2c-.4.17-.8.348-1.2.544-.194.1-.385.206-.578.308-.236.125-.473.243-.707.377-.117.067-.231.144-.347.213a29.645 29.645 0 0 0-9.85 10.047 37.769 37.769 0 0 0-.962 1.649c-.248.447-.489.9-.721 1.357l-.085.173a40.748 40.748 0 0 0-.751 1.582c-.21.467-.414.94-.609 1.421l-.037.087c-.031.076-.058.153-.088.229-.133.338-.264.678-.392 1.02-.048.129-.1.257-.142.386-.15.414-.293.83-.432 1.25l-.031.09c-.147.449-.285.9-.419 1.357-.038.128-.074.257-.111.386-.1.351-.197.705-.29 1.06-.032.123-.066.246-.1.37-.117.461-.228.925-.334 1.391l-.044.207a53.105 53.105 0 0 0-.532 2.775l-.053.314c-.075.475-.145.953-.208 1.432l-.042.339a59.014 59.014 0 0 0-.287 2.876c0 .053-.009.105-.013.158-.035.486-.061.974-.084 1.463l-.016.4c-.015.376-.026.752-.033 1.128 0 .135-.006.27-.007.405-.006.49-.007.98 0 1.47v.163a54.338 54.338 0 0 0 .055 1.752 56.163 56.163 0 0 0 .086 1.505c.035.488.075.976.122 1.464.01.108.023.215.034.323a57.662 57.662 0 0 0 .36 2.865l.031.211c.067.415.135.828.205 1.241.01.059.023.117.034.175.042.233.088.465.133.7.056.293.113.586.174.878.049.235.1.469.154.7.064.287.127.573.2.858.056.237.116.472.175.707.071.281.142.562.218.842.063.235.129.469.2.7a49.01 49.01 0 0 0 .456 1.53 46.732 46.732 0 0 0 .785 2.307 55.073 55.073 0 0 0 .564 1.472 44.62 44.62 0 0 0 .608 1.45c.1.219.192.438.29.655.117.258.239.514.36.77.1.213.2.427.307.638.126.256.257.508.388.761.107.206.212.413.321.618.136.254.277.5.418.756.111.2.22.4.333.591.148.255.3.505.454.756.113.186.224.374.339.559.164.261.333.516.5.773.1.148.191.3.291.447l.041.059c.19.279.386.552.581.826.1.138.194.279.294.415a38.967 38.967 0 0 0 1.64 2.083l.211.246c.187.219.376.434.566.645.066.073.131.147.2.219.248.271.498.538.749.8l.12.12c.215.22.432.435.651.646l.229.219c.204.193.41.383.616.569l.175.158c.26.23.52.454.783.672l.185.15c.209.17.418.337.628.5l.238.183c.233.177.466.349.7.516l.112.081c.27.19.542.374.815.551.074.049.149.1.224.143.21.133.42.264.63.391l.238.142c.276.162.554.321.832.471l.03.016c.269.145.54.282.811.416l.247.119c.216.103.432.203.649.3l.221.1c.281.121.564.237.847.347l.15.056c.237.09.475.176.714.257l.256.086c.23.075.459.147.689.214.046.013.092.03.138.043l.048.013c.27.077.541.148.812.215l.177.041c.215.05.43.098.644.142l.273.053c.19.036.38.07.571.1l.269.043c.226.034.452.064.678.09l.143.018c.273.03.546.054.819.073l.221.013c.2.012.402.021.606.028l.276.006c.194.003.388.003.581 0h.25c.272-.006.544-.017.815-.034l5.63-.356 4.627-.292a21.127 21.127 0 0 0 7.62-1.978c-5.122 5.345-11.209 8.24-17.465 8.635l10.259-.648c8.414-.531 16.526-5.576 22.388-15.035.333-.537.655-1.082.964-1.637l.068-.119c.296-.533.582-1.071.857-1.613l.1-.193c.267-.533.524-1.071.771-1.613l.11-.241c.241-.537.475-1.08.7-1.628.019-.046.04-.09.058-.136.018-.046.037-.1.056-.146.194-.484.382-.972.563-1.463l.082-.228c.17-.47.334-.945.492-1.422l.062-.186a54.133 54.133 0 0 0 .564-1.842c.147-.51.287-1.023.421-1.538l.057-.228c.125-.491.243-.985.356-1.482l.048-.209a56.342 56.342 0 0 0 .391-1.911c.1-.53.193-1.063.28-1.6l.034-.222c.08-.507.154-1.015.221-1.526l.031-.23a98.71 98.71 0 0 0 .221-1.958c.053-.544.1-1.088.14-1.634l.014-.211c.036-.518.066-1.037.089-1.557 0-.082.008-.164.012-.246.023-.546.038-1.093.047-1.64v-.342c.007-.551.007-1.103 0-1.655v-.192a65.449 65.449 0 0 0-.043-1.575c0-.086-.006-.172-.009-.258a64.401 64.401 0 0 0-.115-1.983 70.238 70.238 0 0 0-.138-1.657l-.018-.173a64.73 64.73 0 0 0-.175-1.572l-.033-.269a49.381 49.381 0 0 0-.279-1.958c-.086-.548-.177-1.1-.277-1.641l-.029-.152a61.681 61.681 0 0 0-.308-1.556l-.056-.271a62.644 62.644 0 0 0-.362-1.592l-.079-.323a61.876 61.876 0 0 0-.415-1.605l-.035-.124a57.907 57.907 0 0 0-.524-1.795 51.012 51.012 0 0 0-.5-1.537l-.106-.309a58.171 58.171 0 0 0-.553-1.551l-.036-.094a55.443 55.443 0 0 0-.687-1.744c-.2-.492-.41-.98-.629-1.465-.043-.1-.087-.193-.131-.29-.224-.5-.454-.99-.691-1.477l-.033-.066a49.802 49.802 0 0 0-.717-1.408c-.045-.086-.09-.173-.136-.258-.247-.463-.5-.922-.76-1.375-.051-.089-.1-.178-.154-.267a51.657 51.657 0 0 0-.83-1.384l-.023-.036a49.099 49.099 0 0 0-.859-1.323l-.1-.152c-.021-.032-.044-.062-.065-.093a47.53 47.53 0 0 0-.888-1.263l-.179-.242a44.996 44.996 0 0 0-.966-1.268 40.589 40.589 0 0 0-4.928-5.227 35.64 35.64 0 0 0-1.483-1.239 31.008 31.008 0 0 0-6.181-3.833 27.045 27.045 0 0 0-3.2-1.244 24.368 24.368 0 0 0-1.614-.454 24.634 24.634 0 0 0-4.055-.648 23.688 23.688 0 0 0-3.241-.018l-10.259.648c6.258-.4 12.683 1.709 18.473 6.348l-.031-.01a22.307 22.307 0 0 0-3.532-.81 20.792 20.792 0 0 0-4.248-.168l-4.582.289-5.677.358c-.286.018-.57.053-.855.083-.173.018-.346.028-.518.05-.395.052-.788.12-1.18.195-.061.012-.123.018-.184.03-.261.052-.519.12-.778.182-.192.046-.385.084-.576.135-.149.04-.3.092-.446.136-.3.088-.6.172-.894.273-.112.038-.222.086-.334.126-.331.119-.663.238-.991.375a.289.289 0 0 1-.099.06z" fill="#6DDFDF"/><path d="M37.858 204.924a.716.716 0 0 1-.045-1.431 24.825 24.825 0 0 0 14.411-6 21.26 21.26 0 0 1-4.475.772l-10.259.648c-.284.017-.565.028-.847.035h-.861l-.285-.006a21.842 21.842 0 0 1-.626-.029l-.23-.013c-.282-.02-.564-.045-.846-.076l-.149-.018a23.955 23.955 0 0 1-.7-.093l-.279-.045c-.2-.031-.392-.066-.588-.1l-.284-.055c-.218-.044-.44-.094-.663-.146l-.184-.043a23.51 23.51 0 0 1-.837-.222l-.143-.041c-.288-.086-.524-.16-.76-.237l-.26-.087c-.25-.086-.5-.174-.74-.267l-.155-.057a24.453 24.453 0 0 1-.872-.358l-.175-.078c-.274-.121-.5-.225-.719-.33l-.251-.121c-.282-.139-.56-.28-.837-.429a29.43 29.43 0 0 1-.887-.5l-.185-.11c-.274-.165-.489-.3-.7-.436l-.233-.15c-.276-.18-.555-.368-.833-.563a40.367 40.367 0 0 1-.833-.611l-.181-.139a32.426 32.426 0 0 1-.707-.562l-.189-.153a38.574 38.574 0 0 1-.8-.687l-.18-.162c-.21-.19-.42-.383-.629-.581l-.233-.223a31.902 31.902 0 0 1-.666-.661l-.122-.122c-.256-.267-.51-.537-.763-.812l-.139-.154c-.255-.284-.447-.5-.639-.727l-.213-.249c-.249-.3-.5-.595-.739-.9-.317-.4-.628-.808-.933-1.224l-.3-.423c-.243-.341-.42-.588-.591-.841l-.339-.517c-.186-.282-.35-.53-.509-.784l-.346-.568a39.434 39.434 0 0 1-.46-.767l-.271-.48.539-.506-.625.351c-.136-.243-.274-.487-.406-.733l-.271-.52c-.188-.365-.32-.621-.449-.881l-.972-2.093a55.584 55.584 0 0 1-.34-.793l-.849-2.172c-.1-.269-.2-.541-.29-.814l-1.165-3.788a48.432 48.432 0 0 1-.22-.853l-.842-3.892-.034-.178a56.753 56.753 0 0 1-.208-1.257l-.03-.213a39.315 39.315 0 0 1-.179-1.279l-.055-.437a69.848 69.848 0 0 1-.132-1.184l-.034-.326a65.268 65.268 0 0 1-.123-1.482l-.022-.346a59.186 59.186 0 0 1-.064-1.177l-.019-.438a55.84 55.84 0 0 1-.036-1.336v-.165c-.006-.5 0-.992 0-1.488l.007-.411c.008-.381.019-.762.034-1.142l.015-.41c.022-.494.05-.989.085-1.48l.013-.16c.032-.443.07-.885.114-1.326l.032-.32c.052-.5.1-.884.145-1.267l.043-.348c.064-.482.134-.965.211-1.448l.035-.213a63.1 63.1 0 0 1 .22-1.258l.081-.426c.081-.414.166-.824.256-1.233l.045-.209c.106-.474.22-.944.338-1.412l.083-.313c.11-.42.208-.779.31-1.136l.113-.392c.137-.462.277-.922.425-1.377.171-.518.319-.941.47-1.361l.12-.325c.154-.416.287-.761.424-1.1l.09-.233c.234-.572.441-1.053.654-1.529l.1-.213c.247-.537.453-.97.666-1.4l.087-.176c.236-.467.48-.927.733-1.381l.178-.318a43.7 43.7 0 0 1 .8-1.361 30.249 30.249 0 0 1 10.091-10.284l.358-.22c.173-.1.348-.191.525-.282l.4-.214c.132-.072.263-.144.4-.21.409-.2.822-.386 1.236-.561l.282.659-.257-.67c.418-.177.751-.3 1.086-.418l.371-.139c.246-.085.5-.158.75-.232l.633-.19c.132-.036.266-.066.4-.1l.4-.1c.2-.049.4-.1.6-.137l.19-.032a20.29 20.29 0 0 1 1.221-.2c.114-.015.229-.025.343-.035l.369-.036c.236-.026.472-.051.709-.066l10.259-.648a21.073 21.073 0 0 1 2.928.016c.489.036.977.089 1.466.158l.124.018a25.071 25.071 0 0 0-15.089-4.122.716.716 0 1 1-.091-1.43l10.259-.648a24.614 24.614 0 0 1 4.176.094c1.125.122 2.24.32 3.338.59a22.75 22.75 0 0 1 1.659.467c1.12.356 2.215.782 3.281 1.277a31.76 31.76 0 0 1 6.323 3.921c.51.4 1.014.821 1.513 1.264a41.392 41.392 0 0 1 5.015 5.32c.335.422.661.853.982 1.288l.182.247c.307.421.607.848.9 1.281l.127.186c.337.5.629.951.912 1.4.311.5.59.967.864 1.44l.157.269c.267.462.524.929.772 1.4l.08.153c.305.58.548 1.055.784 1.536.274.56.506 1.06.733 1.562l.134.3c.217.486.429.981.635 1.478l.057.143c.254.625.45 1.122.639 1.624.23.614.415 1.138.6 1.664l.106.312c.174.517.341 1.035.5 1.557l.054.179a63.082 63.082 0 0 1 .931 3.384l.08.327c.129.533.25 1.07.366 1.609l.039.185c.128.611.233 1.135.33 1.662l.029.152c.1.551.193 1.105.281 1.659l.051.335c.084.547.16 1.095.23 1.644l.033.272c.067.529.126 1.058.177 1.588l.018.175c.054.557.1 1.115.139 1.674l.024.344c.036.554.068 1.107.091 1.661l.006.161c.024.631.039 1.161.047 1.692v.193c.007.558.007 1.116 0 1.673v.23a68.407 68.407 0 0 1-.05 1.773l-.012.252a68.81 68.81 0 0 1-.09 1.57l-.729.162.714.051c-.039.553-.087 1.1-.141 1.654l-.035.343a59.827 59.827 0 0 1-.189 1.637l-.031.232c-.067.516-.142 1.03-.225 1.544l-.034.225c-.087.54-.183 1.078-.284 1.615l-.064.334c-.1.534-.213 1.068-.332 1.6l-.048.212a61.325 61.325 0 0 1-.361 1.5l-.057.229a45.495 45.495 0 0 1-.427 1.558l-.1.323a54.902 54.902 0 0 1-.475 1.542l-.066.192c-.157.48-.325.96-.5 1.436l-.081.228c-.184.5-.375 1-.572 1.487l-.721-.121.665.266-.06.141a55.837 55.837 0 0 1-.707 1.651l-.076.165a49.566 49.566 0 0 1-.819 1.716l-.065.128c-.316.621-.6 1.167-.905 1.706l-.071.125a43.916 43.916 0 0 1-.977 1.659c-5.79 9.343-13.941 14.8-22.951 15.373l-10.256.648h-.05l.002.006zm17.466-10.068a.716.716 0 0 1 .517 1.212 29.743 29.743 0 0 1-9.772 6.9l2-.127c8.535-.539 16.285-5.759 21.825-14.7a45.483 45.483 0 0 0 1.859-3.317l.737.132-.64-.321a46.39 46.39 0 0 0 .76-1.59l.106-.233c.24-.533.469-1.07.689-1.608l.721.135-.664-.269.72.123-.665-.267c.192-.477.377-.958.555-1.443l.753.019-.674-.243c.168-.467.33-.933.485-1.4l.066-.192c.159-.489.312-.991.461-1.5l.092-.315c.145-.5.285-1.008.416-1.517l.056-.222c.124-.489.241-.977.352-1.467l.746-.05-.7-.156c.115-.518.224-1.039.325-1.562l.062-.323c.1-.527.192-1.052.278-1.58l.033-.215c.08-.507.153-1.009.22-1.514l.741-.136-.71-.092c.069-.532.129-1.066.184-1.6l.031-.3c.055-.567.1-1.105.141-1.646l.728-.16-.715-.049c.036-.513.065-1.026.088-1.541l.012-.243c.023-.54.037-1.081.047-1.622v-.333c.007-.551.008-1.1 0-1.642l.712-.2-.716.01a67.114 67.114 0 0 0-.042-1.557l-.01-.252a62.323 62.323 0 0 0-.09-1.63l-.024-.339a65.242 65.242 0 0 0-.136-1.637l.695-.241-.713.071c-.052-.52-.11-1.04-.174-1.557l-.017-.144a66.91 66.91 0 0 0-.239-1.729l-.05-.328a66.237 66.237 0 0 0-.274-1.624l.676-.281-.7.129a84.631 84.631 0 0 0-.3-1.538l-.056-.266a60.135 60.135 0 0 0-.358-1.576l-.078-.32a64.815 64.815 0 0 0-.411-1.588 67.244 67.244 0 0 0-.472-1.629l-.08-.267a60.457 60.457 0 0 0-.491-1.522l-.1-.3a57.996 57.996 0 0 0-.548-1.535 61.253 61.253 0 0 0-.607-1.55l-.056-.139a59.788 59.788 0 0 0-.672-1.573l-.129-.285a52.693 52.693 0 0 0-.683-1.46c-.262-.533-.5-1-.74-1.455l-.134-.255a52.663 52.663 0 0 0-.75-1.357l-.152-.261c-.267-.46-.539-.917-.819-1.366-.3-.476-.582-.91-.87-1.34l.5-.551-.59.406a52.724 52.724 0 0 0-.944-1.341l-.127-.172c-.36-.488-.677-.905-1-1.315a39.943 39.943 0 0 0-4.841-5.135c-.48-.423-.964-.828-1.454-1.215a30.313 30.313 0 0 0-6.037-3.745 26.441 26.441 0 0 0-3.111-1.211 23.983 23.983 0 0 0-5.507-1.071 23.2 23.2 0 0 0-3.142-.017l-1.983.125a30.08 30.08 0 0 1 10.6 5.6.716.716 0 0 1-.674 1.238 21.296 21.296 0 0 0-3.439-.79 20.882 20.882 0 0 0-2.052-.186 20.215 20.215 0 0 0-2.048.024l-10.259.648c-.215.014-.43.037-.644.061l-.681.067c-.381.05-.761.117-1.14.188l-.317-.673.139.7c-.178.036-.355.08-.532.123l-.436.1c-.113.025-.227.05-.339.08l-.6.183c-.231.068-.462.135-.691.213l-.324.122c-.336.121-.648.233-.958.362l-.383-.612.278.66c-.389.164-.775.336-1.159.525-.114.057-.228.12-.342.182l-.432.229c-.157.081-.314.162-.469.252l-.338.208a28.854 28.854 0 0 0-9.608 9.809c-.267.431-.523.87-.773 1.312l-.172.307c-.243.438-.48.882-.707 1.332l-.725-.15.641.32c-.206.413-.405.832-.6 1.254l-.139.3c-.206.46-.406.926-.6 1.4l-.749-.059.67.253c-.178.45-.306.784-.431 1.12l-.14.382a44.444 44.444 0 0 0-.869 2.656l-.073.252c-.135.474-.231.822-.322 1.172l-.1.366c-.115.454-.226.912-.329 1.371l-.743.051.7.154c-.087.4-.17.8-.249 1.2l-.078.413-.2 1.124-.052.306a58.26 58.26 0 0 0-.206 1.417l-.027.22c-.061.489-.1.865-.144 1.241l-.042.419c-.043.433-.08.863-.112 1.294l-.727.106.714.051c-.034.481-.06.963-.083 1.445l-.012.3c-.018.475-.028.847-.036 1.219l-.007.4a50.27 50.27 0 0 0 0 1.453l-.712.173.716-.01c.006.434.019.868.035 1.3l.019.427c.017.384.038.766.063 1.149l.022.341c.034.48.074.963.12 1.444l.034.321c.039.383.082.769.129 1.154l.053.425c.054.418.112.834.174 1.247l-.678.318.708-.11.2 1.227-.672.3.705-.127.821 3.8c.07.278.14.555.215.831l1.134 3.689c.093.267.187.53.283.792l.826 2.114c.107.258.218.514.33.769l.944 2.034c.125.251.253.5.381.749l.317.609c.127.237.26.474.392.709l.347.618c.127.219.259.435.39.652l.389.641c.153.243.311.482.469.721l.31.478c.206.3.376.539.546.777l.355.5a38.653 38.653 0 0 0 1.611 2.048l.2.24c.185.216.37.427.556.634l.192.215c.243.267.488.527.735.781l-.4.618.512-.5c.211.215.424.426.637.632l.15.143c.274.26.475.446.677.628l-.305.691.475-.536c.254.225.509.443.765.656l.124.1c.261.213.465.376.671.535l.231.178c.228.173.457.34.686.5.372.264.636.443.9.616l.168.108c.254.162.459.289.664.412l.229.138c.271.16.542.313.812.46.29.155.553.289.816.418l.239.115c.208.1.419.2.63.29l.213.1c.276.119.549.232.824.338l-.108.723.255-.67c.23.087.462.17.692.25l.246.082c.223.073.446.143.669.208l.143.044c.3.084.56.153.823.218l.006.736.164-.7c.207.049.415.094.623.136l.2.038c.253.048.435.081.619.111l.259.041a20.402 20.402 0 0 0 1.587.175l.17.727.042-.715c.2.011.391.02.586.026l.264.006h.801c.267-.005.53-.016.79-.032l10.259-.648c2.553-.17 5.05-.82 7.364-1.912a.714.714 0 0 1 .317-.07v-.001z" fill="#13B7B3"/><path d="M13.161 191.544c-14.143-17.834-15.99-47.807-4.127-66.951 11.863-19.144 32.943-20.205 47.086-2.372s15.99 47.807 4.127 66.951c-11.863 19.144-32.947 20.206-47.086 2.372z" fill="#B9F8F3"/><path d="M36.341 204.972c-8.686 0-17.068-4.568-23.741-12.983-14.292-18.022-16.165-48.425-4.175-67.774 5.821-9.394 14.017-14.856 23.078-15.38 9.185-.54 18.137 4.063 25.177 12.942 14.293 18.022 16.165 48.425 4.175 67.773-5.821 9.394-14.018 14.856-23.078 15.381-.48.027-.958.041-1.436.041zm-3.406-94.746c-.449 0-.898.013-1.348.039-8.582.5-16.375 5.719-21.944 14.7-11.7 18.877-9.867 48.542 4.079 66.13 6.743 8.5 15.264 12.919 23.972 12.4 8.582-.5 16.375-5.719 21.944-14.7 11.7-18.877 9.867-48.542-4.079-66.129-6.395-8.066-14.382-12.44-22.624-12.44z" fill="#13B7B3"/><path d="M50.747 130.891c-10.607-13.375-26.415-12.583-35.312 1.774-8.897 14.357-7.511 36.839 3.1 50.214s26.414 12.574 35.311-1.783c8.897-14.357 7.509-36.834-3.095-50.205" fill="#80EAEB"/><path d="M35.575 155.291l.337 4.328 6.982-.681.012 2.144-6.813.679c.048 1.86.171 3.665.12 5.454a45.565 45.565 0 0 1-.451 5.895 7.076 7.076 0 0 1-3.658 5.5 4.279 4.279 0 0 1-3.978.194 1.717 1.717 0 0 1-.878-2.545c.165-.253.863-.281 1.223-.117a6 6 0 0 1 1.333 1.116 1.586 1.586 0 0 0 2.667-.337 7.918 7.918 0 0 0 .972-4.455c-.083-3.277-.3-6.558-.473-9.837a3.362 3.362 0 0 0-.141-.544l-6.482.592-.3-2.064 6.664-.7-.211-4.313-7 .631-.3-2.089 7.146-.716c-.014-.805-.041-1.546-.038-2.284a23.7 23.7 0 0 1 .756-7.458c.8-2.407 2.156-4.219 4.575-4.741a3.756 3.756 0 0 1 3.189.578c.206.153.494.342.539.555.112.53.306 1.224.1 1.6-.312.566-1.007.509-1.56.16-.43-.3-.835-.635-1.211-1a1.559 1.559 0 0 0-2.639.384 7.222 7.222 0 0 0-.81 2.846c-.075 2.964.026 5.944.061 9.079l6.727-.649.029 2.125-6.489.67z" fill="#FFF"/><path d="M122.773 44.4c-.369.136-.737.28-1.1.439-.179.078-.356.169-.534.253-.218.1-.437.2-.654.309-.108.055-.214.12-.322.178a26.752 26.752 0 0 0-9.31 8.627 34.64 34.64 0 0 0-.938 1.443c-.242.392-.479.788-.707 1.19-.029.05-.055.1-.084.152-.207.37-.407.743-.6 1.122l-.14.27c-.21.413-.412.83-.609 1.252l-.037.076c-.031.067-.059.135-.089.2-.133.298-.267.598-.4.9-.048.114-.1.227-.144.342-.152.366-.3.735-.442 1.107l-.031.079a36.106 36.106 0 0 0-.551 1.543 49.2 49.2 0 0 0-.306.941c-.034.11-.069.219-.1.329-.125.41-.244.822-.359 1.237l-.049.184a48.585 48.585 0 0 0-.596 2.473l-.061.28c-.088.425-.17.851-.247 1.279l-.052.3a52.394 52.394 0 0 0-.379 2.574c-.006.047-.013.094-.018.142-.051.436-.1.874-.136 1.312l-.031.363c-.029.337-.054.675-.076 1.013l-.024.364c-.026.44-.047.881-.062 1.322v.147c-.012.396-.02.792-.022 1.188v.39a60.967 60.967 0 0 0 .014 1.357c.01.44.027.881.049 1.321 0 .1.011.194.017.291a50.996 50.996 0 0 0 .207 2.592l.019.191c.04.376.085.751.134 1.125l.023.159c.028.211.06.422.091.632.039.266.077.532.12.8.035.214.073.426.11.639.046.26.091.521.141.78.041.215.085.429.129.643.052.256.105.511.161.766.047.214.1.427.147.641.059.253.119.5.183.756.053.213.109.425.165.637l.2.745c.06.211.12.422.183.631a52.195 52.195 0 0 0 .425 1.358c.08.243.162.484.247.724.072.205.144.41.219.614a43.878 43.878 0 0 0 .505 1.316c.1.237.194.472.293.707.083.2.165.393.251.587.1.235.211.468.318.7.088.19.174.381.264.569.113.234.229.466.346.7.092.182.182.365.276.546.123.235.251.467.378.7.094.172.186.346.283.516.137.241.279.478.421.716.082.138.16.278.244.415l.035.055c.159.259.325.513.49.767.083.128.163.259.248.386.253.379.512.752.777 1.119.2.281.409.555.617.825l.18.23c.16.205.321.405.484.6.056.068.112.137.168.2.212.254.426.503.643.748l.1.113c.185.207.372.41.56.608l.2.207a26.993 26.993 0 0 0 .683.687c.225.217.451.43.679.637.053.049.107.1.161.143.181.162.363.32.546.476l.207.174c.2.168.404.332.612.493l.1.078a21.493 21.493 0 0 0 .912.668c.183.13.367.255.552.378l.208.138c.243.158.487.311.732.458l.026.015c.237.141.476.276.715.408l.218.117c.19.102.382.202.574.3l.2.1c.25.12.5.236.75.347l.134.056c.21.09.422.178.634.261l.228.088c.204.077.408.151.613.221.041.014.082.031.123.044l.043.014c.24.08.482.156.724.227l.158.044c.191.054.383.105.575.154l.244.059c.17.04.34.079.511.114l.241.05c.2.04.403.076.608.109l.129.022c.245.038.49.071.736.1l.2.02c.182.02.364.036.546.05l.249.017c.175.011.35.02.525.025l.226.008c.246.005.492.008.737 0l5.1-.086 4.189-.071a19.153 19.153 0 0 0 6.961-1.462 23.982 23.982 0 0 1-16.126 7.041l9.288-.157c7.617-.129 15.151-4.329 20.837-12.593.323-.467.635-.944.938-1.432l.066-.1c.29-.467.57-.939.841-1.416l.1-.169c.263-.467.517-.94.763-1.418l.109-.212c.24-.473.474-.951.7-1.435.019-.04.04-.079.058-.12l.057-.129c.195-.427.385-.858.569-1.292l.083-.2c.173-.416.34-.835.5-1.258l.064-.165c.17-.447.332-.897.489-1.351l.1-.282c.154-.453.302-.908.444-1.366l.061-.2c.133-.437.261-.876.383-1.318l.052-.186a48.969 48.969 0 0 0 .432-1.702 62.926 62.926 0 0 0 .36-1.624c.093-.453.181-.907.264-1.364l.038-.206a52.124 52.124 0 0 0 .281-1.75c.07-.487.136-.975.195-1.464l.021-.189c.054-.467.102-.933.145-1.4l.021-.221a56.913 56.913 0 0 0 .13-1.78c.029-.496.052-.992.07-1.489v-.173c.015-.473.024-.945.027-1.418v-.233a78.296 78.296 0 0 0-.021-1.788c-.013-.5-.03-1-.056-1.5 0-.052-.006-.1-.009-.156a63.243 63.243 0 0 0-.092-1.421l-.018-.243c-.04-.491-.085-.982-.137-1.472l-.033-.3a59.843 59.843 0 0 0-.201-1.625 75.804 75.804 0 0 0-.213-1.412l-.04-.246a54.627 54.627 0 0 0-.319-1.74c-.1-.489-.2-.976-.308-1.461l-.027-.113a52.71 52.71 0 0 0-.335-1.388l-.063-.248c-.122-.47-.25-.937-.384-1.4l-.082-.283a52.78 52.78 0 0 0-.435-1.418l-.028-.086a48.778 48.778 0 0 0-.461-1.351l-.087-.246c-.163-.451-.331-.9-.506-1.344l-.106-.266a50.83 50.83 0 0 0-.562-1.357l-.027-.061c-.19-.436-.386-.87-.589-1.3l-.112-.238c-.204-.427-.414-.85-.629-1.268l-.128-.246a46.012 46.012 0 0 0-.691-1.279l-.019-.034a45.24 45.24 0 0 0-.721-1.226c-.028-.046-.054-.094-.083-.141l-.055-.086a43.237 43.237 0 0 0-.749-1.173l-.151-.225c-.268-.4-.539-.793-.82-1.181a36.581 36.581 0 0 0-4.231-4.906c-.424-.409-.853-.8-1.287-1.176a28.025 28.025 0 0 0-5.42-3.7 24.486 24.486 0 0 0-2.833-1.251 23.251 23.251 0 0 0-1.438-.476 22.332 22.332 0 0 0-3.63-.751 21.485 21.485 0 0 0-2.925-.151l-9.288.157c5.666-.1 11.378 2.064 16.411 6.476l-.027-.011a20.198 20.198 0 0 0-3.155-.874c-.423-.08-.848-.147-1.274-.2a18.675 18.675 0 0 0-2.554-.132l-4.148.07-5.14.087c-.259 0-.517.024-.775.039-.157.009-.314.011-.47.024-.359.03-.716.075-1.074.126-.056.008-.112.011-.168.02-.237.036-.474.087-.71.132-.175.033-.351.059-.526.1-.136.03-.272.071-.408.1-.273.066-.547.13-.819.208-.1.03-.2.068-.306.1-.3.093-.608.187-.91.3a.729.729 0 0 0-.122.049z" fill="#F7931A"/><path d="M130.8 123.9l-.024-1.433a22.34 22.34 0 0 0 12.951-4.583c-1.21.262-2.442.408-3.679.435l-4.274.073-5.1.086h-.765l-.238-.008a16.503 16.503 0 0 1-.544-.027l-.257-.017a21.78 21.78 0 0 1-.568-.052l-.2-.021c-.255-.03-.51-.063-.763-.1-.345-.057-.555-.1-.766-.136l-.187-.038c-.239-.05-.417-.09-.593-.132l-.25-.06c-.2-.051-.4-.1-.6-.161l-.165-.045c-.25-.073-.5-.152-.749-.235l-.171-.059a21.209 21.209 0 0 1-.633-.229l-.24-.093a17.37 17.37 0 0 1-.653-.269l-.139-.058a23.671 23.671 0 0 1-.774-.358l-.206-.1-.588-.3-.226-.121c-.245-.134-.49-.273-.735-.418a24.92 24.92 0 0 1-.781-.488l-.216-.143a23.067 23.067 0 0 1-.569-.389l-.2-.143a28 28 0 0 1-.73-.542 37.058 37.058 0 0 1-.728-.585l-.216-.183a28.667 28.667 0 0 1-.558-.484l-.169-.151a27.195 27.195 0 0 1-.692-.649l-.155-.153c-.183-.18-.365-.363-.546-.551l-.2-.211a27.139 27.139 0 0 1-.574-.623l-.106-.116c-.221-.25-.44-.504-.656-.764l-.173-.21c-.166-.2-.33-.405-.494-.616l-.185-.237a35.781 35.781 0 0 1-1.421-1.982l-.252-.392c-.2-.315-.355-.546-.5-.782l-.283-.477c-.161-.269-.3-.5-.429-.728l-.29-.528c-.143-.262-.265-.485-.383-.71l-.218-.429.576-.449-.659.284a32.103 32.103 0 0 1-.333-.67l-.824-1.84a34.27 34.27 0 0 1-.325-.785l-1.6-4.718-1.257-5.687-.238-1.611c-.048-.38-.093-.76-.135-1.14l-.019-.193c-.04-.386-.077-.772-.108-1.158l-.031-.4c-.027-.358-.05-.715-.069-1.073l-.017-.3c-.023-.445-.04-.892-.05-1.34v-.192a58.899 58.899 0 0 1-.011-1.183v-.393c.003-.404.01-.806.022-1.205v-.149c.015-.448.036-.895.063-1.34l.023-.36c.024-.352.049-.694.078-1.036l.031-.369c.041-.444.088-.887.139-1.329l.018-.143c.048-.4.1-.794.158-1.189l.059-.39c.052-.344.109-.688.168-1.033l.053-.309c.079-.434.162-.867.25-1.3l.041-.189c.094-.439.171-.784.252-1.126l.092-.382c.09-.367.184-.733.283-1.1l.049-.187c.115-.422.237-.841.365-1.257l.067-.215c.137-.439.241-.757.347-1.073l.12-.351c.142-.409.288-.816.441-1.221.176-.46.327-.834.483-1.207l.123-.293c.154-.362.288-.667.427-.971l.093-.211c.234-.5.441-.927.655-1.347l.084-.163c.257-.5.462-.878.673-1.254l.085-.155c.233-.41.473-.814.721-1.213l.175-.278c.254-.4.514-.8.782-1.194a27.377 27.377 0 0 1 9.563-8.853l.331-.183c.167-.085.334-.162.5-.239l.35-.165a8.75 8.75 0 0 1 .382-.178c.377-.165.758-.314 1.141-.455l.25.672-.233-.679c.383-.141.683-.234.982-.327l.364-.118c.24-.069.478-.127.716-.185l.559-.139c.118-.027.238-.048.358-.069l.387-.073c.178-.035.358-.07.537-.1l.172-.02c.371-.053.744-.1 1.115-.131l.651-.035c.214-.013.429-.027.643-.03l9.287-.157a19.186 19.186 0 0 1 2.652.138c.368.044.735.099 1.1.164a22.672 22.672 0 0 0-13.134-4.131l-.024-1.433 9.285-.157a22.595 22.595 0 0 1 3.776.255 23.065 23.065 0 0 1 4.481 1.162c.998.368 1.973.798 2.917 1.288a28.862 28.862 0 0 1 5.558 3.8c.444.384.883.784 1.316 1.2a37.38 37.38 0 0 1 4.314 5c.285.393.561.795.833 1.2l.155.231c.26.393.513.79.762 1.192l.107.174c.283.468.528.882.765 1.3.262.462.495.9.723 1.333l.13.249c.219.427.432.856.639 1.289l.114.241c.2.434.4.873.6 1.316.225.515.413.975.6 1.437l.107.27c.177.45.349.905.514 1.362l.089.25a51.84 51.84 0 0 1 .936 2.892l.083.285c.133.472.263.946.389 1.422l.036.141a52.457 52.457 0 0 1 .706 3.115l.059.3c.094.485.182.973.264 1.462l.027.167c.09.559.162 1.035.228 1.513l.022.15c.066.49.127.992.183 1.494l.032.305c.053.495.1.992.14 1.489l.018.248c.037.479.068.958.094 1.437l.009.157c.025.505.043 1.01.056 1.515l.007.311c.01.5.015 1 .014 1.5v.23c0 .484-.013.963-.027 1.441v.175c-.017.5-.041 1-.071 1.506l-.019.315c-.031.494-.068.991-.112 1.487l-.022.225c-.043.47-.092.941-.147 1.412l-.021.192c-.06.495-.126.989-.2 1.481l-.029.2c-.09.594-.168 1.083-.255 1.571l-.038.208a61.25 61.25 0 0 1-.267 1.381l-.041.2c-.101.483-.21.964-.324 1.443l-.059.248c-.128.527-.25 1-.378 1.477l-.053.187c-.123.448-.253.893-.388 1.336l-.063.207c-.142.463-.293.924-.45 1.384l-.1.283c-.161.462-.325.92-.5 1.373l-.064.167a50.85 50.85 0 0 1-.51 1.276l-.085.206a45.31 45.31 0 0 1-.578 1.312l-.061.138c-.283.605-.52 1.091-.764 1.572l-.076.146a41.926 41.926 0 0 1-.812 1.511l-.1.172c-.277.486-.562.967-.855 1.439-.377.6-.695 1.087-1.023 1.563-5.63 8.183-13.235 12.765-21.415 12.9l-9.285.157-.005.022zm19.388-9.874l-2.781 2.636a27.109 27.109 0 0 1-8.751 5.672l1.408-.024c7.7-.13 14.9-4.492 20.258-12.283.317-.461.624-.93.921-1.406.35-.559.625-1.024.892-1.494l.719.185-.624-.352c.259-.459.509-.923.75-1.394l.107-.207c.238-.467.467-.938.687-1.414l.745.1-.658-.282c.22-.483.407-.907.588-1.334l.743.076-.662-.275c.17-.41.337-.823.5-1.24l.733.092-.67-.255c.167-.441.327-.884.482-1.331l.1-.279c.151-.444.3-.893.437-1.345l.746.008-.686-.208c.133-.43.26-.864.378-1.3h.743l-.691-.189c.126-.46.243-.923.357-1.389l.069-.288c.112-.467.217-.935.316-1.406l.741-.052-.7-.146c.093-.446.179-.895.26-1.345l.743-.079-.705-.125c.084-.475.161-.953.234-1.431l.043-.294c.07-.485.135-.966.193-1.45l.733-.1-.712-.083c.053-.459.101-.919.143-1.381l.022-.222c.042-.479.078-.965.108-1.45l.013-.2c.034-.594.059-1.084.076-1.576l.72-.148-.716-.022c.015-.467.024-.933.027-1.4v-.159c0-.558 0-1.046-.013-1.534l-.007-.3c-.012-.495-.03-.988-.055-1.48l.707-.192-.716.038a57.726 57.726 0 0 0-.091-1.4l.7-.3-.714.058a63.91 63.91 0 0 0-.136-1.455l-.032-.3a62.331 62.331 0 0 0-.18-1.466c-.083-.6-.154-1.068-.229-1.531l-.038-.24c-.08-.48-.167-.957-.258-1.431l-.05-.253c-.1-.521-.2-1-.311-1.481a59.764 59.764 0 0 0-.358-1.482l.632-.425-.693.18c-.12-.467-.247-.928-.379-1.385l-.081-.277a50.652 50.652 0 0 0-.429-1.4 56.186 56.186 0 0 0-.483-1.417l.588-.486-.674.243c-.16-.445-.327-.886-.5-1.324l-.106-.267a46.76 46.76 0 0 0-1.16-2.671l.537-.543-.646.309c-.2-.42-.407-.837-.62-1.25l-.128-.245c-.22-.421-.446-.842-.679-1.257a47.749 47.749 0 0 0-.728-1.238l.53-.513-.609.377c-.3-.476-.542-.861-.793-1.24l.446-.621-.594.4c-.264-.391-.53-.78-.806-1.16a35.952 35.952 0 0 0-4.148-4.811c-.414-.4-.834-.783-1.259-1.149a27.4 27.4 0 0 0-5.28-3.61c-.89-.462-1.81-.868-2.751-1.215a22.65 22.65 0 0 0-1.392-.46 21.56 21.56 0 0 0-2.812-.63 34.33 34.33 0 0 0-.707-.1 20.728 20.728 0 0 0-2.826-.146l-1.389.023a27.442 27.442 0 0 1 8.971 5.355l3.024 2.651-3.753-1.443a18.993 18.993 0 0 0-4.285-1.039 18.386 18.386 0 0 0-2.456-.127l-9.288.157c-.192 0-.385.015-.576.027l-.623.033c-.342.029-.686.073-1.03.122l-.269-.69.106.709c-.158.024-.316.055-.473.086l-1.11.234c-.353.085-.571.139-.788.2l-.295.1c-.323.1-.6.185-.875.285l-.344-.634.247.672c-.356.131-.711.27-1.064.424-.11.048-.218.1-.326.153l-.377.178c-.148.069-.3.136-.444.212l-.312.172a25.962 25.962 0 0 0-9.056 8.4c-.259.376-.507.759-.751 1.146l-.169.27c-.236.382-.468.771-.693 1.166l-.706-.2.625.351c-.2.363-.398.73-.593 1.1l-.136.263c-.207.407-.407.818-.6 1.231l-.735-.118.658.284c-.18.4-.31.695-.437.991l-.141.334a38.637 38.637 0 0 0-.894 2.351l-.115.337a45.48 45.48 0 0 0-.3.927l-.1.324c-.123.404-.241.81-.354 1.217h-.739l.691.187c-.095.354-.187.71-.274 1.067l-.088.369c-.08.333-.154.667-.225 1l-.061.278c-.087.417-.168.836-.243 1.259l-.052.3c-.057.328-.112.664-.163 1l-.057.379a52.6 52.6 0 0 0-.306 2.588l-.031.359a54 54 0 0 0-.075 1l-.024.358c-.025.434-.047.87-.062 1.3l-.719.123.716.022c-.012.39-.02.782-.022 1.173v.384c0 .345.003.69.009 1.033l.006.3c.01.437.026.87.048 1.3l.01.188c.025.449.048.8.073 1.145l.03.384c.031.377.066.753.1 1.128l-.693.266.712-.077c.04.37.084.74.132 1.11l-.688.25.71-.094.863 4.728 1.626 5.485.5 1.294c.094.234.19.465.288.695l2.079 4.242c.126.221.257.441.389.66l.262.446c.174.281.318.5.462.725l.3.46c.249.371.503.738.763 1.1.2.275.4.543.6.808l.178.229c.154.2.313.393.472.588l-.385.659.55-.459c.207.249.417.492.628.73l-.433.589.533-.479c.181.2.364.398.547.594l.127.133c.239.246.411.421.586.593l-.351.66.5-.514c.218.211.438.418.66.62l-.32.674.477-.535c.176.157.353.311.531.462l.206.174a24.637 24.637 0 0 0 1.379 1.067l.155.109c.214.15.392.272.571.391l.2.134c.235.153.472.3.709.445.255.151.486.281.718.409l.208.111c.187.1.371.2.556.288l.189.094c.243.117.485.23.727.337.332.141.535.225.739.305l.22.085c.2.074.395.146.592.213l.17.059c.223.075.457.148.691.217l-.045.73.2-.689c.185.052.369.1.554.149l.956.214c.2.038.392.073.588.1.36.058.6.09.833.118l.116.732.077-.712c.174.019.349.035.524.048l.744.041.2.723.014-.716c.239 0 .476.008.712 0l9.288-.157a18.451 18.451 0 0 0 6.7-1.409l3.54-1.441z" fill="#E27D0E"/><path d="M109.024 110.767C97 94.141 96.581 67.107 108.088 50.383c11.507-16.724 30.58-16.8 42.6-.178 12.02 16.622 12.443 43.66.936 60.384-11.507 16.724-30.576 16.804-42.6.178z" fill="#FFBA76"/><path d="M130.423 123.9c-8.248 0-16.044-4.506-21.98-12.714-12.167-16.824-12.591-44.282-.945-61.21 5.659-8.225 13.3-12.808 21.528-12.9h.266c8.249 0 16.045 4.507 21.981 12.715 12.167 16.824 12.591 44.282.946 61.209-5.66 8.226-13.305 12.809-21.529 12.905l-.267-.005zm-1.132-85.4h-.248c-7.744.09-14.977 4.453-20.364 12.283-11.33 16.468-10.915 43.186.926 59.559 5.718 7.908 13.234 12.213 21.068 12.12 7.745-.09 14.977-4.453 20.365-12.284 11.33-16.468 10.915-43.185-.926-59.558-5.659-7.82-13.045-12.12-20.821-12.12z" fill="#E27D0E"/><path d="M145.48 57.778c-9.017-12.469-23.321-12.413-31.95.13-8.629 12.543-8.315 32.82.7 45.289 9.015 12.469 23.32 12.405 31.95-.138 8.63-12.543 8.313-32.815-.7-45.281" fill="#F7A54B"/><path d="M119.359 91.087v-.065c.043-.182.1-.361.129-.546.18-1.018.356-2.037.537-3.082.761.066 1.5.142 2.238.192.883.059 1.29-.3 1.282-1.132-.044-4.368-.091-8.737-.142-13.106a1.661 1.661 0 0 0-1.627-1.8c-.873-.141-1.752-.2-2.628-.293l-.035-3.231 6.524.568-.053-4.976 3.319.289.053 4.96 2.5.218-.053-4.96 3.316.289.054 5.03c.33.057.614.1.9.156 1.651.257 3.228.865 4.624 1.783a4.931 4.931 0 0 1 2.147 3.036 7.2 7.2 0 0 1 .175 2.062 3.732 3.732 0 0 1-2.067 3.294c-.2.1-.385.216-.591.333.532.229 1.039.425 1.527.662a5.169 5.169 0 0 1 2.962 3.7 8.55 8.55 0 0 1 .006 3.177 4.834 4.834 0 0 1-3.19 3.968 12.551 12.551 0 0 1-4.74.778c-.5 0-.992-.01-1.517-.016l.054 5.038-3.308-.288-.053-4.94-2.524-.22.053 4.933-3.3-.287-.053-4.952-6.519-.572zm9.809-2.844a28 28 0 0 0 5.279.178c.88-.06 1.74-.284 2.536-.663 1.586-.818 1.651-3.416-.137-4.538a7.836 7.836 0 0 0-1.346-.666 18.194 18.194 0 0 0-5.557-.971c-.281-.017-.561-.024-.846-.036l.071 6.696zm-.1-9.829c1.063.093 2.089.217 3.11.261a6.866 6.866 0 0 0 3-.49 2.245 2.245 0 0 0 1.3-2.869 3.277 3.277 0 0 0-2.154-2.091 13.087 13.087 0 0 0-3.922-.76c-.464-.032-.928-.079-1.407-.121l.073 6.07zm163.797 62.055l-1.125-.887 4.981-6.323 5.578 5.827-1.036.99-4.437-4.635z" fill="#E27D0E"/><path d="M205.15 43.17a19.63 19.63 0 0 0-1.129.375c-.184.068-.365.149-.548.222-.224.09-.448.173-.671.271-.111.049-.221.108-.331.159a25.868 25.868 0 0 0-9.683 8.124 34.11 34.11 0 0 0-.992 1.397c-.257.38-.509.765-.752 1.157l-.089.148c-.22.36-.436.724-.645 1.094l-.15.264c-.225.403-.443.812-.654 1.226l-.04.075c-.033.065-.063.133-.1.2a38.57 38.57 0 0 0-.586 1.22c-.165.36-.326.723-.482 1.089l-.034.078a43.774 43.774 0 0 0-.943 2.455c-.038.108-.077.216-.114.325-.139.406-.272.815-.4 1.226l-.055.183a44.384 44.384 0 0 0-.677 2.459l-.07.279c-.102.423-.198.848-.289 1.275l-.062.3-.2 1.019-.07.383c-.067.39-.131.78-.194 1.172l-.023.142c-.065.437-.124.875-.178 1.315l-.043.364a51.605 51.605 0 0 0-.243 2.714c0 .049-.005.1-.008.148a48.176 48.176 0 0 0-.072 1.594c-.011.352-.019.704-.023 1.057v.313c0 .445.003.89.009 1.336 0 .1.006.2.008.3a52.333 52.333 0 0 0 .129 2.631c0 .065.008.129.013.194.03.381.063.762.1 1.143l.018.162c.022.215.048.429.073.644.031.271.062.541.1.812.028.218.061.435.092.652.038.265.076.531.118.8.035.219.073.438.111.657.045.261.091.522.14.783.041.219.085.437.129.655.052.258.105.517.162.774.048.218.1.435.148.653a57.906 57.906 0 0 0 .349 1.412 54.542 54.542 0 0 0 .389 1.396 94.401 94.401 0 0 0 .427 1.379c.081.247.166.493.251.739.072.207.144.415.219.621.089.245.182.488.275.731.078.2.155.406.235.608l.3.726c.083.2.165.395.25.59.107.243.218.484.329.725.087.189.173.38.262.567.117.245.239.486.361.729.09.18.178.361.271.539.131.252.268.5.4.748.079.144.153.291.234.433l.034.057c.153.271.313.538.472.8.08.134.157.271.239.4a33.366 33.366 0 0 0 1.352 2.047l.175.244c.156.216.313.429.471.639.055.072.109.146.164.217.207.267.416.531.627.794l.1.12c.181.22.364.436.548.648l.194.221c.173.195.347.387.522.575l.148.16c.22.233.443.461.667.684.053.052.106.1.158.154.178.175.357.346.538.514l.2.189c.2.182.4.36.6.535l.1.084c.233.2.467.393.7.579l.194.151c.181.141.364.28.547.415l.207.152c.241.174.483.344.726.507l.026.017c.235.157.473.308.71.455l.217.132c.19.115.38.226.571.334l.194.11c.249.137.498.27.748.4l.133.065c.21.105.421.205.633.3l.228.1c.204.09.408.178.613.261.041.017.082.036.123.052l.043.016c.241.096.483.187.726.274l.159.054c.192.067.384.13.577.191l.245.075c.17.051.342.1.513.147l.242.065c.204.053.408.102.612.148l.129.03c.247.054.494.103.742.146l.2.033c.183.03.367.059.55.084l.251.033c.177.022.353.041.53.058l.228.022c.249.021.5.038.746.049l5.159.229 4.24.189c2.407.101 4.81-.252 7.086-1.043a23.594 23.594 0 0 1-16.529 6.1l9.4.418c7.71.343 15.459-3.426 21.465-11.409.34-.453.672-.915.993-1.386l.07-.1c.307-.45.605-.91.894-1.376l.1-.165c.28-.454.552-.915.815-1.383l.117-.207c.258-.462.508-.929.75-1.4.02-.04.043-.078.062-.117.019-.039.04-.085.061-.126.21-.419.416-.841.615-1.268.031-.066.06-.132.09-.2.188-.409.37-.821.548-1.238l.07-.162c.185-.44.364-.884.536-1.332l.107-.278c.17-.447.333-.897.491-1.35l.068-.2c.148-.433.29-.868.428-1.306l.058-.184a48.36 48.36 0 0 0 .49-1.691c.128-.467.25-.939.367-1.416l.047-.2c.109-.45.211-.904.308-1.359l.045-.205a53.931 53.931 0 0 0 .337-1.748 64.8 64.8 0 0 0 .242-1.465l.027-.189c.067-.467.13-.933.19-1.4l.028-.221a57.576 57.576 0 0 0 .185-1.788c.045-.498.083-.998.116-1.5 0-.058.006-.116.01-.174.03-.475.053-.952.071-1.429 0-.078.007-.156.009-.235.017-.498.027-.996.032-1.495v-.31c0-.5 0-1.008-.01-1.513v-.158c-.01-.48-.027-.96-.05-1.439 0-.082-.007-.164-.011-.247a62.072 62.072 0 0 0-.094-1.493l-.024-.305c-.04-.5-.085-1.009-.138-1.512 0-.047-.011-.093-.016-.14-.051-.48-.109-.959-.172-1.437l-.033-.251a60.21 60.21 0 0 0-.219-1.475l-.05-.3c-.083-.5-.171-1-.266-1.493l-.023-.116a46.756 46.756 0 0 0-.3-1.421l-.056-.254a54.454 54.454 0 0 0-.345-1.439c-.024-.1-.05-.193-.075-.29a42.953 42.953 0 0 0-.4-1.457l-.026-.088a39.86 39.86 0 0 0-.425-1.391l-.081-.254a48.392 48.392 0 0 0-.571-1.662c-.17-.471-.345-.94-.527-1.4l-.026-.063c-.179-.452-.364-.9-.556-1.344l-.106-.247a41.956 41.956 0 0 0-.6-1.318l-.122-.256a47.146 47.146 0 0 0-.66-1.333l-.019-.035a47.605 47.605 0 0 0-.691-1.281c-.027-.049-.052-.1-.079-.147-.017-.031-.036-.06-.053-.09a43.945 43.945 0 0 0-.722-1.229l-.146-.237a40.851 40.851 0 0 0-.793-1.242 38.679 38.679 0 0 0-4.129-5.211c-.416-.439-.838-.86-1.266-1.266a29.647 29.647 0 0 0-5.369-4.072 25.734 25.734 0 0 0-2.828-1.438 23.803 23.803 0 0 0-4.358-1.406 21.982 21.982 0 0 0-3.689-.48l-9.4-.418c5.735.255 11.446 2.788 16.4 7.551l-.027-.012a21.115 21.115 0 0 0-1.89-.712 25.276 25.276 0 0 0-1.274-.365 16.66 16.66 0 0 0-1.282-.278 19.077 19.077 0 0 0-2.579-.291l-4.2-.187-5.2-.231c-.262-.012-.523-.008-.785-.009-.159 0-.318-.009-.476-.005-.364.008-.727.031-1.09.061-.057 0-.114 0-.17.009-.241.021-.482.058-.723.089-.178.023-.357.038-.535.066-.139.022-.277.055-.416.08-.278.05-.557.1-.835.159-.1.024-.208.056-.313.082-.31.075-.621.151-.929.242-.006-.004-.04.009-.074.02z" fill="#C3C9DB"/><path d="M189.2 109.264c-11.652-17.517-11.246-44.811.908-60.966s31.451-15.053 43.1 2.464c11.649 17.517 11.246 44.811-.908 60.966s-31.445 15.052-43.1-2.464z" fill="#DCE1EF"/><path d="M227.709 58.078c-8.739-13.137-23.21-13.968-32.325-1.852-9.115 12.116-9.42 32.589-.681 45.725 8.739 13.136 23.21 13.96 32.325 1.844 9.115-12.116 9.417-32.584.681-45.717" fill="#ABAFC4" opacity=".33"/><path d="M221.264 124.664c-.339 0-.677-.008-1.018-.023l-9.381-.42h-.01a.764.764 0 0 1-.127-.017c-8.428-.421-16.244-5.443-22.049-14.179-11.777-17.722-11.367-45.441.917-61.79 5.921-7.883 13.7-12.036 21.955-11.687h.065a.041.041 0 0 0 .02 0l9.389.42a22.756 22.756 0 0 1 3.804.496 24.028 24.028 0 0 1 4.48 1.449 26.67 26.67 0 0 1 2.9 1.478 30.474 30.474 0 0 1 5.493 4.172c.437.414.867.845 1.291 1.293a39.534 39.534 0 0 1 5 6.571l.148.239a46.373 46.373 0 0 1 .841 1.442 45.526 45.526 0 0 1 1.416 2.739l.123.257c.209.445.411.891.607 1.34l.108.253a47.773 47.773 0 0 1 1.122 2.847l.1.281c.165.463.323.93.476 1.4l.045.141a54.215 54.215 0 0 1 .895 3.09l.076.295c.123.482.239.968.349 1.457l.029.131a56.831 56.831 0 0 1 .621 3.193l.05.3c.08.496.154.994.222 1.493l.032.253a62.477 62.477 0 0 1 .33 3.126l.022.288c.039.524.071 1.027.1 1.531l.01.25c.023.485.04.97.051 1.456v.16c.01.51.013 1.021.01 1.53v.317c0 .5-.015 1.005-.032 1.51v.146a62.807 62.807 0 0 1-.075 1.536l-.01.176a58.61 58.61 0 0 1-.118 1.514l-.028.309c-.048.5-.1 1-.16 1.5l-.029.224c-.058.473-.122.946-.191 1.417l-.736.085.708.107c-.075.497-.156.99-.244 1.482l-.047.264a66.69 66.69 0 0 1-.295 1.507l-.03.143c-.113.526-.217.985-.326 1.441l-.048.2c-.117.48-.24.959-.371 1.434l-.083.3c-.133.473-.271.945-.413 1.416l-.059.187c-.139.443-.283.884-.432 1.323l-.069.2c-.16.46-.327.917-.5 1.368l-.111.288c-.173.449-.353.9-.541 1.347l-.071.164c-.18.423-.364.842-.555 1.257l-.093.2c-.2.431-.408.86-.623 1.286l-.065.134c-.306.6-.56 1.071-.821 1.541l-.12.213c-.267.472-.542.942-.826 1.4l-.062.145a40.452 40.452 0 0 1-2.016 2.955c-5.695 7.58-13.126 11.709-21.02 11.709zm-9.942-1.857l8.989.4c7.8.348 15.182-3.6 20.83-11.118a38.574 38.574 0 0 0 1.919-2.81l.712.214-.61-.376c.275-.447.541-.9.8-1.359l.115-.2c.254-.455.5-.916.737-1.382l.73.145-.648-.305c.246-.492.448-.907.643-1.327l.061-.133c.213-.465.392-.872.566-1.281l.73.118-.66-.277c.182-.434.357-.871.526-1.312l.082-.211c.19-.5.353-.947.507-1.394l.745.034-.678-.232c.145-.427.286-.856.421-1.288l.742.03-.685-.211c.141-.457.274-.917.4-1.38l.079-.288c.125-.462.247-.928.361-1.4l.045-.191c.107-.449.209-.897.305-1.345l.744-.056-.7-.147c.1-.475.193-.951.28-1.43l.052-.295c.085-.483.166-.965.239-1.45l.735-.082-.709-.1c.067-.46.129-.92.187-1.383l.739-.134-.712-.085c.058-.486.109-.974.156-1.462l.027-.3c.043-.493.083-.986.115-1.48l.725-.127-.715-.043c.028-.47.051-.941.069-1.413l.725-.207-.716-.024c.016-.493.026-.985.031-1.478v-.2c0-.6 0-1.1-.01-1.6l.712-.173-.716.017a63.03 63.03 0 0 0-.05-1.422l.705-.281-.716.036a60.561 60.561 0 0 0-.093-1.476l-.024-.3c-.04-.5-.084-1-.136-1.5a64.72 64.72 0 0 0-.186-1.558l.678-.344-.71.1a62.43 62.43 0 0 0-.217-1.458l-.049-.294c-.083-.5-.169-.987-.263-1.476a65.272 65.272 0 0 0-.316-1.52l.644-.408-.7.157a52.42 52.42 0 0 0-.341-1.42l-.073-.286a57.641 57.641 0 0 0-.391-1.439c-.16-.548-.3-1.005-.445-1.462l.6-.47-.681.221c-.15-.459-.304-.915-.465-1.369l-.055-.155a49.267 49.267 0 0 0-1.134-2.887l-.1-.243a49.11 49.11 0 0 0-.588-1.3l-.121-.253c-.21-.44-.426-.878-.649-1.312a47.253 47.253 0 0 0-.7-1.3l.546-.5-.623.354c-.285-.5-.522-.9-.764-1.3l-.1-.164c-.3-.479-.553-.887-.82-1.289a38.2 38.2 0 0 0-4.049-5.116c-.407-.429-.82-.842-1.238-1.239a29.023 29.023 0 0 0-5.233-3.977 25.167 25.167 0 0 0-2.746-1.4 22.624 22.624 0 0 0-4.935-1.506 21.373 21.373 0 0 0-2.854-.323l-9.287-.416v.006c-7.839-.389-15.259 3.557-20.931 11.108-11.948 15.9-12.338 42.879-.869 60.136 5.634 8.479 13.2 13.293 21.3 13.557.053 0 .106.006.157.019z" fill="#A3A8BF"/><path d="M211.028 62.382l11.234 18.065-3.425 2.016c-2.372 1.4-4.738 2.8-7.125 4.172a1.128 1.128 0 0 1-.914.1c-3.586-2.015-7.15-4.068-10.793-6.155l11.023-18.198z" fill="#FFF"/><path d="M211.07 98l-10.986-15.01.089-.107c1.1.623 2.206 1.242 3.305 1.87 2.225 1.272 4.461 2.527 6.663 3.836a1.448 1.448 0 0 0 1.726.006c3.106-1.879 6.25-3.7 9.38-5.54.191-.126.413-.2.642-.211L211.07 98z" fill="#FFF"/><path d="M285.408 43.22c-.387.114-.773.236-1.156.374-.188.068-.374.148-.561.222-.229.09-.459.173-.687.271-.114.049-.226.108-.339.159a26.346 26.346 0 0 0-9.915 8.113c-.285.369-.56.748-.831 1.131l-.186.264c-.263.38-.521.764-.77 1.155l-.092.148c-.226.36-.446.723-.66 1.092-.051.088-.1.175-.153.263-.23.4-.453.808-.67 1.224-.013.025-.028.049-.041.075-.034.065-.065.132-.1.2a37.5 37.5 0 0 0-.439.883c-.054.112-.108.223-.16.335-.17.36-.334.722-.493 1.087l-.035.078a42.67 42.67 0 0 0-.967 2.452c-.039.108-.079.216-.117.325-.142.405-.279.813-.411 1.224l-.056.183c-.112.356-.22.714-.322 1.074-.035.124-.069.248-.1.372-.093.333-.183.67-.268 1.009-.024.093-.049.185-.072.278-.105.422-.205.846-.3 1.273l-.063.3a76.737 76.737 0 0 0-.271 1.399c-.07.389-.137.779-.2 1.17l-.023.142c-.067.436-.127.874-.183 1.313l-.044.364c-.04.338-.077.677-.111 1.016l-.036.366a48.81 48.81 0 0 0-.106 1.328c0 .049-.005.1-.008.148-.025.4-.046.8-.061 1.2l-.014.393c-.011.351-.019.703-.023 1.055v.313c0 .445.003.89.009 1.334 0 .1.006.2.008.295a57.256 57.256 0 0 0 .131 2.628c0 .064.008.129.014.194.03.38.063.761.1 1.142l.019.162c.022.215.049.428.074.643.032.27.063.541.1.81.029.217.062.434.094.651.039.265.078.53.121.794.036.219.075.438.113.656.046.261.093.522.143.782.042.219.087.436.132.654a50.54 50.54 0 0 0 .316 1.425 50.909 50.909 0 0 0 .568 2.164 41.521 41.521 0 0 0 .422 1.385c.068.211.136.422.207.632.083.247.17.492.257.738a42.397 42.397 0 0 0 .505 1.35c.079.2.159.406.241.607.1.243.2.484.308.725.085.2.168.394.256.589.109.243.223.483.336.724.089.189.177.379.268.567.12.245.245.486.369.728.092.179.182.36.277.538.134.252.274.5.413.747.081.144.157.29.24.433l.034.057c.157.271.321.537.484.8.082.134.161.271.245.4.25.4.507.792.77 1.176.2.3.407.584.613.869l.179.243c.16.216.32.429.482.638l.168.217c.212.267.426.531.642.793l.1.12c.185.22.372.436.561.647l.2.22c.177.195.355.386.535.574.051.053.1.107.152.16.226.233.454.461.683.684.054.052.108.1.162.154.183.174.366.345.551.513l.209.188c.205.182.41.36.618.534l.1.084c.239.2.479.393.721.578l.2.151c.186.141.373.28.56.415l.212.152c.247.174.494.344.743.507l.027.017c.241.157.484.308.727.455l.222.131c.194.114.389.225.585.333l.2.11c.254.137.51.27.766.4l.137.065c.215.105.431.205.648.3l.233.1c.209.09.418.178.628.261.042.017.083.036.126.052l.044.016c.247.096.495.187.743.274l.163.054c.2.067.397.13.591.191l.251.074c.175.051.35.1.526.147l.248.065c.209.053.418.102.627.147l.133.03c.253.054.506.103.76.146l.206.033c.188.03.376.059.564.084l.257.033c.18.022.362.041.543.058l.234.022c.255.021.509.038.764.049l5.283.229 4.341.188a20.054 20.054 0 0 0 7.256-1.042 24.527 24.527 0 0 1-16.925 6.093l9.625.418c7.894.343 15.83-3.421 21.979-11.394.35-.453.688-.914 1.017-1.384l.072-.1c.315-.45.62-.908.916-1.374l.106-.164c.287-.453.565-.914.835-1.382l.12-.207c.267-.461.523-.928.768-1.4.021-.04.044-.078.064-.117l.063-.126c.216-.418.426-.84.63-1.267l.093-.2c.193-.409.38-.82.561-1.236l.072-.162c.19-.44.372-.883.549-1.331l.109-.278c.173-.446.34-.896.5-1.349l.07-.2c.151-.432.297-.865.438-1.3l.06-.184a45.327 45.327 0 0 0 .501-1.691c.133-.467.259-.938.376-1.414.017-.066.032-.131.048-.2.111-.45.217-.902.316-1.357l.046-.205a51.343 51.343 0 0 0 .346-1.746c.089-.486.171-.974.248-1.463l.028-.189c.07-.467.135-.933.194-1.4l.029-.221a57.447 57.447 0 0 0 .19-1.785c.045-.497.085-.997.119-1.5 0-.058.006-.116.01-.174.03-.475.054-.95.072-1.427 0-.078.007-.156.01-.234.017-.497.028-.995.033-1.493v-.31c0-.5 0-1.007-.01-1.511v-.158c-.011-.48-.028-.959-.051-1.438 0-.082-.007-.164-.011-.246a46.5 46.5 0 0 0-.1-1.491l-.024-.3c-.041-.5-.087-1.007-.141-1.51 0-.047-.011-.093-.016-.14-.053-.48-.111-.958-.176-1.435l-.033-.25a43.595 43.595 0 0 0-.225-1.473l-.051-.3c-.085-.5-.175-1-.273-1.491l-.024-.116a71.394 71.394 0 0 0-.3-1.419l-.057-.253c-.111-.481-.23-.96-.354-1.437-.025-.1-.051-.193-.076-.29a51.297 51.297 0 0 0-.406-1.455l-.027-.088a49.46 49.46 0 0 0-.435-1.389l-.082-.253a49.034 49.034 0 0 0-.482-1.385c-.033-.092-.068-.183-.1-.275-.174-.47-.353-.938-.54-1.4l-.026-.063a44.234 44.234 0 0 0-.569-1.342l-.108-.247a66.07 66.07 0 0 0-.612-1.316l-.125-.256a44.867 44.867 0 0 0-.676-1.331l-.019-.035a45.283 45.283 0 0 0-.708-1.279c-.028-.048-.053-.1-.081-.147l-.054-.09a43.71 43.71 0 0 0-.739-1.228l-.15-.236a43.33 43.33 0 0 0-.812-1.24 38.8 38.8 0 0 0-4.228-5.2c-.426-.438-.86-.86-1.3-1.265a30.3 30.3 0 0 0-5.5-4.067 26.613 26.613 0 0 0-4.374-2.004 24.2 24.2 0 0 0-3.74-.981c-1-.177-2.01-.289-3.025-.333l-9.625-.418c5.872.255 11.721 2.784 16.8 7.541l-.028-.012a23.891 23.891 0 0 0-1.936-.711 27.057 27.057 0 0 0-1.3-.365c-.433-.11-.871-.202-1.313-.277a20.037 20.037 0 0 0-2.641-.291l-4.3-.187-5.327-.231c-.268-.012-.536-.008-.8-.009-.163 0-.325-.009-.488-.005a18.96 18.96 0 0 0-1.116.061c-.058 0-.116 0-.174.009-.247.021-.493.058-.74.089-.182.023-.365.038-.547.066-.142.022-.284.055-.426.079-.285.05-.571.1-.855.159-.107.024-.213.056-.321.082a20.105 20.105 0 0 0-1.065.272z" fill="#20CE8B"/><path d="M269.078 109.225c-11.932-17.493-11.515-44.75.93-60.884s32.2-15.032 44.136 2.46 11.515 44.75-.93 60.884-32.204 15.032-44.136-2.46z" fill="#CEF4E6"/><path d="M308.508 58.108c-8.948-13.119-23.766-13.949-33.1-1.849-9.334 12.1-9.646 32.544-.7 45.663 8.946 13.119 23.766 13.941 33.1 1.841 9.334-12.1 9.643-32.54.7-45.655" fill="#38E0A3" opacity=".6"/><path d="M301.907 124.606c-.346 0-.693-.008-1.04-.023l-9.613-.42v-.011c-8.671-.376-16.721-5.395-22.693-14.16-12.064-17.7-11.642-45.391.938-61.722 6.08-7.894 14.087-12.039 22.545-11.661l9.613.42a23.787 23.787 0 0 1 3.891.494 25.182 25.182 0 0 1 4.587 1.446c1.019.432 2.01.924 2.97 1.475a31.1 31.1 0 0 1 5.621 4.163 34.8 34.8 0 0 1 1.322 1.291 39.684 39.684 0 0 1 4.3 5.3c.283.415.555.837.824 1.261l.151.239c.257.414.508.83.752 1.25l.107.186c.276.484.516.917.749 1.354.255.482.483.933.705 1.387l.127.259c.213.442.42.887.621 1.336l.085.2c.222.505.416.959.6 1.417.216.532.4 1.007.574 1.484l.1.278c.17.467.333.933.49 1.4l.084.26a52.76 52.76 0 0 1 .877 2.964l.078.294c.125.483.245.968.358 1.455l.037.167a57.141 57.141 0 0 1 .628 3.154l.052.306c.082.493.158.991.227 1.489l.023.169c.076.568.136 1.052.19 1.538l.016.143c.055.505.1 1.014.143 1.525l.024.31c.039.5.071 1 .1 1.508l.011.25c.022.485.041.969.052 1.455v.158c.011.51.013 1.02.011 1.529v.317c0 .5-.015 1-.033 1.508l-.009.232c-.019.487-.043.968-.073 1.448l-.01.176a57.09 57.09 0 0 1-.12 1.513l-.03.311c-.048.5-.102 1-.162 1.5l-.029.225c-.06.473-.127.944-.2 1.414l-.029.192c-.076.5-.161.989-.25 1.481l-.05.264c-.1.53-.2 1.019-.3 1.5l-.031.141a55.57 55.57 0 0 1-.334 1.441l-.048.2c-.12.48-.248.959-.381 1.434l-.084.3c-.135.473-.276.946-.424 1.415l-.06.186c-.141.444-.29.885-.444 1.322l-.071.2c-.162.458-.332.914-.509 1.367l-.112.285c-.177.449-.362.9-.553 1.346l-.073.166c-.184.422-.374.84-.569 1.254l-.094.2c-.206.433-.419.861-.638 1.285l-.066.131c-.315.6-.574 1.073-.842 1.542l-.077.133c-.319.552-.6 1.021-.892 1.482l-.108.167c-.3.473-.611.94-.93 1.4-.409.58-.753 1.051-1.107 1.512-5.817 7.572-13.421 11.687-21.495 11.693zm-10.33-1.863l9.353.409c7.971.344 15.563-3.6 21.35-11.109a38.535 38.535 0 0 0 1.968-2.807l.709.221-.606-.383c.281-.445.554-.898.819-1.357l.118-.2c.26-.453.51-.913.754-1.379l.732.148-.644-.315c.248-.483.455-.9.654-1.318l.739.11-.648-.305c.189-.4.372-.806.551-1.217l.728.124-.658-.283c.186-.433.366-.87.539-1.311l.107-.271c.172-.442.337-.884.5-1.331l.744.04-.676-.236c.148-.426.292-.855.431-1.286l.742.034-.683-.216c.144-.456.281-.915.412-1.377l.082-.288c.129-.461.253-.926.369-1.394l.743-.023-.7-.171c.108-.445.212-.891.311-1.34l.746-.052-.7-.15c.101-.473.196-.948.285-1.427l.055-.3c.087-.48.169-.961.244-1.444l.736-.08-.709-.107c.067-.459.13-.919.192-1.381l.739-.131-.712-.086c.059-.485.112-.971.159-1.459l.029-.307c.043-.489.084-.981.116-1.475l.726-.127-.715-.044c.029-.467.052-.937.071-1.41l.01-.233c.017-.49.027-.982.031-1.473v-.2c0-.6 0-1.1-.01-1.594l.712-.174-.716.017a62.804 62.804 0 0 0-.05-1.421l.7-.28-.716.037a45.39 45.39 0 0 0-.1-1.473l-.024-.3a56.139 56.139 0 0 0-.329-3.048l-.033-.245a52.64 52.64 0 0 0-.222-1.457l-.035-.208c-.1-.58-.187-1.071-.285-1.559a57.427 57.427 0 0 0-.324-1.516l-.056-.25c-.11-.476-.226-.949-.348-1.419l-.076-.285c-.128-.483-.26-.962-.4-1.438-.163-.546-.306-1-.455-1.456l-.083-.257c-.15-.452-.309-.907-.474-1.36l-.1-.273a50.22 50.22 0 0 0-.532-1.379 56.078 56.078 0 0 0-.586-1.386l-.107-.243a60.152 60.152 0 0 0-.6-1.3l-.123-.251c-.216-.442-.437-.88-.665-1.312-.245-.46-.477-.878-.716-1.294l.541-.5-.619.36c-.29-.5-.534-.9-.782-1.3l-.148-.234a37.52 37.52 0 0 0-.8-1.219 38.269 38.269 0 0 0-4.146-5.108c-.417-.429-.84-.842-1.268-1.239a29.691 29.691 0 0 0-5.361-3.972 26 26 0 0 0-2.815-1.4 23.962 23.962 0 0 0-5.059-1.505 22.353 22.353 0 0 0-2.927-.323l-9.5-.415h-.006c-8.016-.387-15.641 3.553-21.454 11.1-12.231 15.876-12.63 42.81-.889 60.04 5.772 8.47 13.525 13.281 21.833 13.545l.01.011z" fill="#17BF7B"/><path d="M288.63 68.722v-3.485h6.034v3.179c1.481.153 3.288.346 4.7.613l-.83 6.742a37.113 37.113 0 0 0-5.854-.957c-.938 0-1.481.23-1.481.919 0 .575.578.69 1.41 1.073 2.42 1.149 7.37 2.452 7.37 7.891 0 4.023-2.023 6.819-5.312 7.662v3.218h-6.037v-2.95a31.652 31.652 0 0 1-4.732-.841l.506-6.475a28.1 28.1 0 0 0 6.539 1.3c.759 0 1.121-.269 1.121-.843s-.469-.805-1.228-1.187c-2.42-1.226-7.587-2.377-7.587-8.275-.002-3.906 1.805-6.549 5.381-7.584z" fill="#FFF"/><path d="M34.771 97.7h-1.433v-6.225h1.433V97.7zm0-9.09h-1.433v-7.164h1.433v7.164zm0-10.03h-1.433v-7.164h1.433v7.164zm0-10.03h-1.433v-7.164h1.433v7.164zm0-10.03h-1.433v-7.164h1.433v7.164zm0-10.03h-1.433v-7.164h1.433v7.164zm0-10.03h-1.433V31.3h1.433v7.16zm262.4-7.8h-1.431v-7.164h1.433l-.002 7.164zm-262.4-2.225h-1.433v-7.164h1.433v7.164zm262.4-7.8h-1.431v-7.164h1.433l-.002 7.164zm-262.4-2.225h-1.433v-2.53a15.3 15.3 0 0 1 .763-4.788l1.361.448c-.46 1.4-.694 2.866-.692 4.34l.001 2.53zm260.88-7.706a10.061 10.061 0 0 0-2.954-5.857l1-1.028a11.5 11.5 0 0 1 3.376 6.7l-1.422.185zM36.563 9.062l-1.247-.707a15.447 15.447 0 0 1 5.123-5.394l.77 1.209a14 14 0 0 0-4.646 4.883v.009zm253.992-5.805A10.044 10.044 0 0 0 285.7 2h-1.734V.567h1.734c1.94 0 3.848.491 5.547 1.428l-.692 1.262zM43.634 2.943l-.518-1.336A15.254 15.254 0 0 1 48.651.576h1.766V2h-1.766a13.815 13.815 0 0 0-5.017.934v.009zM281.1 2h-7.164V.567h7.164V2zm-10.03 0h-7.164V.567h7.164V2zm-10.03 0h-7.164V.567h7.164V2zm-10.03 0h-7.164V.567h7.164V2zm-10.03 0h-7.164V.567h7.164V2zm-10.03 0h-7.164V.567h7.164V2zm-10.03 0h-7.164V.567h7.164V2zm-10.03 0h-7.164V.567h7.164V2zm-10.03 0h-7.16V.567h7.164L200.86 2zm-10.03 0h-7.16V.567h7.164L190.83 2zM180.8 2h-7.16V.567h7.16V2zm-10.03 0h-7.16V.567h7.164L170.77 2zm-10.03 0h-7.164V.567h7.164V2zm-10.03 0h-7.164V.567h7.164V2zm-10.03 0h-7.164V.567h7.164V2zm-10.03 0h-7.164V.567h7.164V2zm-10.03 0h-7.164V.567h7.164V2zm-10.03 0h-7.164V.567h7.174L110.59 2zm-10.03 0H93.4V.567h7.164L100.56 2zM90.53 2h-7.164V.567h7.164V2zM80.5 2h-7.164V.567H80.5V2zM70.47 2h-7.164V.567h7.164V2zM60.44 2h-7.164V.567h7.164V2zm156.216 28.656h-1.433v-7.164h1.433v7.164zm0-10.03h-1.433v-7.164h1.433v7.164zm0-10.03h-1.433V3.432h1.433v7.164zm-82.125 20.06H133.1v-7.164h1.433l-.002 7.164zm0-10.03H133.1v-7.164h1.433l-.002 7.164zm0-10.03H133.1V3.432h1.433l-.002 7.164z" fill="#0DCECE"/><path d="M286.288 165.023h-1.735v-1.433h1.735c1.697 0 3.367-.43 4.853-1.249l.694 1.254a11.486 11.486 0 0 1-5.547 1.428zm-4.6 0h-7.164v-1.433h7.164v1.433zm-10.03 0h-7.164v-1.433h7.164v1.433zm-10.03 0h-7.164v-1.433h7.164v1.433zm-10.03 0h-7.164v-1.433h7.166l-.002 1.433zm-10.03 0H234.4v-1.433h7.164l.004 1.433zm-10.03 0h-7.164v-1.433h7.164v1.433zm-10.03 0h-7.164v-1.433h7.164v1.433zm-10.03 0h-7.164v-1.433h7.164v1.433zm-10.03 0h-7.164v-1.433h7.164v1.433zm-10.03 0h-7.164v-1.433h7.164v1.433zm-10.03 0h-7.164v-1.433h7.164v1.433zm-10.03 0H164.2v-1.433h7.164l-.006 1.433zm-10.03 0h-7.164v-1.433h7.164v1.433zm-10.03 0h-7.164v-1.433h7.166l-.002 1.433zm-10.03 0h-7.164v-1.433h7.164v1.433zm-10.03 0h-7.164v-1.433h7.164v1.433zm-10.03 0h-7.164v-1.433h7.164v1.433zm-10.03 0h-7.164v-1.433h7.164v1.433zm-10.03 0h-7.164v-1.433h7.164v1.433zm193.13-3.244l-1-1.027a10.064 10.064 0 0 0 2.954-5.858l1.42.189a11.5 11.5 0 0 1-3.371 6.695l-.003.001zm3.477-9.651h-1.433v-7.164h1.433v7.164zm0-10.03h-1.433v-7.164h1.433v7.164zm-80.513 20.059h-1.433v-7.164h1.433v7.164zm0-10.03h-1.433v-7.164h1.433v7.164zm0-10.03h-1.433v-7.164h1.433v7.164zm-82.124 20.06h-1.433v-7.164h1.433v7.164zm0-10.03h-1.433v-7.164h1.433v7.164zm0-10.03h-1.433v-7.164h1.433v7.164z" fill="#E27D0E"/><path fill="#E27D0E" d="M212.349 140.469l-1.125-.887 4.98-6.323 5.578 5.827-1.035.99-4.438-4.635zm-82.125 0l-1.125-.887 4.981-6.323 5.578 5.827-1.035.99-4.438-4.635z"/><path fill="#0DCECE" d="M34.039 99.435l-5.579-5.827 1.036-.991 4.438 4.636 3.96-5.028 1.125.887z"/></g></svg>