<svg width="846" height="608" viewBox="0 0 846 608" xmlns="http://www.w3.org/2000/svg"><title>fast-pipes</title><g fill="none" fill-rule="evenodd"><g fill-rule="nonzero"><path d="M844.5 346.4v19l-420 241.3v-19z" stroke="#D0D4E8" fill="#F1F5FF"/><path d="M845.1 346.4L425.4 587.7 1.4 343l420-241.3z" stroke="#D0D4E8" fill="#FFF"/><path d="M578.8 201.1l-121.4 70.6-154.5-88.9 121.5-70.6zm-40.2 137.2l140.6-81 141 82.8-140.5 81zm-228.1-33.1l-175 100-106-60.4 175-100zm231.3 152L384 549.1l-88.2-51.3 157.5-91.9z" fill="#BFF4EB" opacity=".4"/><path d="M424.5 587.7v19L.5 362v-19z" stroke="#D0D4E8" fill="#FBFCFF"/></g><path d="M683.4 439.3L261.2 197l-7 4.1 422.4 242.1zm-54.6 31.3l-370-211.8-6.8 4.2 370 211.5z" fill-rule="nonzero" fill="#EAECF2"/><g fill-rule="nonzero"><path d="M441.9 308.5l175.9-100.9 48.4 27.6L490.1 336z" fill="#CCCFE0"/><path d="M478.5 316.9c.4.2.9.2 1.3 0l19.4-10.9c.8-.5.8-1.6 0-2.1-.4-.2-.9-.2-1.3 0l-19.4 10.9c-.8.5-.8 1.7 0 2.1zm53.7-30.6c.4.2.9.2 1.3 0l20.3-11.4c.9-.5.9-1.7 0-2.2-.4-.2-.9-.2-1.3 0l-20.3 11.4c-.9.5-.9 1.7 0 2.2zm53.6-30.6c.4.2 1 .3 1.4 0l21.2-11.9c.9-.5.9-1.8 0-2.3-.4-.2-1-.3-1.4 0l-21.2 11.9c-.9.5-.9 1.8 0 2.3zm53.7-30.6c.4.3 1 .3 1.4 0l22-12.4c.9-.5 1-1.9 0-2.4-.4-.3-1-.3-1.4 0l-22 12.4c-.9.5-.9 1.8 0 2.4zm53.6-30.7c.5.3 1 .3 1.5 0l22.9-12.9c1-.6 1-1.9 0-2.5-.5-.3-1-.3-1.5 0l-22.9 12.9c-.9.6-.9 2 0 2.5zm53.7-30.6c.5.3 1.1.3 1.5 0l23.8-13.4c1-.6 1-2 0-2.6-.5-.3-1.1-.3-1.5 0l-23.8 13.4c-1 .6-1 2 0 2.6z" fill="#FBFCFF"/></g><path d="M724.1 210.9L499.4 338.8l-7-4.1 225-127.7z" fill-rule="nonzero" fill="#EAECF2"/><path stroke="#00D5D6" stroke-width="2" stroke-linecap="round" stroke-linejoin="bevel" d="M388.4 216.2l-25.5 14L545 336l-11.2 5.4"/><path d="M672.5 177.1L447.8 304.9l-7-4.1 225-127.6z" fill-rule="nonzero" fill="#EAECF2"/><path d="M204.8 227.8l423.8 242.7 48.4-27.6-424.3-242.7z" fill-rule="nonzero" fill="#CCCFE0"/><path d="M604.6 383.2l-182-107.6c-3-1.8-6.8-1.8-9.9 0l-110.9 65.3-43-24.3" stroke="#00D5D6" stroke-width="2" stroke-linecap="round" stroke-linejoin="bevel"/><path d="M239.1 218c.4-.2.8-.2 1.2 0l17.9 10.1c.8.4.8 1.5 0 2-.4.2-.8.2-1.2 0L239.1 220c-.7-.5-.7-1.6 0-2zm54.2 30.9c.4-.2.8-.2 1.2 0l18 10.1c.8.4.8 1.5 0 2-.4.2-.8.2-1.2 0l-18-10.1c-.8-.4-.8-1.5 0-2zm54.1 31c.4-.2.8-.2 1.2 0l18 10.1c.8.4.8 1.5 0 2-.4.2-.8.2-1.2 0l-18-10.1c-.8-.5-.8-1.6 0-2zm54.1 30.9c.4-.2.8-.2 1.2 0l18.1 10.2c.8.4.8 1.5 0 2-.4.2-.8.2-1.2 0l-18.1-10.2c-.7-.4-.7-1.5 0-2zm54.2 31c.4-.2.8-.2 1.2 0L475 352c.8.4.8 1.5 0 2-.4.2-.8.2-1.2 0l-18.1-10.2c-.8-.4-.8-1.5 0-2zm54.1 31c.4-.2.8-.2 1.2 0l18.2 10.2c.8.4.8 1.5 0 2-.4.2-.8.2-1.2 0l-18.2-10.2c-.8-.5-.8-1.6 0-2zm54.1 30.9c.4-.2.8-.2 1.2 0l18.2 10.2c.8.4.8 1.5 0 2-.4.2-.8.2-1.2 0l-18.2-10.2c-.7-.4-.7-1.5 0-2zm54.2 31c.4-.2.8-.2 1.2 0l18.3 10.3c.8.4.8 1.6 0 2-.4.2-.8.2-1.2 0l-18.3-10.3c-.8-.4-.8-1.6 0-2z" fill-rule="nonzero" fill="#FBFCFF"/><path d="M275.3 40.8l-68.2 39.6-68.4-39.6 68.2-39.5z" fill-rule="nonzero" fill="#FFF"/><path fill="#F1F5FF" fill-rule="nonzero" d="M275 40.8v265.8l-68 39.6V80.4z"/><path d="M257.5 81v190" stroke="#00D5D6" fill="#FFF" fill-rule="nonzero" stroke-linejoin="bevel"/><g fill-rule="nonzero"><path stroke="#D0D4E8" fill="#FFF" stroke-linejoin="round" d="M211.5 129.1l26-15V70.7l-26 15z"/><path stroke="#00D5D6" fill="#ABF8F3" stroke-linejoin="round" d="M244.5 109.9l26-14.9V51.5l-26 15z"/><path stroke="#00D5D6" fill="#00D5D6" stroke-linejoin="bevel" d="M211.5 179.1l26-15v-43.4l-26 15z"/><path stroke="#D0D4E8" fill="#FFF" stroke-linejoin="round" d="M244.5 159.9l26-14.9v-43.5l-26 15zm-33 71.2l26-15v-43.4l-26 15zm33-19.2l26-14.9v-43.5l-26 15z"/><path stroke="#00D5D6" fill="#ABF8F3" stroke-linejoin="round" d="M211.5 282.1l26-15v-43.4l-26 15z"/><path stroke="#D0D4E8" fill="#FFF" stroke-linejoin="round" d="M244.5 262.9l26-14.9v-43.5l-26 15zm-33 70.2l26-15v-43.4l-26 15z"/><path stroke="#00D5D6" fill="#ABF8F3" stroke-linejoin="round" d="M244.5 313.9l26-14.9v-43.5l-26 15z"/></g><path d="M226 171v60" stroke="#00D5D6" stroke-width="2" stroke-linecap="round" stroke-linejoin="bevel"/><path d="M207 80.4v265.8l-69-39.6V40.8z" fill-rule="nonzero" fill="#FBFCFF"/><path stroke="#D0D4E8" stroke-linejoin="bevel" d="M138.5 40.8l68 39.6v265.8l-68-39.6zm68 39.6l68-39.6v265.8l-68 39.6z"/><path stroke="#D0D4E8" stroke-linejoin="bevel" d="M206.9 1.3l-68.2 39.5 68.4 39.6 68.2-39.6z"/><path d="M232.6 133.9c-1 .6-2 1.5-3 2.8-1 1.3-1.9 2.8-2.6 4.6-.8 1.8-1.3 3.4-1.5 4.8 0 .3-2.1 1.8-3.9 3-.2.2-.3.3-.3.5s.1.3.2.2l3.2-1.9c.2-.1.3-.1.3.1v.1l-.4 2.1v.1c0 .3-2.1 1.8-3.8 3-.2.2-.3.3-.3.5s.1.3.2.2l3.2-1.9c.2-.1.3-.1.3.1v.1l-1.2 6.3c-.3 1.6-.6 2.6-.9 3.2-.3.6-.7 1-1.2 1.3-.3.2-.7.2-1.1.1-.4-.1-.8-.1-1.1.1-.7.4-1.1 1-1.1 1.7 0 .4.2.6.6.7.4.1.9-.1 1.5-.4.7-.4 1.5-1.2 2.3-2.3.8-1.1 1.5-2.4 2.1-3.9.6-1.5 1.1-3.1 1.4-4.9l.7-3.4 4.1-2.3c.1-.1.2-.2.3-.4.1-.2.1-.4.1-.6v-.3h-.2s-1.3.7-2.5 1.4l-1.5.9.7-3.1 4.1-2.3c.1-.1.2-.2.3-.4.1-.2.1-.4.1-.6v-.3h-.2l-4 2.3c.1-.4.2-1 .3-1.7.4-2.1.7-3.5.9-4.2.2-.7.5-1.3.9-1.7.4-.5.8-.8 1.4-1.2.3-.2.7-.2 1.1-.2.4.1.8 0 1.1-.2.4-.2.7-.5.9-.9.3-.4.4-.8.4-1.2 0-.6-.6-.6-1.9.1" fill="#FFF" fill-rule="nonzero"/><path fill="#F1F5FF" fill-rule="nonzero" d="M200 83.7v265.8l-68 39.6V123.3z"/><g fill-rule="nonzero"><path fill="#FFF" d="M200.8 83.7l-68 39.6-68.5-39.6 68.4-39.5z"/><path d="M144.5 368l19-11.5V121l-19 11.5zm27-15.3l19-11.5V105.7l-19 11.5z" stroke="#00D5D6" fill="#ABF8F3" stroke-linejoin="round"/><path fill="#FBFCFC" d="M132 123.3v265.8l-68-39.6V83.7z"/><path fill="#FBFCFF" d="M132.7 49.8v5.7l53.6 31.1 5.1-2.9z"/></g><path stroke="#D0D4E8" stroke-linejoin="bevel" d="M132.5 123.3v265.8l-69-39.6V83.7zm.2-79.1L64.3 83.7l68.5 39.6 68-39.6z"/><path stroke="#D0D4E8" stroke-linejoin="bevel" d="M200.5 349.5V83.7l-68 39.6v265.8z"/><path d="M569.9 102.6l110.3 64.2 111.3-64.2-110.7-64.2z" stroke-width="2" stroke="#D0D4E8" stroke-linejoin="bevel"/><g fill-rule="nonzero"><path fill="#FBFCFC" d="M569 102.6v237.6l111 64.2V166.8z"/><path stroke="#D0D4E8" fill="#FFF" stroke-linejoin="round" d="M665.5 319.3v63.9l-34-19.7v-63.9z"/><path stroke="#00D5D6" fill="#00D5D6" stroke-linejoin="bevel" d="M664.5 247v63.9l-33-19.6v-63.9z"/><path stroke="#D0D4E8" fill="#FFF" stroke-linejoin="round" d="M664.5 174.8v63.9l-33-19.7v-63.9zm-47.7 115.8v63.9l-34.3-19.7v-63.9z"/><path stroke="#00D5D6" fill="#00D5D6" stroke-linejoin="bevel" d="M616.5 218.4l.1 63.9-34.1-19.7v-63.9z"/><path stroke="#D0D4E8" fill="#FFF" stroke-linejoin="round" d="M616.5 146.1V210l-34-19.6v-63.9z"/></g><path d="M680 166.8v237.6l111-64.2V102.6z" fill-rule="nonzero" fill="#F1F5FF"/><path fill="#FFF" fill-rule="nonzero" d="M791.5 102.6l-111.3 64.2-110.3-64.2 110.9-64.2z"/><path stroke="#D0D4E8" stroke-linejoin="bevel" d="M679.5 166.8v237.6l112-64.2V102.6z"/><path stroke="#D0D4E8" stroke-linejoin="bevel" d="M680 166.8l-110.5-64.2v237.6l110.4 64.2"/><path d="M517.8 310.4l-135.2 78.5-61.8-35.7L456 274.8z" fill-rule="nonzero" fill="#FFF"/><g fill-rule="nonzero"><path fill="#F1F5FF" d="M517 310.4v145.8l-135 78.4V388.9z"/><path d="M400.6 452.5l99.5-57.4M465.5 461v-48" stroke="#00D5D6" fill="#FFF" stroke-linejoin="bevel"/><g stroke-linejoin="round"><path stroke="#D0D4E8" fill="#FFF" d="M483.5 460.9l25-14.3v-30.8l-25 14.4z"/><path stroke="#00D5D6" fill="#ABF8F3" d="M452.5 479.2l25-14.4v-30.7l-25 14.4z"/><path stroke="#D0D4E8" fill="#FFF" d="M422.5 496.4l25-14.4v-30.7l-25 14.4zm-31 17.3l25-14.4v-30.7l-25 14.3z"/><path stroke="#00D5D6" fill="#ABF8F3" d="M483.5 417.4l25-14.4v-30.7l-25 14.4zm-31 18.2l25-14.3v-30.8l-25 14.4zm-30 17.3l25-14.4v-30.7l-25 14.4zm-31 17.2l25-14.4V425l-25 14.4z"/><path stroke="#D0D4E8" fill="#FFF" d="M483.5 373.8l25-14.3v-30.8l-25 14.4zm-31 18.3l25-14.4V347l-25 14.4zm-30 17.2l25-14.4v-30.7l-25 14.4zm-31 17.3l25-14.4v-30.7l-25 14.3z"/></g></g><path d="M382 388.9v145.7L320 499V353.2z" fill-rule="nonzero" fill="#FBFCFC"/><path stroke="#D0D4E8" stroke-linejoin="round" d="M382.5 388.9v145.7l135-78.4V310.4z"/><path stroke="#D0D4E8" stroke-linejoin="bevel" d="M320.8 353.2L456 274.8l61.8 35.6-135.2 78.5zm-.3.8v145l61.6 36"/><path fill="#FBFCFF" fill-rule="nonzero" d="M456.1 278.7v3.9l51.7 29.6 3.1-1.8z"/><g fill-rule="nonzero"><path fill="#00D5D6" d="M588 300.9v53l-17.8-10.5-2.4 3.6-2.5 3.6-2.5-6.6-2.7-6.4-18.1-10.5V274z"/><path d="M566.1 300.2c-7.4-4.3-13.4-1.1-13.5 7.2-.1 8.3 5.9 18.5 13.2 22.8 7.4 4.3 13.4 1.1 13.5-7.2.1-8.3-5.8-18.5-13.2-22.8" fill="#FFF"/><path fill="#00D5D6" d="M563 309v10.1l8.3-.7-8.2-9.7"/></g><path d="M307.3 337.2l-75.8 44.4c-4.3 2.5-9.6 2.5-13.9-.1l-35.1-21.3v-13.5" stroke="#00D5D6" stroke-width="2" stroke-linecap="round" stroke-linejoin="bevel"/><path d="M230.3 380c-2.5-1.5-6.7-1.5-9.2 0-2.5 1.5-2.5 3.8 0 5.3s6.7 1.5 9.2 0c2.5-1.5 2.5-3.9 0-5.3" fill-rule="nonzero" fill="#00D5D6"/><path d="M536.6 161.3l-85.9 49.9-124.6-71.8 86-49.9z" fill-rule="nonzero" fill="#FFF"/><path d="M536 161.3v40.9l-86 49.9v-40.9z" fill-rule="nonzero" fill="#F1F5FF"/><g fill-rule="nonzero"><path fill="#FBFCFC" d="M450 211.2v40.9l-124-71.8v-40.9z"/><path d="M386.3 196.2L352.8 176" stroke="#00D5D6" fill="#FFF" stroke-linejoin="bevel"/><g stroke-linejoin="round"><path stroke="#D0D4E8" fill="#FFF" d="M430.5 230.9l12 7.1v-20.6l-12-7zm-17-9.6l12 7v-20.5l-12-7.1v20.6"/><path stroke="#00D5D6" fill="#ABF8F3" d="M363.5 192.3l12 7v-20.5l-12-7.1zm-17-9.7l12 7v-20.5l-12-7z"/><path stroke="#D0D4E8" fill="#FFF" d="M329.5 172.9l12 7v-20.5l-12-7z"/></g></g><path stroke="#D0D4E8" stroke-linejoin="bevel" d="M450.5 212v40.1l-125-71.8v-40.9l124.9 71.8 86.1-49.9-124.6-71.5M536.5 162v40.2l-85.9 50.3"/><path stroke="#D0D4E8" fill="#FFF" fill-rule="nonzero" stroke-linejoin="round" d="M469.5 231.2l-12 7v-20.5l12-7zm60-35l-12 7.1v-20.6l12-7z"/><path d="M536.6 120.4l-85.9 49.9-124.6-71.8 86-49.9z" fill-rule="nonzero" fill="#FFF"/><path d="M536 120.4v40.9l-86 49.9v-40.9z" fill-rule="nonzero" fill="#F1F5FF"/><g fill-rule="nonzero"><path fill="#FBFCFC" d="M450 170.3v40.9l-124-71.8V98.5z"/><g stroke-linejoin="round"><path stroke="#D0D4E8" fill="#FFF" d="M430.5 190l12 7.1v-20.6l-12-7zm-17-9.6l12 7v-20.5l-12-7.1zm-17-9.7l12 7v-20.5l-12-7zm-17-9.7l12 7v-20.5l-12-7z"/><path stroke="#00D5D6" fill="#ABF8F3" d="M363.5 151.4l12 7v-20.5l-12-7.1zm-17-9.7l12 7v-20.5l-12-7z"/><path stroke="#D0D4E8" fill="#FFF" d="M329.5 132l12 7v-20.5l-12-7z"/></g></g><path stroke="#D0D4E8" stroke-linejoin="bevel" d="M450.5 171v40.2l-125-71.8V98.5l124.9 71.8 86.1-49.9-124.6-71.5"/><path d="M352.5 146v21" stroke="#00D5D6" fill="#FFF" fill-rule="nonzero" stroke-linejoin="bevel"/><path stroke="#D0D4E8" stroke-linejoin="bevel" d="M536.5 121v40.3l-85.9 50.2"/><path d="M469.5 190.3l-12 7v-20.5l12-7zm20-11.7l-12 7.1v-20.6l12-7zm20-11.6l-12 7v-20.5l12-7zm20-11.7l-12 7.1v-20.6l12-7z" stroke="#D0D4E8" fill-rule="nonzero" fill="#FFF" stroke-linejoin="round"/><path d="M368.5 155v20" stroke="#00D5D6" fill="#FFF" fill-rule="nonzero" stroke-linejoin="bevel"/><path stroke="#D0D4E8" fill="#CCCFE0" fill-rule="nonzero" d="M477.5 212v24.5l34-19.8v-25.2l-34 20"/><g fill-rule="nonzero"><path d="M499.9 224.8l-4.4 2.5-4.4-2.5 4.4-.6z" fill="#00B8B8"/><path d="M499 224.8v21.5l-4 2.5v-21.5z" fill="#F1F5FF"/><path d="M495 227.3v21.5l-4.3-2.5v-21.5z" fill="#FBFCFC"/><path d="M529.7 207.5l-4.5 2.5-4.3-2.5 4.4-.6z" fill="#00B8B8"/><path d="M529 207.5V229l-4 2.5V210z" fill="#F1F5FF"/><path d="M525 210v21.5l-5-2.5v-21.5z" fill="#FBFCFC"/><path d="M529.7 199.8l-34.2 19.8-17.9-10.3 34.1-19.8z" fill="#FFF"/><path d="M529 199.8v7.8l-34 19.8v-7.8z" fill="#F1F5FF"/><path d="M495 219.6v7.8L477 217v-7.7z" fill="#FBFCFC"/></g><path stroke="#D0D4E8" stroke-linejoin="bevel" d="M477.5 209.3v7.7l13 7.8v21.5l4 2.5v-29.2zm.1 0l34.1-19.8 18 10.3-34.2 19.8"/><path stroke="#D0D4E8" stroke-linejoin="round" d="M529.5 200v29l-5 2.5V210l-25 14.8v21.5l-5.1 3.1"/><path stroke="#D0D4E8" stroke-linejoin="bevel" d="M524.7 231.7l-4.2-2.7v-16M326.1 98.4l86-49.9"/><g fill-rule="nonzero"><path fill="#00D5D6" d="M250 290.6v57.9l-19.6 11.4-2.7 7-2.7 7.2-2.8-4-3.2-3.8-20 11.3v-57.9z"/><path d="M222.4 342.6V331l8.8.6-8.8 11m2.8-24c-8.1 4.7-14.6 15.8-14.6 24.8 0 9.1 6.6 12.6 14.7 7.9 8.1-4.7 14.6-15.8 14.6-24.8s-6.6-12.5-14.7-7.9" fill="#FFF"/><path fill="#00D5D6" d="M222 331v11.6l9.1-11.1-9-.4"/></g><path d="M658.7 256c-1.7-1-3.3-1.3-4.9-1-1.6.3-3 1.1-4.3 2.5-1.3 1.4-2.1 3-2.5 4.9-.1.5-3.5-1.1-6.3-2.3-.3-.1-.5 0-.5.2 0 .4.1.6.4.8l5.3 3c.3.2.4.4.4.6v.1l-.7 2.7v.1c-.1.5-3.4-1-6.2-2.3-.3-.1-.5 0-.5.2 0 .4.1.6.4.8l5.3 3c.3.2.4.4.4.6v.1l-1.9 8c-.5 2-.9 3.2-1.4 3.6-.5.4-1.1.4-2-.1-.5-.3-1.1-.9-1.8-2-.7-1-1.3-1.7-1.8-2-1.2-.7-1.8-.4-1.8.8 0 .7.3 1.4 1 2.3.7.9 1.5 1.6 2.5 2.2 1.2.7 2.4.9 3.7.6 1.3-.3 2.4-1.1 3.4-2.4 1-1.3 1.8-3 2.4-5.2l1.2-4.2 6.7 3.9c.2.1.3.1.4-.1.1-.2.2-.4.2-.7 0-.3 0-.5-.1-.6 0-.1-.1-.2-.3-.3 0 0-2-1.2-4.1-2.4-.8-.5-1.7-1-2.4-1.4l1.1-3.8 6.6 3.9c.2.1.3.1.4-.1.1-.2.2-.4.2-.7 0-.3 0-.5-.1-.6 0-.1-.1-.2-.3-.3l-6.6-3.8c.1-.5.3-1.2.5-2.1.7-2.6 1.2-4.3 1.6-5 .4-.7.9-1.1 1.5-1.2.6-.1 1.3.2 2.2.7.5.3 1.1.9 1.8 1.8s1.3 1.5 1.7 1.7c.6.3 1.1.4 1.5.2.4-.2.6-.6.6-1.2.3-1-.8-2.3-2.9-3.5m-47.9-29.1c-1.7-1-3.3-1.3-4.9-1-1.6.3-3 1.1-4.3 2.5-1.3 1.4-2.1 3-2.5 4.9-.1.5-3.5-1.1-6.3-2.3-.3-.1-.5 0-.5.2 0 .4.1.6.4.8l5.3 3c.3.2.4.4.4.6v.1l-.7 2.7v.1c-.1.5-3.4-1-6.2-2.3-.3-.1-.5 0-.5.2 0 .4.1.6.4.8l5.3 3c.3.2.4.4.4.6v.1l-1.9 8c-.5 2-.9 3.2-1.4 3.6-.5.4-1.1.4-2-.1-.5-.3-1.1-.9-1.8-2-.7-1-1.3-1.7-1.8-2-1.2-.7-1.8-.4-1.8.8 0 .7.3 1.4 1 2.3.7.9 1.5 1.6 2.5 2.2 1.2.7 2.4.9 3.7.6 1.3-.3 2.4-1.1 3.4-2.4 1-1.3 1.8-3 2.4-5.2l1.2-4.2 6.7 3.9c.2.1.3.1.4-.1.1-.2.2-.4.2-.7 0-.3 0-.5-.1-.6 0-.1-.1-.2-.3-.3 0 0-2-1.2-4.1-2.4-.8-.5-1.7-1-2.4-1.4l1.1-3.8 6.6 3.9c.2.1.3.1.4-.1.1-.2.2-.4.2-.7 0-.3 0-.5-.1-.6 0-.1-.1-.2-.3-.3l-6.6-3.8c.1-.5.3-1.2.5-2.1.7-2.6 1.2-4.3 1.6-5 .4-.7.9-1.1 1.5-1.2.6-.1 1.3.2 2.2.7.5.3 1.1.9 1.8 1.8s1.3 1.5 1.7 1.7c.6.3 1.1.4 1.5.2.4-.2.6-.6.6-1.2.3-1-.8-2.3-2.9-3.5" fill-rule="nonzero" fill="#FFF"/><path d="M631.4 260l-7.4-5.4v117.8l-19.9 10.7 47.1 25.6c2.8 1.6 2.8 5.6.1 7.2l-143.4 84.9c-4.1 2.4-9.2 2.4-13.3 0l-27.6-16V472" stroke="#00D5D6" stroke-width="2" stroke-linecap="round" stroke-linejoin="bevel"/><path d="M568.9 357c-2.1-1.2-5.4-1.2-7.5 0-2.1 1.2-2 3.1 0 4.3 2.1 1.2 5.4 1.2 7.5 0 2.1-1.2 2.1-3.1 0-4.3" fill-rule="nonzero" fill="#00D5D6"/><g fill-rule="nonzero"><path fill="#00D5D6" d="M592 405.4v55.8l-18.5-11-2.4 3.8-2.6 3.8-2.6-6.9-2.8-6.8-19.1-10.9v-55.8z"/><path d="M561.5 424.6c-.6-.3-1.1-1.2-1.1-1.8 0-.7.5-.9 1.1-.6l10.3 5.9c.6.3 1.1 1.2 1.1 1.8 0 .7-.5.9-1.1.6l-10.3-5.9m0-5.7c-.6-.3-1.1-1.2-1.1-1.8 0-.7.5-.9 1.1-.6l12.4 7.1c.6.3 1.1 1.2 1.1 1.8 0 .7-.5.9-1.1.6l-12.4-7.1m.1-5.7c-.6-.3-1.1-1.2-1.1-1.8 0-.7.5-.9 1.1-.6l8.9 5.1c.6.3 1.1 1.2 1.1 1.8 0 .7-.5.9-1.1.6l-8.9-5.1m0-5.7c-.6-.3-1.1-1.2-1.1-1.8 0-.7.5-.9 1.1-.6l14.5 8.4c.6.3 1.1 1.2 1.1 1.8 0 .7-.5.9-1.1.6l-14.5-8.4m17.4 2.9l-20.4-11.7c-.8-.5-1.6-.1-1.6.8v26.1c0 .9.7 2 1.5 2.4l20.4 11.7c.8.5 1.4.1 1.4-.8l.1-26.1c0-.8-.6-1.9-1.4-2.4" fill="#FFF"/></g><path d="M571.2 464c-2.5-1.5-6.6-1.5-9.2 0-2.5 1.5-2.5 3.8 0 5.3s6.6 1.5 9.2 0c2.5-1.4 2.5-3.8 0-5.3" fill-rule="nonzero" fill="#00D5D6"/><path d="M624.3 254.6l-7.4-4.7" stroke="#00D5D6" stroke-width="2" stroke-linejoin="bevel"/><path d="M608.3 381c-2.1-1.2-5.4-1.2-7.5 0-2.1 1.2-2 3.1 0 4.3 2.1 1.2 5.4 1.2 7.5 0 2.1-1.1 2-3.1 0-4.3m-69.7-41.8c-2.1-1.2-5.4-1.2-7.5 0-2.1 1.2-2 3.1 0 4.3 2.1 1.2 5.4 1.2 7.5 0 2.1-1.1 2.1-3.1 0-4.3" fill-rule="nonzero" fill="#00D5D6"/><path d="M388.4 216.2v-8.6" stroke="#00D5D6" stroke-width="2" stroke-linecap="round" stroke-linejoin="bevel"/><path d="M306.5 337.7c-2.5-1.5-6.7-1.5-9.2 0-2.5 1.5-2.5 3.8 0 5.3s6.7 1.5 9.2 0c2.5-1.4 2.5-3.8 0-5.3" fill-rule="nonzero" fill="#00D5D6"/><path d="M258 317v-10" stroke="#00D5D6" stroke-width="2" stroke-linecap="round" stroke-linejoin="bevel"/><path d="M398.6 246.1c-2.5-1.4-6.5-1.4-8.9 0-2.5 1.4-2.4 3.7 0 5.2 2.5 1.4 6.5 1.4 8.9 0 2.5-1.5 2.5-3.8 0-5.2M370 159.2v54.4l18.7 10.7 2.7 6.6 2.6 6.7 2.7-3.7 2.2-3.6 18.1 10.6v-54.4z" fill-rule="nonzero" fill="#00D5D6"/><path d="M406.7 220.4l.1-24.1-28.8-16.6v24.1z"/><path d="M402 198.9l4.5 2.7v16.1c0 1.5-1 2.1-2.2 1.3-1.3-.7-2.2-2.5-2.2-4l-2-18.1" stroke="#FFF"/><path d="M401.1 199.9l-17.5-10.1c-.5-.3-.9-.9-.9-1.5 0-.5.4-.8.9-.5l17.5 10.1c.5.3.9.9.9 1.5-.1.6-.5.8-.9.5M380 182v21.3c0 1.4 1 3.1 2.2 3.8l22.4 12.7c-.5-.3.2-.8.2-1-.7-.5-.8-.5-.8-1.7v-21.5l-23.8-13.7" fill="#FFF" fill-rule="nonzero"/><path d="M383.5 187.8l17.5 10.1c.5.3.9.9.9 1.5 0 .5-.4.8-.9.5l-17.5-10.1c-.5-.3-.9-.9-.9-1.5.1-.6.5-.8.9-.5m0 7.2l17.5 10.1c.5.3.9.9.9 1.5 0 .5-.4.8-.9.5L383.5 197c-.5-.3-.9-.9-.9-1.5.1-.6.5-.8.9-.5m0 7.1l17.5 10.1c.5.3.9.9.9 1.5 0 .5-.4.8-.9.5l-17.5-10.1c-.5-.3-.9-.9-.9-1.5.1-.5.5-.7.9-.5" fill="#00D5D6" fill-rule="nonzero"/></g></svg>